<?xml version="1.0" encoding="utf-8"?>
<!-- Generator: Adobe Illustrator 19.0.0, SVG Export Plug-In . SVG Version: 6.00 Build 0)  -->
<svg version="1.1" id="Layer_1" xmlns="http://www.w3.org/2000/svg" xmlns:xlink="http://www.w3.org/1999/xlink" x="0px" y="0px"
	 viewBox="0 0 205.6 23.8" style="enable-background:new 0 0 205.6 23.8;" xml:space="preserve">
<style type="text/css">
	.st0{fill:#FFFFFF;}
</style>
<g id="XMLID_637_">
	<path id="XMLID_773_" class="st0" d="M8.9,6.2C9.1,4.8,9,3.7,8.4,2.9C7.9,2.1,7.1,1.7,6.1,1.6c-1-0.1-1.8,0-2.6,0.5
		C2.7,2.5,2.2,3.2,2.1,4.1c-0.2,1,0.2,2.1,1.1,3.3C3.4,7.8,3.7,8.1,4,8.4l0.8,0.9l1,1c0.5,0.5,0.8,0.8,0.9,1
		c0.6,0.6,1.1,1.1,1.5,1.6c0.4,0.5,0.8,1,1.3,1.7c0.5,0.7,0.8,1.3,1,1.9c0.2,0.6,0.3,1.3,0.3,2.1c0,0.8-0.1,1.5-0.4,2.3
		c-0.3,0.9-0.9,1.6-1.7,2.1c-0.8,0.5-1.6,0.8-2.5,1c-0.9,0.1-1.8,0-2.7-0.3c-0.9-0.3-1.6-0.8-2.1-1.5c-0.9-1.2-1.4-3.1-1.3-5.7
		c0-0.2,0.1-0.4,0.2-0.5c0.1-0.1,0.3-0.2,0.5-0.2s0.4,0.1,0.5,0.2c0.1,0.1,0.2,0.3,0.2,0.5c0,2.3,0.3,3.9,1,4.8
		c0.4,0.5,0.9,0.8,1.5,1.1c0.6,0.2,1.3,0.3,2,0.2c0.7-0.1,1.3-0.3,1.9-0.7c0.5-0.4,0.9-0.9,1.2-1.4c0.2-0.6,0.4-1.2,0.3-1.8
		c0-0.6-0.1-1.1-0.3-1.6c-0.2-0.5-0.4-1-0.8-1.6c-0.4-0.6-0.8-1.1-1.1-1.5l-1.5-1.6l-0.9-0.9l-1-1L2.9,9.3c-0.3-0.4-0.6-0.7-0.8-1
		c-1.2-1.6-1.6-3-1.4-4.4c0.2-1.3,0.9-2.3,2-3C3.9,0.2,5.1,0,6.3,0.2C7.7,0.4,8.7,1,9.5,2.1c0.8,1.1,1,2.5,0.8,4.3
		c0,0.2-0.1,0.3-0.3,0.4C9.8,6.9,9.7,7,9.5,6.9C9.3,6.9,9.2,6.8,9,6.7C8.9,6.5,8.9,6.3,8.9,6.2z"/>
	<path id="XMLID_771_" class="st0" d="M14.6,7.6c0,0.2,0,0.8-0.1,1.6l-0.2,2c-0.1,2-0.2,3.8-0.1,5.3c0.1,2,0.3,3.5,0.7,4.6
		c0.4,1,1,1.6,1.7,1.5c0.6,0,1.2-0.4,1.7-1.1c0.5-0.7,0.9-1.6,1.3-2.8c0.6-1.8,0.9-3.9,1.1-6c0-0.4,0.1-1.1,0.1-1.9
		c0-0.8,0-1.5,0.1-1.8c0-0.1,0-0.2,0-0.4c0-0.2,0-0.4,0-0.4c0-0.2,0-0.3,0-0.3V7.7c0-0.1,0-0.1,0.1-0.2c0.2-0.2,0.4-0.4,0.5-0.4
		c0.3,0,0.5,0.1,0.6,0.3l0.1,0.2v0.1v0.1c0.1,1.8,0.1,4.4,0.2,7.9c0,3.4,0.1,5.9,0.1,7.5c0,0.2-0.1,0.4-0.2,0.5
		c-0.1,0.1-0.3,0.2-0.5,0.2s-0.4-0.1-0.5-0.2c-0.1-0.1-0.2-0.3-0.2-0.5c0-1.3-0.1-2.9-0.1-4.7c0,0.2-0.1,0.4-0.2,0.6
		c-0.4,1.3-0.9,2.4-1.5,3.2c-0.8,1-1.7,1.6-2.7,1.6c-1.4,0.1-2.4-0.7-3-2.4c-0.5-1.2-0.7-2.9-0.8-5c0-1.5,0-3.3,0.1-5.4l0.2-2
		c0.1-0.8,0.1-1.4,0.1-1.6c0-0.2,0.1-0.3,0.2-0.5c0.1-0.1,0.3-0.2,0.5-0.2c0.2,0,0.3,0.1,0.5,0.2C14.5,7.2,14.6,7.4,14.6,7.6z"/>
	<path id="XMLID_768_" class="st0" d="M25.8,22.5v0.6c0,0.2-0.1,0.3-0.2,0.5c-0.1,0.1-0.3,0.2-0.5,0.2c-0.2,0-0.3-0.1-0.5-0.2
		c-0.1-0.1-0.2-0.3-0.2-0.5V0.7c0-0.2,0.1-0.3,0.2-0.5C24.8,0.1,25,0,25.2,0c0.2,0,0.3,0.1,0.5,0.2c0.1,0.1,0.2,0.3,0.2,0.5v9
		C26.4,8.7,27,8,27.7,7.6c0.7-0.5,1.5-0.6,2.4-0.6c1.5,0.1,2.7,1,3.6,2.5c0.9,1.6,1.4,3.6,1.3,6.1c0,1.3-0.3,2.6-0.7,4
		c-0.4,1.4-1.1,2.4-1.9,3.1c-1.1,0.9-2.3,1.3-3.4,1.2C27.7,23.8,26.7,23.4,25.8,22.5z M25.9,19.9c0.2,0.8,0.6,1.5,1.2,2
		c0.6,0.5,1.3,0.7,2.1,0.7c0.8,0,1.5-0.3,2.2-0.9c0.7-0.6,1.2-1.4,1.6-2.6c0.4-1.2,0.6-2.4,0.6-3.5c0.1-2.2-0.3-4-1-5.2
		c-0.8-1.2-1.6-1.9-2.6-2c-1-0.1-1.8,0.4-2.7,1.5C26.5,11,26,12.7,25.9,15c0,0.1,0,0.1,0,0.2v4.6C25.9,19.8,25.9,19.8,25.9,19.9z"/>
	<path id="XMLID_766_" class="st0" d="M39.1,12.5c2,0,3.5-0.1,4.6-0.2c0.2,0,0.3,0,0.5,0.2c0.1,0.1,0.2,0.3,0.3,0.5
		c0,0.2,0,0.3-0.2,0.5c-0.1,0.1-0.3,0.2-0.5,0.3c-1.1,0.1-2.7,0.2-4.7,0.2c-0.2,0-0.3-0.1-0.5-0.2c-0.1-0.1-0.2-0.3-0.2-0.5
		s0.1-0.3,0.2-0.5C38.7,12.6,38.9,12.5,39.1,12.5z"/>
	<path id="XMLID_764_" class="st0" d="M56.1,6.2c0.2-1.4,0.1-2.5-0.5-3.2c-0.6-0.8-1.3-1.2-2.3-1.4c-1-0.1-1.8,0-2.6,0.5
		c-0.8,0.5-1.3,1.2-1.4,2.1c-0.2,1,0.2,2.1,1.1,3.3c0.2,0.3,0.5,0.6,0.7,0.9L52,9.3l1,1c0.5,0.5,0.8,0.8,0.9,1
		c0.6,0.6,1.1,1.1,1.5,1.6c0.4,0.5,0.8,1,1.3,1.7c0.5,0.7,0.8,1.3,1,1.9c0.2,0.6,0.3,1.3,0.3,2.1c0,0.8-0.1,1.5-0.4,2.3
		c-0.3,0.9-0.9,1.6-1.7,2.1c-0.8,0.5-1.6,0.8-2.5,1c-0.9,0.1-1.8,0-2.7-0.3c-0.9-0.3-1.6-0.8-2.1-1.5c-0.9-1.2-1.4-3.1-1.3-5.7
		c0-0.2,0.1-0.4,0.2-0.5c0.1-0.1,0.3-0.2,0.5-0.2c0.2,0,0.4,0.1,0.5,0.2c0.1,0.1,0.2,0.3,0.2,0.5c0,2.3,0.3,3.9,1,4.8
		c0.4,0.5,0.9,0.8,1.5,1.1c0.6,0.2,1.3,0.3,2,0.2c0.7-0.1,1.3-0.3,1.9-0.7c0.5-0.4,0.9-0.9,1.2-1.4c0.2-0.6,0.4-1.2,0.3-1.8
		c0-0.6-0.1-1.1-0.3-1.6c-0.2-0.5-0.4-1-0.8-1.6c-0.4-0.6-0.8-1.1-1.1-1.5l-1.5-1.6L52,11.2l-1-1l-0.8-0.9c-0.3-0.4-0.6-0.7-0.8-1
		c-1.2-1.6-1.6-3-1.4-4.4c0.2-1.3,0.9-2.3,2-3c1.1-0.7,2.3-0.9,3.5-0.7c1.3,0.2,2.4,0.8,3.2,1.9c0.8,1.1,1,2.5,0.8,4.3
		c0,0.2-0.1,0.3-0.3,0.4C57,6.9,56.9,7,56.7,6.9c-0.2,0-0.3-0.1-0.4-0.3C56.1,6.5,56.1,6.3,56.1,6.2z"/>
	<path id="XMLID_758_" class="st0" d="M69.7,11.6v4.1c0,0.1,0,0.1,0,0.2c0,0.3,0,0.6,0,0.9c0,2.4,0.1,4.5,0.2,6.4
		c0,0.2-0.1,0.3-0.2,0.5c-0.1,0.1-0.3,0.2-0.5,0.2c-0.2,0-0.3-0.1-0.5-0.2c-0.1-0.1-0.2-0.3-0.2-0.5l-0.1-1.8c-1,1.6-2.3,2.4-4,2.4
		c-1.4,0-2.7-0.7-3.7-1.9c-1-1.3-1.6-2.9-1.6-4.9c0-4.1,1-7,3-8.8c0.8-0.7,1.6-1.1,2.5-1.3c0.9-0.2,1.8,0,2.5,0.3
		c0.7,0.3,1.2,0.8,1.7,1.4c0.4,0.6,0.7,1.4,0.8,2.2c0,0.1,0,0.1,0,0.2v0.3v0.1V11.6L69.7,11.6z M68.4,11.6L68.4,11.6v-0.1v-0.1v0
		c0-0.7-0.2-1.3-0.5-1.9c-0.3-0.5-0.7-0.9-1.2-1.1c-0.5-0.3-1-0.3-1.7-0.2c-0.7,0.1-1.3,0.4-1.9,1c-1.7,1.5-2.6,4.1-2.5,7.8
		c0,1.7,0.4,3,1.3,4c0.8,1,1.7,1.5,2.7,1.5c0.9,0,1.8-0.4,2.5-1.3c0.8-0.9,1.2-2.3,1.3-4.3V11.6z"/>
	<path id="XMLID_717_" class="st0" d="M73.5,14c0,3.4,0,6.4,0,9.2c0,0.2-0.1,0.3-0.2,0.5c-0.1,0.1-0.3,0.2-0.5,0.2
		c-0.2,0-0.3-0.1-0.5-0.2c-0.1-0.1-0.2-0.3-0.2-0.5c0-4.2,0.1-11.7,0.2-22.5c0-0.2,0.1-0.3,0.2-0.5C72.6,0.1,72.8,0,72.9,0
		c0.2,0,0.3,0.1,0.5,0.2c0.1,0.1,0.2,0.3,0.2,0.5c-0.1,5.7-0.1,8.9-0.1,9.6c0.7-1.1,1.6-2,2.5-2.6c1.1-0.7,2.2-0.9,3.2-0.5
		c1.1,0.4,2,1.4,2.7,2.9c0.5,1.2,0.8,3.4,0.9,6.6c0.1,2.2,0.1,4.4,0,6.7c0,0.2-0.1,0.3-0.2,0.5C82.5,24,82.3,24,82.2,24
		s-0.4-0.1-0.5-0.2s-0.2-0.3-0.2-0.5c0.1-2.4,0.1-4.6,0-6.6c-0.1-3-0.4-5-0.8-6.1c-0.5-1.2-1.1-1.9-1.9-2.2
		c-0.6-0.2-1.3-0.1-2.1,0.4c-0.8,0.5-1.5,1.2-2.1,2.1c-0.6,1-1,1.9-1.1,2.9C73.5,13.9,73.5,13.9,73.5,14z"/>
	<path id="XMLID_712_" class="st0" d="M94.8,11.6v4.1c0,0.1,0,0.1,0,0.2c0,0.3,0,0.6,0,0.9c0,2.4,0.1,4.5,0.2,6.4
		c0,0.2-0.1,0.3-0.2,0.5c-0.1,0.1-0.3,0.2-0.5,0.2c-0.2,0-0.3-0.1-0.5-0.2c-0.1-0.1-0.2-0.3-0.2-0.5l-0.1-1.8c-1,1.6-2.3,2.4-4,2.4
		c-1.4,0-2.7-0.7-3.7-1.9c-1-1.3-1.6-2.9-1.6-4.9c0-4.1,1-7,3-8.8C88,7.4,88.9,7,89.8,6.8c0.9-0.2,1.8,0,2.5,0.3
		C93,7.5,93.5,8,94,8.6c0.4,0.6,0.7,1.4,0.8,2.2c0,0.1,0,0.1,0,0.2v0.3v0.1V11.6L94.8,11.6z M93.4,11.6L93.4,11.6v-0.1v-0.1v0
		c0-0.7-0.2-1.3-0.5-1.9c-0.3-0.5-0.7-0.9-1.2-1.1c-0.5-0.3-1-0.3-1.7-0.2c-0.7,0.1-1.3,0.4-1.9,1c-1.7,1.5-2.6,4.1-2.5,7.8
		c0,1.7,0.4,3,1.3,4c0.8,1,1.7,1.5,2.7,1.5c0.9,0,1.8-0.4,2.5-1.3s1.2-2.3,1.3-4.3V11.6z"/>
	<path id="XMLID_710_" class="st0" d="M98.7,7.6c0,1.8,0,4.1,0,7c1.4-3.7,3.6-6.3,6.4-7.8c0.2-0.1,0.3-0.1,0.5,0
		c0.2,0.1,0.3,0.2,0.4,0.3s0.1,0.3,0,0.5c-0.1,0.2-0.2,0.3-0.3,0.4c-1.7,0.9-3.2,2.3-4.3,4.2s-1.9,3.9-2.3,6.2
		c-0.1,0.5-0.2,1.3-0.2,2.2c0,1.2,0,2-0.1,2.5c0,0,0,0.1,0,0.1c0,0,0,0.1-0.1,0.1c0,0.1-0.1,0.2-0.2,0.3c-0.1,0.1-0.3,0.1-0.4,0.1
		c-0.2,0-0.3-0.1-0.4-0.2c-0.1-0.1-0.2-0.1-0.2-0.2c0,0,0-0.1-0.1-0.2c0-0.1,0-0.2,0-0.4c0-0.3,0-0.5,0-0.8c0-0.5,0-1.2,0-2.1
		c0-0.9,0-1.6,0-2.1c-0.1-5.4-0.1-8.8-0.1-10.3c0-0.2,0.1-0.3,0.2-0.5C97.6,7,97.8,6.9,98,6.9c0.2,0,0.4,0.1,0.5,0.2
		C98.6,7.2,98.7,7.4,98.7,7.6z"/>
	<path id="XMLID_655_" class="st0" d="M117.9,11.6v4.1c0,0.1,0,0.1,0,0.2c0,0.3,0,0.6,0,0.9c0,2.4,0.1,4.5,0.2,6.4
		c0,0.2-0.1,0.3-0.2,0.5c-0.1,0.1-0.3,0.2-0.5,0.2c-0.2,0-0.3-0.1-0.5-0.2c-0.1-0.1-0.2-0.3-0.2-0.5l-0.1-1.8c-1,1.6-2.3,2.4-4,2.4
		c-1.4,0-2.7-0.7-3.7-1.9c-1-1.3-1.6-2.9-1.6-4.9c0-4.1,1-7,3-8.8c0.8-0.7,1.6-1.1,2.5-1.3c0.9-0.2,1.8,0,2.5,0.3
		c0.7,0.3,1.2,0.8,1.7,1.4c0.4,0.6,0.7,1.4,0.8,2.2c0,0.1,0,0.1,0,0.2v0.3v0.1V11.6L117.9,11.6z M116.6,11.6L116.6,11.6v-0.1v-0.1v0
		c0-0.7-0.2-1.3-0.5-1.9c-0.3-0.5-0.7-0.9-1.2-1.1c-0.5-0.3-1-0.3-1.7-0.2c-0.7,0.1-1.3,0.4-1.9,1c-1.7,1.5-2.6,4.1-2.5,7.8
		c0,1.7,0.4,3,1.3,4c0.8,1,1.7,1.5,2.7,1.5c0.9,0,1.8-0.4,2.5-1.3c0.8-0.9,1.2-2.3,1.3-4.3V11.6z"/>
	<path id="XMLID_653_" class="st0" d="M121.7,11.8v11.5c0,0.2-0.1,0.3-0.2,0.5c-0.1,0.1-0.3,0.2-0.5,0.2c-0.2,0-0.3-0.1-0.5-0.2
		c-0.1-0.1-0.2-0.3-0.2-0.5V7.6c0-0.2,0.1-0.3,0.2-0.5s0.3-0.2,0.5-0.2c0.2,0,0.3,0.1,0.5,0.2c0.1,0.1,0.2,0.3,0.2,0.5v1.5
		c0.7-0.9,1.6-1.5,2.6-1.9c1-0.4,1.9-0.5,2.7-0.2c1,0.3,1.7,1,2.4,2.1c0.7,1.3,1.1,3.6,1.2,7c0,0.6,0.1,1.9,0,3.9
		c0,2-0.1,3.1-0.1,3.2c0,0.2-0.1,0.3-0.2,0.5c-0.1,0.1-0.3,0.2-0.5,0.2s-0.3-0.1-0.5-0.2c-0.1-0.1-0.2-0.3-0.2-0.5
		c0-0.1,0-1.2,0.1-3.2c0-2,0-3.3,0-3.9c-0.1-3.1-0.4-5.2-1.1-6.3c-0.4-0.8-0.9-1.3-1.5-1.5c-0.5-0.2-1.1-0.1-1.8,0.2
		c-0.7,0.3-1.3,0.7-1.8,1.3C122.4,10.4,122,11.1,121.7,11.8C121.7,11.8,121.7,11.8,121.7,11.8z"/>
	<path id="XMLID_650_" class="st0" d="M143.1,23c1.5-6.7,2.6-11.4,3.3-14c0.8-3,1.3-4.9,1.5-5.8c0.2-0.7,0.3-1.3,0.5-1.8
		c0.1-0.2,0.1-0.5,0.2-0.6c0-0.1,0.1-0.1,0.1-0.2c0,0,0-0.1,0-0.1c0,0,0.1-0.1,0.1-0.1c0.1-0.1,0.2-0.2,0.3-0.2
		c0.3-0.1,0.5,0,0.7,0.2c0.1,0.1,0.2,0.3,0.3,0.5c0.1,0.2,0.1,0.4,0.2,0.6c0.1,0.4,0.2,1,0.4,1.6l0.2,1.1c0.1,0.4,0.1,0.7,0.2,0.9
		c0,0.2,0.1,0.4,0.1,0.4l0.9,4.3l1,4.6c0.2,1.1,0.5,2.5,0.9,4.1c0.4,1.6,0.8,3.1,1.1,4.5c0,0.2,0,0.4-0.1,0.5
		c-0.1,0.2-0.2,0.3-0.4,0.3c-0.2,0-0.4,0-0.5-0.1c-0.2-0.1-0.3-0.2-0.3-0.4c-0.5-1.9-1.1-4.1-1.6-6.6c0,0-0.1,0-0.2,0
		c-3.1,0-5.1,0-6.2,0.1l-1.5,6.4c0,0.2-0.1,0.4-0.3,0.4c-0.2,0.1-0.3,0.1-0.5,0.1c-0.2,0-0.3-0.1-0.4-0.3
		C143,23.4,143,23.2,143.1,23z M146.2,15.5c1,0,2.9-0.1,5.7-0.1l-2.1-9.7c0,0,0-0.1-0.1-0.4l-0.2-1l-0.2-1.1l0-0.2l-0.1,0.3
		c-0.2,0.9-0.7,2.8-1.5,5.8C147.2,11.1,146.7,13.2,146.2,15.5z"/>
	<path id="XMLID_648_" class="st0" d="M165.6,6.2c0-0.6,0-1.3-0.1-2.1c-0.1-0.8-0.3-1.4-0.5-1.9c-0.3-0.5-0.6-0.8-1-1
		c-0.3-0.1-0.6-0.1-1,0.1c-0.4,0.2-0.7,0.5-1,0.9c-0.3,0.4-0.5,0.9-0.6,1.4c-0.2,1.1-0.3,3-0.2,5.7c1.3,0,2.4,0,3.4,0
		c0.2,0,0.4,0.1,0.5,0.2c0.1,0.1,0.2,0.3,0.2,0.5c0,0.2-0.1,0.4-0.2,0.5c-0.1,0.1-0.3,0.2-0.5,0.2c-1,0-2.1,0-3.4,0
		c0,0.3,0,2.1,0.1,5.2c0.1,3.2,0.1,5.6,0.1,7.2c0,0.2-0.1,0.3-0.2,0.5c-0.1,0.1-0.3,0.2-0.5,0.2c-0.2,0-0.3-0.1-0.5-0.2
		c-0.1-0.1-0.2-0.3-0.2-0.5c0-1.6,0-4-0.1-7.2c-0.1-3.2-0.1-4.9-0.1-5.2h-1.7c-0.2,0-0.3-0.1-0.5-0.2c-0.1-0.1-0.2-0.3-0.2-0.5
		s0.1-0.3,0.2-0.5c0.1-0.1,0.3-0.2,0.5-0.2h1.7c0-2.8,0-4.8,0.2-6c0.1-0.7,0.4-1.3,0.8-1.9c0.4-0.6,0.9-1,1.5-1.3
		c0.7-0.3,1.3-0.4,2-0.2c0.7,0.2,1.3,0.7,1.7,1.6c0.3,0.6,0.6,1.3,0.7,2.3c0.1,0.9,0.2,1.8,0.1,2.5c0,0.2-0.1,0.3-0.2,0.5
		c-0.1,0.1-0.3,0.2-0.5,0.2c-0.2,0-0.4-0.1-0.5-0.2C165.6,6.6,165.5,6.4,165.6,6.2z"/>
	<path id="XMLID_646_" class="st0" d="M170.7,7.6c0,1.8,0,4.1,0,7c1.4-3.7,3.6-6.3,6.4-7.8c0.2-0.1,0.3-0.1,0.5,0
		c0.2,0.1,0.3,0.2,0.4,0.3c0.1,0.2,0.1,0.3,0,0.5c-0.1,0.2-0.2,0.3-0.3,0.4c-1.7,0.9-3.2,2.3-4.3,4.2s-1.9,3.9-2.3,6.2
		c-0.1,0.5-0.2,1.3-0.2,2.2c0,1.2,0,2-0.1,2.5c0,0,0,0.1,0,0.1c0,0,0,0.1-0.1,0.1c0,0.1-0.1,0.2-0.2,0.3c-0.1,0.1-0.3,0.1-0.4,0.1
		c-0.2,0-0.3-0.1-0.4-0.2c-0.1-0.1-0.2-0.1-0.2-0.2c0,0,0-0.1-0.1-0.2c0-0.1,0-0.2,0-0.4c0-0.3,0-0.5,0-0.8c0-0.5,0-1.2,0-2.1
		c0-0.9,0-1.6,0-2.1c-0.1-5.4-0.1-8.8-0.1-10.3c0-0.2,0.1-0.3,0.2-0.5c0.1-0.1,0.3-0.2,0.5-0.2c0.2,0,0.4,0.1,0.5,0.2
		C170.6,7.2,170.7,7.4,170.7,7.6z"/>
	<path id="XMLID_643_" class="st0" d="M181.3,2.3c0.1,0.1,0.2,0.3,0.2,0.5c0,0.2-0.1,0.3-0.2,0.5c-0.1,0.1-0.3,0.2-0.5,0.2
		c-0.2,0-0.3-0.1-0.5-0.2c-0.1-0.1-0.2-0.3-0.2-0.5c0-0.2,0.1-0.3,0.2-0.5c0.1-0.1,0.3-0.2,0.5-0.2C181,2.1,181.1,2.1,181.3,2.3z
		 M181.5,7.6c0,1.2,0,2.8,0.1,4.9c0,2.1,0.1,4.1,0.1,5.8c0,1.7,0,3.4-0.1,4.9c0,0.2-0.1,0.3-0.2,0.5c-0.1,0.1-0.3,0.2-0.5,0.2
		c-0.2,0-0.4-0.1-0.5-0.2c-0.1-0.1-0.2-0.3-0.2-0.5c0.1-1.5,0.1-3.2,0.1-4.9c0-1.7,0-3.7-0.1-5.8c0-2.1-0.1-3.8-0.1-4.9
		c0-0.2,0.1-0.3,0.2-0.5c0.1-0.1,0.3-0.2,0.5-0.2c0.2,0,0.3,0.1,0.5,0.2C181.4,7.2,181.5,7.4,181.5,7.6z"/>
	<path id="XMLID_641_" class="st0" d="M191.2,10.8c-0.5-1.1-1.1-1.9-1.8-2.2c-0.5-0.3-1.1-0.3-1.7-0.1c-0.6,0.3-1.2,0.7-1.8,1.5
		c-0.5,0.7-1,1.6-1.3,2.6c-0.3,1-0.5,2.1-0.5,3.3c0,1.2,0.1,2.3,0.4,3.3c0.4,1.4,1,2.4,1.8,2.9s1.7,0.7,2.6,0.5
		c0.9-0.2,1.7-0.8,2.4-1.7c0.7-0.9,1-2,1-3.4c0-0.2,0.1-0.3,0.2-0.5c0.1-0.1,0.3-0.2,0.5-0.2c0.2,0,0.3,0.1,0.5,0.2
		c0.1,0.1,0.2,0.3,0.2,0.5c0,1.7-0.4,3.1-1.3,4.2s-1.9,1.9-3.1,2.2c-1.3,0.3-2.5,0.1-3.7-0.7c-1.1-0.8-1.9-2-2.4-3.7
		c-0.3-1.1-0.5-2.3-0.4-3.6c0-1.4,0.2-2.6,0.6-3.7c0.4-1.1,0.9-2.1,1.6-3c0.7-0.9,1.4-1.5,2.3-1.8c1-0.4,1.9-0.4,2.8,0.1
		c0.9,0.5,1.7,1.4,2.4,2.8c0.1,0.2,0.1,0.4,0,0.5c-0.1,0.2-0.2,0.3-0.4,0.4c-0.2,0.1-0.3,0.1-0.5,0C191.4,11.1,191.3,11,191.2,10.8z
		"/>
	<path id="XMLID_638_" class="st0" d="M205.6,11.6v4.1c0,0.1,0,0.1,0,0.2c0,0.3,0,0.6,0,0.9c0,2.4,0.1,4.5,0.2,6.4
		c0,0.2-0.1,0.3-0.2,0.5c-0.1,0.1-0.3,0.2-0.5,0.2c-0.2,0-0.3-0.1-0.5-0.2c-0.1-0.1-0.2-0.3-0.2-0.5l-0.1-1.8c-1,1.6-2.3,2.4-4,2.4
		c-1.4,0-2.7-0.7-3.7-1.9c-1-1.3-1.6-2.9-1.6-4.9c0-4.1,1-7,3-8.8c0.8-0.7,1.6-1.1,2.5-1.3c0.9-0.2,1.8,0,2.5,0.3
		c0.7,0.3,1.2,0.8,1.7,1.4c0.4,0.6,0.7,1.4,0.8,2.2c0,0.1,0,0.1,0,0.2v0.3v0.1V11.6L205.6,11.6z M204.2,11.6L204.2,11.6v-0.1v-0.1v0
		c0-0.7-0.2-1.3-0.5-1.9c-0.3-0.5-0.7-0.9-1.2-1.1c-0.5-0.3-1-0.3-1.7-0.2c-0.7,0.1-1.3,0.4-1.9,1c-1.7,1.5-2.6,4.1-2.5,7.8
		c0,1.7,0.4,3,1.3,4c0.8,1,1.7,1.5,2.7,1.5c0.9,0,1.8-0.4,2.5-1.3s1.2-2.3,1.3-4.3V11.6z"/>
</g>
</svg>
