<?xml version="1.0" encoding="utf-8"?>
<!-- Generator: Adobe Illustrator 19.0.0, SVG Export Plug-In . SVG Version: 6.00 Build 0)  -->
<svg version="1.1" id="Layer_1" xmlns="http://www.w3.org/2000/svg" xmlns:xlink="http://www.w3.org/1999/xlink" x="0px" y="0px"
	 viewBox="0 0 612 650.1" style="enable-background:new 0 0 612 650.1;" xml:space="preserve">
<style type="text/css">
	.st0{fill:#FFFFFF;}
</style>
<g id="africa">
	<path id="XMLID_39_" class="st0" d="M611.1,220.4v2.8c0,0-2,1.6,0,3.7s0.4,11.4-1.6,7.7l-1.2,12.2l-2.4,6.5l-4.9,6.5l-5.3,18.7
		l-6.9,11.8c0,0-16.2,14.2-16.2,17.1c0,2.8-8.5,9.7-8.5,9.7h-3.2l-36.6,35.7l-5.3,5.7l-10.6,19.1l-2.8,8.5c0,0-4.5,8.1,2.4,11.4
		c6.9,3.2,0.4,10.6,0.4,10.6l0.4,6.9c0,0,4.5,12.2,3.7,15c0,0,10.6-2.4,3.2,16.2l-1.2,7.7l0.4,8.5l-1.2,4.1l2,4.1l-0.8,2.4
		c0,0-0.8,1.6-1.6,2c-0.4,0.8,0,2.4,0,2.4l-1.2,4.9l-6.9,4.9l-0.4,0.8l-7.3,4.9l-4.1,0.4l-13.8,6.9l-1.6,2.4l-2,0.4l1.2,2.8
		l-4.9,4.1l-6.1,2.4c0,0-15,9.3-5.3,14.2l1.6,11.8l2,1.2l-5.3,20.7c0,0-7.3,4.9-17.9,8.1l-3.7,2.8v5.3l-0.4,5.3
		c0,0-1.6,16.7-9.7,18.3c-8.1,1.6-38.6,37-45.5,42.2c0,0-5.3-1.2-6.9,0c-1.2,1.2-6.5,4.1-6.5,4.1h-7.3l-7.3-1.6l-8.1-0.4l-3.7,2.4
		l-5.7,0.8l-5.7,0.4l-4.5,2l-8.5-3.2l-4.5-7.7l-3.7-6.1l2.8-2.8l0.8-6.1l-15.8-30.5l-8.1-8.9l-4.5-26.4l-4.1-10.2l0.8-10.2
		l-19.9-34.5c0,0-4.5-0.4-4.9-13.8s7.7-34.1,11-36.6c3.2-2.4,5.3-4.9,5.3-4.9l3.2-15.8l-0.8-1.2l-6.1-13l0.4-2.8l-1.2-13.4l-5.7-8.5
		l-2.4-7.3l-0.4-3.7l-3.7-2.8c0,0-6.5-13-22.7-25.6l-3.2-11l3.7-3.2l0.8-7.3l2.8-6.1l-2.8-3.2l4.1-6.9l0.4-11l-2.4-3.2l-6.5-6.9
		l-3.7-2l-3.2,2l-7.7-1.2c0,0-7.7,8.9-16.2-4.9c-8.1-13.8-11-11.4-13-11.4s-16.2,0.8-16.2,0.8l-8.1,0.4l-2.8,4.5l-6.9,0.4l-19.5,8.5
		l-19.9-4.9l-16.7,4.9L79,293.9l-8.1-4.5c0,0-24-21.1-28.8-21.9c-4.9-0.8-12.6-12.2-9.7-17.5l-4.5-6.1l-4.5-4.1l-1.6-3.7l-6.5-3.7
		l-2.4-8.5l-2.8,0.4l-2.8-1.2l-3.7-3.7c0,0-2.4-7.3,1.6-12.6c0,0-3.2-11-5.3-11.8c0,0,21.5-22.7,12.2-43.5c0,0,7.3-6.9,0.8-11.4
		l-1.2-4.1l-2,0.4c0,0-0.8-8.5,10.2-19.9l14.2-16.2c0,0,2.4-11,9.3-13.8c6.9-2.8,8.9-11,8.9-11s31.3-8.5,30.9-23.2
		c-0.4-15,7.7-15.4,7.7-15.4l0.4-2.4c0,0,6.5-7.3,21.1-12.6c0,0,7.7-15,14.6-16.2l1.2,2.8l2.4,1.2l12.6,3.2l4.5,0.8l9.3-1.6
		c0,0,3.2-2.4,3.7-2.8c0.4-0.4,5.3,0,5.3,0h2.8c0,0,4.9-2,4.9-2.8c0-1.2,12.2-1.2,12.2-1.2l14.6-1.2l9.7-2.8l10.2-0.8l5.3,1.2
		l3.7-0.4l3.7,1.2l3.2,0.4c0,0,9.3-7.3,14.6,0.4c0,0.4,0.4,0.4,0.4,0.8l3.7-2.4l1.2,3.2l-2.4,2l-1.6,5.3c0,0,1.6,0.8,2,1.2
		c0.4,0.4,1.6,4.5,1.6,4.5l-2.8,4.5l-4.9,4.1l-2.4,4.1l2,1.6l3.2-2l3.2,0.8v3.2l3.7,2l4.5,2.8l9.7,0.4l16.7,5.3c0,0-2,5.7,6.1,9.3
		c8.1,3.7,19.1,4.9,19.1,4.9s9.3,8.5,13.8-3.2c0,0-5.7-9.7,2-12.6c7.7-2.4,7.3-5.3,21.5-1.6c0,0-0.8,4.1,2.4,3.7
		c3.2-0.4,15,0,14.6,4.1c0,0,0.4,3.2,7.7,0.8c7.3-2.4,25.6,5.7,25.6,5.7l11.8-6.9l3.7,0.4l8.1-0.8c0,0,6.1,8.1,17.5,0.4l8.5,17.9
		l-1.2,8.5l-0.8,4.5c0,0-0.8,3.7-4.9,0c-3.7-3.7-12.6-16.7-12.6-16.7l-0.8,3.7l2.4,1.6c0,0,0.8,9.3,8.5,12.2v2.4l17.1,28.8l5.7,4.9
		H462l0.8,8.1l6.1,3.2l8.1,5.3l-0.4,4.9l2.4,2.4l2.8,21.9l7.7,4.5l4.1,3.2l11.8,24.8l1.2-2l3.2,2l-0.4,1.2l6.1,0.4l3.2,3.2l4.9,3.2
		l3.7,4.9c0,0,4.5,3.2,4.5,4.9l4.5,3.7c0,0,3.7,0.8,3.2,7.3c0,0-4.9-0.4-4.9,4.1h4.5l2,1.2l5.3,6.1l4.9,2.4h3.7l7.7-4.5h5.7l8.5-3.7
		c0,0,6.9,1.2,10.6-1.6l12.6-2.8C600.5,222.9,605.4,217.6,611.1,220.4z"/>
	<path id="XMLID_38_" class="st0" d="M597.3,486c0,0,2,0.8,2-2.8c-0.4-3.7-2.4-27.2-2.4-27.2l-4.9-5.7l-3.2,2.4v6.5l-2.4,2l-1.2,0.4
		l-0.4,1.6l-2.4,1.6l-1.6-1.6l-0.4,3.7v2l-2.4,2l-0.8,2.4h-1.6l-4.5,3.2v3.7h-4.1l-2.4,2h-2L557,484l-1.2,2l-0.8-2.8l-3.7,3.7h-4.1
		c0,0,0.8,3.2-5.3,11.4l-0.8,1.2c0,0,4.5,2.4,4.1,19.5l-4.1,8.5l-4.1,5.3c0,0-6.5,0.4-6.5,15.4c0,0,4.1,1.6,2.8,8.1
		c-0.8,6.9-2.4,9.7,2,14.6s3.7,0.8,6.9,5.7h3.2l4.1-3.7h6.1h3.2l0.8-1.2l25.6-54.4l3.7-9.7l2.8-9.3l2.8-3.7l0.4-4.1v-2.8l0.4-4.1
		l1.2-0.4l1.2,0.8L597.3,486z"/>
</g>
</svg>
