<?xml version="1.0" encoding="utf-8"?>
<!-- Generator: Adobe Illustrator 19.0.0, SVG Export Plug-In . SVG Version: 6.00 Build 0)  -->
<svg version="1.1" id="Layer_1" xmlns="http://www.w3.org/2000/svg" xmlns:xlink="http://www.w3.org/1999/xlink" x="0px" y="0px"
	 viewBox="0 0 612 563.1" style="enable-background:new 0 0 612 563.1;" xml:space="preserve">
<style type="text/css">
	.st0{fill:#FFFFFF;}
</style>
<g id="america">
	<path id="XMLID_25_" class="st0" d="M498.4,249.5l-5.3,1.1l-6,3.2c0,0-14.1,9.5-2.8,17.2c0,0,2.1,6-3.5,4.6c0,0-2.8-3.9-4.6,0
		S471,278,471,278s-6.7-3.2-8.4,5.6c0,0,0.7,14.8-7,7.7c0,0-3.5-0.7-2.8,4.6c0,0,4.6,2.8,3.9,10.2c0,0-0.7,3.2-3.9-6.3
		c0,0-3.5-1.4-3.5,2.1c-0.4,3.5,1.1,3.5,1.1,3.5s1.8,1.4,1.1,4.2c-1.1,2.8,3.5,2.1,3.5,2.1s1.8,0.7-1.8,3.2
		c-3.5,2.1-0.4,3.2-0.4,3.2s3.5-0.7,2.1,2.1c-1.4,2.8-2.8,3.5-2.8,3.5v2.8l-0.4,4.2h-4.2c0,0-7.7,1.4-12.3,10.9l-1.4,3.2l-3.2,1.4
		c0,0-14.8,7-8.1,24.3c6.7,16.9,13.4,23.9,6.3,39.4c0,0-3.2,4.2-16.5-25.3c0,0,3.5-6.3-7-17.6c0,0-7.7,3.2-17.6-1.4l-2.1-0.4h-1.8
		l-6-0.7l-1.8-1.4h-1.8h-1.8l-4.6,0.4l-1.1,2.8v3.2l1.1,1.8l1.1,1.8l-0.4,2.1l-2.8-0.4v-1.1c0,0-0.7-1.4-1.8-1.4s-2.8,0.7-2.8,0.7
		l-2.1,1.4h-2.8v-1.1l-2.1-1.1l-1.8-2.1h-1.8l-2.1,1.1l-2.8-0.4l-2.5-2.1l-3.5,0.7l-1.8,2.1h-4.6l-4.9,8.1l-3.9,0.7l-4.2,2.1
		l-2.1,4.2v7.7l-1.1,11.3l-1.4,3.2l-2.1,2.8l-0.4,16.2l2.5,10.2l2.5,7.7l0.7,2.1l1.8,2.8c0,0,4.9,16.9,17.9,14.4
		c0,0,8.1-3.9,15.1-0.7c0.4,0,0.4,0,0.7,0.4c0,0,2.5,1.4,3.2-4.2c0,0,6.3-19,7.7-19.3c1.4-0.7,3.5-2.5,8.4-0.4c0,0,1.4,0,2.5-2.5
		c0.7-2.5,6.7-0.7,9.5,1.4c2.8,2.5,1.4,3.9,1.4,3.9s-3.5,2.8-3.5,7s-0.7,9.1-0.7,9.1v4.2l-2.1,3.2l-2.8,4.6v2.5l-1.1,4.2l-2.1,3.2
		l-1.1,3.5l1.1,2.1h3.2c0,0,1.8-0.7,2.1-0.7s1.4,0,1.4,0s16.5-0.7,19,0c2.5,0.7,8.4,2.1,10.2,8.4c1.8,6.3-4.9,29.9-4.6,31
		c0.4,1.1,4.9,7.4,4.9,7.4l4.6,7l2.1,3.5l2.8,2.1l2.5-0.7l1.4,1.8l2.8,0.7l2.1-1.8l7-2.5h5.3l4.6,3.2c0,0,8.8,3.5,5.3,12.7
		c0,0-2.5,4.9-5.6,3.5c0,0-1.4-0.4,1.4-6.7c0,0,0-6-12-7.7c0,0-4.9,0.7-6.3,6c0,0,8.4,8.8-2.8,4.6c0,0-2.1-1.8-4.6-4.9
		c-2.5-3.2-6.7-0.4-6.7-0.4s-1.1-5.3-4.6-3.9l-6.7-10.6l-1.1-0.7h-2.1h-2.8l-3.2-1.4l-0.7-3.2l-0.7-5.3l-0.4-2.5l-0.7-3.2l-9.8-7.4
		l-0.7-2.5v-2.8l-2.5-0.7h-6.3l-8.8-6l-8.1-2.1l-4.9-3.2L337,486.9h-3.2l-8.8,3.2c0,0-4.6,3.5-8.4,0l-8.8-6.3l-5.6-2.8l-4.9-1.8
		l-4.6-0.4l-3.9-1.1l-1.8-2.1l-2.1-2.1l-1.4-2.1l-2.8-2.1l-3.2-0.7h-3.9l-1.8-2.5l-4.2-4.2l-2.8-2.1l-2.8-2.5l-3.2-3.5
		c0,0-1.8-2.1,0-5.3c1.8-3.2,2.5-6.7,2.5-6.7l-0.7-4.6l-0.7-3.9l-2.1-4.9l-2.5-3.5l-2.5-2.5l-2.1-2.1v-3.2l-1.4-1.4
		c0,0-9.8-11.3-11.3-12.3c-1.4-1.1-0.7-7.4-0.7-7.4l-5.3-4.6c0,0-2.5-1.8-2.5-5.3s-9.8-9.1-9.8-9.1s-1.4-3.2-1.4-7.4
		s-1.4-9.8-1.4-9.8s-4.2-6-9.8-7.4c-5.6-1.4-2.8,14.4-2.8,14.4s21.8,23.6,22.2,46.1c0,0,6.7,4.2,7.7,9.5c1.4,5.6-6,3.5-6,3.5
		s0.4-9.1-9.8-14.1c0,0,1.4-8.8,0.7-9.5c-0.7-0.7-3.9-4.9-4.2-4.9s-3.2-2.8-3.2-2.8l-0.7-2.5l-2.8,0.7l-2.5-1.4l-3.5-2.1
		c0,0-1.4-1.4,0-2.8c1.4-1.4,7.7-0.7,2.8-8.4c-4.6-7.7-7-8.8-7-8.8l-2.8-3.9v-4.9v-2.5l-0.7-4.9l-1.1-3.9l-2.8-3.5v-1.4
		c0,0-1.8-8.8-18.3-14.4l-1.8-4.9l-3.2-6l-1.4-2.8c0,0,3.5-2.1,0.7-4.9s-3.2-4.9-0.7-6c2.1-1.1,2.5-5.3-1.4-5.3
		c-4.2,0-3.9-3.5-3.9-3.5l-1.4-6.3l-2.1-4.9v-4.6l1.4-1.8l1.1-5.6c0,0,1.1-0.4,1.1-1.1c0-0.7,0.7-4.2,0.7-4.2v-4.9l1.1-2.8
		l11.6-23.2l-0.7-6l-3.2-9.1l3.9-1.8v-2.1l-1.4-2.1l-1.8-2.1v-0.7l-3.2-1.1l-6-2.5l-3.2-4.9l5.3-1.4c0,0,3.9,0.4,4.6,0.7
		c0.7,0,3.5,3.5,3.5,3.5s3.5,4.6,3.5,4.9c0,0.4,1.8,3.9,1.8,3.9s-0.7-1.8-0.7,0.4c-0.4,2.1,0.7,6.7,0.7,6.7s0.7,2.1,1.4,2.1
		c0.7,0,2.8-1.1,3.2-1.8c0-0.7,2.1-3.5,2.1-4.6s0.4-3.9,0.4-4.6c0-0.7-0.7-3.9-1.4-4.6s-2.1-4.6-6.3-6.7c-4.2-2.1-11.6-5.3-11.6-5.3
		l-1.8-0.7l1.4-4.9l-2.5-3.5l-0.7-2.8l0.4-3.2l-5.3-1.1l-1.1-4.6l1.8-2.1c0,0,2.8-6,4.2-6.3s0.4-5.3,0.4-5.3l-3.5-3.9
		c0,0-4.6,1.4-3.9,7c0.7,5.6-7.4,3.5-7.4,3.5l-1.8-7.7l-2.5-7l-2.5-4.6l1.8-4.6l-3.9-2.1l-3.2-3.2l-1.8-3.2l-1.8-1.1l-8.4-2.1
		c0,0-7-0.7-7.4-0.7c-0.4,0-3.9,0-3.9,0l-3.2-4.6l-4.2-2.5h-4.6l-3.9,3.5l-3.9,1.4c0,0-2.1,2.1-2.8,2.1c-0.7,0-2.8,0.7-4.2,0.7
		c-1.4,0-3.2,1.1-3.5,1.8c-0.4,0.7-3.9,2.5-3.9,2.5l-1.4-2.1l2.1-2.5c0,0,5.6-2.5,6.7-3.5s6.3-5.6,6.3-5.6s4.9-3.9-1.8-3.5
		c-6.7,0.4-9.8,4.2-9.8,4.2l-3.5,3.9l-7.4,3.9c0,0-5.6,4.6-7,6.3c-1.1,1.8-8.8,6.3-8.8,6.3l-5.6,1.1l-6,4.2l-5.6,3.9
		c0,0-6,2.5-6.3,2.5s-9.1,3.5-9.1,3.5s-11.3,1.8-11.6,1.8c-0.4,0-8.8,3.9-8.8,3.9l24.6-11.3c0,0,20.8-8.1,19.3-14.4l-2.5,1.1
		l-2.8,0.4l-0.7-1.8c0,0-3.5,1.1-3.9,1.1c-0.4,0-2.1,1.1-2.1,1.1l-1.4-1.4c0,0-1.1,0-2.1,0c-1.1,0-4.9-0.7-4.9-0.7l7.4-5.6l2.5-1.1
		h-3.9c0,0-3.9,2.5-6,2.1c-2.1-0.4-5.6-1.1-5.6-1.1s-0.7-4.6,3.9-4.6s5.3-1.4,5.3-1.4s-0.4-1.4-1.8-1.4c-1.4-0.4-1.4-3.5-1.4-3.5
		l7-4.6l6.7-3.9c0,0,11.6-3.2,12.7-3.2c0.7,0,5.6-2.1,8.4-1.8s10.2-8.4,0-8.1c-10.2,0.4-11.3,0.7-11.3,0.7s-7.4-1.1-2.8-7
		c0,0,8.4-3.2,19.3-5.3c0,0,3.2,0,5.6,5.3c0,0,1.1,0,4.6-3.2c0,0,12.3-0.4,5.3-4.6l-2.1-1.4v-3.5l-2.1-1.4l-1.4-1.1l1.1-1.8l3.2-1.4
		h2.8h3.5l5.3-1.8l5.6-4.2l6.3-2.8h5.3l4.6-2.8h3.5h7.7l0.7-2.8h2.8h5.3c0,0,4.9-4.2,8.1,0.7s5.6,3.2,5.6,3.2s2.8-3.2,5.6-1.1
		c2.8,2.1,3.9,2.5,3.9,2.5l3.9,0.4l8.4,0.7l7,1.1l4.6,0.7l3.5,1.4l2.8,1.8l1.1,2.5h1.8l5.3,1.1l2.8-1.4l3.5-1.8l7.4-4.6l4.9,0.7
		l4.6-0.4l2.8-1.4c0,0,7.7,1.1,9.5-4.2c0,0,0.7-1.4,1.8,2.5c1.1,3.9,2.1,4.9,2.1,4.9h2.5c0,0,1.8-0.4,1.8-2.1s3.5-1.1,3.5,0.4
		c0,1.4,2.5,1.4,2.5-0.7c0-2.1,6.3-1.4,6.3,0s0.7,1.8,1.4,1.8c0.7,0,2.5,1.1,2.5,1.1l2.5,2.1l7.7,1.1l2.5-1.8l1.8-1.8
		c0,0,3.5,5.3-1.1,6.3c-4.6,1.1,1.8,4.6,1.8,4.6l9.1-1.1l9.8,0.4l6,3.2c0,0,2.5,3.2,3.2-1.8c1.1-4.9,2.8-6.3,2.8-6.3
		s2.1-3.5,6.7-1.1c4.2,2.1,7,3.5,7,3.5l2.8,0.4c0,0,14.4,4.9,19.3-0.4c4.9-5.3-3.5-5.3-3.5-5.3s0.4-4.6,7.4-2.5
		c7,2.1,2.8,7.4,2.8,7.4s6,6,8.8-1.8c2.8-7.7-5.6-10.2-5.6-10.2s-4.6-1.1-0.7-4.2c0,0,2.1-7.4,6.3-7c4.2,0.4,8.8,10.6,8.8,10.6
		l-0.7,2.1c0,0,0,1.8,0.4,3.2s2.1,3.5,2.1,3.5l2.1,1.1l3.2-1.4l2.1-1.1c0,0,4.6,0.4,4.6,4.6c0,0-3.9,7.7,3.9,6.3s7-9.8,7-9.8
		l-1.1-4.2c0,0,8.8-3.5,11.6,1.8c2.5,5.3,0.7,6.3,0.7,6.3l1.4,3.5l1.8,2.1c0,0-2.5,2.1-3.2,2.1c-0.7,0-4.6,1.4-5.3,1.4
		s-8.4,1.4-8.4,1.4l-0.7,4.2l-1.4,2.1l-2.8,1.1l-2.5,1.4l-11.6,0.4l12.3,1.4l2.1,3.2l-1.8,2.5l-2.5,0.7l-2.5-1.4h-0.7l-1.1,2.8
		l-0.7,1.8l-2.1-0.4l-5.6-2.1l-5.3,1.1l-3.2,0.7l4.6,0.7h3.2l2.5,3.2l-2.5,0.7l-2.1,0.7l-3.5,1.1l-2.5,3.5l-2.1,3.5l-2.1,1.8
		l-2.5,0.7l0.7,2.8l0.4,3.2l-2.1,0.7l-0.7,2.5v2.1v2.8v2.5l0.7,0.4h3.2h0.7l2.5,1.8l2.5,2.5v2.8l-0.4,3.9c0,0,0.4,5.6,7,3.5
		s8.4,2.1,8.4,2.1s4.6-3.9,10.2,3.5c0,0-0.7,1.1,2.1,1.1c2.5,0,6,0.7,6,0.7s2.1,1.1,3.2,5.6c1.1,4.6,2.5,0.4,2.5,0.4
		s9.5-3.5,15.5,1.1c0,0,1.8,0.7,0,7.4l1.4,6l1.4,2.5l3.2,1.8l2.8,3.5l0.7,4.6l3.2,2.5c0,0,8.4-2.5,9.5-9.8l-1.8-5.3l-2.5-1.8
		l-0.7-3.5l-0.7-2.5l-2.8-2.5v-1.1c0,0,13-9.1,12.7-13.7c0,0,0.4-1.8-3.9-3.5c0,0,1.4-5.6-1.1-7s-4.2-1.4-4.2-1.4l-2.5-1.4l-1.4-1.1
		l1.1-2.1l2.1-1.1l2.5-1.8c0,0,2.8-1.4-0.4-3.9l-1.4-2.5l-0.4-3.2l-1.4-0.7l1.1-3.2l-0.7-2.5l-1.8-1.4l0.7-3.5l1.8-1.1l2.8,0.4
		l2.8,0.7l1.4,2.5l5.3-0.4l3.5-1.4l2.5,1.1l2.5,2.1l6.7,5.6l3.9-0.4l2.8,0.4l3.2,1.8l2.1,2.8l-1.8,3.9l3.2,1.4l0.7,2.5l-2.1,2.8h6.7
		l3.2,1.8l1.1,2.1l4.2-0.7l4.2-2.1l0.7-6.3l3.5-2.8l2.5,1.1l5.3,6.7h2.5c0,0,1.8,1.4,1.8,1.8s0.4,3.5,0.4,3.5l7,6l2.8,5.3v2.8
		l5.3,2.8l6.3,2.5l2.1,2.5l8.1,0.7c0,0,3.2,1.8,0,3.5c-3.2,1.8-11.3,4.6-11.3,4.6l0.4,3.5c0,0,3.2,0,3.9,0c0.7,0,3.2,0,3.2,0
		l4.6-2.5l1.4-0.7h1.8l2.5,1.8l0.4,1.1l4.2-0.7h1.4l1.8,2.1v2.8l0.7,2.5l2.1,1.1l1.4,2.8v2.5l2.1,1.1l2.5,1.8l-1.1,3.2l-2.8,3.2
		l-0.4,3.2l2.1,1.8h2.1l2.1,1.1l4.2,2.5l5.6-0.4l3.2,0.7v4.2l3.5,4.9l4.9,1.1l1.1,7.7c0,0-0.4,2.5-2.5,2.5c-2.1,0-4.2,0-4.9-0.7
		c-0.7-1.1-1.4-5.6-1.4-6.7s-1.4,1.8-1.4,1.8l-2.8,3.5l-3.2,2.8l-1.1-1.4l1.1-1.8c0,0,1.1-2.1,1.1-2.8s-1.1-3.9-1.1-3.9
		s-17.6,0.4-18.3,0.4s-2.1-1.4-2.1-1.4V221l-0.4-3.2l1.4-2.1l1.1-3.2l2.1-12.3l1.4-2.8c0,0,0.7-2.8-3.5-1.4
		c-4.2,1.4-6.7,4.2-6.7,4.2l-5.6,3.2c0,0-2.5,1.8-3.2,1.8c-0.4,0-15.1-0.7-15.1-0.7l-10.6,0.4l-7,2.1l-5.3,4.9l-7.7,8.4l-8.1,10.2
		c0,0,11.3-9.1,14.4-11.3c3.2-2.5,9.8-4.2,9.8-4.2s6.7-1.8,7.7-0.4c1.1,1.4,3.9,1.4,2.8,5.6s-4.6,3.9-4.6,3.9l3.2,1.8l0.4,1.8
		l0.7,2.5l2.1,1.4l2.5-0.4l2.1,1.4l2.1,4.2l1.4,1.8c0,0,2.5-1.1,2.5-1.4s4.6-2.5,4.6-2.5l3.9-0.4c0,0-2.5,3.9-3.2,3.9
		s-5.3,0.4-5.3,0.4l1.4,2.1h4.9h4.9v-4.6l1.1-5.6c0,0,3.9,1.1,3.9,2.1s-1.1,4.2-1.1,4.6c0,0.4-0.4,4.2-1.1,4.9s-4.6,2.8-4.6,2.8
		l-6,2.5c0,0-3.2,0-3.5,0.4s-2.5,1.4-2.5,1.4s-0.4,11.3-9.1,6c0,0-2.8-7,2.5-8.8c0,0,10.6-3.2,0.4-4.9
		C502.3,239,498.4,249.5,498.4,249.5z"/>
	<path id="XMLID_24_" class="st0" d="M239.5,57.5h5.3l3.2,2.8l1.4,4.6l4.2-2.1l2.5-2.5l3.5-0.4v-2.1h3.5l1.8-2.1
		c0,0,3.9-4.9,5.3-1.4c1.4,3.5-1.8,4.6-1.8,4.6v2.5l-0.7,2.5l-0.7,1.1l0.7,1.1l3.2,0.4c0,0,4.2-0.4,3.2,1.8s-3.2,3.2-3.2,3.2
		s-4.6,1.4,0.7,2.1c5.3,0.7,6.3,1.4,6.3,1.4l0.7,1.8l2.1,1.8l7-0.4l6-0.4l5.6-1.8c0,0,0.7-2.1,1.4-2.1s4.6,0,4.6,0h3.5L312,74
		l4.2,1.8c0,0,7.4-2.8,7.4-7.4s-6-2.1-6-2.1s-8.4-0.7-4.6-4.9c3.9-4.2-0.4-17.6-6.3-7.7c0,0,0,8.4-6.3,2.5c0,0-5.6-2.8-6.7-2.1
		c-1.4,1.1-8.1-0.4-8.1-0.4l-2.5-1.4l-2.8-4.2c0,0-1.4-2.1-5.6-1.4c0,0-1.4,0.4-1.8,0s-1.1-0.7-1.1-0.7l-2.1-0.7l-3.9-0.7
		c0,0-4.2-0.4-4.6,0c-0.4,0.4-3.2,1.4-3.2,1.8l-6.7,6.3l-3.2,2.1c0,0-0.4,1.1-1.4,1.1c-1.1,0-3.2,0.4-3.9,0.4
		c-0.7,0-3.5-1.4-3.5,0.4C238.8,57.5,239.5,57.5,239.5,57.5z"/>
	<path id="XMLID_23_" class="st0" d="M272.9,33.2h6.7l3.9-1.1h4.2l3.9-0.7l2.5-2.1c0,0,2.8,1.8,3.2,1.8c0.4,0.4,3.5,3.5,3.5,3.5h3.2
		l2.8-1.4l1.8-1.4l3.9,2.1l3.5,1.1c0,0,4.6-0.7,0.7,3.2c-3.9,3.9-8.4,3.5-8.8,3.5s-6.7-0.7-6.7-0.7l-4.9,0.7l-1.8,1.8
		c0,0-2.1,0-2.5,0c-0.4,0-2.5-1.8-2.5-1.8l-3.2-2.8c0,0-3.2-1.8-4.2-1.8c-1.1,0-6.7-0.7-6.7-0.7h-3.2
		C272.2,36.7,270.5,34.6,272.9,33.2z"/>
	<path id="XMLID_22_" class="st0" d="M319.4,56.8l2.1-2.5l3.5-2.1h3.2l2.1,2.5c0,0,1.1,1.8,0,1.8c-1.1,0-1.4-0.4-2.8,0
		c-1.4,0.4-1.1,0-1.4,0.4c-0.4,0-1.8,1.1-2.1,1.1s-2.1-0.4-2.5,0s-2.5,0-2.5,0S319,57.5,319.4,56.8z"/>
	<path id="XMLID_21_" class="st0" d="M327.1,52.9c0,0,7,0.7,3.5-3.5c0,0-0.7-1.8,2.5-1.8s7,0.7,7,0.7s2.5,1.4,2.5,2.1s0,4.2,0,4.2
		s1.1,2.8,0,3.5c-1.1,0.7-2.8,2.1-2.8,2.1l-4.6,0.7l-2.8-1.1l-1.8-1.8l-2.5-2.8C327.5,54.7,325.7,53.6,327.1,52.9z"/>
	<path id="XMLID_20_" class="st0" d="M347.9,49.4l1.1-1.8l1.8-0.7l1.8-1.8h1.8l2.5,0.4l2.1,0.7l1.8,0.4l0.7,1.1c0,0,0.4,1.4,0,1.8
		s-0.4,2.1-0.4,2.1l-1.4,0.4h-1.8h-2.1h-1.4l-1.4,2.1l-0.4,1.8h-1.8h-1.1l-1.1-0.7l-0.7-3.9V49.4z"/>
	<path id="XMLID_19_" class="st0" d="M345.4,51.8c0,0,0.4-5.6,6.7-2.5c6.3,3.2,0,6.3,0,6.3s-1.1,0.4-1.4,0.4c-0.7,0-2.5,0-2.5,0
		l-1.1-2.8L345.4,51.8z"/>
	<path id="XMLID_11_" class="st0" d="M358.8,54.3l0.4-1.1l2.5-1.1c0,0,1.1-0.7,1.8,0c0.7,0.7,4.9,6,4.9,6s-1.4,1.1-1.8,1.1
		s-3.2-1.1-3.5-1.1s-0.7-1.1-1.4-1.1s-2.1-0.4-2.1-0.4L358.8,54.3z"/>
	<path id="XMLID_13_" class="st0" d="M324.6,32.8c0,0,5.3-2.5,7.7,0.4s3.5,0.4,3.5,0.4s3.5-4.2,7.7,1.8l1.1,1.1c0,0,1.4,0,2.1,0
		c1.1,0,2.5-1.1,3.9,0c1.4,1.1,1.4,2.8,1.4,2.8s-0.4,2.1-0.7,2.1s-1.1,0-1.8,0c-0.7,0-2.1,0.4-2.5,0s-0.4-1.1-1.4-1.1
		c-1.1,0-3.2,0-3.5,0s-3.5,0-4.2,0c-0.7,0-3.2-0.4-3.2-0.7s-1.8-2.5-2.1-2.5s-3.9-1.1-4.2-0.7c-0.4,0.4-3.9,0-3.9,0
		S321.8,34.3,324.6,32.8z"/>
	<path id="XMLID_14_" class="st0" d="M388.7,36.7l4.9,1.1c0,0,1.4,0.4,1.4,2.8c0,2.1,0.4,3.2,0,3.2c-0.4,0.4-0.4,0.7-1.4,0.7
		c-1.1,0-6.3,0-6.3,0l-7.7-0.7l-6-0.4c0,0-6.7,0-7,0s-3.2-0.7-3.2-0.7l-3.2-2.1l-1.1-6.3c0,0,0.4-3.2,3.9-0.4s3.2,3.5,5.3,4.2
		c2.1,0.7,7.4,0.7,7.4,0.7s3.2,0.4,4.9,0c1.8-0.4,5.6,0.4,6,0S388.7,36.7,388.7,36.7z"/>
	<path id="XMLID_15_" class="st0" d="M383.7,37.4l6.7-1.8c0,0,2.5-0.7,3.2-0.7s2.8,0,3.5,0s1.4-2.5,1.4-2.5s-1.1-1.1,0.7,0
		c1.8,1.1,3.2,2.5,3.5,2.1c0.4-0.4,3.5-0.4,4.2,0s20.4,1.4,20.4,1.4s3.2,0.7,1.1,2.8c-2.1,2.1-6,2.5-6,2.5s-1.4,2.8-1.8,3.5
		s-4.9,2.5-4.9,2.5s-1.8,0-2.1,0s-4.6,0-4.6,0s-1.8-1.4-1.8,0s1.8,4.6,2.1,4.2c0.4,0,2.8,0,2.8,0s-0.4,2.8-1.1,3.2
		c-0.7,0.4-0.7,0.7-2.5,0.7c-1.8,0-4.2-0.7-3.5,1.8c0.7,2.5,1.1,2.8,2.8,3.2c1.8,0.4,4.2,0.4,2.1,1.8c-1.8,1.8-4.6,2.8-4.6,2.8
		l-2.5-0.7l-2.5-2.8c0,0-2.1-0.7-5.6,0s-4.9,1.1-4.9,1.1s-1.4,2.5-4.2,1.8c-2.5-0.7-0.7-3.5-0.7-3.5l3.5-2.8c0,0,4.6-4.9-2.8-5.3
		c-7.4-0.4-7.4,1.8-7.4,1.8l-2.8-1.4l-5.6-2.1l-1.8-2.8l-2.1-1.8v-1.1l1.8-2.8l1.4-0.7l4.9-0.4c0,0,2.5,1.1,2.5,1.4
		c0.4,0.4,1.8,2.5,2.8,2.5c1.1,0,4.9,0.7,4.9,0.7h3.9l5.3-0.4c0,0,3.2-2.8-1.1-4.2c0,0-3.5,0.7-4.9,0.7c-1.4,0-3.9-1.1-3.9-1.1
		l-1.8-1.4C382.7,39.9,380.9,38.1,383.7,37.4z"/>
	<path id="XMLID_16_" class="st0" d="M399.9,109.2c0,0,3.2,1.1,3.5,1.8s4.2,1.1,4.2,1.1s2.5,0.4,2.5-1.4s-3.5-3.5-3.5-3.5
		s-3.5,0.4-3.9,0s-4.9-4.2-4.9-4.2l-3.9-3.5c0,0-3.5-1.8-5.3-1.8c-2.1,0-4.6-1.1-5.3,0c-0.7,1.1-2.1,5.3-2.1,5.6s-1.4,4.2-1.8,4.9
		c0,0.7-3.2,3.9-1.4,4.2c1.8,0.4,3.9-0.7,3.9-0.7v-1.4c0,0,1.4-1.4,3.2,1.1c1.8,2.5,0,3.9,1.8,3.9c1.8,0,5.3-2.5,5.3-2.5l4.2-2.5
		C396.7,109.9,396,107.4,399.9,109.2z"/>
	<path id="XMLID_17_" class="st0" d="M472.7,120.4v-1.1c0,0-1.1-1.1-1.4-1.1c-0.4,0-1.8,0-2.1,0s-2.5-1.1-2.5-1.1l-2.1-2.1l-2.5-2.8
		l-0.7-2.8c0,0,2.1-1.4,4.6,1.1s4.2,4.2,5.6,3.9c1.8-0.4,5.6-0.7,5.6-0.7v-1.4l-1.8-3.5c0,0-7.7-9.1-15.1-10.2c0,0-4.6-8.1,3.9-5.6
		c8.4,2.5,9.5,6,9.8,6c0.7,0,6.7-1.8,4.6-8.1c-2.1-6.3-20-5.3-27.8-9.8c-7.7-4.6,2.8-6.3,2.8-6.3s5.3-2.1-2.5-3.9
		c0,0-12-2.5-14.1-3.2c-2.5-1.1-3.5-8.4-12.7-5.3l-3.5-1.8c0,0-2.8-1.4-2.5-1.8s0-2.8,0-2.8h-3.9l-2.5-2.1l-4.2,2.5l-4.2,1.1
		l-2.5-1.4c0,0-2.5-1.1,0-2.1c2.5-1.1,2.8-2.5,2.8-2.5s1.1-3.5-5.3-2.5l-2.5,2.5c0,0-1.4,0-1.8,0s-2.1,0-2.1,0s-1.4-1.1-2.1-1.1
		c-0.7,0.4-3.5,0-3.5,0l-3.5,2.5c0,0-0.7,5.6-5.6,2.1c0,0,1.8-9.8-6.7-4.6c-8.4,5.3-2.8,15.5-2.8,15.5l6.7,1.8h5.6l2.5,0.7h3.9
		l7.7,0.4L402,68l1.1,1.1c0,0,1.1-0.7,1.4-0.7c0.4,0,3.5,0.4,3.5,0.4s8.8,2.5,10.2,7.4l0.7,1.4h1.4c0,0,16.2-2.5,12.7,10.2h-1.4
		c0,0-3.2,1.1-1.8,4.6c1.4,3.5,0,5.3,0,5.3l-1.8,0.7h-1.8c0,0-1.1,1.8-2.5,1.1c-1.8-0.7,0.4-3.2-2.8-1.8s-5.3,3.9-3.2,4.9
		c2.1,1.1,4.9,1.4,4.9,1.4h3.9l3.5-1.1c0,0,2.8-3.5,3.9,0.7c0,0,4.6,2.1,4.9,3.5c0.4,1.8,3.9,1.8,3.9,1.8l6.3-0.7l1.1,2.5l-0.4,2.8
		h2.5h4.9l5.3,3.9l2.8,1.8C466,120.4,472.7,121.1,472.7,120.4z"/>
	<path id="XMLID_18_" class="st0" d="M427.3,6.5l19.3,1.4c0,0,3.2-0.4,3.2-4.9c0-4.6,22.5-2.5,22.5-2.5l13.7,3.2l10.6,3.9h7.4l6,2.8
		h6.7h7.4h4.9v1.1h-1.4l-1.4,2.1c0,0,1.4,2.5,3.5,2.5c2.1,0,7.4,0,8.8,0c1.4,0,3.9,3.9,3.9,3.9l4.9,6c0,0,9.8-2.1,11.6-0.4
		c2.1,1.4,2.5,3.2,1.4,6s1.8,3.9,5.3,2.5c3.5-1.4,8.1-1.4,7.7,7c0,0,6.7,2.5,9.8-0.7c2.8-3.2,0.4,4.6,2.8,4.9
		c2.5,0.4,7.7-1.4,6.3,2.1c-1.1,3.5-2.5,4.2-4.2,4.2c-1.8,0-3.5-1.4-4.2,1.4c-0.7,2.8,2.8,3.2,4.2,3.2c1.4,0,6,1.4,6.3,1.4
		s6,2.1,6.3,2.1s3.5,2.5,3.5,2.5l3.2,1.8c0,0,1.4,0,2.5,0s-6.7,0-6.7,0l-3.5-1.1l-4.2-0.4l-4.6-0.4c0,0-4.2,0.7-4.6,3.5
		c-0.4,2.8,3.9,4.9,6.7,4.2c2.8-0.7,19-0.7,19-0.7s0,8.8-6.3,11.3c-6.3,2.8-12.7-1.4-15.1,1.4c-2.1,2.8-2.1,9.1-2.1,9.1
		s0.4,1.4-6.3,3.2c-6.7,1.4-4.6-1.4-11.6,5.6c0,0,9.8,10.6,6.3,14.8c0,0-2.1,2.1,0,2.5s9.5,7.7,5.3,16.2v1.1c0,0-8.4,1.4-13-7.7
		c0,0-2.1-0.4-6.3,1.4l-0.7-1.1l-1.4-0.4h-4.2l-2.8-2.1L541.3,112l-5.6-1.4l-1.4-1.8v-2.1l3.5-2.1c0,0,3.5-4.6-2.1-3.9
		c-5.6,0.7-7,1.1-7,1.1l-1.4,1.1l-4.9-6l-4.2-2.8l-4.6-1.4l-1.1-0.7v-0.7l-2.1-3.5c0,0-6.3-5.3,1.1-6.3s4.2-6.3,4.2-6.3l-2.5-4.2
		c0,0-4.2-3.9-7-2.8c-2.5,1.1-2.5,3.5-2.5,3.5l-1.8,1.1l-7-0.7c0,0-3.5,0-2.1-2.1c1.4-2.1,3.5-2.1,3.5-2.1s3.2-0.4,4.6,0
		c1.1,0.4,2.1-1.8,1.8-2.1s-1.8-1.4-1.8-1.4l-2.5-3.2l-2.1-2.1c0,0-2.1,0-3.9,0c-1.4,0-2.8,2.1-2.8,2.1l-2.8-1.4v-2.8l-0.7-3.2
		l-28.1-17.2l-4.6-1.8l-15.8-0.7h-8.4l-2.8-4.2c0,0,1.4-1.8,1.4-2.1c0-0.4-2.5-1.8-2.5-1.8h-3.5l-5.6-2.1c0,0,1.1-2.5,1.4-2.5
		c0.4,0,4.9-1.4,5.3-1.4s7-2.8,2.1-6.7l-2.8-0.4c0,0-0.4-1.4,1.4-1.4c1.8,0,1.8-1.1,1.8-1.1l0.7-3.2C425.6,7.5,426.3,6.5,427.3,6.5z
		"/>
</g>
</svg>
