<?xml version="1.0" encoding="utf-8"?>
<!-- Generator: Adobe Illustrator 19.0.0, SVG Export Plug-In . SVG Version: 6.00 Build 0)  -->
<svg version="1.1" xmlns="http://www.w3.org/2000/svg" xmlns:xlink="http://www.w3.org/1999/xlink" x="0px" y="0px"
	 viewBox="0 0 231.8 261.8" style="enable-background:new 0 0 231.8 261.8;" xml:space="preserve">
<style type="text/css">
	.st0{fill:#B1CE36;}
	.st1{fill:#FF5555;}
</style>
<g id="Layer_1">
</g>
<g id="Layer_2">
	<path id="XMLID_3_" class="st0" d="M122.4,55.1c0,0,2.4-11.3-9.8-22l-7.9-7.3c0,0-2.4-1.5,0-3.4c2.4-1.8,10.8-9.2,10.8-9.2
		s0.7-1.3,1,1s4.8,12.2,4.8,12.2l0.4,0.7c0,0,10.8-34.1,52.6-27.4c0,0,31.8,1.3,34.6,0.3s-22.1,40.5-22.1,40.5s-22.7,18.2-56.8,3.8
		c0,0-1.5,8.3,3.5,10.7c1.5,7.2-6,13.1-11.3,4.6C121.7,58.9,122.8,56,122.4,55.1z"/>
	<path id="XMLID_2_" class="st1" d="M131.2,59.2c2-0.4,3.5-1.3,5.3-1.5c15.6-1.8,76.7-5.8,90.7,41c16.1,53.8-18.9,109-41.9,127.1
		s-44,31.4-44,31.4s-14.7,10.5-35.6-3.5c-21-14-40.5-5.6-40.5-5.6s-12.6,4.9-22.4-7c-9.7-11.8-77.8-100-20.3-182.5
		c1-1.5,2.3-2.7,3.7-3.8c9.8-7.3,49.3-32.4,92.6,1.2c0.8,0.6,1.6,1.2,2.5,1.6C123.6,58.9,127.6,60,131.2,59.2z"/>
</g>
</svg>
