<?xml version="1.0" encoding="utf-8"?>
<!-- Generator: Adobe Illustrator 19.0.0, SVG Export Plug-In . SVG Version: 6.00 Build 0)  -->
<svg version="1.1" id="Layer_1" xmlns="http://www.w3.org/2000/svg" xmlns:xlink="http://www.w3.org/1999/xlink" x="0px" y="0px"
	 viewBox="0 0 612 572.6" style="enable-background:new 0 0 612 572.6;" xml:space="preserve">
<style type="text/css">
	.st0{fill:#FFFFFF;}
</style>
<g id="australia">
	<path id="XMLID_206_" class="st0" d="M344.4,70.6l52,42c0,0,35.9,27.4,41.6-8.9c0,0,6.8-75.1,25.3-98.2l17.8,46.6
		c0,0-1.8,26,8.9,17.8l5.7,1.8L506,84.1V108l4.3,8.9l5.7,34.5l5.7,7.1h6h5.7l18.1,17.8v5.7l2.5,8.2l12.5,25.6l2.1,2.8l2.1-3.9
		c0,0,7.8-3.6,9.3,11.4c1.4,14.9,23.1,34.5,23.1,34.5s12.5,2.1,7.8,49.1c-4.6,47-20.6,67.6-20.6,67.6l-6.8,15.3
		c0,0-17.1,1.4-18.9,23.5c0,0,1.8,6-8.2,16.7c-10,10.7-11,10.7-13.5,18.9c-2.5,8.2-2.5,21-2.5,21l-15.3-2.1l-2.8,2.1h-14.9
		l-19.6,17.4l-6.8,2.5l-3.2-8.5l-9.6-8.2l-49.5-2.5c0,0-3.6,1.4-12.5-12.1l-3.9-2.1l-7.8-0.4l-0.4-6.8l-0.7-26.7c0,0,1.4-2.8-5,0
		c-6.4,2.8-10-12.8-10-12.8l-2.1-5l-5.7-2.5l1.4-17.1c0,0,6.4-16-3.9-7.1s-24.2,25.6-24.2,25.6l-16.7-25.6l-11-13.2l-11.4-2.1
		l-17.4-6.8l-10.7-3.9l-23.1,5l-15.3,1.8l-14.6,6l-17.1,4.6l-8.9,0.4l-24.2,23.5l-8.2,4.6l-12.8,0.4h-13.2l-24.2,4.3L95,429.7
		l-7.8-2.8L66.9,425l-10-2.8l-8.9-6c0,0-4.6-1.8,3.9-8.2c6.8-2.1,3.9-6,2.1-9.3c-1.4-3.2,2.5-15.3,2.5-15.3s-7.1-19.2-14.9-30.6
		c0,0-1.4-21-16.7-32l-3.2-9.3l-1.4-4.6L6.4,291.9c0,0-12.8-13.5,5-7.5s0-14.2,0-14.2S-1.1,245,4.2,216.1l4.3-4.3h6l26.3-22.4
		l12.8-3.2l60.1-23.8l12.5-17.1l5.3-6.8l-3.9-11.7l1.8-3.2l1.4-8.5c0,0,1.8-7.1,11,1.1c9.3,8.2,12.8,14.9,8.5-5.3
		c-4.3-20.3,12.5-4.3,12.5-4.3s6,3.2,1.1-12.5c-4.3-11.4-11,3.9,42.3-37.7l17.8,17.1l3.9,0.4l1.8-1.8l10.3,4.3c0,0,16,7.5,8.5-5
		l-5.3-5l0.4-7.5l24.2-28.5c0,0,39.9,7.5,24.2-10.3l-4.3-1.4c0,0-10.3-5.7,2.1-5l9.3,2.8l8.9,1.8l11.7,1.8l8.9,4.6l10.3,4.6l8.2-5.3
		c0,0,30.6-2.5,20.6,13.2l-1.8,5l-7.8,3.9c0,0-3.6-1.4-3.6,2.5s-0.4,8.5-0.4,8.5l-7.1,11C347.6,67.4,344.4,68.5,344.4,70.6z"/>
	<path id="XMLID_102_" class="st0" d="M474.7,565.6c0,0,2.8,10.7,15.3,5.7l16-23.1l2.5-17.1c0,0,1.1-11-5.3-8.2
		c-6.4,3.2-11.4,3.9-11.4,3.9l-6.4-1.4l-10.7-6l-6.8-1.4c0,0-11.4-7.8-8.5,5l3.9,7.5c0,0,4.6,6.4,3.2,16.4
		C465.4,556.7,474.7,565.6,474.7,565.6z"/>
</g>
</svg>
