<?xml version="1.0" encoding="utf-8"?>
<!-- Generator: Adobe Illustrator 19.0.0, SVG Export Plug-In . SVG Version: 6.00 Build 0)  -->
<svg version="1.1" id="Layer_1" xmlns="http://www.w3.org/2000/svg" xmlns:xlink="http://www.w3.org/1999/xlink" x="0px" y="0px"
	 viewBox="0 0 110.6 62.7" style="enable-background:new 0 0 110.6 62.7;" xml:space="preserve">
<style type="text/css">
	.st0{fill:none;stroke:#FFFFFF;stroke-width:1.1631;stroke-miterlimit:10;}
	.st1{fill:#FFFFFF;}
	.st2{fill:#2B2B2B;}
	.st3{opacity:0.92;fill:#2B2B2B;enable-background:new    ;}
</style>
<path id="XMLID_7_" class="st0" d="M1.6,22.5c0,0,20.3-21.6,34-11l26.5,20.9c0,0,0.9-0.2,1.8,1.1l0.2,0.8c0,0-1.9,0.2-2-0.5
	c0,0-11.2-3.2-37.8,17.3L1.6,22.5z"/>
<path id="XMLID_6_" class="st0" d="M61.3,41.9c0,0,0.4-12.5,18.7-18.6c0,0,21.5-1.3,23.2-4c0,0-19.6-9.5-35.5-19.3
	c0,0-1,1.9-14.9,2.7s-17.1,8.8-17.1,8.8"/>
<path id="XMLID_5_" class="st1" d="M1.4,23.4L1.4,23.4L1.4,23.4l0.2,0.2l21.9,27.7l0,7.1L0,28.4c0.6-0.1,0.3-1,0.3-1
	C0.1,24,1.4,23.4,1.4,23.4l0.2-0.9l-0.2-0.4c-2.2,1.1-2.2,4.7-2.2,4.7c-0.5-0.3-0.1,1.5-0.1,1.5s-0.2,0.2-0.8,0.5s-0.4,0.5-0.4,0.5
	l25.8,33.5l28.6-15.6c6.6-3.9,6.6-3.1,6.6-3.1c7.5,1.6,10.7-1.9,10.7-1.9c2.7-3.8,8.2-4.6,8.2-4.6l33-7c0,0-0.3-0.8-0.2-1.4
	c0.2-0.6,0.1-2.6,0.1-2.6l-6.4-3.7c0,0-0.4-0.9,0.1-3.1l-1.1-0.3l-0.9,1.1l0.5-0.1c0,0,0.4,2.8,0.6,2.7c0.2-0.1,0.6,1.7,0.6,1.7
	l1.9,5.1c0,0-30.2,0.7-34.2,9.1l-0.3,0.5c0,0-2-5.1-7.1-1.1l-0.2,0.2c0,0-0.2-2.4,2.2-6.2L60.8,42l3.4-7.7l-2.3-2.1l0.3,1.6
	L24.4,51.1l-1.1-0.8L2.5,23.6L2,23l0.2-1.1"/>
<polygon id="XMLID_3_" class="st1" points="66.2,32.4 62.8,33.2 60.7,42.1 "/>
<path id="XMLID_2_" class="st2" d="M24.6,51.5l0,5.2c0,0,0.2,1.9-0.1,2.8c-0.3,0.9,8.4-5.3,8.4-5.3S44,43.8,60.8,42
	c0,0-0.4-3.4,2.6-7.7C63.4,34.3,53.3,30.5,24.6,51.5z"/>
<path id="XMLID_1_" class="st3" d="M102.8,21.6c0,0-0.3,2.4,0.6,2.1c0,0,0.4,3.1,1.6,5.7c0,0-30.3,0.7-33.7,9.6c0,0-1.4-4.9-6.9-1.3
	c0,0,3-10.1,16.8-12.7S99.9,22.8,102.8,21.6z"/>
</svg>
