<?xml version="1.0" encoding="utf-8"?>
<!-- Generator: Adobe Illustrator 19.0.0, SVG Export Plug-In . SVG Version: 6.00 Build 0)  -->
<svg version="1.1" id="Layer_1" xmlns="http://www.w3.org/2000/svg" xmlns:xlink="http://www.w3.org/1999/xlink" x="0px" y="0px"
	 viewBox="0 0 80.6 112.6" style="enable-background:new 0 0 80.6 112.6;" xml:space="preserve">
<style type="text/css">
	.st0{fill:#F9ED32;}
	.st1{fill:#FF6E6E;}
	.st2{fill:#27AAE1;}
	.st3{fill:#50C956;}
</style>
<path id="XMLID_640_" class="st0" d="M17.1,16.9H1.5c-0.8,0-1.5-0.7-1.5-1.5V1.5C0,0.7,0.7,0,1.5,0h15.6c0.8,0,1.5,0.7,1.5,1.5v13.9
	C18.6,16.3,17.9,16.9,17.1,16.9z"/>
<path id="XMLID_639_" class="st1" d="M37.5,48.4H21.9c-0.8,0-1.5-0.7-1.5-1.5V33c0-0.8,0.7-1.5,1.5-1.5h15.6c0.8,0,1.5,0.7,1.5,1.5
	v13.9C39,47.8,38.3,48.4,37.5,48.4z"/>
<path id="XMLID_638_" class="st2" d="M57.9,80H42.3c-0.8,0-1.5-0.7-1.5-1.5V64.6c0-0.8,0.7-1.5,1.5-1.5h15.6c0.8,0,1.5,0.7,1.5,1.5
	v13.9C59.4,79.3,58.7,80,57.9,80z"/>
<path id="XMLID_636_" class="st3" d="M79.1,112.6H63.5c-0.8,0-1.5-0.7-1.5-1.5V97.2c0-0.8,0.7-1.5,1.5-1.5h15.6
	c0.8,0,1.5,0.7,1.5,1.5v13.9C80.6,112,79.9,112.6,79.1,112.6z"/>
</svg>
