<?xml version="1.0" encoding="utf-8"?>
<!-- Generator: Adobe Illustrator 19.0.0, SVG Export Plug-In . SVG Version: 6.00 Build 0)  -->
<svg version="1.1" id="Layer_1" xmlns="http://www.w3.org/2000/svg" xmlns:xlink="http://www.w3.org/1999/xlink" x="0px" y="0px"
	 viewBox="0 0 191.7 21.4" style="enable-background:new 0 0 191.7 21.4;" xml:space="preserve">
<style type="text/css">
	.st0{fill:#FFFFFF;}
</style>
<g id="XMLID_29_">
	<path id="XMLID_30_" class="st0" d="M0.6,0.1c0.9,0,2.2,0,4,0c1.8,0,3.1,0,4,0.1c0.2,0,0.3,0.1,0.4,0.2s0.2,0.3,0.2,0.4
		S9.1,1.2,9,1.3C8.9,1.4,8.7,1.4,8.5,1.4c-0.9,0-2.2-0.1-3.8-0.1s-2.8,0-3.5,0v8.4c0.8,0,1.9,0,3.4,0c1.5,0,2.6,0,3.4,0
		c0.2,0,0.3,0.1,0.4,0.2c0.1,0.1,0.2,0.3,0.2,0.4c0,0.2-0.1,0.3-0.2,0.4C8.3,10.9,8.2,11,8,11c-0.8,0-1.9,0-3.4,0
		c-1.5,0-2.6,0-3.4,0v9.2c1.8,0,4.2,0.1,7.1,0.1c0.2,0,0.3,0.1,0.4,0.2c0.1,0.1,0.2,0.3,0.2,0.4s-0.1,0.3-0.2,0.4
		c-0.1,0.1-0.3,0.2-0.4,0.2c-3.2,0-5.7,0-7.7-0.1c-0.1,0-0.3,0-0.4-0.2c-0.1-0.1-0.2-0.2-0.2-0.4c0-0.1,0-0.1,0-0.2V0.7v0v0
		c0-0.2,0.1-0.3,0.2-0.4S0.4,0.1,0.6,0.1L0.6,0.1z"/>
	<path id="XMLID_71_" class="st0" d="M19.8,10.4v3.6c0,0.1,0,0.1,0,0.2c0,0.3,0,0.5,0,0.8c0,2.1,0.1,4,0.2,5.7
		c0,0.2-0.1,0.3-0.2,0.4c-0.1,0.1-0.2,0.2-0.4,0.2c-0.2,0-0.3-0.1-0.4-0.2c-0.1-0.1-0.2-0.2-0.2-0.4l-0.1-1.6
		c-0.9,1.4-2,2.1-3.5,2.1c-1.3,0-2.4-0.6-3.3-1.7c-0.9-1.1-1.4-2.6-1.4-4.4c0-3.6,0.8-6.2,2.7-7.8c0.7-0.6,1.4-1,2.3-1.2
		c0.8-0.1,1.6,0,2.2,0.3c0.6,0.3,1.1,0.7,1.5,1.3c0.4,0.6,0.6,1.2,0.7,2c0,0.1,0,0.1,0,0.2v0.2v0.1V10.4L19.8,10.4z M18.6,10.4
		L18.6,10.4v-0.1v-0.1v0c0-0.6-0.2-1.2-0.5-1.6s-0.6-0.8-1.1-1c-0.4-0.2-0.9-0.3-1.5-0.2s-1.2,0.4-1.7,0.9c-1.5,1.4-2.3,3.7-2.2,6.9
		c0,1.5,0.4,2.7,1.1,3.5c0.7,0.9,1.5,1.3,2.4,1.3c0.8,0,1.6-0.4,2.3-1.2c0.7-0.8,1.1-2.1,1.2-3.8V10.4z"/>
	<path id="XMLID_117_" class="st0" d="M28.4,8.3c-0.5-0.5-1.1-0.9-1.8-1c-0.7-0.1-1.4,0-2,0.3C24,8,23.6,8.4,23.3,9
		c-0.2,0.5-0.2,1.1,0,1.7c0.2,0.4,0.6,0.8,1.3,1.3c0.3,0.2,0.7,0.5,1.2,0.8l1.2,0.8c1,0.7,1.8,1.4,2.4,2.1c0.6,0.7,0.8,1.6,0.7,2.6
		c-0.1,1-0.6,1.8-1.4,2.3S27,21.3,26,21.3c-1,0-1.9-0.2-2.8-0.7c-0.9-0.4-1.5-1-1.9-1.7c-0.1-0.1-0.1-0.3,0-0.5
		c0.1-0.2,0.2-0.3,0.3-0.4c0.1-0.1,0.3-0.1,0.5,0c0.2,0.1,0.3,0.2,0.4,0.3c0.2,0.5,0.7,0.9,1.4,1.2c0.7,0.3,1.4,0.5,2.2,0.5
		c0.8,0,1.5-0.2,2-0.5c0.5-0.3,0.8-0.8,0.9-1.4c0.1-0.7-0.1-1.3-0.5-1.8c-0.4-0.6-1.1-1.2-2-1.8c-0.2-0.2-0.6-0.4-1.2-0.8
		c-0.6-0.4-1-0.6-1.2-0.8c-0.9-0.6-1.5-1.3-1.7-1.8c-0.3-0.7-0.4-1.3-0.3-1.9c0.1-0.6,0.4-1.1,0.7-1.6c0.4-0.4,0.8-0.8,1.4-1.1
		s1.1-0.4,1.7-0.5c0.6-0.1,1.2,0,1.9,0.3c0.6,0.2,1.2,0.6,1.6,1.1c0.1,0.1,0.2,0.3,0.2,0.4c0,0.2-0.1,0.3-0.2,0.4
		c-0.1,0.1-0.3,0.2-0.4,0.1C28.7,8.5,28.5,8.4,28.4,8.3z"/>
	<path id="XMLID_211_" class="st0" d="M34.5,6.1c-1.1,0-1.9,0-2.4,0c-0.2,0-0.3-0.1-0.4-0.2s-0.2-0.3-0.2-0.4c0-0.2,0.1-0.3,0.2-0.4
		s0.3-0.2,0.4-0.2c0.5,0,1.3,0,2.4,0c0-1.5-0.1-2.8-0.1-4.1c0-0.2,0.1-0.3,0.2-0.5c0.1-0.1,0.3-0.2,0.4-0.2s0.3,0.1,0.4,0.2
		s0.2,0.2,0.2,0.4c0,1.3,0.1,2.7,0.1,4.1c0.9,0,1.7,0,2.4,0c0.2,0,0.3,0.1,0.4,0.2s0.2,0.3,0.2,0.4S38.6,5.8,38.5,6S38.2,6.1,38,6.1
		h-2.3c0,1.4,0,3.8,0,7.1c0,3.3,0,5.8,0,7.6c0,0.2-0.1,0.3-0.2,0.4c-0.1,0.1-0.3,0.2-0.4,0.2c-0.2,0-0.3-0.1-0.4-0.2
		c-0.1-0.1-0.2-0.3-0.2-0.4c0-1.8,0-4.3,0-7.6C34.6,9.9,34.6,7.6,34.5,6.1z"/>
	<path id="XMLID_213_" class="st0" d="M49.8,20.5c1.4-5.9,2.3-10.1,3-12.5c0.7-2.7,1.2-4.4,1.3-5.2c0.1-0.6,0.3-1.1,0.4-1.6
		c0.1-0.2,0.1-0.4,0.2-0.6c0-0.1,0.1-0.1,0.1-0.2c0,0,0-0.1,0-0.1c0,0,0.1-0.1,0.1-0.1c0.1-0.1,0.1-0.1,0.2-0.2
		c0.2-0.1,0.5,0,0.6,0.2c0.1,0.1,0.2,0.3,0.3,0.5c0.1,0.1,0.1,0.3,0.2,0.6c0.1,0.4,0.2,0.8,0.3,1.5l0.2,0.9c0.1,0.3,0.1,0.6,0.1,0.8
		c0,0.2,0.1,0.3,0.1,0.3l0.8,3.8l0.9,4.1c0.2,1,0.5,2.2,0.8,3.7c0.3,1.5,0.7,2.8,1,4c0,0.2,0,0.3-0.1,0.5c-0.1,0.1-0.2,0.2-0.4,0.3
		c-0.2,0-0.3,0-0.5-0.1c-0.1-0.1-0.2-0.2-0.3-0.4c-0.5-1.7-0.9-3.7-1.5-5.8c0,0-0.1,0-0.2,0c-2.7,0-4.6,0-5.5,0.1l-1.3,5.7
		c0,0.2-0.1,0.3-0.2,0.4c-0.1,0.1-0.3,0.1-0.5,0.1s-0.3-0.1-0.4-0.3C49.7,20.8,49.7,20.7,49.8,20.5z M52.5,13.8
		c0.9,0,2.6-0.1,5.1-0.1l-1.9-8.6c0,0,0-0.1-0.1-0.3L55.5,4L55.3,3l0-0.2l-0.1,0.3C55,4,54.6,5.7,53.9,8.4
		C53.4,10,53,11.8,52.5,13.8z"/>
	<path id="XMLID_216_" class="st0" d="M69,8.3c-0.5-0.5-1.1-0.9-1.8-1c-0.7-0.1-1.4,0-2,0.3C64.6,8,64.2,8.4,63.9,9
		c-0.2,0.5-0.2,1.1,0,1.7c0.2,0.4,0.6,0.8,1.3,1.3c0.3,0.2,0.7,0.5,1.2,0.8l1.2,0.8c1,0.7,1.8,1.4,2.4,2.1c0.6,0.7,0.8,1.6,0.7,2.6
		c-0.1,1-0.6,1.8-1.4,2.3c-0.8,0.5-1.7,0.7-2.8,0.7c-1,0-1.9-0.2-2.8-0.7c-0.9-0.4-1.5-1-1.9-1.7c-0.1-0.1-0.1-0.3,0-0.5
		c0.1-0.2,0.2-0.3,0.3-0.4c0.1-0.1,0.3-0.1,0.5,0c0.2,0.1,0.3,0.2,0.4,0.3c0.2,0.5,0.7,0.9,1.4,1.2c0.7,0.3,1.4,0.5,2.2,0.5
		c0.8,0,1.5-0.2,2-0.5c0.5-0.3,0.8-0.8,0.9-1.4c0.1-0.7-0.1-1.3-0.5-1.8c-0.4-0.6-1.1-1.2-2-1.8c-0.2-0.2-0.6-0.4-1.2-0.8
		c-0.6-0.4-1-0.6-1.2-0.8c-0.9-0.6-1.5-1.3-1.7-1.8c-0.3-0.7-0.4-1.3-0.3-1.9c0.1-0.6,0.4-1.1,0.7-1.6c0.4-0.4,0.8-0.8,1.4-1.1
		c0.5-0.3,1.1-0.4,1.7-0.5c0.6-0.1,1.2,0,1.9,0.3c0.6,0.2,1.2,0.6,1.6,1.1C70,7.6,70.1,7.8,70.1,8c0,0.2-0.1,0.3-0.2,0.4
		c-0.1,0.1-0.3,0.2-0.4,0.1C69.2,8.5,69.1,8.4,69,8.3z"/>
	<path id="XMLID_218_" class="st0" d="M73.5,2.1c0.1,0.1,0.2,0.3,0.2,0.4c0,0.2-0.1,0.3-0.2,0.4c-0.1,0.1-0.3,0.2-0.4,0.2
		c-0.2,0-0.3-0.1-0.4-0.2s-0.2-0.3-0.2-0.4c0-0.2,0.1-0.3,0.2-0.4s0.3-0.2,0.4-0.2C73.3,1.9,73.4,2,73.5,2.1z M73.7,6.8
		c0,1,0,2.5,0,4.4c0,1.9,0,3.6,0,5.2s0,3-0.1,4.4c0,0.2-0.1,0.3-0.2,0.4c-0.1,0.1-0.3,0.2-0.4,0.2c-0.2,0-0.3-0.1-0.4-0.2
		c-0.1-0.1-0.2-0.3-0.2-0.5c0.1-1.4,0.1-2.8,0.1-4.3c0-1.5,0-3.3,0-5.1c0-1.9,0-3.3,0-4.4c0-0.2,0.1-0.3,0.2-0.4s0.3-0.2,0.4-0.2
		c0.2,0,0.3,0.1,0.4,0.2C73.7,6.5,73.7,6.6,73.7,6.8z"/>
	<path id="XMLID_221_" class="st0" d="M84.4,10.4v3.6c0,0.1,0,0.1,0,0.2c0,0.3,0,0.5,0,0.8c0,2.1,0.1,4,0.2,5.7
		c0,0.2-0.1,0.3-0.2,0.4c-0.1,0.1-0.2,0.2-0.4,0.2c-0.2,0-0.3-0.1-0.4-0.2c-0.1-0.1-0.2-0.2-0.2-0.4l-0.1-1.6
		c-0.9,1.4-2,2.1-3.5,2.1c-1.3,0-2.4-0.6-3.3-1.7c-0.9-1.1-1.4-2.6-1.4-4.4c0-3.6,0.8-6.2,2.7-7.8c0.7-0.6,1.4-1,2.3-1.2
		c0.8-0.1,1.6,0,2.2,0.3c0.6,0.3,1.1,0.7,1.5,1.3c0.4,0.6,0.6,1.2,0.7,2c0,0.1,0,0.1,0,0.2v0.2v0.1V10.4L84.4,10.4z M83.2,10.4
		L83.2,10.4v-0.1v-0.1v0c0-0.6-0.2-1.2-0.5-1.6s-0.6-0.8-1.1-1c-0.4-0.2-0.9-0.3-1.5-0.2c-0.6,0.1-1.2,0.4-1.7,0.9
		c-1.5,1.4-2.3,3.7-2.2,6.9c0,1.5,0.4,2.7,1.1,3.5c0.7,0.9,1.5,1.3,2.4,1.3c0.8,0,1.6-0.4,2.3-1.2c0.7-0.8,1.1-2.1,1.2-3.8V10.4z"/>
	<path id="XMLID_224_" class="st0" d="M102.4,10.4v3.6c0,0.1,0,0.1,0,0.2c0,0.3,0,0.5,0,0.8c0,2.1,0.1,4,0.2,5.7
		c0,0.2-0.1,0.3-0.2,0.4c-0.1,0.1-0.2,0.2-0.4,0.2c-0.2,0-0.3-0.1-0.4-0.2c-0.1-0.1-0.2-0.2-0.2-0.4l-0.1-1.6
		c-0.9,1.4-2,2.1-3.5,2.1c-1.3,0-2.4-0.6-3.3-1.7c-0.9-1.1-1.4-2.6-1.4-4.4c0-3.6,0.8-6.2,2.7-7.8c0.7-0.6,1.4-1,2.3-1.2
		c0.8-0.1,1.6,0,2.2,0.3c0.6,0.3,1.1,0.7,1.5,1.3c0.4,0.6,0.6,1.2,0.7,2c0,0.1,0,0.1,0,0.2v0.2v0.1V10.4L102.4,10.4z M101.1,10.4
		L101.1,10.4v-0.1v-0.1v0c0-0.6-0.2-1.2-0.5-1.6c-0.3-0.5-0.6-0.8-1.1-1c-0.4-0.2-0.9-0.3-1.5-0.2S97,7.7,96.4,8.2
		c-1.5,1.4-2.3,3.7-2.2,6.9c0,1.5,0.4,2.7,1.1,3.5c0.7,0.9,1.5,1.3,2.4,1.3c0.8,0,1.6-0.4,2.3-1.2c0.7-0.8,1.1-2.1,1.2-3.8V10.4z"/>
	<path id="XMLID_227_" class="st0" d="M105.7,10.6v10.2c0,0.2-0.1,0.3-0.2,0.4c-0.1,0.1-0.3,0.2-0.4,0.2c-0.2,0-0.3-0.1-0.4-0.2
		c-0.1-0.1-0.2-0.3-0.2-0.4v-14c0-0.2,0.1-0.3,0.2-0.4s0.3-0.2,0.4-0.2c0.2,0,0.3,0.1,0.4,0.2s0.2,0.3,0.2,0.4v1.4
		c0.7-0.8,1.4-1.4,2.3-1.7c0.8-0.4,1.7-0.4,2.4-0.2c0.8,0.3,1.5,0.9,2.1,1.8c0.6,1.2,1,3.2,1.1,6.2c0,0.5,0,1.7,0,3.5
		c0,1.8,0,2.8,0,2.9c0,0.2-0.1,0.3-0.2,0.4c-0.1,0.1-0.3,0.2-0.4,0.2c-0.2,0-0.3-0.1-0.4-0.2c-0.1-0.1-0.2-0.3-0.2-0.4
		c0-0.1,0-1.1,0-2.9c0-1.8,0-2.9,0-3.4c-0.1-2.8-0.4-4.6-0.9-5.6c-0.4-0.7-0.8-1.1-1.4-1.3c-0.5-0.1-1-0.1-1.6,0.2
		c-0.6,0.2-1.1,0.6-1.6,1.2S106,9.9,105.7,10.6C105.8,10.5,105.7,10.6,105.7,10.6z"/>
	<path id="XMLID_229_" class="st0" d="M123.2,7.5V0.7c0-0.2,0.1-0.3,0.2-0.4s0.3-0.2,0.4-0.2c0.2,0,0.3,0.1,0.4,0.2s0.2,0.3,0.2,0.4
		v13.5c0,0.4,0,0.8,0,1.1v5.4c0,0.2-0.1,0.3-0.2,0.4c-0.1,0.1-0.3,0.2-0.4,0.2c-0.2,0-0.3-0.1-0.4-0.2c-0.1-0.1-0.2-0.3-0.2-0.4
		v-1.3c-0.8,1.2-1.8,1.8-3.1,1.9c-1.3,0.1-2.4-0.4-3.4-1.5c-1-1.1-1.5-2.6-1.6-4.5c-0.1-1.5,0.1-2.9,0.4-4.4c0.4-1.4,1-2.6,2-3.5
		c0.7-0.7,1.4-1.1,2.2-1.2c0.8-0.2,1.5-0.1,2.2,0.2C122.4,6.8,122.8,7.1,123.2,7.5z M123.1,10.5c0-0.7-0.2-1.3-0.5-1.8
		c-0.3-0.5-0.7-0.9-1.2-1.1c-1-0.5-2.1-0.3-3.1,0.7c-0.8,0.8-1.4,1.8-1.7,3c-0.3,1.2-0.4,2.5-0.4,3.9c0.1,1.6,0.5,2.9,1.3,3.7
		c0.7,0.8,1.6,1.2,2.5,1.1c0.8-0.1,1.5-0.5,2.1-1.3c0.6-0.8,1-2,1.1-3.5v-1.1v0v0v-3.5C123.1,10.6,123.1,10.5,123.1,10.5z"/>
	<path id="XMLID_232_" class="st0" d="M135.4,13.7v7c0,0.2-0.1,0.3-0.2,0.4c-0.1,0.1-0.3,0.2-0.4,0.2c-0.2,0-0.3-0.1-0.4-0.2
		c-0.1-0.1-0.2-0.3-0.2-0.4V0.7c0-0.2,0.1-0.3,0.2-0.4s0.3-0.2,0.4-0.2c0.2,0,0.3,0.1,0.4,0.2s0.2,0.3,0.2,0.4v0.5
		c0.9-0.6,2.1-0.9,3.5-1c0.9,0,1.7,0.2,2.4,0.6c0.7,0.4,1.2,1,1.5,1.8c0.6,1.4,0.7,3,0.2,4.9c-0.2,0.8-0.5,1.6-1,2.4
		c-0.4,0.7-1,1.4-1.6,2c-0.6,0.6-1.4,1.1-2.3,1.4C137.4,13.7,136.4,13.8,135.4,13.7z M135.4,2.7v9.8c1.6,0.2,2.9-0.2,4.1-1.2
		c1.2-1,1.9-2.4,2.4-4c0.4-1.6,0.4-3-0.2-4.1c-0.5-1.1-1.5-1.7-2.8-1.7c-0.7,0-1.4,0.1-1.9,0.3C136.6,1.9,136,2.2,135.4,2.7
		L135.4,2.7z"/>
	<path id="XMLID_235_" class="st0" d="M153.9,10.4v3.6c0,0.1,0,0.1,0,0.2c0,0.3,0,0.5,0,0.8c0,2.1,0.1,4,0.2,5.7
		c0,0.2-0.1,0.3-0.2,0.4c-0.1,0.1-0.2,0.2-0.4,0.2c-0.2,0-0.3-0.1-0.4-0.2c-0.1-0.1-0.2-0.2-0.2-0.4l-0.1-1.6
		c-0.9,1.4-2,2.1-3.5,2.1c-1.3,0-2.4-0.6-3.3-1.7c-0.9-1.1-1.4-2.6-1.4-4.4c0-3.6,0.8-6.2,2.7-7.8c0.7-0.6,1.4-1,2.3-1.2
		c0.8-0.1,1.6,0,2.2,0.3c0.6,0.3,1.1,0.7,1.5,1.3c0.4,0.6,0.6,1.2,0.7,2c0,0.1,0,0.1,0,0.2v0.2v0.1V10.4L153.9,10.4z M152.7,10.4
		L152.7,10.4v-0.1v-0.1v0c0-0.6-0.2-1.2-0.5-1.6c-0.3-0.5-0.6-0.8-1.1-1c-0.4-0.2-0.9-0.3-1.5-0.2s-1.2,0.4-1.7,0.9
		c-1.5,1.4-2.3,3.7-2.2,6.9c0,1.5,0.4,2.7,1.1,3.5c0.7,0.9,1.5,1.3,2.4,1.3c0.8,0,1.6-0.4,2.3-1.2c0.7-0.8,1.1-2.1,1.2-3.8V10.4z"/>
	<path id="XMLID_238_" class="st0" d="M162.6,9.7c-0.5-1-1-1.6-1.6-2c-0.5-0.2-1-0.3-1.5-0.1c-0.5,0.2-1.1,0.7-1.6,1.3
		c-0.5,0.6-0.9,1.4-1.2,2.3c-0.3,0.9-0.4,1.8-0.5,2.9c0,1.1,0.1,2.1,0.3,2.9c0.3,1.2,0.9,2.1,1.6,2.6c0.7,0.5,1.5,0.6,2.3,0.4
		c0.8-0.2,1.5-0.7,2.1-1.5c0.6-0.8,0.9-1.8,0.9-3c0-0.2,0.1-0.3,0.2-0.4c0.1-0.1,0.3-0.2,0.4-0.2c0.2,0,0.3,0.1,0.4,0.2
		c0.1,0.1,0.2,0.3,0.2,0.4c0,1.5-0.4,2.7-1.1,3.8c-0.7,1-1.7,1.7-2.8,1.9c-1.2,0.3-2.3,0.1-3.3-0.6c-1-0.7-1.7-1.8-2.1-3.3
		c-0.3-0.9-0.4-2-0.4-3.2c0-1.2,0.2-2.3,0.5-3.3c0.3-1,0.8-1.9,1.4-2.7c0.6-0.8,1.3-1.3,2-1.6c0.9-0.4,1.7-0.3,2.5,0.1
		c0.8,0.4,1.5,1.3,2.1,2.5c0.1,0.2,0.1,0.3,0,0.5c-0.1,0.2-0.2,0.3-0.3,0.3c-0.2,0.1-0.3,0.1-0.5,0C162.8,9.9,162.7,9.8,162.6,9.7z"
		/>
	<path id="XMLID_240_" class="st0" d="M167.7,2.1c0.1,0.1,0.2,0.3,0.2,0.4c0,0.2-0.1,0.3-0.2,0.4s-0.3,0.2-0.4,0.2
		c-0.2,0-0.3-0.1-0.4-0.2s-0.2-0.3-0.2-0.4c0-0.2,0.1-0.3,0.2-0.4s0.3-0.2,0.4-0.2C167.4,1.9,167.6,2,167.7,2.1z M167.9,6.8
		c0,1,0,2.5,0,4.4c0,1.9,0,3.6,0,5.2s0,3-0.1,4.4c0,0.2-0.1,0.3-0.2,0.4c-0.1,0.1-0.3,0.2-0.4,0.2c-0.2,0-0.3-0.1-0.4-0.2
		c-0.1-0.1-0.2-0.3-0.2-0.5c0.1-1.4,0.1-2.8,0.1-4.3c0-1.5,0-3.3,0-5.1c0-1.9,0-3.3,0-4.4c0-0.2,0.1-0.3,0.2-0.4s0.3-0.2,0.4-0.2
		c0.2,0,0.3,0.1,0.4,0.2S167.9,6.6,167.9,6.8z"/>
	<path id="XMLID_243_" class="st0" d="M177.2,5.6c0-0.5,0-1.1-0.1-1.8s-0.3-1.3-0.5-1.6c-0.3-0.5-0.6-0.7-0.9-0.8
		c-0.3-0.1-0.5,0-0.8,0.1c-0.3,0.2-0.6,0.5-0.9,0.8c-0.3,0.4-0.4,0.8-0.5,1.2c-0.2,1-0.3,2.7-0.2,5.1c1.2,0,2.2,0,3,0
		c0.2,0,0.3,0.1,0.5,0.2c0.1,0.1,0.2,0.3,0.2,0.4c0,0.2-0.1,0.3-0.2,0.4c-0.1,0.1-0.2,0.2-0.4,0.2c-0.8,0-1.9,0-3.1,0
		c0,0.3,0,1.9,0.1,4.7c0.1,2.8,0.1,4.9,0.1,6.4c0,0.2-0.1,0.3-0.2,0.4c-0.1,0.1-0.3,0.2-0.4,0.2c-0.2,0-0.3-0.1-0.4-0.2
		c-0.1-0.1-0.2-0.3-0.2-0.4c0-1.5,0-3.6-0.1-6.4c-0.1-2.8-0.1-4.4-0.1-4.7h-1.5c-0.2,0-0.3-0.1-0.4-0.2c-0.1-0.1-0.2-0.3-0.2-0.4
		s0.1-0.3,0.2-0.4c0.1-0.1,0.3-0.2,0.4-0.2h1.5c0-2.5,0-4.3,0.2-5.3c0.1-0.6,0.4-1.2,0.7-1.7c0.4-0.5,0.8-0.9,1.3-1.2
		c0.6-0.3,1.2-0.4,1.8-0.2c0.6,0.2,1.1,0.7,1.5,1.4c0.3,0.5,0.5,1.2,0.6,2s0.2,1.6,0.1,2.2c0,0.2-0.1,0.3-0.2,0.4
		c-0.1,0.1-0.3,0.2-0.4,0.1c-0.2,0-0.3-0.1-0.4-0.2S177.2,5.8,177.2,5.6z"/>
	<path id="XMLID_245_" class="st0" d="M181.3,2.1c0.1,0.1,0.2,0.3,0.2,0.4c0,0.2-0.1,0.3-0.2,0.4s-0.3,0.2-0.4,0.2
		c-0.2,0-0.3-0.1-0.4-0.2s-0.2-0.3-0.2-0.4c0-0.2,0.1-0.3,0.2-0.4s0.3-0.2,0.4-0.2C181.1,1.9,181.2,2,181.3,2.1z M181.5,6.8
		c0,1,0,2.5,0,4.4c0,1.9,0,3.6,0,5.2s0,3-0.1,4.4c0,0.2-0.1,0.3-0.2,0.4c-0.1,0.1-0.3,0.2-0.4,0.2c-0.2,0-0.3-0.1-0.4-0.2
		c-0.1-0.1-0.2-0.3-0.2-0.5c0.1-1.4,0.1-2.8,0.1-4.3c0-1.5,0-3.3,0-5.1c0-1.9,0-3.3,0-4.4c0-0.2,0.1-0.3,0.2-0.4s0.3-0.2,0.4-0.2
		c0.2,0,0.3,0.1,0.4,0.2S181.5,6.6,181.5,6.8z"/>
	<path id="XMLID_248_" class="st0" d="M190.2,9.7c-0.5-1-1-1.6-1.6-2c-0.5-0.2-1-0.3-1.5-0.1c-0.5,0.2-1.1,0.7-1.6,1.3
		c-0.5,0.6-0.9,1.4-1.2,2.3c-0.3,0.9-0.4,1.8-0.5,2.9c0,1.1,0.1,2.1,0.3,2.9c0.3,1.2,0.9,2.1,1.6,2.6s1.5,0.6,2.3,0.4
		c0.8-0.2,1.5-0.7,2.1-1.5c0.6-0.8,0.9-1.8,0.9-3c0-0.2,0.1-0.3,0.2-0.4c0.1-0.1,0.3-0.2,0.4-0.2c0.2,0,0.3,0.1,0.4,0.2
		c0.1,0.1,0.2,0.3,0.2,0.4c0,1.5-0.4,2.7-1.1,3.8c-0.7,1-1.7,1.7-2.8,1.9c-1.2,0.3-2.3,0.1-3.3-0.6c-1-0.7-1.7-1.8-2.1-3.3
		c-0.3-0.9-0.4-2-0.4-3.2c0-1.2,0.2-2.3,0.5-3.3c0.3-1,0.8-1.9,1.4-2.7c0.6-0.8,1.3-1.3,2-1.6c0.9-0.4,1.7-0.3,2.5,0.1
		c0.8,0.4,1.5,1.3,2.1,2.5c0.1,0.2,0.1,0.3,0,0.5c-0.1,0.2-0.2,0.3-0.3,0.3c-0.2,0.1-0.3,0.1-0.5,0C190.4,9.9,190.2,9.8,190.2,9.7z"
		/>
</g>
</svg>
