<?xml version="1.0" encoding="utf-8"?>
<!-- Generator: Adobe Illustrator 19.0.0, SVG Export Plug-In . SVG Version: 6.00 Build 0)  -->
<svg version="1.1" id="Layer_1" xmlns="http://www.w3.org/2000/svg" xmlns:xlink="http://www.w3.org/1999/xlink" x="0px" y="0px"
	 viewBox="0 0 612 470.8" style="enable-background:new 0 0 612 470.8;" xml:space="preserve">
<style type="text/css">
	.st0{fill:#FEFDFF;}
</style>
<g id="east_asia">
	<path id="XMLID_87_" class="st0" d="M469.6,14.9l7.6-8.3L494.5,0L512,2l12.6,9.3l8.9,20.5l5.6,8.6l5,6.6h7.9h7.9l8.9,4.6h3.6
		l4.6,8.9v3.6h5.3h7l7-4l3-4.6c0,0,9.3-12.9,12.6-0.3v4.6l-1,4.6l1,11.3L608,99l-10.9-2l-2.3,4l-5,5l1,5.3l6,11.3l-1.7,11.6l-5,2
		l5.3,5.6c0,0-8.3,3.6-6,13.6c2.3,9.6-0.3,10.9-0.3,10.9l-5.6,5.3l-2.3,2.3c0,0,0.3,3.3-5.3,5.3c-5.6,2-4,10.3-4,10.3l-1.3,1.7
		l1,1.3l3.3,0.7l4.3,3l4.3,1.7l6.3,9.3l9.6,10.6l0.7,6.6l1.7,7.3l2-2v6l-0.7,4.6c0,0-0.3,3.6-5,5.3l-0.3,4.3l-5.3-1.3l-5.3,0.3
		l-1.3,5.6l-11.3,5.6l-3.3-1.7l-1-5.3l-0.3-2.6V245l2.6-3l-1-3l-2.6-7l-1.3-4.3l-3.3,0.7c0,0-1.7-2.6,3.3-4.3l3.6,1l-1-4l-2-2.6
		l-1.3-3.3l-0.7-0.7l-3-1.7l-3,2l-3.6-2.6l-3.6,4l-1.7-1l-3.6-1l2-2.3h-5.6l1.3-4l1.7-2.6l5.3-2.3l-4.6-1.3l-0.7-2l1-4.6l-0.3-3.3
		l-3.3-1l-2,1l-0.7-2.3l-1.3,0.3l-0.7,0.7l-1.7-2.3h-2.6l-2.3,1.7h-2.3l-1.7-1l-0.3,1.3l-2.6,1.7l-2.3,1.3l-2.3,1.3l-3,1.3l-3,4.3
		l-2.3,3.6h-2H511v2l-1,1.3h-2.3l-1.7,1.7l-1.3-2.3l5-3V201l0.7-2h-4.6l-0.7-2.3l2-2v-2l3.6-4.3l2.6-6l-1-3.3l-3.3-1.3l-3.6,1h-3.3
		l-3,3.3l-3.3,6.3l-3,2.3l-7.6,5l-2.3,6.3l-2,3.3l-3,0.7l-3.6,2l-2.6-2l-2.3,0.7l-3,5.6l0.7,4.3l2.6,3l7.3,1l3.6-0.3l2.6,2l0.3,2.6
		l-0.3,2v4l2,2l5.6,0.3l2.6-1.7l0.7-2.6l3.3-3.6l-0.3-1l4.6-2.3l5.6,1.3l0.7,1l2.3,1l3,0.7l3.6-1l1-0.3l1.7,1.3l4-1v2.6l-1.3,2.3
		l1.3,2l-2,1.3l-2.3-0.7l-2.6,0.7l-3.3,1.3l-5,4.3l-3-0.7l1,2.6l-2,2c0,0,0,2,0,2.3s-4,1.7-4,1.7v-2.3l-2.6,2l1.7,1.7l-1,1.3
		l-2.3,3.6l-4.3,5l-1.7,4l-0.3,4.6l2.3-0.3l1.3,0.3l1.7,0.7l5,2l3,2.6l3,8.6l3.6,5.3l1.7,6.3l4.3,3.3l2.3,0.3l1,2.6l5,2.6l1.7,3.3
		l-2.6,1.3L513,300h-7l-3,2.6l6.3-1.3l7.9,3l9.9,8.3l-0.3,2l-6.6,3l-2.3,1.7l-1.7,3l-2.6,2h-3.3l-0.7,1.3h3.6l1.3,2.3l3.3-2l2.6-1.3
		l2.6,0.3l2.6,3h3.3l3.6,0.7l-5,11.6l-2.3,9.9l-5.6,6.6l-5,12.3l-5.3,5.6l-2.3,4.6l-1.3,6.6l-0.3,6l-4,5.3l-7.3,8.6h-6.6l-4,7
		l-7.3,9.6h-4.3l-5.3,7.3l-6,4l-21.2,3.6l-10.6-4v9.6l-10.9,4.6l-24.5,9.9l-3,7.3l0.7,3.6l-3,2.6l-6-0.7l-2.6-7.9l1-5.3l3.6-4
		l-3.3-0.3l-4.3,1.3h-5l-2-2.3l-5.6-2.6l-4.6,3.6h-8.3l-8.6-3l-4-10.3l2-3.6l2-0.7l-3.6-2.3l-3,0.7l-2-2l-2.6,1l-6.3-3.6
		c0,0-0.7-3-1-3s-10.3,7.6-10.3,7.6s-5.6,1.7-6,1.7s-7.3,0-7.3,0s-8.6-1-9.3-1c-0.3,0-4.6-2-4.6-2s-4.6,4-5,4s-4.3-0.3-4.3-0.3
		s-5,2.6-4.6,3.6s3.6,11.9,3.6,11.9l-1.7,2.6l-3.6-1l-2.3-1.7v-6l-2.3-2l-5,3.3l-5-0.3l-4-5l-0.7-2.3l-9.3-3l6-12.3l-6-4.3v-10.6
		h-19.5l2-11.6l8.9-9.9l6.6-4.6l3.6-15.9l-1.7-7.9l-10.6-14.6l-10.9,0.7v-3.6l-8.6-9.9l-8.3,3.6l-6-4l-6-1.3l-11.9,4.6L162,346.3
		l-9.6-5l-4.6-4l-8.9-3.6l-12.9,7l-3.6-9.9l-8.6,0.7l-12.3-2l-11.9-4l-12.3-12.3L63,296.7l-15.2-16.6l-7.6,3.3l-7.9-10.3v-5
		l-10.9-11.6v-13.9v-6h3.3l2.3,6l3.3-4v-13.6l5-8.6l-3.3-7.9l-2.3-6.6l0.7-7.9l-8.9-2.3l-6.3-5.6l-2.6-6.3v-8.6
		c0,0-13.9-6.6-12.3-10.9s8.6,1.3,8.6,1.3l1.3-3.6l4.3-14.6l-3.6-3.6l-7.6-0.3l1.7-7.6l2-7.6l8.9-9.9l11.9,2.6l5.6,2.6l-1.3,4l7,1.7
		l5.6-7l8.6,0.3l4.3,2l6.3-1.7l12.9-2.3h5c0,0,5-13.9,7.6-10.6l4.3-1.7c0,0,0.7-19.2,2.3-20.2c1.7-0.7,1.7-0.7,1.7-0.7l-2.3-4.6h-2
		l6.6-2h13.9l2,2.3l3.6,3.3l2-2.6l-1.3-1.7l13.6-19.9l5.3,1.7c0,0,1.7,2.3,2.3,2.6s5.6,2.6,5.6,2.6l0.3,1.7l5.6-0.7l3,0.3
		c0,0,2.3-16.2,7.3-17.5c5-1.3,7.9,4,11.3-5.3h8.6h3.6l2.3-3l5.3,0.7l5.3-0.3c0,0,3.6,0.7,3.6-3.3l4-0.3l6.6-2.3h3.6l4-0.7l3-3h3.6
		l1.3-1l2.6,2.6l2-1l1.7,2.3l10.3,3c0,0-4,8.6,7.6,9.6l9.3,2.3l4,1.7l3,2.3L273,53l2.6-2l2-0.7c0,0,4.6-2,3.6-6.6
		c0,0-3.3-2.6-2.6-7.6c0.7-4.6,6.6-8.6,6.6-8.6s4,0.3,4.3-5.3l7,5.3c0,0,2,2.6,5.6,1.3l4.6,2.3l3.3,3c0,0,7,1.3,7,2.3
		c0,1.3,0,5.3,0,5.3v5.6l4.6,3.3c0,0,5.6,6,10.9,3.3s11.6-2.6,11.6-2.6l8.3,2.3l3.6,0.7l5.3,3.6l4.3,0.3l1.3,5.6l6.3,3.3
		c0,0,10.6,0,12.6,2.3c2,2.3,18.5-2.6,24.8-5.3l4.3-4.3l8.6-5.6l5.6,1l5,4.3l6.6-3.3l6,2.6l9.6,3.3c0,0,5.3-7.3,12.3-8.3v-4.6H466
		l4-8.9l2-9.3l5-5.3v-5v-4h-5.6L469.6,14.9z"/>
</g>
</svg>
