<?xml version="1.0" encoding="utf-8"?>
<!-- Generator: Adobe Illustrator 19.0.0, SVG Export Plug-In . SVG Version: 6.00 Build 0)  -->
<svg version="1.1" id="Layer_1" xmlns="http://www.w3.org/2000/svg" xmlns:xlink="http://www.w3.org/1999/xlink" x="0px" y="0px"
	 viewBox="0 0 206.5 22.2" style="enable-background:new 0 0 206.5 22.2;" xml:space="preserve">
<style type="text/css">
	.st0{fill:#8B7F7D;}
	.st1{fill:#5D0002;}
	.st2{fill:#C4A48F;}
	.st3{fill:#977159;}
	.st4{fill:#D9A778;}
	.st5{fill:#FFFFFF;stroke:#C4A48F;stroke-width:0.2028;stroke-miterlimit:10;}
</style>
<path id="XMLID_149_" d="M198.9,22.1h-44.5c-4.2,0-7.6-3.4-7.6-7.6v0c0-4.2,3.4-7.6,7.6-7.6h44.5c4.2,0,7.6,3.4,7.6,7.6v0
	C206.5,18.7,203.1,22.1,198.9,22.1z"/>
<path id="XMLID_148_" class="st0" d="M197,22.1h-44.5c-4.2,0-7.6-3.4-7.6-7.6v0c0-4.2,3.4-7.6,7.6-7.6H197c4.2,0,7.6,3.4,7.6,7.6v0
	C204.6,18.7,201.2,22.1,197,22.1z"/>
<path id="XMLID_120_" class="st1" d="M195.5,21.9h-44.5c-4.2,0-7.6-3.4-7.6-7.6v0c0-4.2,3.4-7.6,7.6-7.6h44.5c4.2,0,7.6,3.4,7.6,7.6
	v0C203.1,18.5,199.6,21.9,195.5,21.9z"/>
<path id="XMLID_119_" class="st0" d="M193.7,21.9h-44.5c-4.2,0-7.6-3.4-7.6-7.6v0c0-4.2,3.4-7.6,7.6-7.6h44.5c4.2,0,7.6,3.4,7.6,7.6
	v0C201.3,18.5,197.9,21.9,193.7,21.9z"/>
<path id="XMLID_116_" d="M191.8,21.9h-44.5c-4.2,0-7.6-3.4-7.6-7.6v0c0-4.2,3.4-7.6,7.6-7.6h44.5c4.2,0,7.6,3.4,7.6,7.6v0
	C199.4,18.5,196,21.9,191.8,21.9z"/>
<path id="XMLID_103_" class="st2" d="M202,10.7l-57.8,0c-2.5,0-4.5-2-4.5-4.5v0c0-2.5,2-4.5,4.5-4.5H202c2.5,0,4.5,2,4.5,4.5v0
	C206.5,8.6,204.5,10.7,202,10.7z"/>
<path id="XMLID_101_" class="st3" d="M202,9h-57.8c-2.5,0-4.5-2-4.5-4.5v0c0-2.5,2-4.5,4.5-4.5L202,0c2.5,0,4.5,2,4.5,4.5v0
	C206.5,7,204.5,9,202,9z"/>
<path id="XMLID_100_" class="st4" d="M202.2,9.4H144c-2.4,0-4.3-1.9-4.3-4.3v0c0-2.4,1.9-4.3,4.3-4.3l58.3,0c2.4,0,4.3,1.9,4.3,4.3
	v0C206.5,7.5,204.6,9.4,202.2,9.4z"/>
<path id="XMLID_150_" class="st5" d="M57,22.2H4.6c-2.5,0-4.6-2-4.6-4.6l0-2.4c0-2.5,2-4.6,4.6-4.6H57c2.5,0,4.6,2,4.6,4.6v2.4
	C61.6,20.2,59.6,22.2,57,22.2z"/>
</svg>
