<?xml version="1.0" encoding="utf-8"?>
<!-- Generator: Adobe Illustrator 19.0.0, SVG Export Plug-In . SVG Version: 6.00 Build 0)  -->
<svg version="1.1" id="Layer_1" xmlns="http://www.w3.org/2000/svg" xmlns:xlink="http://www.w3.org/1999/xlink" x="0px" y="0px"
	 viewBox="0 0 219.4 26.8" style="enable-background:new 0 0 219.4 26.8;" xml:space="preserve">
<style type="text/css">
	.st0{fill:#FFFFFF;}
</style>
<g id="XMLID_530_">
	<path id="XMLID_625_" class="st0" d="M0.6-0.1c0.9,0,2.2,0,3.9,0c1.7,0,3.1,0,4,0.1c0.2,0,0.3,0.1,0.4,0.2S9,0.5,9,0.6S9,1,8.9,1.1
		C8.7,1.2,8.6,1.2,8.4,1.2c-0.9,0-2.1-0.1-3.7-0.1s-2.8,0-3.5,0v8.3c0.8,0,1.9,0,3.4,0c1.5,0,2.6,0,3.3,0c0.2,0,0.3,0.1,0.4,0.2
		C8.4,9.7,8.5,9.9,8.5,10s-0.1,0.3-0.2,0.4S8,10.6,7.9,10.6c-0.8,0-1.9,0-3.4,0c-1.5,0-2.6,0-3.3,0v9.1c1.8,0,4.1,0.1,7,0.1
		c0.2,0,0.3,0.1,0.4,0.2c0.1,0.1,0.2,0.3,0.2,0.4c0,0.2-0.1,0.3-0.2,0.4c-0.1,0.1-0.3,0.2-0.4,0.2c-3.1,0-5.7,0-7.6-0.1
		c-0.1,0-0.3,0-0.4-0.1C0.1,20.6,0,20.5,0,20.3c0-0.1,0-0.1,0-0.2V0.5v0v0c0-0.2,0.1-0.3,0.2-0.4C0.3,0,0.4-0.1,0.6-0.1L0.6-0.1z"/>
	<path id="XMLID_623_" class="st0" d="M12.5,6.5c0,0.2,0,0.7-0.1,1.4l-0.1,1.8c-0.1,1.8-0.2,3.3-0.1,4.6c0.1,1.7,0.3,3.1,0.6,4
		c0.4,0.9,0.8,1.4,1.5,1.3c0.5,0,1-0.3,1.5-0.9c0.4-0.6,0.8-1.4,1.1-2.4c0.5-1.6,0.8-3.4,0.9-5.3c0-0.4,0-0.9,0.1-1.6
		c0-0.7,0-1.3,0.1-1.6c0-0.1,0-0.2,0-0.4c0-0.2,0-0.3,0-0.4c0-0.1,0-0.2,0-0.3V6.6c0-0.1,0-0.1,0.1-0.1c0.2-0.2,0.3-0.3,0.5-0.3
		c0.3,0,0.4,0.1,0.6,0.3l0.1,0.2v0.1v0.1c0.1,1.6,0.1,3.9,0.1,6.9c0,3,0.1,5.2,0.1,6.6c0,0.2-0.1,0.3-0.2,0.4
		c-0.1,0.1-0.2,0.2-0.4,0.2c-0.2,0-0.3-0.1-0.4-0.2c-0.1-0.1-0.2-0.2-0.2-0.4c0-1.2-0.1-2.5-0.1-4.1c0,0.2-0.1,0.3-0.1,0.5
		c-0.4,1.2-0.8,2.1-1.3,2.8c-0.7,0.9-1.5,1.4-2.4,1.4c-1.2,0.1-2.1-0.6-2.6-2.1c-0.4-1.1-0.6-2.5-0.7-4.4c0-1.3,0-2.9,0.1-4.7
		l0.1-1.8c0.1-0.7,0.1-1.2,0.1-1.4c0-0.2,0.1-0.3,0.2-0.4c0.1-0.1,0.3-0.2,0.4-0.2c0.2,0,0.3,0.1,0.4,0.2
		C12.4,6.2,12.5,6.3,12.5,6.5z"/>
	<path id="XMLID_621_" class="st0" d="M22.6,6.6c0,1.5,0,3.6,0,6.1c1.3-3.3,3.1-5.5,5.6-6.8c0.1-0.1,0.3-0.1,0.4,0S29,6,29,6.2
		c0.1,0.1,0.1,0.3,0,0.4C29,6.8,28.9,6.9,28.8,7C27.3,7.8,26,9,25,10.6c-1,1.7-1.7,3.5-2,5.4c-0.1,0.5-0.1,1.1-0.1,2
		c0,1,0,1.8-0.1,2.2c0,0,0,0.1,0,0.1c0,0,0,0.1,0,0.1c0,0.1-0.1,0.2-0.2,0.3c-0.1,0.1-0.2,0.1-0.4,0.1c-0.1,0-0.3,0-0.4-0.1
		c-0.1-0.1-0.1-0.1-0.2-0.2c0,0,0-0.1-0.1-0.1c0-0.1,0-0.2,0-0.3c0-0.2,0-0.5,0-0.7c0-0.4,0-1,0-1.8c0-0.8,0-1.4,0-1.8
		c-0.1-4.7-0.1-7.7-0.1-9c0-0.2,0.1-0.3,0.2-0.4C21.7,6,21.9,5.9,22,5.9c0.2,0,0.3,0.1,0.4,0.2C22.6,6.2,22.6,6.4,22.6,6.6z"/>
	<path id="XMLID_618_" class="st0" d="M34.6,6c0.1-0.1,0.3-0.1,0.4-0.1c0.1,0,0.1,0,0.2,0s0.1,0,0.2,0c0.1,0,0.1,0,0.2,0
		C36,6,36.3,6,36.5,6.1c1.1,0.5,2,1.6,2.6,3.3c0.5,1.5,0.8,3.2,0.7,4.9c-0.1,1.9-0.6,3.4-1.3,4.5c-0.9,1.4-2.2,2-3.8,1.9
		c-1.4-0.2-2.5-1.1-3.3-2.7c-0.6-1.4-0.9-3-0.9-4.9c0.1-1.9,0.5-3.5,1.2-4.8C32.4,7,33.4,6.2,34.6,6z M35.2,7.1
		c-1,0.1-1.9,0.7-2.5,1.9c-0.6,1.2-1,2.6-1,4.3c0,1.7,0.2,3.1,0.8,4.3c0.6,1.2,1.4,1.9,2.3,2c1.1,0.1,2-0.3,2.7-1.3
		c0.7-1,1-2.3,1.1-3.9c0.1-1.6-0.1-3.1-0.6-4.5c-0.5-1.4-1.1-2.3-1.9-2.6c-0.1,0-0.2-0.1-0.4-0.1c0,0-0.1,0-0.3,0
		C35.3,7.1,35.2,7.1,35.2,7.1z"/>
	<path id="XMLID_615_" class="st0" d="M42.5,20.1v6.1c0,0.2-0.1,0.3-0.2,0.4c-0.1,0.1-0.3,0.2-0.4,0.2c-0.2,0-0.3-0.1-0.4-0.2
		c-0.1-0.1-0.2-0.3-0.2-0.4V6.5c0-0.2,0.1-0.3,0.2-0.4c0.1-0.1,0.3-0.2,0.4-0.2c0.2,0,0.3,0.1,0.4,0.2c0.1,0.1,0.2,0.3,0.2,0.4v1.3
		c0.4-0.4,0.8-0.8,1.4-1.1c1.6-0.9,3.1-0.9,4.4,0c1.1,0.8,1.8,2.1,2.3,3.8c0.2,0.8,0.3,1.6,0.3,2.5c0,0.9-0.1,1.7-0.2,2.5
		c-0.2,0.8-0.5,1.6-0.9,2.3c-0.4,0.7-1,1.3-1.6,1.7c-0.5,0.4-1.1,0.7-1.7,0.9c-0.6,0.2-1.3,0.3-2,0.3C43.7,20.7,43.1,20.5,42.5,20.1
		z M42.5,10.2v8.2c0.1,0,0.1,0.1,0.2,0.1c0.6,0.7,1.3,1,2.2,1c0.9,0,1.8-0.3,2.6-0.9c1-0.7,1.6-1.8,2-3.4c0.3-1.6,0.3-3-0.1-4.5
		c-0.4-1.5-1-2.5-1.8-3.1C46.7,7,45.7,7,44.5,7.7c-0.8,0.5-1.5,1.3-1.9,2.4C42.6,10.1,42.6,10.1,42.5,10.2z"/>
	<path id="XMLID_612_" class="st0" d="M61,12.7c-1.2,0-3.6-0.1-7.1-0.1c-0.1,2.9,0.4,4.9,1.5,6c1.1,1.1,2.3,1.5,3.6,1
		c0.6-0.2,1.1-0.5,1.5-1c0.4-0.4,0.6-0.9,0.7-1.4c0-0.2,0.1-0.3,0.3-0.4c0.1-0.1,0.3-0.1,0.4-0.1c0.2,0,0.3,0.1,0.4,0.3
		c0.1,0.1,0.1,0.3,0.1,0.4c-0.2,0.7-0.5,1.4-1.1,2c-0.5,0.6-1.2,1-1.9,1.3c-0.7,0.3-1.6,0.4-2.5,0.2c-0.9-0.2-1.7-0.7-2.4-1.4
		c-1.4-1.4-2-3.8-1.8-7.3c0.1-1.7,0.6-3.1,1.4-4.2c0.8-1.2,1.8-1.8,2.9-2c1.2-0.2,2.2,0.2,3.1,1.3c0.9,1.1,1.4,2.6,1.6,4.7
		c0,0.1,0,0.2-0.1,0.3C61.5,12.5,61.3,12.7,61,12.7z M54,11.4c3.2,0,5.3,0,6.4,0c-0.2-1.6-0.6-2.7-1.2-3.5c-0.6-0.7-1.2-0.9-2-0.8
		c-0.7,0.1-1.4,0.6-2,1.3C54.6,9.2,54.2,10.2,54,11.4z"/>
	<path id="XMLID_607_" class="st0" d="M79.8,10.1v3.6c0,0.1,0,0.1,0,0.2c0,0.3,0,0.5,0,0.8c0,2.1,0.1,4,0.1,5.6
		c0,0.2-0.1,0.3-0.2,0.4c-0.1,0.1-0.2,0.2-0.4,0.2c-0.2,0-0.3-0.1-0.4-0.2c-0.1-0.1-0.2-0.2-0.2-0.4l-0.1-1.6
		c-0.9,1.4-2,2.1-3.5,2.1c-1.3,0-2.3-0.6-3.3-1.7c-0.9-1.1-1.4-2.5-1.4-4.3c0-3.6,0.8-6.1,2.6-7.7c0.7-0.6,1.4-1,2.2-1.1
		c0.8-0.1,1.5,0,2.2,0.3c0.6,0.3,1.1,0.7,1.5,1.3c0.4,0.6,0.6,1.2,0.7,2c0,0.1,0,0.1,0,0.2v0.2v0.1V10.1L79.8,10.1z M78.6,10.1
		L78.6,10.1V9.9V9.9v0c0-0.6-0.2-1.2-0.4-1.6c-0.3-0.4-0.6-0.8-1.1-1c-0.4-0.2-0.9-0.3-1.5-0.2c-0.6,0.1-1.1,0.4-1.7,0.9
		c-1.5,1.4-2.2,3.6-2.2,6.8c0,1.5,0.4,2.6,1.1,3.5c0.7,0.9,1.5,1.3,2.4,1.3c0.8,0,1.6-0.4,2.2-1.2c0.7-0.8,1-2.1,1.1-3.7V10.1z"/>
	<path id="XMLID_603_" class="st0" d="M83.1,10.2v10.1c0,0.2-0.1,0.3-0.2,0.4s-0.3,0.2-0.4,0.2c-0.2,0-0.3-0.1-0.4-0.2
		c-0.1-0.1-0.2-0.3-0.2-0.4V6.6c0-0.2,0.1-0.3,0.2-0.4C82.2,6,82.4,6,82.5,6c0.2,0,0.3,0.1,0.4,0.2c0.1,0.1,0.2,0.3,0.2,0.4v1.3
		c0.7-0.8,1.4-1.3,2.2-1.7c0.8-0.4,1.6-0.4,2.4-0.2c0.8,0.3,1.5,0.9,2.1,1.8c0.6,1.2,1,3.2,1,6.1c0,0.5,0,1.7,0,3.4
		c0,1.8,0,2.7,0,2.8c0,0.2-0.1,0.3-0.2,0.4s-0.3,0.2-0.4,0.2c-0.2,0-0.3-0.1-0.4-0.2s-0.2-0.3-0.2-0.4c0-0.1,0-1.1,0-2.8
		c0-1.8,0-2.9,0-3.4c-0.1-2.7-0.4-4.6-0.9-5.6c-0.4-0.7-0.8-1.1-1.3-1.3c-0.5-0.1-1-0.1-1.6,0.1c-0.6,0.2-1.1,0.6-1.6,1.1
		C83.7,9,83.4,9.6,83.1,10.2C83.1,10.2,83.1,10.2,83.1,10.2z"/>
	<path id="XMLID_558_" class="st0" d="M100.3,7.2V0.5c0-0.2,0.1-0.3,0.2-0.4s0.3-0.2,0.4-0.2c0.2,0,0.3,0.1,0.4,0.2s0.2,0.3,0.2,0.4
		v13.3c0,0.4,0,0.7,0,1.1v5.3c0,0.2-0.1,0.3-0.2,0.4s-0.3,0.2-0.4,0.2c-0.2,0-0.3-0.1-0.4-0.2s-0.2-0.3-0.2-0.4v-1.3
		c-0.8,1.2-1.8,1.8-3.1,1.9c-1.3,0.1-2.4-0.4-3.4-1.4c-1-1.1-1.5-2.5-1.6-4.4c-0.1-1.5,0.1-2.9,0.4-4.3c0.4-1.4,1-2.5,2-3.4
		C95.3,6.6,96,6.2,96.8,6c0.8-0.2,1.5-0.1,2.2,0.2C99.5,6.5,99.9,6.8,100.3,7.2z M100.2,10.1c0-0.7-0.2-1.2-0.5-1.7
		c-0.3-0.5-0.7-0.8-1.2-1c-1-0.5-2-0.3-3,0.7c-0.8,0.8-1.4,1.8-1.7,3c-0.3,1.2-0.4,2.5-0.4,3.8c0.1,1.6,0.5,2.8,1.3,3.6
		s1.5,1.2,2.4,1.1c0.8-0.1,1.5-0.5,2.1-1.3c0.6-0.8,1-1.9,1-3.4v-1v0v0v-3.5C100.2,10.3,100.2,10.2,100.2,10.1z"/>
	<path id="XMLID_556_" class="st0" d="M117.4,4.7c-0.1-0.8-0.4-1.5-0.7-2.1c-0.4-0.6-0.8-1.1-1.2-1.4c-0.4-0.3-0.8-0.3-1.2-0.1
		c-0.5,0.2-1,0.8-1.5,1.6c-0.9,1.6-1.4,3.5-1.7,5.8c-0.3,2.3-0.2,4.3,0.1,6.1c0.3,1.9,0.8,3.2,1.6,4c0.8,0.8,1.6,1.2,2.5,1.1
		c0.9-0.1,1.7-0.7,2.4-1.8c0.7-1,1.1-2.4,1.3-4.2c0-0.2,0.1-0.3,0.2-0.4c0.1-0.1,0.3-0.2,0.4-0.1s0.3,0.1,0.4,0.2
		c0.1,0.1,0.2,0.3,0.1,0.4c-0.1,2-0.6,3.6-1.5,4.9c-0.9,1.3-1.9,2-3.2,2.2c-1.3,0.2-2.4-0.2-3.4-1.3c-1-1.1-1.7-2.7-2-4.7
		c-0.2-1.4-0.3-2.8-0.3-4.2s0.2-2.9,0.5-4.4c0.3-1.5,0.8-2.9,1.4-4c0.6-1.1,1.3-1.9,2.1-2.2c0.8-0.3,1.5-0.3,2.3,0.2
		c0.6,0.4,1.1,1,1.6,1.8c0.4,0.8,0.8,1.7,0.9,2.6c0,0.2,0,0.3-0.1,0.4c-0.1,0.1-0.2,0.2-0.4,0.2c-0.2,0-0.3,0-0.4-0.1
		C117.5,4.9,117.4,4.8,117.4,4.7z"/>
	<path id="XMLID_553_" class="st0" d="M130.2,12.7c-1.2,0-3.6-0.1-7.1-0.1c-0.1,2.9,0.4,4.9,1.5,6c1.1,1.1,2.3,1.5,3.6,1
		c0.6-0.2,1.1-0.5,1.5-1c0.4-0.4,0.6-0.9,0.7-1.4c0-0.2,0.1-0.3,0.3-0.4c0.1-0.1,0.3-0.1,0.4-0.1c0.2,0,0.3,0.1,0.4,0.3
		c0.1,0.1,0.1,0.3,0.1,0.4c-0.2,0.7-0.5,1.4-1.1,2c-0.5,0.6-1.2,1-1.9,1.3c-0.7,0.3-1.6,0.4-2.5,0.2c-0.9-0.2-1.7-0.7-2.4-1.4
		c-1.4-1.4-2-3.8-1.8-7.3c0.1-1.7,0.6-3.1,1.4-4.2c0.8-1.2,1.8-1.8,2.9-2c1.2-0.2,2.2,0.2,3.1,1.3c0.9,1.1,1.4,2.6,1.6,4.7
		c0,0.1,0,0.2-0.1,0.3C130.8,12.5,130.6,12.7,130.2,12.7z M123.2,11.4c3.2,0,5.3,0,6.4,0c-0.2-1.6-0.6-2.7-1.2-3.5
		c-0.6-0.7-1.2-0.9-2-0.8c-0.7,0.1-1.4,0.6-2,1.3C123.9,9.2,123.4,10.2,123.2,11.4z"/>
	<path id="XMLID_551_" class="st0" d="M134.6,10.2v10.1c0,0.2-0.1,0.3-0.2,0.4s-0.3,0.2-0.4,0.2c-0.2,0-0.3-0.1-0.4-0.2
		s-0.2-0.3-0.2-0.4V6.6c0-0.2,0.1-0.3,0.2-0.4C133.7,6,133.9,6,134,6c0.2,0,0.3,0.1,0.4,0.2c0.1,0.1,0.2,0.3,0.2,0.4v1.3
		c0.7-0.8,1.4-1.3,2.2-1.7c0.8-0.4,1.6-0.4,2.4-0.2c0.8,0.3,1.5,0.9,2.1,1.8c0.6,1.2,1,3.2,1,6.1c0,0.5,0,1.7,0,3.4
		c0,1.8,0,2.7,0,2.8c0,0.2-0.1,0.3-0.2,0.4s-0.3,0.2-0.4,0.2c-0.2,0-0.3-0.1-0.4-0.2s-0.2-0.3-0.2-0.4c0-0.1,0-1.1,0-2.8
		c0-1.8,0-2.9,0-3.4c-0.1-2.7-0.4-4.6-0.9-5.6c-0.4-0.7-0.8-1.1-1.3-1.3c-0.5-0.1-1-0.1-1.6,0.1c-0.6,0.2-1.1,0.6-1.6,1.1
		C135.2,9,134.9,9.6,134.6,10.2C134.6,10.2,134.6,10.2,134.6,10.2z"/>
	<path id="XMLID_549_" class="st0" d="M146.8,5.8c-1.1,0-1.9,0-2.4,0c-0.2,0-0.3-0.1-0.4-0.2c-0.1-0.1-0.2-0.3-0.2-0.4
		c0-0.2,0.1-0.3,0.2-0.4c0.1-0.1,0.3-0.2,0.4-0.2c0.5,0,1.3,0,2.4,0c0-1.4,0-2.8-0.1-4c0-0.2,0.1-0.3,0.2-0.4s0.2-0.2,0.4-0.2
		s0.3,0.1,0.4,0.2c0.1,0.1,0.2,0.2,0.2,0.4c0,1.3,0.1,2.6,0.1,4.1c0.9,0,1.7,0,2.3,0c0.2,0,0.3,0.1,0.4,0.2c0.1,0.1,0.2,0.3,0.2,0.4
		s-0.1,0.3-0.2,0.4s-0.3,0.2-0.4,0.2H148c0,1.4,0,3.7,0,7c0,3.2,0,5.7,0,7.5c0,0.2-0.1,0.3-0.2,0.4c-0.1,0.1-0.2,0.2-0.4,0.2
		c-0.2,0-0.3-0.1-0.4-0.2c-0.1-0.1-0.2-0.3-0.2-0.4c0-1.7,0-4.2,0-7.5C146.8,9.6,146.8,7.3,146.8,5.8z"/>
	<path id="XMLID_547_" class="st0" d="M154.2,6.6c0,1.5,0,3.6,0,6.1c1.3-3.3,3.1-5.5,5.6-6.8c0.1-0.1,0.3-0.1,0.4,0s0.3,0.2,0.4,0.3
		c0.1,0.1,0.1,0.3,0,0.4c-0.1,0.2-0.2,0.3-0.3,0.4c-1.5,0.8-2.8,2-3.8,3.6c-1,1.7-1.7,3.5-2,5.4c-0.1,0.5-0.1,1.1-0.1,2
		c0,1,0,1.8-0.1,2.2c0,0,0,0.1,0,0.1c0,0,0,0.1,0,0.1c0,0.1-0.1,0.2-0.2,0.3c-0.1,0.1-0.2,0.1-0.4,0.1c-0.1,0-0.3,0-0.4-0.1
		c-0.1-0.1-0.1-0.1-0.2-0.2c0,0,0-0.1-0.1-0.1c0-0.1,0-0.2,0-0.3c0-0.2,0-0.5,0-0.7c0-0.4,0-1,0-1.8c0-0.8,0-1.4,0-1.8
		c-0.1-4.7-0.1-7.7-0.1-9c0-0.2,0.1-0.3,0.2-0.4c0.1-0.1,0.3-0.2,0.4-0.2s0.3,0.1,0.4,0.2C154.1,6.2,154.2,6.4,154.2,6.6z"/>
	<path id="XMLID_544_" class="st0" d="M171,10.1v3.6c0,0.1,0,0.1,0,0.2c0,0.3,0,0.5,0,0.8c0,2.1,0.1,4,0.1,5.6
		c0,0.2-0.1,0.3-0.2,0.4c-0.1,0.1-0.2,0.2-0.4,0.2c-0.2,0-0.3-0.1-0.4-0.2c-0.1-0.1-0.2-0.2-0.2-0.4l-0.1-1.6
		c-0.9,1.4-2,2.1-3.5,2.1c-1.3,0-2.3-0.6-3.3-1.7c-0.9-1.1-1.4-2.5-1.4-4.3c0-3.6,0.8-6.1,2.6-7.7c0.7-0.6,1.4-1,2.2-1.1
		c0.8-0.1,1.5,0,2.2,0.3c0.6,0.3,1.1,0.7,1.5,1.3c0.4,0.6,0.6,1.2,0.7,2c0,0.1,0,0.1,0,0.2v0.2v0.1V10.1L171,10.1z M169.8,10.1
		L169.8,10.1V9.9V9.9v0c0-0.6-0.2-1.2-0.4-1.6c-0.3-0.4-0.6-0.8-1.1-1c-0.4-0.2-0.9-0.3-1.5-0.2c-0.6,0.1-1.1,0.4-1.7,0.9
		c-1.5,1.4-2.2,3.6-2.2,6.8c0,1.5,0.4,2.6,1.1,3.5c0.7,0.9,1.5,1.3,2.4,1.3c0.8,0,1.6-0.4,2.2-1.2s1-2.1,1.1-3.7V10.1z"/>
	<path id="XMLID_542_" class="st0" d="M174,0.5c0.1,2.5,0.1,6,0.1,10.6c0,4.6,0,7.6,0,9.1c0,0.2-0.1,0.3-0.2,0.4
		c-0.1,0.1-0.2,0.2-0.4,0.2c-0.2,0-0.3-0.1-0.4-0.2c-0.1-0.1-0.2-0.3-0.2-0.4c0-1.5,0-4.5,0-9.1c0-4.6-0.1-8.1-0.1-10.6
		c0-0.2,0.1-0.3,0.2-0.4s0.2-0.2,0.4-0.2s0.3,0.1,0.4,0.2C174,0.2,174,0.4,174,0.5z"/>
	<path id="XMLID_539_" class="st0" d="M185.1,20.1c1.3-5.8,2.3-9.9,2.9-12.3c0.7-2.6,1.1-4.3,1.3-5.1c0.1-0.6,0.3-1.1,0.4-1.6
		c0.1-0.2,0.1-0.4,0.1-0.6c0-0.1,0.1-0.1,0.1-0.2c0,0,0-0.1,0-0.1c0,0,0-0.1,0.1-0.1c0.1-0.1,0.1-0.1,0.2-0.2c0.2-0.1,0.4,0,0.6,0.1
		c0.1,0.1,0.2,0.3,0.3,0.5c0.1,0.1,0.1,0.3,0.2,0.6c0.1,0.4,0.2,0.8,0.3,1.4l0.2,0.9c0.1,0.3,0.1,0.6,0.1,0.8c0,0.2,0.1,0.3,0.1,0.3
		l0.8,3.7l0.9,4.1c0.2,1,0.5,2.2,0.8,3.6s0.7,2.7,1,3.9c0,0.2,0,0.3-0.1,0.4c-0.1,0.1-0.2,0.2-0.4,0.3c-0.2,0-0.3,0-0.4-0.1
		c-0.1-0.1-0.2-0.2-0.3-0.4c-0.5-1.7-0.9-3.6-1.4-5.8c0,0-0.1,0-0.1,0c-2.7,0-4.5,0-5.4,0.1l-1.3,5.6c0,0.2-0.1,0.3-0.2,0.4
		c-0.1,0.1-0.3,0.1-0.5,0.1s-0.3-0.1-0.4-0.3C185.1,20.4,185.1,20.2,185.1,20.1z M187.9,13.4c0.9,0,2.5-0.1,5-0.1L191,4.9
		c0,0,0-0.1-0.1-0.3l-0.1-0.8l-0.2-0.9l0-0.1L190.5,3c-0.2,0.8-0.6,2.5-1.3,5.1C188.8,9.6,188.3,11.4,187.9,13.4z"/>
	<path id="XMLID_537_" class="st0" d="M204.1,8c-0.5-0.5-1.1-0.9-1.8-0.9c-0.7-0.1-1.4,0-1.9,0.3c-0.6,0.3-1,0.7-1.3,1.3
		s-0.2,1.1,0,1.7c0.2,0.4,0.6,0.8,1.3,1.3c0.3,0.2,0.7,0.5,1.2,0.8l1.2,0.7c1,0.7,1.8,1.4,2.4,2.1c0.6,0.7,0.8,1.6,0.7,2.6
		c-0.1,1-0.6,1.8-1.4,2.3c-0.8,0.5-1.7,0.7-2.7,0.7c-1,0-1.9-0.2-2.7-0.6c-0.9-0.4-1.5-1-1.9-1.7c-0.1-0.1-0.1-0.3,0-0.4
		c0.1-0.2,0.2-0.3,0.3-0.4c0.1-0.1,0.3-0.1,0.4,0c0.2,0.1,0.3,0.2,0.4,0.3c0.2,0.5,0.7,0.9,1.4,1.2c0.7,0.3,1.4,0.5,2.2,0.5
		c0.8,0,1.5-0.2,2-0.5c0.5-0.3,0.8-0.8,0.9-1.4c0.1-0.7-0.1-1.3-0.5-1.8c-0.4-0.6-1.1-1.1-2-1.7c-0.2-0.2-0.6-0.4-1.1-0.8
		c-0.5-0.3-1-0.6-1.2-0.8c-0.9-0.6-1.5-1.2-1.7-1.8c-0.3-0.7-0.4-1.3-0.3-1.9c0.1-0.6,0.4-1.1,0.7-1.6c0.4-0.4,0.8-0.8,1.4-1.1
		c0.5-0.3,1.1-0.4,1.7-0.5c0.6-0.1,1.2,0,1.8,0.3c0.6,0.2,1.2,0.6,1.6,1.1c0.1,0.1,0.2,0.3,0.1,0.4c0,0.2-0.1,0.3-0.2,0.4
		c-0.1,0.1-0.3,0.2-0.4,0.1S204.2,8.1,204.1,8z"/>
	<path id="XMLID_534_" class="st0" d="M208.6,1.9c0.1,0.1,0.2,0.3,0.2,0.4c0,0.2-0.1,0.3-0.2,0.4s-0.3,0.2-0.4,0.2
		c-0.2,0-0.3-0.1-0.4-0.2s-0.2-0.3-0.2-0.4c0-0.2,0.1-0.3,0.2-0.4s0.3-0.2,0.4-0.2C208.3,1.7,208.4,1.8,208.6,1.9z M208.7,6.5
		c0,1,0,2.5,0,4.3c0,1.9,0,3.6,0,5.1c0,1.5,0,3-0.1,4.3c0,0.2-0.1,0.3-0.2,0.4c-0.1,0.1-0.3,0.2-0.4,0.2c-0.2,0-0.3-0.1-0.4-0.2
		c-0.1-0.1-0.2-0.3-0.2-0.4c0.1-1.3,0.1-2.8,0.1-4.3c0-1.5,0-3.2,0-5.1c0-1.9,0-3.3,0-4.3c0-0.2,0.1-0.3,0.2-0.4
		c0.1-0.1,0.3-0.2,0.4-0.2c0.2,0,0.3,0.1,0.4,0.2C208.7,6.2,208.7,6.3,208.7,6.5z"/>
	<path id="XMLID_531_" class="st0" d="M219.3,10.1v3.6c0,0.1,0,0.1,0,0.2c0,0.3,0,0.5,0,0.8c0,2.1,0.1,4,0.1,5.6
		c0,0.2-0.1,0.3-0.2,0.4c-0.1,0.1-0.2,0.2-0.4,0.2c-0.2,0-0.3-0.1-0.4-0.2c-0.1-0.1-0.2-0.2-0.2-0.4l-0.1-1.6
		c-0.9,1.4-2,2.1-3.5,2.1c-1.3,0-2.3-0.6-3.3-1.7c-0.9-1.1-1.4-2.5-1.4-4.3c0-3.6,0.8-6.1,2.6-7.7c0.7-0.6,1.4-1,2.2-1.1
		c0.8-0.1,1.5,0,2.2,0.3c0.6,0.3,1.1,0.7,1.5,1.3c0.4,0.6,0.6,1.2,0.7,2c0,0.1,0,0.1,0,0.2v0.2v0.1V10.1L219.3,10.1z M218.1,10.1
		L218.1,10.1V9.9V9.9v0c0-0.6-0.2-1.2-0.4-1.6c-0.3-0.4-0.6-0.8-1.1-1c-0.4-0.2-0.9-0.3-1.5-0.2c-0.6,0.1-1.1,0.4-1.7,0.9
		c-1.5,1.4-2.2,3.6-2.2,6.8c0,1.5,0.4,2.6,1.1,3.5c0.7,0.9,1.5,1.3,2.4,1.3c0.8,0,1.6-0.4,2.2-1.2s1-2.1,1.1-3.7V10.1z"/>
</g>
</svg>
