<?xml version="1.0" encoding="utf-8"?>
<!-- Generator: Adobe Illustrator 19.0.0, SVG Export Plug-In . SVG Version: 6.00 Build 0)  -->
<svg version="1.1" id="Layer_1" xmlns="http://www.w3.org/2000/svg" xmlns:xlink="http://www.w3.org/1999/xlink" x="0px" y="0px"
	 viewBox="0 0 612 311" style="enable-background:new 0 0 612 311;" xml:space="preserve">
<style type="text/css">
	.st0{fill:#FFFFFF;}
</style>
<g id="europe_and_central_asia">
	<path id="XMLID_209_" class="st0" d="M232.6,75V61.2l8.5-19.8l11.3-16.9l12.2-5l9.4-11l7.8,7.8l-2.8,9.4l-14.8,1.9l-6.9,14.4
		l-13.8,14.8v12.6l9.7,10.7l24.8,16l-6-16l5.3-14.1l8.8-13.5l8.5,1.6l-1.3,13.5l-1.3,7.8c0,0,0.9,12.9,2.5,19.5s0.3,11.3,0,12.2
		c-0.3,0.9-6,7.5-6,7.5h4.4l4.4-6.9V87.6V74.7l2.2-16.3l4.4,8.2l6.3-4.7l6,2.5c0,0,4.7,6.3,4.4,4.7c-0.3-1.6-3.1-12.9-3.1-12.9
		l-0.6-6.3h14.1v-9.1l11-9.4c0,0,12.9-13.5,15.7-11.6c2.8,1.9,8.8,4.1,8.8,4.1l9.4-13.2L385.4,0l6.9,2.5l1.6,4.7l2.5,6.6l7.5,0.3
		l10.4,5.6l4.1,12.2l-6.6,7.2l-11,5.6l-1.3,2.8l0.3,4.1l5-1.6l3.1-1.9l8.5,1.3h4.1l8.8,0.6v6l7.8,1.6L441,53l3.5-4.1l15.1,0.6l4.1,6
		v8.8l-3.1,5.6l3.1,5.3l4.4,0.6l2.5-5.3l4.4-1.6l8.8,4.4l7.5-0.3V64l8.5-4.7l14.8,5.3l6.6,1.6l8.2,6l2.5,3.1H543l11.6,4.4l-1.6,7.5
		c0,0,4.4,0.9,5.6,0.9c1.3,0,12.9-0.9,12.9-0.9l10,1.6l0.9,6.6l4.4-9.4l6-0.9l16.9,6.6l1.6,18.8l-1.6,8.5v9.4l1.6,12.2h-5l-6,4.4
		l-8.8,9.4l-3.8,4.1h-5.6l-1.3-3.8l-4.7,3.8h-6.6l-2.8,10l1.3,11.6l-19.1,26h-9.4v-19.8l0.9-9.4l24.8-24.8l-0.6-6.3l-12.9,9.4
		l-0.3-9.7l-5,0.9l-6.3,8.5l-0.3,12.2h-11.9l-2.2-4.7l-8.5,0.9l-10,0.3l-9.4,7.2l-14.4,15.7l2.5,3.5l6.6-0.3l5.6,5l3.8-7.5l4.4,9.4
		l-2.5,7.5l6,5.6l-3.5,6.3h-3.5v4.7l2.5,3.8l-1.3,3.1h-5.6v-4.7v-16.6l-2.5-0.9l-0.6,16l-8.8,10.4l-8.8,11h-10.4l-0.9-5l8.5-8.8
		l1.3-6.9l-2.2-2.2l-4.4,0.9l-6.6-4.4l-10-11l-0.3-5.6l-10.4-2.8l-5.6,0.3l-2.5,6l-2.5,6l-6.3,2.8l-6-0.6l-7.8,3.8l-5,1.6l-7.5-2.2
		l-4.1-3.8l-3.8-3.1h-4.4l-2.5,0.9l-2.5-2.2l-7.2-6l-5.6,2.8l-2.5,6l-2.2,4.4l-8.5-0.6l-5.3-4.4c0,0-7.2,0.9-7.5,2.2
		c-0.3,1.3-7.5,6-7.5,6l-9.4,6.9l-5.3,1.9v3.8l-3.8,1.6c0,0-3.8,2.2-3.8,2.8c0,0.9,0,4.1,0,4.7c0,0.9,0.3,11-17.9,14.4l-4.1,1.3v6
		l7.5,5.6l8.8,4.7l-3.8,3.1h-6l-5.3,2.8l2.8,2.5v4.4l-0.6,3.5l-3.8,6l-4.7,3.5h-3.5c0,0-7.5,2.2-1.9,6c6,3.8,2.5,6.3,2.5,6.3
		l-4.1,1.3l-5,1.3l-1.9-3.1l-0.6-1.3l-11-0.6l-4.1-2.5l1.3-1.9l2.5-1.9l-4.7-5l-1.6-6.3l-0.9-5l-0.6-6l2.2-6.6l-5-6.6l-5-2.5
		l-7.2,1.6l-2.2-4.4l-4.4-5v-9.1l-7.2-4.4c0,0-0.9-9.4,9.4-7.5l3.5-4.1l-1.6-4.4l-6.9-2.5l-9.1,2.8l-4.1,6.9v7.8l7.2,8.5l0.9,7.5
		l-6.6,4.4l-6-4.7l-2.5,3.5v6.3l-4.4-1.3l-14.8,0.9l-9.1,1.3l-3.8,4.1l-2.8,4.7l-3.1,1.6v-5.6V268l-2.5-0.6l-7.8,0.9l-4.4-0.9
		l-3.1-8.5l-2.5-5l2.2-3.8l6.3-1.6l9.7-0.6l1.9-2.8l6.9,0.9l11,3.5l7.8-3.5l-1.6-4.4l-8.8-7.2l0.9-9.4h-5.6l-0.6,6l-2.5,3.5l-6-0.9
		v-6.9l-6-0.9l-6,4.1l-0.9,7.2l-0.6,7.2l-8.8,1.9l-5,5l-0.9,7.2l5.6,4.4l-5.6,3.8l-1.9,2.5l-3.5-2.5l-4.7-6v-12.9l-6-5.3l-16-11.6
		l-1.9,2.5l6,9.4l10.4,6.3l1.3,10l-9.4,8.5l-3.8-4.4l-4.4-0.6V258l10-2.5L106.1,242h-2.5l-3.8-7.5l-6.9,1.3v4.4l-2.5,2.5l-3.5-3.8
		h-2.5v5.6l-5,4.4l-2.2,0.6v7.5l-7.8,10.7H59L46.8,263v-7.8v-11l2.2-5.6l10.4-1.6l7.8,0.9c0,0,3.1-4.1,3.1-6s-2.2-6.6-2.2-6.6
		l-9.7-6l0.9-4.1l5.6-0.6l5.6-0.3l15.7-14.8l0.6-7.2l6.6-0.6l3.5-3.5l1.3-15.4l6.3,0.6l6,6.9l-0.6,4.7l4.1,3.8h14.1l9.4-5.3
		l4.4-14.1l0.6-6.6h15.1l1.9-8.2h-12.6h-6.6l-3.8-10.7l13.8-13.5l1.3-7.5l-8.5-2.8c0,0-4.4,7.5-4.4,8.5s-5.3,8.8-5.3,8.8l-6.3,2.5
		l-0.6,10.4l7.2,4.1l-3.5,10.7l-5.3-0.3l-0.6,9.7l-10,7.8l-1.3-11.6l-6.3-8.5l-10.4,5.3l-8.8-13.5l1.9-8.5l18.8-18.8l12.6-25.7
		l-2.5-8.5l37-19.1l10.4,5l2.8,3.5l4.7,3.8l23.9,10.7l0.6,11c0,0-4.1,6.9-5.6,6.9s-9.1,0-9.1,0l-3.8,7.8l3.1,7.2
		c0,0,9.4-1.6,10.4-4.1c0.9-2.8,7.8-8.8,7.8-8.8s3.8-2.8,3.8-4.4c0-1.6,0.6-13.8,0.6-13.8l8.5-0.3l-1.3,9.4l5.3-0.3l3.1-6.9
		l11.6-4.7h14.1h10l-1.9-4.1l-8.2-6.6l-8.5-1.9L232.6,75z"/>
	<polygon id="XMLID_118_" class="st0" points="0,117.4 3.5,125.9 11.6,131.8 18.2,135.6 24.2,132.1 36.4,126.5 36.4,119.6 
		31.7,115.5 26.7,113.9 20.1,113.9 15.7,117.1 11.9,116.4 10,113.9 4.4,113.9 	"/>
	<path id="XMLID_84_" class="st0" d="M42.7,201.2v-11.9l3.8-5.6l6.6-2.2v-11.3l3.8-7.2h10.4c0,0-0.9,4.1,0,6.3
		c0.9,1.9,0,10.7,0,10.7l7.2,7.2l5.3,6.3v6.3l-4.4,4.4c0,0-5-2.8-7.2,0c-2.2,2.8-9.1,6.9-9.1,6.9l-1.9-6.6l4.1-6.6v-6.6h-4.1
		l-3.5,6.6l-2.5,4.4l-6.6,0.3L42.7,201.2z"/>
</g>
</svg>
