<?xml version="1.0" encoding="utf-8"?>
<!-- Generator: Adobe Illustrator 19.0.0, SVG Export Plug-In . SVG Version: 6.00 Build 0)  -->
<svg version="1.1" id="Layer_1" xmlns="http://www.w3.org/2000/svg" xmlns:xlink="http://www.w3.org/1999/xlink" x="0px" y="0px"
	 viewBox="0 0 218.8 19.5" style="enable-background:new 0 0 218.8 19.5;" xml:space="preserve">
<style type="text/css">
	.st0{fill:#FFFFFF;}
</style>
<g id="XMLID_79_">
	<path id="XMLID_397_" class="st0" d="M8.5,5.3c0.1,0.9,0.2,1.9,0.3,3c0.1,1.2,0.1,2.1,0.1,2.9c0,0.8,0,1.9,0,3.2c0,1.4,0,2.2,0,2.5
		c0,0.1-0.1,0.3-0.2,0.4s-0.2,0.2-0.4,0.2c-0.1,0-0.3-0.1-0.4-0.2S7.8,17.2,7.8,17c0-0.1,0-1.1,0-2.9c0-1.9,0-3.2,0-3.9
		c0-0.7-0.1-1.8-0.2-3.1C7.5,5.8,7.3,4.7,7.1,3.9C7,3.4,6.8,3,6.5,2.6s-0.6-0.7-0.9-1C4.9,1.2,4.2,1.3,3.6,2C3,2.5,2.5,3.6,2.1,5.2
		v13.6c0,0.1-0.1,0.3-0.2,0.4s-0.2,0.2-0.4,0.2c-0.1,0-0.3-0.1-0.4-0.2S1,19,1,18.8V5.1V0.6C1,0.5,1,0.3,1.1,0.2s0.2-0.2,0.4-0.2
		c0.1,0,0.3,0.1,0.4,0.2s0.2,0.2,0.2,0.4v1.6c0.2-0.4,0.4-0.7,0.7-1c0.5-0.6,1.1-0.9,1.8-1c0.6-0.1,1.2,0.1,1.7,0.5
		c0.9,0.6,1.5,1.4,1.9,2.5C8.7,1.9,9.6,1,10.6,0.5C11.5,0,12.3,0,13.1,0.4C14,0.8,14.6,1.7,15.1,3c0.1,0.3,0.2,0.7,0.3,1
		c0.1,0.3,0.1,0.7,0.2,1.1c0,0.4,0.1,0.7,0.1,0.9c0,0.2,0,0.6,0,1.1c0,0.5,0,0.8,0,0.9c0,0.8,0.1,1.8,0.1,2.8c0,1,0,1.9,0,2.6
		c0,0.7,0,1.6,0,2.9c0,1.2,0,2.1,0,2.6c0,0.1-0.1,0.3-0.2,0.4s-0.2,0.2-0.4,0.2c-0.1,0-0.3-0.1-0.4-0.2c-0.1-0.1-0.2-0.2-0.2-0.4
		c0-0.5,0-1.4,0-2.6c0-1.2,0-2.2,0-2.8c0-0.7,0-1.5,0-2.5c0-1-0.1-1.9-0.1-2.8c0-0.2,0-0.5-0.1-1l0-1c0-0.2,0-0.5-0.1-0.9
		c0-0.3-0.1-0.7-0.2-1c-0.1-0.3-0.2-0.6-0.3-0.9c-0.4-1-0.8-1.7-1.4-2c-0.5-0.2-1-0.2-1.5,0.1C10.5,1.7,10,2.2,9.5,2.9
		C9,3.6,8.7,4.4,8.6,5.1C8.6,5.2,8.6,5.3,8.5,5.3z"/>
	<path id="XMLID_393_" class="st0" d="M18.4,1.9c0.1,0.1,0.2,0.2,0.2,0.4s-0.1,0.3-0.2,0.4S18.2,2.8,18,2.8c-0.1,0-0.3-0.1-0.4-0.2
		s-0.2-0.2-0.2-0.4s0.1-0.3,0.2-0.4s0.2-0.2,0.4-0.2C18.2,1.7,18.3,1.8,18.4,1.9z M18.6,6.2c0,0.9,0,2.3,0,4c0,1.7,0,3.3,0,4.7
		s0,2.7-0.1,4c0,0.1-0.1,0.3-0.2,0.4s-0.2,0.2-0.4,0.2c-0.2,0-0.3-0.1-0.4-0.2c-0.1-0.1-0.2-0.2-0.2-0.4c0.1-1.2,0.1-2.5,0.1-3.9
		c0-1.4,0-3,0-4.7c0-1.7,0-3,0-4c0-0.1,0.1-0.3,0.2-0.4c0.1-0.1,0.2-0.2,0.4-0.2c0.1,0,0.3,0.1,0.4,0.2C18.5,5.9,18.6,6,18.6,6.2z"
		/>
	<path id="XMLID_388_" class="st0" d="M27.3,6.8V0.6c0-0.1,0.1-0.3,0.2-0.4s0.2-0.2,0.4-0.2c0.1,0,0.3,0.1,0.4,0.2s0.2,0.2,0.2,0.4
		v12.2c0,0.3,0,0.7,0,1v4.9c0,0.1-0.1,0.3-0.2,0.4s-0.2,0.2-0.4,0.2c-0.1,0-0.3-0.1-0.4-0.2s-0.2-0.2-0.2-0.4v-1.2
		c-0.7,1.1-1.7,1.6-2.8,1.8c-1.2,0.1-2.2-0.4-3.1-1.3c-0.9-1-1.4-2.3-1.5-4.1c-0.1-1.4,0.1-2.7,0.4-4c0.3-1.3,0.9-2.3,1.8-3.2
		c0.6-0.6,1.3-1,2-1.1c0.7-0.1,1.4-0.1,2,0.2C26.6,6.1,27,6.4,27.3,6.8z M27.2,9.5c0-0.6-0.2-1.1-0.5-1.6c-0.3-0.5-0.6-0.8-1.1-1
		c-0.9-0.5-1.9-0.2-2.8,0.7c-0.7,0.7-1.2,1.6-1.5,2.7c-0.3,1.1-0.4,2.3-0.3,3.5c0.1,1.5,0.5,2.6,1.2,3.3c0.7,0.7,1.4,1.1,2.2,1
		c0.7-0.1,1.4-0.5,1.9-1.2c0.6-0.7,0.9-1.8,1-3.1v-1v0v0V9.7C27.3,9.6,27.2,9.6,27.2,9.5z"/>
	<path id="XMLID_385_" class="st0" d="M36.9,6.8V0.6c0-0.1,0.1-0.3,0.2-0.4s0.2-0.2,0.4-0.2c0.1,0,0.3,0.1,0.4,0.2S38,0.5,38,0.6
		v12.2c0,0.3,0,0.7,0,1v4.9c0,0.1-0.1,0.3-0.2,0.4s-0.2,0.2-0.4,0.2c-0.1,0-0.3-0.1-0.4-0.2s-0.2-0.2-0.2-0.4v-1.2
		c-0.7,1.1-1.7,1.6-2.8,1.8C32.9,19.4,31.9,19,31,18c-0.9-1-1.4-2.3-1.5-4.1c-0.1-1.4,0.1-2.7,0.4-4c0.3-1.3,0.9-2.3,1.8-3.2
		c0.6-0.6,1.3-1,2-1.1c0.7-0.1,1.4-0.1,2,0.2C36.2,6.1,36.6,6.4,36.9,6.8z M36.9,9.5c0-0.6-0.2-1.1-0.5-1.6c-0.3-0.5-0.6-0.8-1.1-1
		c-0.9-0.5-1.9-0.2-2.8,0.7c-0.7,0.7-1.2,1.6-1.5,2.7c-0.3,1.1-0.4,2.3-0.3,3.5c0.1,1.5,0.5,2.6,1.2,3.3c0.7,0.7,1.4,1.1,2.2,1
		c0.7-0.1,1.4-0.5,1.9-1.2c0.6-0.7,0.9-1.8,1-3.1v-1v0v0V9.7C36.9,9.6,36.9,9.6,36.9,9.5z"/>
	<path id="XMLID_383_" class="st0" d="M40.6,0.7c0.1,2.3,0.1,5.6,0.1,9.8c0,4.2,0,7,0,8.4c0,0.1-0.1,0.3-0.2,0.4
		c-0.1,0.1-0.2,0.2-0.4,0.2c-0.2,0-0.3-0.1-0.4-0.2c-0.1-0.1-0.2-0.2-0.2-0.4c0-1.4,0-4.2,0-8.4c0-4.2-0.1-7.4-0.1-9.7
		c0-0.2,0.1-0.3,0.2-0.4s0.2-0.2,0.4-0.2s0.3,0.1,0.4,0.2C40.5,0.4,40.6,0.5,40.6,0.7z"/>
	<path id="XMLID_380_" class="st0" d="M50,11.8c-1.1,0-3.3-0.1-6.5-0.1c-0.1,2.7,0.4,4.5,1.3,5.5c1,1,2.1,1.3,3.3,0.9
		c0.5-0.2,1-0.5,1.3-0.9c0.4-0.4,0.6-0.8,0.7-1.3c0-0.1,0.1-0.3,0.2-0.3c0.1-0.1,0.3-0.1,0.4-0.1c0.1,0,0.3,0.1,0.3,0.2
		c0.1,0.1,0.1,0.3,0.1,0.4c-0.1,0.7-0.5,1.3-1,1.8c-0.5,0.5-1.1,0.9-1.8,1.2c-0.7,0.3-1.4,0.3-2.3,0.2c-0.8-0.2-1.6-0.6-2.2-1.3
		c-1.3-1.3-1.8-3.5-1.6-6.7c0.1-1.5,0.5-2.8,1.3-3.9c0.7-1.1,1.6-1.7,2.7-1.9c1.1-0.2,2.1,0.2,2.9,1.2c0.8,1,1.3,2.4,1.4,4.4
		c0,0.1,0,0.2-0.1,0.2C50.5,11.7,50.3,11.8,50,11.8z M43.6,10.7c2.9,0,4.9,0,5.9,0c-0.2-1.4-0.5-2.5-1.1-3.2
		c-0.5-0.6-1.1-0.9-1.8-0.7c-0.6,0.1-1.2,0.5-1.8,1.2C44.1,8.7,43.8,9.6,43.6,10.7z"/>
	<path id="XMLID_378_" class="st0" d="M60.1,0.1c0.8,0,2,0,3.6,0c1.6,0,2.8,0,3.6,0.1c0.1,0,0.3,0.1,0.4,0.2s0.2,0.2,0.2,0.4
		s-0.1,0.3-0.2,0.4c-0.1,0.1-0.2,0.2-0.4,0.2c-0.8,0-2-0.1-3.4-0.1c-1.5,0-2.6,0-3.2,0v7.6c0.7,0,1.7,0,3.1,0c1.4,0,2.4,0,3.1,0
		c0.2,0,0.3,0.1,0.4,0.2c0.1,0.1,0.2,0.2,0.2,0.4c0,0.2-0.1,0.3-0.2,0.4c-0.1,0.1-0.2,0.2-0.4,0.2c-0.7,0-1.7,0-3.1,0
		c-1.4,0-2.4,0-3.1,0v8.3c1.6,0,3.8,0.1,6.4,0.1c0.1,0,0.3,0.1,0.4,0.2s0.2,0.2,0.2,0.4c0,0.1-0.1,0.3-0.2,0.4s-0.2,0.2-0.4,0.2
		c-2.9,0-5.2,0-7-0.1c-0.1,0-0.2,0-0.3-0.1c-0.1-0.1-0.2-0.2-0.2-0.3c0-0.1,0-0.1,0-0.2v-18v0v0c0-0.1,0.1-0.3,0.2-0.4
		C59.8,0.1,59.9,0.1,60.1,0.1L60.1,0.1z"/>
	<path id="XMLID_375_" class="st0" d="M77.4,9.4v3.3c0,0.1,0,0.1,0,0.2c0,0.2,0,0.5,0,0.7c0,1.9,0.1,3.6,0.1,5.1
		c0,0.1-0.1,0.3-0.2,0.4c-0.1,0.1-0.2,0.2-0.4,0.2c-0.1,0-0.3-0.1-0.4-0.2c-0.1-0.1-0.2-0.2-0.2-0.4l-0.1-1.5
		c-0.8,1.3-1.9,1.9-3.2,1.9c-1.2,0-2.1-0.5-3-1.6c-0.8-1-1.3-2.3-1.3-4c0-3.3,0.8-5.6,2.4-7.1c0.6-0.6,1.3-0.9,2-1
		c0.7-0.1,1.4,0,2,0.3c0.5,0.3,1,0.6,1.4,1.2c0.4,0.5,0.6,1.1,0.6,1.8c0,0.1,0,0.1,0,0.2v0.2v0.1V9.4L77.4,9.4z M76.3,9.4L76.3,9.4
		V9.3V9.3v0c0-0.6-0.2-1.1-0.4-1.5c-0.3-0.4-0.6-0.7-1-0.9c-0.4-0.2-0.8-0.3-1.4-0.2C73,6.8,72.5,7,72,7.4c-1.4,1.2-2.1,3.3-2,6.3
		c0,1.4,0.4,2.4,1,3.2c0.7,0.8,1.4,1.2,2.2,1.2c0.7,0,1.4-0.3,2-1.1c0.6-0.7,1-1.9,1.1-3.4V9.4z"/>
	<path id="XMLID_373_" class="st0" d="M85.3,7.5c-0.4-0.5-1-0.8-1.6-0.9c-0.7-0.1-1.3,0-1.8,0.3c-0.6,0.3-1,0.7-1.2,1.2
		c-0.2,0.5-0.2,1,0,1.6c0.1,0.3,0.5,0.7,1.2,1.2c0.2,0.2,0.6,0.4,1.1,0.7l1.1,0.7c0.9,0.6,1.6,1.3,2.2,1.9s0.7,1.4,0.6,2.3
		c-0.1,1-0.5,1.6-1.2,2.1c-0.7,0.4-1.6,0.7-2.5,0.7c-0.9,0-1.7-0.2-2.5-0.6c-0.8-0.4-1.4-0.9-1.7-1.6c-0.1-0.1-0.1-0.3,0-0.4
		c0.1-0.1,0.1-0.3,0.3-0.3c0.1-0.1,0.3-0.1,0.4,0c0.1,0.1,0.3,0.1,0.3,0.3c0.2,0.4,0.6,0.8,1.2,1.1c0.6,0.3,1.3,0.4,2,0.4
		c0.7,0,1.3-0.2,1.8-0.5c0.5-0.3,0.7-0.7,0.8-1.3c0.1-0.6-0.1-1.2-0.5-1.7c-0.4-0.5-1-1-1.8-1.6c-0.2-0.1-0.6-0.4-1.1-0.7
		c-0.5-0.3-0.9-0.6-1.1-0.7c-0.8-0.6-1.3-1.1-1.6-1.6c-0.3-0.6-0.4-1.2-0.2-1.7c0.1-0.5,0.3-1,0.7-1.4c0.3-0.4,0.8-0.7,1.2-1
		c0.5-0.2,1-0.4,1.6-0.5c0.5-0.1,1.1,0,1.7,0.2c0.6,0.2,1.1,0.6,1.5,1c0.1,0.1,0.2,0.2,0.1,0.4c0,0.2-0.1,0.3-0.2,0.4
		c-0.1,0.1-0.2,0.1-0.4,0.1C85.5,7.7,85.3,7.6,85.3,7.5z"/>
	<path id="XMLID_371_" class="st0" d="M90.8,5.6c-1,0-1.7,0-2.2,0c-0.1,0-0.3-0.1-0.4-0.2c-0.1-0.1-0.2-0.2-0.2-0.4
		c0-0.1,0.1-0.3,0.2-0.4c0.1-0.1,0.2-0.2,0.4-0.2c0.5,0,1.2,0,2.2,0c0-1.3,0-2.6-0.1-3.7c0-0.2,0.1-0.3,0.2-0.4s0.2-0.2,0.4-0.2
		c0.2,0,0.3,0.1,0.4,0.2s0.2,0.2,0.2,0.4c0,1.2,0.1,2.4,0.1,3.8c0.8,0,1.5,0,2.1,0c0.1,0,0.3,0.1,0.4,0.2c0.1,0.1,0.2,0.2,0.2,0.4
		c0,0.2-0.1,0.3-0.2,0.4c-0.1,0.1-0.2,0.2-0.4,0.2h-2.1c0,1.3,0,3.4,0,6.4s0,5.3,0,6.9c0,0.1-0.1,0.3-0.2,0.4s-0.2,0.2-0.4,0.2
		s-0.3-0.1-0.4-0.2c-0.1-0.1-0.2-0.2-0.2-0.4c0-1.6,0-3.9,0-6.9C90.8,9,90.8,6.9,90.8,5.6z"/>
	<path id="XMLID_369_" class="st0" d="M111.5,5.1V0.6c0-0.1,0.1-0.3,0.2-0.4s0.2-0.2,0.4-0.2c0.1,0,0.3,0.1,0.4,0.2s0.2,0.2,0.2,0.4
		v1.8c0.8-1.1,1.8-1.8,2.9-2.1c1-0.3,2-0.2,3,0.3c0.9,0.5,1.6,1.4,2.1,2.8c0.4,1.1,0.7,2.4,0.9,3.8c0.2,1.5,0.3,2.7,0.3,3.8
		s0,2.5-0.1,4.2c-0.1,1.7-0.1,2.9-0.1,3.6c0,0.1-0.1,0.3-0.2,0.4s-0.2,0.2-0.4,0.2c-0.1,0-0.3-0.1-0.4-0.2s-0.2-0.2-0.2-0.4
		c0-0.8,0-2,0.1-3.7c0.1-1.7,0.1-3.1,0.1-4.1c0-1-0.1-2.2-0.2-3.6c-0.2-1.4-0.4-2.6-0.8-3.6c-0.4-1.1-0.9-1.8-1.6-2.2
		c-0.7-0.4-1.4-0.5-2.2-0.2c-0.8,0.2-1.4,0.7-2,1.4c-0.6,0.7-1,1.5-1.2,2.4v13.7c0,0.1-0.1,0.3-0.2,0.4s-0.2,0.2-0.4,0.2
		c-0.1,0-0.3-0.1-0.4-0.2s-0.2-0.2-0.2-0.4V5.1z"/>
	<path id="XMLID_366_" class="st0" d="M126.9,5.7c0.1-0.1,0.3-0.1,0.4-0.1c0.1,0,0.1,0,0.2,0c0.1,0,0.1,0,0.2,0c0.1,0,0.1,0,0.2,0
		c0.3,0,0.5,0.1,0.7,0.2c1,0.5,1.8,1.5,2.4,3c0.5,1.4,0.7,2.9,0.6,4.5c-0.1,1.7-0.5,3.1-1.2,4.2c-0.9,1.3-2,1.9-3.5,1.7
		c-1.3-0.1-2.3-1-3-2.5c-0.6-1.3-0.9-2.8-0.8-4.5c0.1-1.7,0.4-3.2,1.1-4.4C124.8,6.6,125.7,5.9,126.9,5.7z M127.4,6.7
		c-1,0.1-1.7,0.6-2.3,1.7c-0.6,1.1-0.9,2.4-1,3.9c0,1.6,0.2,2.9,0.7,4c0.5,1.1,1.2,1.7,2.1,1.8c1,0.1,1.8-0.3,2.4-1.2
		c0.6-0.9,1-2.1,1-3.6c0.1-1.5-0.1-2.9-0.5-4.1c-0.4-1.3-1-2.1-1.8-2.4c-0.1,0-0.2-0.1-0.4-0.1c0,0-0.1,0-0.2,0
		C127.4,6.7,127.4,6.7,127.4,6.7z"/>
	<path id="XMLID_364_" class="st0" d="M134.2,6.2c0,1.4,0,3.3,0,5.7c1.2-3,2.9-5.1,5.1-6.3c0.1-0.1,0.3-0.1,0.4,0
		c0.1,0.1,0.3,0.1,0.3,0.3c0.1,0.1,0.1,0.3,0,0.4c-0.1,0.1-0.1,0.3-0.3,0.3c-1.4,0.7-2.5,1.8-3.5,3.3c-0.9,1.5-1.5,3.2-1.9,5
		c-0.1,0.4-0.1,1-0.1,1.8c0,1,0,1.6-0.1,2c0,0,0,0.1,0,0.1c0,0,0,0.1,0,0.1c0,0.1-0.1,0.2-0.2,0.2c-0.1,0.1-0.2,0.1-0.4,0.1
		c-0.1,0-0.2,0-0.3-0.1c-0.1-0.1-0.1-0.1-0.2-0.2c0,0,0-0.1-0.1-0.1c0-0.1,0-0.2,0-0.3c0-0.2,0-0.4,0-0.7c0-0.4,0-1,0-1.7
		c0-0.7,0-1.3,0-1.7c-0.1-4.4-0.1-7.1-0.1-8.3c0-0.1,0.1-0.3,0.2-0.4c0.1-0.1,0.2-0.2,0.4-0.2c0.2,0,0.3,0.1,0.4,0.2
		C134.1,5.9,134.2,6,134.2,6.2z"/>
	<path id="XMLID_362_" class="st0" d="M144.1,5.6c-1,0-1.7,0-2.2,0c-0.1,0-0.3-0.1-0.4-0.2c-0.1-0.1-0.2-0.2-0.2-0.4
		c0-0.1,0.1-0.3,0.2-0.4c0.1-0.1,0.2-0.2,0.4-0.2c0.5,0,1.2,0,2.2,0c0-1.3,0-2.6-0.1-3.7c0-0.2,0.1-0.3,0.2-0.4s0.2-0.2,0.4-0.2
		c0.2,0,0.3,0.1,0.4,0.2c0.1,0.1,0.2,0.2,0.2,0.4c0,1.2,0.1,2.4,0.1,3.8c0.8,0,1.5,0,2.1,0c0.1,0,0.3,0.1,0.4,0.2
		c0.1,0.1,0.2,0.2,0.2,0.4c0,0.2-0.1,0.3-0.2,0.4c-0.1,0.1-0.2,0.2-0.4,0.2h-2.1c0,1.3,0,3.4,0,6.4c0,3,0,5.3,0,6.9
		c0,0.1-0.1,0.3-0.2,0.4s-0.2,0.2-0.4,0.2s-0.3-0.1-0.4-0.2c-0.1-0.1-0.2-0.2-0.2-0.4c0-1.6,0-3.9,0-6.9
		C144.2,9,144.2,6.9,144.1,5.6z"/>
	<path id="XMLID_360_" class="st0" d="M150.8,11.3c0,2.7,0,5.2,0,7.4c0,0.1-0.1,0.3-0.2,0.4c-0.1,0.1-0.2,0.2-0.4,0.2
		c-0.1,0-0.3-0.1-0.4-0.2c-0.1-0.1-0.2-0.2-0.2-0.4c0-3.4,0-9.4,0.1-18.1c0-0.1,0.1-0.3,0.2-0.4c0.1-0.1,0.2-0.2,0.4-0.2
		c0.1,0,0.3,0.1,0.4,0.2c0.1,0.1,0.2,0.2,0.2,0.4c-0.1,4.6-0.1,7.2-0.1,7.7c0.6-0.9,1.3-1.6,2-2.1c0.9-0.6,1.8-0.7,2.6-0.4
		c0.9,0.3,1.6,1.1,2.2,2.4c0.4,0.9,0.6,2.7,0.7,5.3c0.1,1.8,0.1,3.6,0,5.4c0,0.1-0.1,0.3-0.2,0.4c-0.1,0.1-0.2,0.2-0.4,0.2
		c-0.2,0-0.3-0.1-0.4-0.2c-0.1-0.1-0.2-0.2-0.2-0.4c0.1-1.9,0.1-3.7,0-5.3c-0.1-2.4-0.3-4.1-0.6-4.9c-0.4-1-0.9-1.6-1.5-1.8
		c-0.5-0.2-1.1-0.1-1.7,0.3c-0.6,0.4-1.2,1-1.7,1.7C151.3,9.7,151,10.5,150.8,11.3C150.9,11.3,150.9,11.3,150.8,11.3z"/>
	<path id="XMLID_326_" class="st0" d="M168.4,18.6c1.2-5.4,2.1-9.1,2.7-11.3c0.6-2.4,1-4,1.2-4.7c0.1-0.5,0.3-1,0.4-1.5
		c0.1-0.2,0.1-0.4,0.1-0.5c0-0.1,0.1-0.1,0.1-0.2c0,0,0-0.1,0-0.1c0,0,0-0.1,0.1-0.1c0.1-0.1,0.1-0.1,0.2-0.2c0.2-0.1,0.4,0,0.6,0.1
		c0.1,0.1,0.2,0.2,0.2,0.4c0.1,0.1,0.1,0.3,0.2,0.5c0.1,0.3,0.2,0.8,0.3,1.3l0.2,0.9c0.1,0.3,0.1,0.6,0.1,0.8c0,0.2,0.1,0.3,0.1,0.3
		l0.7,3.4l0.8,3.7c0.2,0.9,0.4,2,0.7,3.3c0.3,1.3,0.6,2.5,0.9,3.6c0,0.1,0,0.3-0.1,0.4c-0.1,0.1-0.2,0.2-0.3,0.2
		c-0.1,0-0.3,0-0.4-0.1c-0.1-0.1-0.2-0.2-0.2-0.3c-0.4-1.6-0.9-3.3-1.3-5.3c0,0-0.1,0-0.1,0c-2.5,0-4.1,0-5,0.1l-1.2,5.2
		c0,0.2-0.1,0.3-0.2,0.4c-0.1,0.1-0.3,0.1-0.4,0.1c-0.2,0-0.3-0.1-0.3-0.2C168.4,18.9,168.4,18.8,168.4,18.6z M171,12.5
		c0.8,0,2.3-0.1,4.6-0.1l-1.7-7.8c0,0,0-0.1-0.1-0.3l-0.1-0.8l-0.2-0.9l0-0.1l-0.1,0.3c-0.2,0.7-0.6,2.3-1.2,4.7
		C171.8,9,171.4,10.7,171,12.5z"/>
	<path id="XMLID_324_" class="st0" d="M186.6,5.1c0-0.5,0-1-0.1-1.7c-0.1-0.6-0.2-1.1-0.4-1.5c-0.2-0.4-0.5-0.7-0.8-0.8
		c-0.2-0.1-0.5,0-0.8,0.1c-0.3,0.2-0.6,0.4-0.8,0.7c-0.2,0.3-0.4,0.7-0.5,1.1C183,4,183,5.5,183,7.7c1.1,0,2,0,2.7,0
		c0.2,0,0.3,0.1,0.4,0.2c0.1,0.1,0.2,0.2,0.2,0.4c0,0.2-0.1,0.3-0.2,0.4s-0.2,0.2-0.4,0.2c-0.8,0-1.7,0-2.8,0c0,0.3,0,1.7,0.1,4.2
		c0,2.5,0.1,4.5,0.1,5.8c0,0.1-0.1,0.3-0.2,0.4c-0.1,0.1-0.2,0.2-0.4,0.2c-0.1,0-0.3-0.1-0.4-0.2c-0.1-0.1-0.2-0.2-0.2-0.4
		c0-1.3,0-3.2-0.1-5.8c0-2.5-0.1-4-0.1-4.2h-1.3c-0.1,0-0.3-0.1-0.4-0.2c-0.1-0.1-0.2-0.2-0.2-0.4c0-0.1,0.1-0.3,0.2-0.4
		c0.1-0.1,0.2-0.2,0.4-0.2h1.3c0-2.3,0-3.9,0.2-4.8c0.1-0.5,0.3-1.1,0.7-1.5c0.3-0.5,0.7-0.8,1.2-1.1c0.5-0.3,1.1-0.3,1.6-0.2
		c0.5,0.2,1,0.6,1.4,1.3c0.3,0.5,0.5,1.1,0.6,1.8c0.1,0.8,0.1,1.4,0.1,2c0,0.1-0.1,0.3-0.2,0.4c-0.1,0.1-0.2,0.1-0.4,0.1
		c-0.2,0-0.3-0.1-0.4-0.2C186.6,5.4,186.5,5.2,186.6,5.1z"/>
	<path id="XMLID_322_" class="st0" d="M190.7,6.2c0,1.4,0,3.3,0,5.7c1.2-3,2.9-5.1,5.1-6.3c0.1-0.1,0.3-0.1,0.4,0
		c0.1,0.1,0.3,0.1,0.3,0.3c0.1,0.1,0.1,0.3,0,0.4c-0.1,0.1-0.1,0.3-0.3,0.3c-1.4,0.7-2.5,1.8-3.5,3.3c-0.9,1.5-1.5,3.2-1.9,5
		c-0.1,0.4-0.1,1-0.1,1.8c0,1,0,1.6-0.1,2c0,0,0,0.1,0,0.1c0,0,0,0.1,0,0.1c0,0.1-0.1,0.2-0.2,0.2c-0.1,0.1-0.2,0.1-0.4,0.1
		c-0.1,0-0.2,0-0.3-0.1c-0.1-0.1-0.1-0.1-0.2-0.2c0,0,0-0.1-0.1-0.1c0-0.1,0-0.2,0-0.3c0-0.2,0-0.4,0-0.7c0-0.4,0-1,0-1.7
		c0-0.7,0-1.3,0-1.7c-0.1-4.4-0.1-7.1-0.1-8.3c0-0.1,0.1-0.3,0.2-0.4c0.1-0.1,0.2-0.2,0.4-0.2c0.2,0,0.3,0.1,0.4,0.2
		S190.7,6,190.7,6.2z"/>
	<path id="XMLID_319_" class="st0" d="M199.2,1.9c0.1,0.1,0.2,0.2,0.2,0.4c0,0.1-0.1,0.3-0.2,0.4c-0.1,0.1-0.2,0.2-0.4,0.2
		c-0.1,0-0.3-0.1-0.4-0.2c-0.1-0.1-0.2-0.2-0.2-0.4c0-0.1,0.1-0.3,0.2-0.4c0.1-0.1,0.2-0.2,0.4-0.2C199,1.7,199.1,1.8,199.2,1.9z
		 M199.4,6.2c0,0.9,0,2.3,0,4c0,1.7,0,3.3,0,4.7c0,1.4,0,2.7-0.1,4c0,0.1-0.1,0.3-0.2,0.4c-0.1,0.1-0.2,0.2-0.4,0.2
		c-0.2,0-0.3-0.1-0.4-0.2c-0.1-0.1-0.2-0.2-0.2-0.4c0.1-1.2,0.1-2.5,0.1-3.9c0-1.4,0-3,0-4.7c0-1.7,0-3,0-4c0-0.1,0.1-0.3,0.2-0.4
		c0.1-0.1,0.2-0.2,0.4-0.2c0.1,0,0.3,0.1,0.4,0.2C199.3,5.9,199.4,6,199.4,6.2z"/>
	<path id="XMLID_197_" class="st0" d="M207.2,8.8c-0.4-0.9-0.9-1.5-1.5-1.8c-0.4-0.2-0.9-0.2-1.3-0.1c-0.5,0.2-1,0.6-1.4,1.2
		c-0.4,0.6-0.8,1.3-1,2.1c-0.3,0.8-0.4,1.7-0.4,2.6c0,1,0.1,1.9,0.3,2.7c0.3,1.1,0.8,1.9,1.5,2.3c0.7,0.4,1.4,0.6,2.1,0.4
		c0.8-0.2,1.4-0.6,1.9-1.3c0.5-0.7,0.8-1.6,0.8-2.7c0-0.1,0.1-0.3,0.2-0.4c0.1-0.1,0.2-0.2,0.4-0.2c0.1,0,0.3,0.1,0.4,0.2
		c0.1,0.1,0.2,0.2,0.2,0.4c0,1.3-0.3,2.5-1,3.4c-0.7,0.9-1.5,1.5-2.5,1.8c-1.1,0.3-2,0.1-2.9-0.5c-0.9-0.6-1.5-1.6-1.9-3
		c-0.3-0.9-0.4-1.8-0.4-2.9c0-1.1,0.2-2.1,0.5-3c0.3-0.9,0.7-1.7,1.3-2.4c0.5-0.7,1.2-1.2,1.8-1.5c0.8-0.3,1.5-0.3,2.3,0.1
		c0.7,0.4,1.4,1.1,1.9,2.2c0.1,0.1,0.1,0.3,0,0.4c-0.1,0.1-0.2,0.2-0.3,0.3c-0.1,0.1-0.3,0.1-0.4,0C207.4,9,207.3,8.9,207.2,8.8z"/>
	<path id="XMLID_169_" class="st0" d="M218.8,9.4v3.3c0,0.1,0,0.1,0,0.2c0,0.2,0,0.5,0,0.7c0,1.9,0.1,3.6,0.1,5.1
		c0,0.1-0.1,0.3-0.2,0.4c-0.1,0.1-0.2,0.2-0.4,0.2c-0.1,0-0.3-0.1-0.4-0.2c-0.1-0.1-0.2-0.2-0.2-0.4l-0.1-1.5
		c-0.8,1.3-1.9,1.9-3.2,1.9c-1.2,0-2.1-0.5-3-1.6c-0.8-1-1.3-2.3-1.3-4c0-3.3,0.8-5.6,2.4-7.1c0.6-0.6,1.3-0.9,2-1
		c0.7-0.1,1.4,0,2,0.3c0.5,0.3,1,0.6,1.4,1.2c0.4,0.5,0.6,1.1,0.6,1.8c0,0.1,0,0.1,0,0.2v0.2v0.1V9.4L218.8,9.4z M217.7,9.4
		L217.7,9.4V9.3V9.3v0c0-0.6-0.2-1.1-0.4-1.5c-0.3-0.4-0.6-0.7-1-0.9c-0.4-0.2-0.8-0.3-1.4-0.2c-0.5,0.1-1,0.4-1.5,0.8
		c-1.4,1.2-2.1,3.3-2,6.3c0,1.4,0.4,2.4,1,3.2c0.7,0.8,1.4,1.2,2.2,1.2c0.7,0,1.4-0.3,2-1.1c0.6-0.7,1-1.9,1.1-3.4V9.4z"/>
</g>
<path id="XMLID_106_" class="st0" d="M98,1.7c-0.1-0.2-0.1-0.3,0-0.4c0-0.1,0.1-0.2,0.3-0.3c0.1-0.1,0.3-0.1,0.4,0s0.2,0.1,0.3,0.3
	c0.5,1.1,2,4.4,2,4.4c0.5,1.2,1.4,3.1,2.6,5.9s2.1,4.8,2.8,6.3c0.1,0.1,0.1,0.3,0,0.4c0,0.1-0.1,0.2-0.3,0.3c-0.1,0.1-0.3,0.1-0.4,0
	c-0.1,0-0.2-0.1-0.3-0.3c-0.6-1.5-1.6-3.5-2.8-6.3C101.3,9.3,98.5,2.8,98,1.7z"/>
</svg>
