<?xml version="1.0" encoding="utf-8"?>
<!-- Generator: Adobe Illustrator 19.0.0, SVG Export Plug-In . SVG Version: 6.00 Build 0)  -->
<svg version="1.1" id="Layer_1" xmlns="http://www.w3.org/2000/svg" xmlns:xlink="http://www.w3.org/1999/xlink" x="0px" y="0px"
	 viewBox="0 0 612 443.7" style="enable-background:new 0 0 612 443.7;" xml:space="preserve">
<style type="text/css">
	.st0{fill:#FFFFFF;}
</style>
<g id="middle_east">
	<path id="XMLID_208_" class="st0" d="M212.1,78.2l2.6,9.9l10.2,3.3l5.3-3.3l7.6-5.9l7.6-2.3l3.3,2.6v3.6l-2.3,3.3h-2.3l3,5.6h4.9
		l-2.6,11.5l4,3h5.9l3.6,5.6l8.6,4.9l29.7-3c0,0,3-24.4,9.9-28.7l-5.6-4l5.6-3.6l-2-1.6l2-3.3h-8.2l1.3-7.6l3.6-3.6l1-6.6l-1.6-6.9
		l11.2-7.6h11.2l4.9,0.7l1,2v5.6l2.3,3.6l3.6,0.3l4.3-1.3l1-8.2l17.8-36.3L396.9,0l12.2,8.2l12.5,18.5l33.7-3l5.3,4l2,6.6l1.6,0.3
		l-2.6,8.2l-3.3,5.3l5.3,1l1,7.9h12.2l5.9,2.3c0,0,9.6-7.3,10.6-7.6s8.9-1,8.9-1L516,37.3l10.9-0.3l11.9,4L543,34l8.6-4l5.3,4
		l37.9,0.7l8.6,1.6l2.6,3.6l7.9,3.3l-1.6,4l-12.2,6.3l-8.2,3l-3.3,4.3l-6.3,3l-8.9-0.7l-5.9,4.9l-5.3,4.3l-5.6-0.3l-3.3-3H550
		c0,0-4.3,3.3-4.9,3.3c-0.7,0-9.2,3-9.2,3l-6.6,12.5v6.9l4.9,1.3l4-0.3l-0.3,4v7.9l-2,4.3l-4.6,1l-0.3,2.6l4.9,0.3l4.6,0.3v3.6h2.6
		c0,0,2.6,2.3-0.7,8.9l2,1.6h4.9l1,1.3l8.9,4.9l-9.6,6.6l-1,3.6h-8.9l-4.3,1.3l-2,1.3l-13.2-4.3l-4.6,1.3l-1.3,3v3l-1,7.3l1.6,3.3
		l-4.9,3.3l2,3l3.6,2l1.6,5.3l6.6,2l-2.3,4.6l-8.2,3.3l-1,4.3v3l1,3.6h-3.3l-9.9,8.2l-1,4.9l-5.6,1.6l-9.9,13.5l-11.2,11.2
		c0,0-2,2.3-3,2.3c-1,0-6.9,0-6.9,0l-3,3.3l-4.6-5.9l-12.2,13.5l-0.7,4l6.6,3.6l-2,5.9l1.3,3.6h4.6l-1.3,6.6l4.3,6.6l-2,4.3L450,287
		l-4.9-3.3l-4,4.9l-4.6-2.3l-8.6,0.7l-2,3.6h-4l-3.3,4.3l-7.6-1.6l-2.6-12.5l-4.6-1.6l-0.7-8.2l-4.3,0.3l-10.6,2l-5.6-1l-2,3.6
		l-4.3-3.3l-10.9,3l-7.6-1.3l-5.3,2.3l-6.3,1.3c0,0-5.3-2.3-6.3-2.3c-1-0.3-6.6-3.3-6.6-3.3l-1.3,1.3l-12.5-2.6l-2.3,1.3l-17.8-4.3
		l-3.6-16.5l-3-2.3l-3.3-0.7l-10.2,4.6l-9.2,5.3l-8.6-4.3l-4,1.3l-3-3.3l-7.6-7.6l-10.6-5.3l-2.3-14.2l-4.3-4l-1.3-6.3l-2.3-7.9
		l-4.3,2.3l-4.6-2.3l-0.3-4.3l-3-0.3l-1,3.6l-4.3,4.3l-3.3-1.3v3.3l-7.6,5.3l3.3,1.6l1.3,10.2l1.6,7.3l6.3,5.6l-1,4.3l7.3,5.3
		l-0.3,5.9l-0.3,3.6l3-2l0.3,2.3l-4.3,2.3l1.3,4.3l2.3,7.9l0.3-6.6l7.3-9.9l4.3,4l-1,6.6l-0.3,7.3l-4,4.3v3.6h3.3l1.3,2.3h7.3
		l17.5-0.7l7.3-5.3l23.4-22.8h2.6c0,0-19.8,32.3,20.5,35c0,0,0.3,11.9,9.9,15.8l-0.3,2.3l-18.8,26.1h-3.3l-5.9,3.3l-2,15.5
		c0,0-14.5-3.3-15.8,13.5c0,0-16.5-3-19.8,14.5h-3.3h-6.9l-22.8,8.6l-3,9.9h-4.9l-4.9,5.6l-27.4,7.9l-7.6,10.2H162
		c0,0-4.6,8.6-22.4,6.6c0,0-11.9,14.5-30.4,8.2c0,0-3.3,0.3-1.3-14.8l-2-9.2l-3-10.9v-4.9l4.3-12.9l-4.3-8.2v-4.3
		c0,0-11.9-14.8-10.9-28.4c-5.6-10.2-6.3-8.2-15.5-12.9c0,0-1.6-14.8-1.3-17.2c0.3-2.3,2.3-6.3,2.3-6.3s-3.3-25.4-10.9-27.4
		l-4.3-0.3v-5.3v-5.6l-4-10.6l-4.3-12.5l-4-6.3l-1.3-7.6l-6.6-2.3l7.6-13.5l-1.6-31c0,0,4.6,2.3,20.5-23.4l19.8-19.8l2-7.3l-0.3-6.6
		l6.6-10.9l4.3-4.3l-4.3-1l-4.6,3.6l-6.6-3L75.2,125l-15.8,3l-4.3-5.3l-15.2-7.9l-6.9,9.6L22.8,124l-1.3-8.2l-11.2,1l-6.9,1l2.6-5.3
		l1.3-7.9L0,96.7l3.3-4l4.3,2l2-3.3l1.6-6.9l1-4.6l-4.3-1.6c0,0,0.3-6.3,19.1-10.2l3,1c0,0-0.3-2,1.3-2s11.9,1.6,11.9,1.6l2.3-3.3
		l8.6-1l-4.3-3l0.3-3.6l3-0.3L70.6,60c0,0,18.5-13.5,51.5-14.2l1.3,2.6l5.3,4.3l2.6-2l-1,6.3l6.3,0.3l3,3.6l4.6-1.3l4.3,1.3
		c0,0,10.9-2.3,21.1-0.7l19.1-8.6c0,0,0.7,4.3,9.6,1.3l4.3-0.7c0,0,8.6,9.2,2.6,15.5v2.3L212.1,78.2z"/>
	<path id="XMLID_207_" class="st0" d="M44.2,90.1c0,0-0.3-3.6,1.6-4.6c1.6-1,8.2-3.3,8.2-3.3s-3.6,5.6-4,5.9
		C49.8,88.1,47.2,90.7,44.2,90.1z"/>
	<path id="XMLID_40_" class="st0" d="M50.8,42.2v5.6l-4.6,0.3l1-2h-3.6l1-1.6C44.5,44.5,46.2,42.9,50.8,42.2z"/>
</g>
</svg>
