<?xml version="1.0" encoding="utf-8"?>
<!-- Generator: Adobe Illustrator 19.0.0, SVG Export Plug-In . SVG Version: 6.00 Build 0)  -->
<svg version="1.1" id="Layer_1" xmlns="http://www.w3.org/2000/svg" xmlns:xlink="http://www.w3.org/1999/xlink" x="0px" y="0px"
	 viewBox="0 0 141.8 22.3" style="enable-background:new 0 0 141.8 22.3;" xml:space="preserve">
<style type="text/css">
	.st0{fill:#FFFFFF;}
</style>
<g id="XMLID_832_">
	<path id="XMLID_860_" class="st0" d="M0,5.7V0.6c0-0.2,0.1-0.3,0.2-0.4C0.3,0.1,0.5,0,0.6,0s0.3,0.1,0.4,0.2s0.2,0.3,0.2,0.4v2
		c0.9-1.2,2-2,3.3-2.4C5.8-0.1,6.9,0,8,0.6s1.9,1.7,2.5,3.2c0.4,1.3,0.8,2.7,1,4.4c0.2,1.7,0.3,3.1,0.3,4.4c0,1.2,0,2.8-0.1,4.8
		c-0.1,2-0.1,3.4-0.1,4.2c0,0.2-0.1,0.3-0.2,0.4c-0.1,0.1-0.3,0.2-0.4,0.2c-0.2,0-0.3-0.1-0.4-0.2c-0.1-0.1-0.2-0.3-0.2-0.4
		c0-0.9,0-2.3,0.1-4.3c0.1-2,0.1-3.5,0.1-4.7c0-1.2-0.1-2.6-0.3-4.2c-0.2-1.6-0.5-3-0.9-4.2C8.8,3,8.2,2.1,7.4,1.7S5.8,1.2,4.9,1.4
		S3.3,2.2,2.6,3C1.9,3.8,1.5,4.7,1.3,5.8v15.7c0,0.2-0.1,0.3-0.2,0.4c-0.1,0.1-0.3,0.2-0.4,0.2S0.3,22.1,0.2,22
		C0.1,21.8,0,21.7,0,21.5V5.7z"/>
	<path id="XMLID_857_" class="st0" d="M17.6,6.5c0.1-0.1,0.3-0.1,0.5-0.1c0.1,0,0.1,0,0.2,0c0.1,0,0.2,0,0.2,0c0.1,0,0.1,0,0.2,0
		c0.3,0,0.6,0.1,0.8,0.2c1.2,0.5,2.1,1.7,2.7,3.5c0.6,1.6,0.8,3.3,0.7,5.2c-0.1,2-0.6,3.6-1.4,4.8c-1,1.5-2.3,2.1-4,2
		c-1.5-0.2-2.6-1.1-3.5-2.8c-0.7-1.4-1-3.2-0.9-5.1c0.1-2,0.5-3.7,1.3-5.1C15.3,7.5,16.3,6.7,17.6,6.5z M18.2,7.7
		c-1.1,0.1-2,0.7-2.7,2c-0.7,1.2-1,2.7-1.1,4.5c0,1.8,0.2,3.3,0.8,4.6c0.6,1.3,1.4,2,2.5,2.1c1.2,0.1,2.1-0.3,2.8-1.4
		c0.7-1,1.1-2.4,1.2-4.2c0.1-1.7-0.1-3.3-0.6-4.7c-0.5-1.5-1.2-2.4-2-2.8c-0.1,0-0.3-0.1-0.4-0.1c0,0-0.1,0-0.3,0
		C18.3,7.6,18.3,7.7,18.2,7.7z"/>
	<path id="XMLID_855_" class="st0" d="M26.1,7.1c0,1.6,0,3.8,0,6.5c1.3-3.4,3.3-5.8,5.9-7.2c0.1-0.1,0.3-0.1,0.5,0
		c0.2,0.1,0.3,0.2,0.4,0.3c0.1,0.1,0.1,0.3,0,0.5c-0.1,0.2-0.2,0.3-0.3,0.4c-1.6,0.8-2.9,2.1-4,3.8c-1.1,1.7-1.8,3.6-2.2,5.7
		c-0.1,0.5-0.2,1.2-0.2,2.1c0,1.1,0,1.9-0.1,2.3c0,0,0,0.1,0,0.1c0,0,0,0.1,0,0.1c0,0.1-0.1,0.2-0.2,0.3c-0.1,0.1-0.3,0.1-0.4,0.1
		c-0.1,0-0.3-0.1-0.4-0.2c-0.1-0.1-0.1-0.1-0.2-0.2c0,0,0-0.1-0.1-0.2c0-0.1,0-0.2,0-0.3c0-0.3,0-0.5,0-0.8c0-0.4,0-1.1,0-2
		c0-0.9,0-1.5,0-1.9c-0.1-5-0.1-8.2-0.1-9.5c0-0.2,0.1-0.3,0.2-0.4c0.1-0.1,0.3-0.2,0.5-0.2c0.2,0,0.3,0.1,0.4,0.2
		C26,6.7,26.1,6.9,26.1,7.1z"/>
	<path id="XMLID_853_" class="st0" d="M37.5,6.3c-1.2,0-2,0-2.5,0c-0.2,0-0.3-0.1-0.4-0.2c-0.1-0.1-0.2-0.3-0.2-0.4s0.1-0.3,0.2-0.4
		c0.1-0.1,0.3-0.2,0.4-0.2c0.5,0,1.4,0,2.5,0c0-1.5-0.1-2.9-0.1-4.3c0-0.2,0.1-0.3,0.2-0.5c0.1-0.1,0.3-0.2,0.4-0.2s0.3,0.1,0.5,0.2
		s0.2,0.3,0.2,0.4c0,1.3,0.1,2.8,0.1,4.3c0.9,0,1.8,0,2.5,0c0.2,0,0.3,0.1,0.4,0.2c0.1,0.1,0.2,0.3,0.2,0.5c0,0.2-0.1,0.3-0.2,0.4
		c-0.1,0.1-0.3,0.2-0.5,0.2h-2.4c0,1.5,0,3.9,0,7.3c0,3.4,0,6.1,0,7.9c0,0.2-0.1,0.3-0.2,0.4c-0.1,0.1-0.3,0.2-0.4,0.2
		s-0.3-0.1-0.5-0.2c-0.1-0.1-0.2-0.3-0.2-0.5c0-1.8,0-4.5,0-7.9C37.5,10.3,37.5,7.8,37.5,6.3z"/>
	<path id="XMLID_851_" class="st0" d="M45.2,13c0,3.1,0,5.9,0,8.5c0,0.2-0.1,0.3-0.2,0.4c-0.1,0.1-0.3,0.2-0.4,0.2
		c-0.2,0-0.3-0.1-0.4-0.2c-0.1-0.1-0.2-0.3-0.2-0.4c0-3.9,0.1-10.8,0.2-20.8c0-0.2,0.1-0.3,0.2-0.4C44.4,0.1,44.5,0,44.7,0
		c0.2,0,0.3,0.1,0.4,0.2s0.2,0.3,0.2,0.4c-0.1,5.3-0.1,8.2-0.1,8.9c0.7-1,1.4-1.8,2.3-2.4c1.1-0.7,2-0.8,3-0.5
		c1,0.4,1.9,1.3,2.5,2.7c0.4,1.1,0.7,3.1,0.9,6.1c0.1,2,0.1,4.1,0,6.2c0,0.2-0.1,0.3-0.2,0.4c-0.1,0.1-0.3,0.2-0.5,0.2
		c-0.2,0-0.3-0.1-0.4-0.2c-0.1-0.1-0.2-0.3-0.2-0.5c0.1-2.2,0.1-4.2,0-6.1c-0.1-2.8-0.3-4.7-0.7-5.6c-0.5-1.1-1.1-1.8-1.7-2
		c-0.6-0.2-1.2-0.1-1.9,0.4c-0.7,0.4-1.4,1.1-2,2C45.7,11.1,45.3,12,45.2,13C45.2,12.9,45.2,12.9,45.2,13z"/>
	<path id="XMLID_848_" class="st0" d="M65.4,21.3c1.4-6.2,2.4-10.5,3.1-13c0.7-2.8,1.2-4.6,1.4-5.4c0.1-0.6,0.3-1.2,0.4-1.7
		c0.1-0.2,0.1-0.4,0.2-0.6c0-0.1,0.1-0.1,0.1-0.2c0,0,0-0.1,0-0.1c0,0,0.1-0.1,0.1-0.1c0.1-0.1,0.1-0.1,0.3-0.2
		c0.3-0.1,0.5,0,0.7,0.2c0.1,0.1,0.2,0.3,0.3,0.5C72,0.9,72,1.1,72.1,1.3c0.1,0.4,0.2,0.9,0.3,1.5l0.2,1c0.1,0.4,0.1,0.6,0.1,0.9
		c0,0.2,0.1,0.3,0.1,0.4L73.7,9l0.9,4.3c0.2,1,0.5,2.3,0.9,3.8c0.4,1.5,0.7,2.9,1,4.2c0,0.2,0,0.3-0.1,0.5c-0.1,0.1-0.2,0.2-0.4,0.3
		c-0.2,0-0.3,0-0.5-0.1c-0.1-0.1-0.2-0.2-0.3-0.4c-0.5-1.8-1-3.8-1.5-6.1c0,0-0.1,0-0.2,0c-2.9,0-4.8,0-5.7,0.1l-1.4,6
		c0,0.2-0.1,0.3-0.3,0.4c-0.1,0.1-0.3,0.1-0.5,0.1s-0.3-0.1-0.4-0.3C65.4,21.6,65.4,21.5,65.4,21.3z M68.3,14.3
		c0.9,0,2.7-0.1,5.3-0.1l-2-8.9c0,0,0-0.1-0.1-0.3l-0.2-0.9l-0.2-1l0-0.2l-0.1,0.3c-0.2,0.8-0.7,2.6-1.4,5.4
		C69.3,10.3,68.8,12.2,68.3,14.3z"/>
	<path id="XMLID_846_" class="st0" d="M86.8,10.8c0.1,0.9,0.1,2,0.1,3.4c0,0.7,0,1.7,0,3.2c0,1.4,0,2.3,0,2.8c0,0.2-0.1,0.3-0.2,0.5
		c-0.1,0.1-0.3,0.2-0.4,0.2s-0.3-0.1-0.5-0.2c-0.1-0.1-0.2-0.3-0.2-0.4c0-0.4,0-1.4,0-2.8c0-1.4,0-2.5,0-3.2c0-1.3,0-2.4-0.1-3.3
		c-0.1-1-0.2-1.7-0.4-2.1c-0.3-0.7-0.7-1.1-1.2-1.3c-0.4-0.1-0.9-0.1-1.5,0.2c-0.6,0.3-1.1,0.7-1.6,1.2c-0.5,0.5-0.8,1.1-1,1.7
		c0,0,0,0.1,0,0.1v10.9c0,0.2-0.1,0.3-0.2,0.4c-0.1,0.1-0.3,0.2-0.4,0.2c-0.2,0-0.3-0.1-0.4-0.2c-0.1-0.1-0.2-0.3-0.2-0.4V7.1
		c0-0.2,0.1-0.3,0.2-0.4c0.1-0.1,0.3-0.2,0.4-0.2c0.2,0,0.3,0.1,0.4,0.2s0.2,0.3,0.2,0.4v1.1c0.6-0.7,1.3-1.2,2-1.6
		c0.9-0.4,1.7-0.5,2.4-0.2c0.8,0.3,1.5,0.9,2,2c0.1,0.1,0.1,0.3,0.2,0.5c0.7-1,1.5-1.7,2.5-2.2c0.8-0.4,1.6-0.5,2.4-0.3
		c0.8,0.3,1.5,0.9,2,1.9c0.3,0.5,0.5,1.4,0.6,2.6c0.1,1,0.2,2.2,0.3,3.7c0.1,2.5,0.1,4.8,0,6.9c0,0.2-0.1,0.3-0.2,0.4
		c-0.1,0.1-0.3,0.2-0.5,0.2s-0.3-0.1-0.4-0.2c-0.1-0.1-0.2-0.3-0.2-0.5c0.1-2,0.1-4.3,0-6.8c0-1.5-0.1-2.7-0.3-3.6
		c-0.1-1.1-0.3-1.9-0.5-2.2c-0.3-0.7-0.7-1.1-1.2-1.2c-0.4-0.1-0.9-0.1-1.5,0.2c-0.5,0.3-1.1,0.7-1.5,1.2c-0.5,0.5-0.8,1.1-1,1.6
		C86.9,10.7,86.8,10.8,86.8,10.8z"/>
	<path id="XMLID_843_" class="st0" d="M104.8,13.5c-1.3,0-3.8-0.1-7.5-0.1c-0.1,3.1,0.4,5.2,1.5,6.4c1.2,1.2,2.4,1.5,3.8,1
		c0.6-0.2,1.1-0.5,1.5-1c0.4-0.5,0.7-1,0.8-1.5c0-0.2,0.1-0.3,0.3-0.4c0.1-0.1,0.3-0.1,0.5-0.1c0.2,0,0.3,0.1,0.4,0.3
		c0.1,0.1,0.1,0.3,0.1,0.5c-0.2,0.8-0.5,1.4-1.1,2.1c-0.6,0.6-1.3,1.1-2,1.3c-0.8,0.3-1.6,0.4-2.6,0.2c-0.9-0.2-1.8-0.7-2.6-1.5
		c-1.4-1.5-2.1-4.1-1.9-7.7c0.1-1.7,0.6-3.2,1.4-4.5s1.9-1.9,3.1-2.2c1.3-0.2,2.4,0.2,3.3,1.3c0.9,1.1,1.5,2.8,1.6,5
		c0,0.1,0,0.2-0.1,0.3C105.4,13.4,105.2,13.5,104.8,13.5z M97.5,12.2c3.3,0,5.6,0,6.7,0c-0.2-1.6-0.6-2.9-1.3-3.7
		c-0.6-0.7-1.3-1-2.1-0.9c-0.7,0.1-1.4,0.6-2.1,1.4C98.1,9.9,97.7,10.9,97.5,12.2z"/>
	<path id="XMLID_841_" class="st0" d="M109.5,7.1c0,1.6,0,3.8,0,6.5c1.3-3.4,3.3-5.8,5.9-7.2c0.1-0.1,0.3-0.1,0.5,0
		c0.2,0.1,0.3,0.2,0.4,0.3c0.1,0.1,0.1,0.3,0,0.5c-0.1,0.2-0.2,0.3-0.3,0.4c-1.6,0.8-2.9,2.1-4,3.8c-1.1,1.7-1.8,3.6-2.2,5.7
		c-0.1,0.5-0.2,1.2-0.2,2.1c0,1.1,0,1.9-0.1,2.3c0,0,0,0.1,0,0.1c0,0,0,0.1,0,0.1c0,0.1-0.1,0.2-0.2,0.3c-0.1,0.1-0.3,0.1-0.4,0.1
		c-0.1,0-0.3-0.1-0.4-0.2c-0.1-0.1-0.1-0.1-0.2-0.2c0,0,0-0.1-0.1-0.2c0-0.1,0-0.2,0-0.3c0-0.3,0-0.5,0-0.8c0-0.4,0-1.1,0-2
		c0-0.9,0-1.5,0-1.9c-0.1-5-0.1-8.2-0.1-9.5c0-0.2,0.1-0.3,0.2-0.4c0.1-0.1,0.3-0.2,0.5-0.2s0.3,0.1,0.4,0.2
		C109.4,6.7,109.5,6.9,109.5,7.1z"/>
	<path id="XMLID_838_" class="st0" d="M119.3,2.1c0.1,0.1,0.2,0.3,0.2,0.4c0,0.2-0.1,0.3-0.2,0.4c-0.1,0.1-0.3,0.2-0.4,0.2
		s-0.3-0.1-0.4-0.2c-0.1-0.1-0.2-0.3-0.2-0.4c0-0.2,0.1-0.3,0.2-0.4c0.1-0.1,0.3-0.2,0.4-0.2S119.2,2,119.3,2.1z M119.5,7
		c0,1.1,0,2.6,0,4.6c0,2,0,3.8,0,5.4c0,1.6,0,3.1-0.1,4.6c0,0.2-0.1,0.3-0.2,0.4c-0.1,0.1-0.3,0.2-0.5,0.2s-0.3-0.1-0.4-0.2
		c-0.1-0.1-0.2-0.3-0.2-0.5c0.1-1.4,0.1-2.9,0.1-4.5c0-1.6,0-3.4,0-5.4c0-2,0-3.5,0-4.6c0-0.2,0.1-0.3,0.2-0.4
		c0.1-0.1,0.3-0.2,0.4-0.2s0.3,0.1,0.4,0.2C119.4,6.7,119.5,6.8,119.5,7z"/>
	<path id="XMLID_836_" class="st0" d="M128.5,10c-0.5-1-1.1-1.7-1.7-2c-0.5-0.3-1-0.3-1.5-0.1c-0.6,0.2-1.1,0.7-1.6,1.4
		c-0.5,0.7-0.9,1.5-1.2,2.4c-0.3,0.9-0.5,1.9-0.5,3c0,1.1,0.1,2.2,0.3,3.1c0.4,1.3,0.9,2.2,1.7,2.7c0.8,0.5,1.6,0.7,2.4,0.5
		c0.9-0.2,1.6-0.7,2.2-1.5c0.6-0.8,0.9-1.9,0.9-3.2c0-0.2,0.1-0.3,0.2-0.4c0.1-0.1,0.3-0.2,0.4-0.2s0.3,0.1,0.4,0.2
		c0.1,0.1,0.2,0.3,0.2,0.4c0,1.5-0.4,2.8-1.2,3.9c-0.8,1.1-1.7,1.7-2.9,2c-1.2,0.3-2.3,0.1-3.4-0.6c-1-0.7-1.8-1.9-2.2-3.5
		c-0.3-1-0.4-2.1-0.4-3.4c0-1.3,0.2-2.4,0.5-3.4c0.3-1.1,0.8-2,1.4-2.8s1.3-1.4,2.1-1.7c0.9-0.4,1.8-0.3,2.6,0.1
		c0.8,0.4,1.6,1.3,2.2,2.6c0.1,0.2,0.1,0.3,0,0.5c-0.1,0.2-0.2,0.3-0.3,0.4c-0.2,0.1-0.3,0.1-0.5,0C128.7,10.2,128.6,10.1,128.5,10z
		"/>
	<path id="XMLID_833_" class="st0" d="M141.8,10.8v3.8c0,0.1,0,0.1,0,0.2c0,0.3,0,0.5,0,0.8c0,2.2,0.1,4.2,0.2,5.9
		c0,0.2-0.1,0.3-0.2,0.5c-0.1,0.1-0.3,0.2-0.4,0.2c-0.2,0-0.3-0.1-0.5-0.2c-0.1-0.1-0.2-0.3-0.2-0.4l-0.1-1.7
		c-0.9,1.5-2.1,2.2-3.7,2.2c-1.3,0-2.5-0.6-3.4-1.8c-1-1.2-1.5-2.7-1.5-4.5c0-3.8,0.9-6.5,2.8-8.2c0.7-0.7,1.5-1,2.3-1.2
		c0.9-0.1,1.6,0,2.3,0.3c0.6,0.3,1.1,0.7,1.6,1.3s0.7,1.3,0.7,2.1c0,0.1,0,0.1,0,0.2v0.3v0.1V10.8L141.8,10.8z M140.5,10.7
		L140.5,10.7v-0.1v-0.1v0c0-0.7-0.2-1.2-0.5-1.7c-0.3-0.5-0.7-0.8-1.1-1c-0.4-0.3-0.9-0.3-1.6-0.2c-0.6,0.1-1.2,0.4-1.7,0.9
		c-1.6,1.4-2.4,3.8-2.3,7.2c0,1.6,0.4,2.8,1.2,3.7c0.8,0.9,1.6,1.4,2.5,1.4c0.9,0,1.6-0.4,2.3-1.2c0.7-0.9,1.1-2.2,1.2-4V10.7z"/>
</g>
</svg>
