<?xml version="1.0" encoding="utf-8"?>
<!-- Generator: Adobe Illustrator 19.0.0, SVG Export Plug-In . SVG Version: 6.00 Build 0)  -->
<svg version="1.1" id="Layer_1" xmlns="http://www.w3.org/2000/svg" xmlns:xlink="http://www.w3.org/1999/xlink" x="0px" y="0px"
	 viewBox="0 0 65.2 20.2" style="enable-background:new 0 0 65.2 20.2;" xml:space="preserve">
<style type="text/css">
	.st0{fill:#FFFFFF;}
</style>
<g id="XMLID_38_">
	<path id="XMLID_253_" class="st0" d="M5.6,0.1c0.2-0.1,0.3,0,0.5,0C7.3,0.8,8.2,1.8,9,3.1c0.8,1.3,1.3,2.7,1.6,4.3
		c0.3,1.5,0.4,3.1,0.3,4.6c-0.2,2.5-0.8,4.5-1.8,5.9c-1.3,1.7-2.9,2.4-4.9,2c-1.6-0.3-2.8-1.6-3.5-3.8C0,14.3-0.2,12.1,0,9.6
		c0.2-2.5,0.7-4.6,1.5-6.3c1-2,2.2-3.1,3.7-3.3C5.4,0,5.5,0,5.6,0.1z M5.3,1.1c-1,0.1-1.9,1-2.7,2.7C1.8,5.4,1.3,7.4,1.1,9.7
		c-0.2,2.4,0,4.4,0.5,6c0.6,1.8,1.5,2.7,2.7,3c1.5,0.3,2.8-0.2,3.8-1.5c1-1.3,1.5-3.1,1.6-5.3c0.1-2.3-0.2-4.4-0.9-6.5S7,2,5.6,1.2
		c0,0-0.1-0.1-0.1-0.1C5.4,1.1,5.4,1.1,5.3,1.1z"/>
	<path id="XMLID_251_" class="st0" d="M18.7,9c-0.5-0.9-1-1.6-1.5-1.9c-0.4-0.2-0.9-0.2-1.4-0.1c-0.5,0.2-1,0.6-1.5,1.2
		c-0.5,0.6-0.8,1.3-1.1,2.1c-0.3,0.8-0.4,1.7-0.4,2.7c0,1,0.1,2,0.3,2.8c0.3,1.2,0.8,2,1.5,2.4c0.7,0.5,1.4,0.6,2.2,0.4
		c0.8-0.2,1.4-0.6,2-1.4c0.6-0.8,0.8-1.7,0.8-2.9c0-0.2,0.1-0.3,0.2-0.4c0.1-0.1,0.2-0.2,0.4-0.2c0.2,0,0.3,0.1,0.4,0.2
		c0.1,0.1,0.2,0.2,0.2,0.4c0,1.4-0.4,2.6-1.1,3.5c-0.7,1-1.6,1.6-2.6,1.8C16,20.2,15,20.1,14,19.4c-0.9-0.6-1.6-1.7-2-3.1
		c-0.3-0.9-0.4-1.9-0.4-3.1c0-1.1,0.2-2.2,0.5-3.1c0.3-1,0.7-1.8,1.3-2.5c0.6-0.7,1.2-1.3,1.9-1.5c0.8-0.3,1.6-0.3,2.4,0.1
		c0.8,0.4,1.4,1.2,2,2.3c0.1,0.2,0.1,0.3,0,0.4c-0.1,0.1-0.2,0.3-0.3,0.3c-0.1,0.1-0.3,0.1-0.4,0C18.9,9.3,18.8,9.2,18.7,9z"/>
	<path id="XMLID_208_" class="st0" d="M30.4,12.2c-1.2,0-3.4-0.1-6.8-0.1c-0.1,2.8,0.4,4.7,1.4,5.8c1,1.1,2.2,1.4,3.5,0.9
		c0.6-0.2,1-0.5,1.4-0.9c0.4-0.4,0.6-0.9,0.7-1.3c0-0.2,0.1-0.3,0.3-0.4c0.1-0.1,0.3-0.1,0.4-0.1c0.2,0,0.3,0.1,0.4,0.2
		c0.1,0.1,0.1,0.3,0.1,0.4c-0.2,0.7-0.5,1.3-1,1.9c-0.5,0.6-1.1,1-1.8,1.2c-0.7,0.3-1.5,0.4-2.4,0.2c-0.9-0.2-1.6-0.6-2.3-1.4
		c-1.3-1.4-1.9-3.7-1.7-6.9c0.1-1.6,0.5-2.9,1.3-4c0.8-1.1,1.7-1.8,2.8-2c1.2-0.2,2.1,0.2,3,1.2c0.8,1,1.3,2.5,1.5,4.5
		c0,0.1,0,0.2-0.1,0.3C30.9,12.1,30.7,12.2,30.4,12.2z M23.7,11c3,0,5.1,0,6.1,0c-0.2-1.5-0.6-2.6-1.2-3.3c-0.5-0.6-1.2-0.9-1.9-0.8
		c-0.7,0.1-1.3,0.5-1.9,1.3C24.3,8.9,23.9,9.9,23.7,11z"/>
	<path id="XMLID_204_" class="st0" d="M41.5,9.8v3.4c0,0.1,0,0.1,0,0.2c0,0.2,0,0.5,0,0.7c0,2,0.1,3.8,0.1,5.3
		c0,0.2-0.1,0.3-0.2,0.4C41.3,20,41.2,20,41.1,20c-0.2,0-0.3-0.1-0.4-0.2c-0.1-0.1-0.2-0.2-0.2-0.4L40.4,18c-0.8,1.3-1.9,2-3.3,2
		c-1.2,0-2.2-0.6-3.1-1.6c-0.9-1.1-1.3-2.4-1.3-4.1c0-3.4,0.8-5.9,2.5-7.4c0.6-0.6,1.4-1,2.1-1.1c0.8-0.1,1.5,0,2.1,0.3
		c0.6,0.3,1,0.7,1.4,1.2c0.4,0.5,0.6,1.2,0.7,1.9c0,0.1,0,0.1,0,0.2v0.2v0.1V9.8L41.5,9.8z M40.3,9.7L40.3,9.7V9.6V9.6v0
		c0-0.6-0.2-1.1-0.4-1.6c-0.3-0.4-0.6-0.7-1-0.9c-0.4-0.2-0.9-0.3-1.4-0.2c-0.6,0.1-1.1,0.4-1.6,0.8c-1.4,1.3-2.1,3.5-2.1,6.5
		c0,1.4,0.4,2.5,1.1,3.3c0.7,0.8,1.4,1.2,2.3,1.3c0.8,0,1.5-0.4,2.1-1.1c0.6-0.8,1-2,1.1-3.6V9.7z"/>
	<path id="XMLID_120_" class="st0" d="M44.7,9.9v9.6c0,0.2-0.1,0.3-0.2,0.4c-0.1,0.1-0.2,0.2-0.4,0.2c-0.2,0-0.3-0.1-0.4-0.2
		c-0.1-0.1-0.2-0.2-0.2-0.4V6.4c0-0.2,0.1-0.3,0.2-0.4c0.1-0.1,0.2-0.2,0.4-0.2c0.2,0,0.3,0.1,0.4,0.2c0.1,0.1,0.2,0.2,0.2,0.4v1.3
		c0.6-0.7,1.3-1.3,2.1-1.6c0.8-0.3,1.6-0.4,2.3-0.2c0.8,0.3,1.5,0.8,2,1.7c0.6,1.1,0.9,3,1,5.8c0,0.5,0,1.6,0,3.3c0,1.7,0,2.6,0,2.7
		c0,0.2-0.1,0.3-0.2,0.4C51.7,20,51.6,20,51.4,20c-0.2,0-0.3-0.1-0.4-0.2c-0.1-0.1-0.2-0.2-0.2-0.4c0-0.1,0-1,0-2.7
		c0-1.7,0-2.8,0-3.2c-0.1-2.6-0.4-4.4-0.9-5.3c-0.3-0.6-0.8-1.1-1.3-1.2c-0.5-0.1-1-0.1-1.5,0.1c-0.6,0.2-1.1,0.6-1.5,1.1
		C45.2,8.7,44.9,9.3,44.7,9.9C44.7,9.9,44.7,9.9,44.7,9.9z"/>
	<path id="XMLID_113_" class="st0" d="M54.8,1.9C54.9,2,55,2.2,55,2.3s-0.1,0.3-0.2,0.4c-0.1,0.1-0.2,0.2-0.4,0.2
		c-0.2,0-0.3-0.1-0.4-0.2c-0.1-0.1-0.2-0.2-0.2-0.4S53.9,2,54,1.9c0.1-0.1,0.2-0.2,0.4-0.2C54.6,1.7,54.7,1.8,54.8,1.9z M55,6.3
		c0,1,0,2.3,0,4.1c0,1.8,0,3.4,0,4.9s0,2.8-0.1,4.1c0,0.2-0.1,0.3-0.2,0.4C54.7,20,54.6,20,54.4,20c-0.2,0-0.3-0.1-0.4-0.2
		c-0.1-0.1-0.2-0.3-0.2-0.4c0.1-1.3,0.1-2.6,0.1-4.1c0-1.5,0-3.1,0-4.9c0-1.8,0-3.2,0-4.1c0-0.2,0.1-0.3,0.2-0.4
		c0.1-0.1,0.2-0.2,0.4-0.2c0.2,0,0.3,0.1,0.4,0.2C54.9,6.1,55,6.2,55,6.3z"/>
	<path id="XMLID_40_" class="st0" d="M65,9.8v3.4c0,0.1,0,0.1,0,0.2c0,0.2,0,0.5,0,0.7c0,2,0.1,3.8,0.1,5.3c0,0.2-0.1,0.3-0.2,0.4
		C64.9,20,64.8,20,64.6,20c-0.2,0-0.3-0.1-0.4-0.2c-0.1-0.1-0.2-0.2-0.2-0.4L64,18c-0.8,1.3-1.9,2-3.3,2c-1.2,0-2.2-0.6-3.1-1.6
		c-0.9-1.1-1.3-2.4-1.3-4.1c0-3.4,0.8-5.9,2.5-7.4c0.6-0.6,1.4-1,2.1-1.1c0.8-0.1,1.5,0,2.1,0.3c0.6,0.3,1,0.7,1.4,1.2
		c0.4,0.5,0.6,1.2,0.7,1.9c0,0.1,0,0.1,0,0.2v0.2v0.1V9.8L65,9.8z M63.9,9.7L63.9,9.7V9.6V9.6v0c0-0.6-0.2-1.1-0.4-1.6
		c-0.3-0.4-0.6-0.7-1-0.9C62,6.8,61.6,6.8,61,6.9c-0.6,0.1-1.1,0.4-1.6,0.8c-1.4,1.3-2.1,3.5-2.1,6.5c0,1.4,0.4,2.5,1.1,3.3
		c0.7,0.8,1.4,1.2,2.3,1.3c0.8,0,1.5-0.4,2.1-1.1c0.6-0.8,1-2,1.1-3.6V9.7z"/>
</g>
</svg>
