<?xml version="1.0" encoding="utf-8"?>
<!-- Generator: Adobe Illustrator 19.0.0, SVG Export Plug-In . SVG Version: 6.00 Build 0)  -->
<svg version="1.1" id="Layer_1" xmlns="http://www.w3.org/2000/svg" xmlns:xlink="http://www.w3.org/1999/xlink" x="0px" y="0px"
	 viewBox="0 0 88.4 19.4" style="enable-background:new 0 0 88.4 19.4;" xml:space="preserve">
<style type="text/css">
	.st0{fill:#FFFFFF;}
</style>
<g id="XMLID_318_">
	<path id="XMLID_347_" class="st0" d="M7.3,5c0.2-1.1,0.1-2-0.4-2.6C6.4,1.7,5.8,1.4,5,1.3c-0.8-0.1-1.5,0-2.1,0.4
		c-0.6,0.4-1,1-1.2,1.7C1.6,4.2,1.9,5.1,2.6,6.1C2.8,6.3,3,6.6,3.2,6.8l0.7,0.7l0.8,0.8C5,8.7,5.3,9,5.4,9.1
		c0.5,0.5,0.9,0.9,1.2,1.3c0.3,0.4,0.7,0.8,1,1.4c0.4,0.6,0.6,1.1,0.8,1.6c0.2,0.5,0.2,1.1,0.2,1.7c0,0.6-0.1,1.3-0.3,1.9
		c-0.3,0.7-0.7,1.3-1.3,1.7C6.4,19,5.7,19.3,5,19.4c-0.7,0.1-1.5,0-2.2-0.2s-1.3-0.7-1.7-1.2c-0.8-1-1.1-2.5-1.1-4.6
		c0-0.2,0.1-0.3,0.2-0.4c0.1-0.1,0.2-0.2,0.4-0.2s0.3,0.1,0.4,0.2c0.1,0.1,0.2,0.2,0.2,0.4c0,1.9,0.2,3.2,0.8,3.9
		c0.3,0.4,0.7,0.7,1.3,0.9c0.5,0.2,1.1,0.2,1.7,0.2C5.4,18.2,6,18,6.4,17.7c0.4-0.3,0.8-0.7,1-1.2c0.2-0.5,0.3-1,0.3-1.4
		c0-0.5-0.1-0.9-0.2-1.3c-0.1-0.4-0.3-0.8-0.7-1.3c-0.3-0.5-0.6-0.9-0.9-1.2L4.6,9.9L3.9,9.2L3.1,8.3L2.4,7.6C2.1,7.3,1.9,7,1.7,6.8
		c-1-1.3-1.3-2.5-1.1-3.6c0.2-1.1,0.8-1.9,1.7-2.4C3.2,0.2,4.1,0,5.1,0.1c1.1,0.1,2,0.7,2.6,1.6c0.6,0.9,0.9,2,0.6,3.5
		c0,0.1-0.1,0.3-0.2,0.4C8,5.6,7.9,5.7,7.7,5.6c-0.1,0-0.3-0.1-0.4-0.2C7.3,5.3,7.2,5.2,7.3,5z"/>
	<path id="XMLID_344_" class="st0" d="M13.9,5.7c0.1-0.1,0.3-0.1,0.4-0.1c0.1,0,0.1,0,0.2,0c0.1,0,0.1,0,0.2,0c0.1,0,0.1,0,0.2,0
		c0.3,0,0.5,0.1,0.7,0.2c1.1,0.5,1.9,1.5,2.4,3.1c0.5,1.4,0.7,2.9,0.6,4.6c-0.1,1.7-0.5,3.1-1.3,4.2c-0.9,1.3-2,1.9-3.5,1.7
		c-1.3-0.1-2.3-1-3.1-2.5c-0.6-1.3-0.9-2.8-0.8-4.5c0.1-1.7,0.4-3.2,1.1-4.5C11.8,6.6,12.7,5.9,13.9,5.7z M14.4,6.7
		c-1,0.1-1.8,0.6-2.4,1.7c-0.6,1.1-0.9,2.4-1,4c0,1.6,0.2,2.9,0.7,4c0.5,1.1,1.3,1.8,2.2,1.9c1,0.1,1.8-0.3,2.5-1.2
		c0.6-0.9,1-2.1,1.1-3.7c0.1-1.5-0.1-2.9-0.5-4.2c-0.4-1.3-1-2.1-1.8-2.4c-0.1,0-0.2-0.1-0.4-0.1c0,0-0.1,0-0.2,0
		C14.4,6.7,14.4,6.7,14.4,6.7z"/>
	<path id="XMLID_342_" class="st0" d="M21.5,6.1c0,0.2,0,0.6-0.1,1.3l-0.1,1.6c-0.1,1.7-0.1,3.1-0.1,4.3c0.1,1.6,0.2,2.9,0.6,3.7
		c0.3,0.9,0.8,1.3,1.4,1.2c0.5,0,1-0.3,1.4-0.9c0.4-0.5,0.8-1.3,1.1-2.3c0.5-1.5,0.8-3.1,0.9-4.9c0-0.4,0-0.9,0.1-1.5
		c0-0.7,0-1.2,0.1-1.5c0-0.1,0-0.2,0-0.3c0-0.2,0-0.3,0-0.4c0-0.1,0-0.2,0-0.3V6.2c0-0.1,0-0.1,0.1-0.1c0.2-0.2,0.3-0.3,0.4-0.3
		c0.2,0,0.4,0.1,0.5,0.3l0.1,0.2v0.1v0.1c0.1,1.5,0.1,3.6,0.1,6.4c0,2.8,0.1,4.8,0.1,6.1c0,0.2-0.1,0.3-0.2,0.4
		c-0.1,0.1-0.2,0.2-0.4,0.2c-0.2,0-0.3-0.1-0.4-0.2c-0.1-0.1-0.2-0.2-0.2-0.4c0-1.1-0.1-2.4-0.1-3.9c0,0.2-0.1,0.3-0.1,0.5
		c-0.3,1.1-0.7,2-1.2,2.6c-0.6,0.8-1.4,1.3-2.2,1.3c-1.1,0.1-1.9-0.6-2.4-2c-0.4-1-0.6-2.3-0.6-4.1c0-1.2,0-2.7,0.1-4.4l0.1-1.6
		c0.1-0.7,0.1-1.1,0.1-1.3c0-0.1,0.1-0.3,0.2-0.4s0.3-0.2,0.4-0.2c0.1,0,0.3,0.1,0.4,0.2C21.4,5.9,21.5,6,21.5,6.1z"/>
	<path id="XMLID_340_" class="st0" d="M31.9,5.5c-1,0-1.8,0-2.2,0c-0.1,0-0.3-0.1-0.4-0.2c-0.1-0.1-0.2-0.2-0.2-0.4
		c0-0.1,0.1-0.3,0.2-0.4c0.1-0.1,0.2-0.2,0.4-0.2c0.5,0,1.2,0,2.2,0c0-1.3,0-2.6-0.1-3.8c0-0.2,0.1-0.3,0.2-0.4
		c0.1-0.1,0.2-0.2,0.4-0.2c0.2,0,0.3,0.1,0.4,0.2S33,0.5,33,0.6C33,1.8,33,3.1,33,4.4c0.8,0,1.6,0,2.2,0c0.1,0,0.3,0.1,0.4,0.2
		s0.2,0.2,0.2,0.4s-0.1,0.3-0.2,0.4c-0.1,0.1-0.2,0.2-0.4,0.2H33c0,1.3,0,3.5,0,6.5c0,3,0,5.3,0,7c0,0.1-0.1,0.3-0.2,0.4
		s-0.2,0.2-0.4,0.2s-0.3-0.1-0.4-0.2C32.1,19.3,32,19.2,32,19c0-1.6,0-3.9,0-6.9C32,9,32,6.9,31.9,5.5z"/>
	<path id="XMLID_338_" class="st0" d="M38.7,11.4c0,2.7,0,5.2,0,7.5c0,0.1-0.1,0.3-0.2,0.4s-0.2,0.2-0.4,0.2c-0.1,0-0.3-0.1-0.4-0.2
		s-0.2-0.2-0.2-0.4c0-3.4,0-9.5,0.1-18.3c0-0.1,0.1-0.3,0.2-0.4S38.1,0,38.3,0c0.1,0,0.3,0.1,0.4,0.2s0.2,0.2,0.2,0.4
		c-0.1,4.6-0.1,7.2-0.1,7.8c0.6-0.9,1.3-1.6,2-2.1c0.9-0.6,1.8-0.7,2.6-0.4c0.9,0.3,1.7,1.1,2.2,2.4c0.4,0.9,0.6,2.7,0.7,5.4
		c0.1,1.8,0.1,3.6,0,5.5c0,0.1-0.1,0.3-0.2,0.4c-0.1,0.1-0.2,0.2-0.4,0.2c-0.2,0-0.3-0.1-0.4-0.2c-0.1-0.1-0.2-0.3-0.2-0.4
		c0.1-1.9,0.1-3.7,0-5.4c-0.1-2.5-0.3-4.1-0.6-4.9c-0.4-1-0.9-1.6-1.5-1.8c-0.5-0.2-1.1-0.1-1.7,0.3c-0.6,0.4-1.2,1-1.7,1.8
		C39.2,9.8,38.9,10.5,38.7,11.4C38.7,11.3,38.7,11.4,38.7,11.4z"/>
	<path id="XMLID_335_" class="st0" d="M56.6,18.8c1.2-5.4,2.1-9.3,2.7-11.5c0.6-2.4,1.1-4,1.2-4.8c0.1-0.6,0.3-1,0.4-1.5
		C60.9,0.9,61,0.7,61,0.6c0-0.1,0.1-0.1,0.1-0.2c0,0,0-0.1,0-0.1c0,0,0-0.1,0.1-0.1c0.1-0.1,0.1-0.1,0.2-0.2C61.7,0,61.9,0,62,0.2
		c0.1,0.1,0.2,0.2,0.2,0.4c0.1,0.1,0.1,0.3,0.2,0.5c0.1,0.3,0.2,0.8,0.3,1.3L63,3.3C63,3.7,63,3.9,63.1,4.1c0,0.2,0.1,0.3,0.1,0.3
		l0.8,3.5l0.8,3.8c0.2,0.9,0.4,2,0.7,3.4c0.3,1.3,0.6,2.6,0.9,3.7c0,0.1,0,0.3-0.1,0.4c-0.1,0.1-0.2,0.2-0.3,0.2
		c-0.1,0-0.3,0-0.4-0.1c-0.1-0.1-0.2-0.2-0.2-0.3c-0.4-1.6-0.9-3.4-1.3-5.4c0,0-0.1,0-0.1,0c-2.5,0-4.2,0-5,0.1L57.6,19
		c0,0.2-0.1,0.3-0.2,0.4c-0.1,0.1-0.3,0.1-0.4,0.1c-0.2,0-0.3-0.1-0.3-0.2C56.5,19.1,56.5,18.9,56.6,18.8z M59.1,12.6
		c0.8,0,2.3-0.1,4.6-0.1L62,4.6c0,0,0-0.1-0.1-0.3l-0.1-0.8l-0.2-0.9l0-0.1l-0.1,0.3c-0.2,0.7-0.6,2.3-1.2,4.8
		C59.9,9.1,59.5,10.7,59.1,12.6z"/>
	<path id="XMLID_333_" class="st0" d="M74.2,7.5c-0.4-0.5-1-0.8-1.7-0.9c-0.7-0.1-1.3,0-1.8,0.3c-0.6,0.3-1,0.7-1.2,1.2
		c-0.2,0.5-0.2,1,0,1.6c0.1,0.3,0.6,0.7,1.2,1.2c0.2,0.2,0.6,0.4,1.1,0.7l1.1,0.7c0.9,0.6,1.7,1.3,2.2,2c0.5,0.7,0.8,1.5,0.6,2.4
		c-0.1,1-0.5,1.7-1.3,2.1c-0.7,0.4-1.6,0.7-2.5,0.7c-0.9,0-1.7-0.2-2.6-0.6c-0.8-0.4-1.4-0.9-1.7-1.6c-0.1-0.1-0.1-0.3,0-0.4
		c0.1-0.1,0.1-0.3,0.3-0.3c0.1-0.1,0.3-0.1,0.4,0c0.1,0.1,0.3,0.1,0.3,0.3c0.2,0.4,0.6,0.8,1.3,1.1c0.6,0.3,1.3,0.4,2,0.4
		c0.7,0,1.4-0.2,1.8-0.5c0.5-0.3,0.8-0.7,0.8-1.3c0.1-0.6-0.1-1.2-0.5-1.7c-0.4-0.5-1-1.1-1.9-1.6c-0.2-0.1-0.6-0.4-1.1-0.7
		c-0.5-0.3-0.9-0.6-1.1-0.7c-0.8-0.6-1.4-1.1-1.6-1.7c-0.3-0.6-0.4-1.2-0.3-1.8c0.1-0.6,0.3-1,0.7-1.4c0.3-0.4,0.8-0.7,1.3-1
		s1-0.4,1.6-0.5c0.6-0.1,1.1,0,1.7,0.2c0.6,0.2,1.1,0.6,1.5,1c0.1,0.1,0.2,0.2,0.1,0.4c0,0.2-0.1,0.3-0.2,0.4
		c-0.1,0.1-0.2,0.1-0.4,0.1C74.5,7.7,74.3,7.6,74.2,7.5z"/>
	<path id="XMLID_330_" class="st0" d="M78.4,1.8c0.1,0.1,0.2,0.2,0.2,0.4c0,0.1-0.1,0.3-0.2,0.4S78.2,2.8,78,2.8
		c-0.1,0-0.3-0.1-0.4-0.2s-0.2-0.2-0.2-0.4c0-0.1,0.1-0.3,0.2-0.4c0.1-0.1,0.2-0.2,0.4-0.2C78.2,1.7,78.3,1.7,78.4,1.8z M78.6,6.1
		c0,0.9,0,2.3,0,4c0,1.7,0,3.3,0,4.7s0,2.8-0.1,4c0,0.1-0.1,0.3-0.2,0.4c-0.1,0.1-0.2,0.2-0.4,0.2c-0.2,0-0.3-0.1-0.4-0.2
		c-0.1-0.1-0.2-0.3-0.2-0.4c0.1-1.2,0.1-2.6,0.1-4c0-1.4,0-3,0-4.7c0-1.7,0-3.1,0-4c0-0.1,0.1-0.3,0.2-0.4c0.1-0.1,0.2-0.2,0.4-0.2
		c0.1,0,0.3,0.1,0.4,0.2C78.5,5.9,78.6,6,78.6,6.1z"/>
	<path id="XMLID_327_" class="st0" d="M88.4,9.5v3.3c0,0.1,0,0.1,0,0.2c0,0.2,0,0.5,0,0.7c0,2,0.1,3.7,0.1,5.2
		c0,0.1-0.1,0.3-0.2,0.4c-0.1,0.1-0.2,0.2-0.4,0.2c-0.1,0-0.3-0.1-0.4-0.2c-0.1-0.1-0.2-0.2-0.2-0.4l-0.1-1.5
		c-0.8,1.3-1.9,1.9-3.3,1.9c-1.2,0-2.2-0.5-3-1.6c-0.9-1-1.3-2.4-1.3-4c0-3.3,0.8-5.7,2.4-7.2c0.6-0.6,1.3-0.9,2.1-1.1
		c0.7-0.1,1.4,0,2,0.3c0.6,0.3,1,0.7,1.4,1.2c0.4,0.5,0.6,1.1,0.7,1.8c0,0.1,0,0.1,0,0.2v0.2v0.1V9.5L88.4,9.5z M87.2,9.5L87.2,9.5
		V9.3V9.3v0c0-0.6-0.2-1.1-0.4-1.5c-0.3-0.4-0.6-0.7-1-0.9c-0.4-0.2-0.8-0.3-1.4-0.2c-0.5,0.1-1.1,0.4-1.5,0.8
		c-1.4,1.3-2.1,3.4-2.1,6.4c0,1.4,0.4,2.5,1,3.3c0.7,0.8,1.4,1.2,2.2,1.2c0.8,0,1.4-0.3,2.1-1.1s1-1.9,1.1-3.5V9.5z"/>
</g>
</svg>
