<?xml version="1.0" encoding="utf-8"?>
<!-- Generator: Adobe Illustrator 19.0.0, SVG Export Plug-In . SVG Version: 6.00 Build 0)  -->
<svg version="1.1" id="Layer_1" xmlns="http://www.w3.org/2000/svg" xmlns:xlink="http://www.w3.org/1999/xlink" x="0px" y="0px"
	 viewBox="0 0 219.1 21.2" style="enable-background:new 0 0 219.1 21.2;" xml:space="preserve">
<style type="text/css">
	.st0{fill:#FFFFFF;}
</style>
<g id="XMLID_469_">
	<path id="XMLID_471_" class="st0" d="M0.6,20.2L0.6,20.2c-0.2,0-0.3-0.1-0.4-0.2C0.1,19.9,0,19.8,0,19.6V0.7c0-0.2,0.1-0.3,0.2-0.4
		c0.1-0.1,0.2-0.2,0.4-0.2c0.2,0,0.3,0.1,0.4,0.2c0.1,0.1,0.2,0.2,0.2,0.4v18.4c0.6,0,1.7,0,3.3,0s2.6,0,3.3,0
		c0.2,0,0.3,0.1,0.4,0.2c0.1,0.1,0.2,0.3,0.2,0.4c0,0.2-0.1,0.3-0.2,0.4c-0.1,0.1-0.3,0.2-0.4,0.2c-0.8,0-1.9,0-3.4,0s-2.7,0-3.4,0
		C0.7,20.2,0.7,20.2,0.6,20.2z"/>
	<path id="XMLID_474_" class="st0" d="M18.2,9.9v3.4c0,0.1,0,0.1,0,0.2c0,0.2,0,0.5,0,0.7c0,2,0.1,3.8,0.1,5.3
		c0,0.2-0.1,0.3-0.2,0.4c-0.1,0.1-0.2,0.2-0.4,0.2c-0.2,0-0.3-0.1-0.4-0.2c-0.1-0.1-0.2-0.2-0.2-0.4l-0.1-1.5c-0.8,1.3-1.9,2-3.3,2
		c-1.2,0-2.2-0.6-3.1-1.6c-0.9-1.1-1.3-2.4-1.3-4.1c0-3.4,0.8-5.9,2.5-7.4c0.6-0.6,1.4-1,2.1-1.1c0.8-0.1,1.5,0,2.1,0.3
		c0.6,0.3,1,0.7,1.4,1.2s0.6,1.2,0.7,1.9c0,0.1,0,0.1,0,0.2v0.2v0.1V9.9L18.2,9.9z M17.1,9.9L17.1,9.9V9.7V9.7v0
		c0-0.6-0.2-1.1-0.4-1.6c-0.3-0.4-0.6-0.7-1-0.9c-0.4-0.2-0.9-0.3-1.4-0.2c-0.6,0.1-1.1,0.4-1.6,0.8c-1.4,1.3-2.2,3.5-2.1,6.5
		c0,1.4,0.4,2.5,1.1,3.3c0.7,0.8,1.4,1.2,2.3,1.3c0.8,0,1.5-0.4,2.1-1.1c0.6-0.8,1-2,1.1-3.6V9.9z"/>
	<path id="XMLID_478_" class="st0" d="M22.6,5.8c-1,0-1.8,0-2.3,0c-0.2,0-0.3-0.1-0.4-0.2c-0.1-0.1-0.2-0.2-0.2-0.4
		c0-0.2,0.1-0.3,0.2-0.4c0.1-0.1,0.2-0.2,0.4-0.2c0.5,0,1.2,0,2.3,0c0-1.4,0-2.7-0.1-3.9c0-0.2,0.1-0.3,0.2-0.4
		c0.1-0.1,0.2-0.2,0.4-0.2s0.3,0.1,0.4,0.2c0.1,0.1,0.2,0.2,0.2,0.4c0,1.2,0.1,2.5,0.1,3.9c0.9,0,1.6,0,2.2,0c0.2,0,0.3,0.1,0.4,0.2
		c0.1,0.1,0.2,0.3,0.2,0.4c0,0.2-0.1,0.3-0.2,0.4c-0.1,0.1-0.3,0.2-0.4,0.2h-2.2c0,1.3,0,3.5,0,6.7c0,3.1,0,5.5,0,7.2
		c0,0.2-0.1,0.3-0.2,0.4c-0.1,0.1-0.2,0.2-0.4,0.2c-0.2,0-0.3-0.1-0.4-0.2c-0.1-0.1-0.2-0.2-0.2-0.4c0-1.7,0-4,0-7.1
		C22.6,9.4,22.6,7.2,22.6,5.8z"/>
	<path id="XMLID_480_" class="st0" d="M29.2,2c0.1,0.1,0.2,0.2,0.2,0.4c0,0.2-0.1,0.3-0.2,0.4C29.1,2.9,29,3,28.8,3
		s-0.3-0.1-0.4-0.2c-0.1-0.1-0.2-0.2-0.2-0.4c0-0.2,0.1-0.3,0.2-0.4c0.1-0.1,0.2-0.2,0.4-0.2S29.1,1.9,29.2,2z M29.4,6.5
		c0,1,0,2.4,0,4.1c0,1.8,0,3.4,0,4.9c0,1.5,0,2.8-0.1,4.1c0,0.2-0.1,0.3-0.2,0.4c-0.1,0.1-0.3,0.2-0.4,0.2c-0.2,0-0.3-0.1-0.4-0.2
		c-0.1-0.1-0.2-0.3-0.2-0.4c0.1-1.3,0.1-2.6,0.1-4.1c0-1.5,0-3.1,0-4.9c0-1.8,0-3.2,0-4.1c0-0.2,0.1-0.3,0.2-0.4
		c0.1-0.1,0.2-0.2,0.4-0.2s0.3,0.1,0.4,0.2C29.3,6.2,29.4,6.3,29.4,6.5z"/>
	<path id="XMLID_483_" class="st0" d="M32.5,10v9.6c0,0.2-0.1,0.3-0.2,0.4c-0.1,0.1-0.2,0.2-0.4,0.2s-0.3-0.1-0.4-0.2
		c-0.1-0.1-0.2-0.2-0.2-0.4V6.5c0-0.2,0.1-0.3,0.2-0.4C31.7,6,31.8,5.9,32,5.9s0.3,0.1,0.4,0.2c0.1,0.1,0.2,0.2,0.2,0.4v1.3
		c0.6-0.7,1.3-1.3,2.1-1.6C35.5,5.9,36.2,5.8,37,6c0.8,0.3,1.5,0.8,2,1.7c0.6,1.1,0.9,3,1,5.8c0,0.5,0,1.6,0,3.3c0,1.7,0,2.6,0,2.7
		c0,0.2-0.1,0.3-0.2,0.4c-0.1,0.1-0.2,0.2-0.4,0.2c-0.2,0-0.3-0.1-0.4-0.2c-0.1-0.1-0.2-0.2-0.2-0.4c0-0.1,0-1,0-2.7
		c0-1.7,0-2.8,0-3.2c-0.1-2.6-0.4-4.4-0.9-5.3c-0.3-0.6-0.8-1.1-1.3-1.2c-0.5-0.1-1-0.1-1.5,0.1S34,7.9,33.6,8.4
		C33.1,8.9,32.8,9.4,32.5,10C32.6,10,32.5,10,32.5,10z"/>
	<path id="XMLID_485_" class="st0" d="M50.4,19.4c1.3-5.6,2.2-9.5,2.8-11.8c0.7-2.5,1.1-4.1,1.3-4.9c0.1-0.6,0.3-1.1,0.4-1.5
		C54.9,1.1,55,0.9,55,0.7c0-0.1,0.1-0.1,0.1-0.2c0,0,0-0.1,0-0.1c0,0,0-0.1,0.1-0.1c0.1-0.1,0.1-0.1,0.2-0.2c0.2-0.1,0.4,0,0.6,0.1
		c0.1,0.1,0.2,0.2,0.3,0.5c0.1,0.1,0.1,0.3,0.2,0.5c0.1,0.3,0.2,0.8,0.3,1.4L57,3.6c0.1,0.3,0.1,0.6,0.1,0.8c0,0.2,0.1,0.3,0.1,0.3
		l0.8,3.6l0.9,3.9c0.2,0.9,0.4,2.1,0.8,3.5c0.3,1.4,0.6,2.6,0.9,3.8c0,0.2,0,0.3-0.1,0.4c-0.1,0.1-0.2,0.2-0.3,0.3
		c-0.2,0-0.3,0-0.4-0.1c-0.1-0.1-0.2-0.2-0.3-0.3c-0.4-1.6-0.9-3.5-1.4-5.5c0,0-0.1,0-0.1,0c-2.6,0-4.3,0-5.2,0.1l-1.3,5.4
		c0,0.2-0.1,0.3-0.2,0.4c-0.1,0.1-0.3,0.1-0.4,0.1c-0.2,0-0.3-0.1-0.4-0.2C50.4,19.7,50.4,19.6,50.4,19.4z M53,13.1
		c0.8,0,2.4-0.1,4.8-0.1L56,4.9c0,0,0-0.1-0.1-0.3l-0.1-0.8l-0.2-0.9l0-0.1l-0.1,0.3c-0.2,0.7-0.6,2.4-1.3,4.9
		C53.9,9.5,53.5,11.2,53,13.1z"/>
	<path id="XMLID_488_" class="st0" d="M69.8,9.9c0.1,0.8,0.1,1.8,0.1,3.1c0,0.6,0,1.6,0,2.9c0,1.3,0,2.1,0,2.5
		c0,0.2-0.1,0.3-0.2,0.4c-0.1,0.1-0.2,0.2-0.4,0.2c-0.2,0-0.3-0.1-0.4-0.2c-0.1-0.1-0.2-0.2-0.2-0.4c0-0.4,0-1.3,0-2.6
		c0-1.3,0-2.3,0-2.9c0-1.2,0-2.2-0.1-3c-0.1-0.9-0.2-1.5-0.3-1.9c-0.3-0.6-0.7-1-1.1-1.2c-0.4-0.1-0.8-0.1-1.3,0.1
		c-0.5,0.2-1,0.6-1.4,1.1c-0.4,0.5-0.7,1-0.9,1.5c0,0,0,0,0,0.1v9.9c0,0.2-0.1,0.3-0.2,0.4c-0.1,0.1-0.2,0.2-0.4,0.2
		s-0.3-0.1-0.4-0.2c-0.1-0.1-0.2-0.2-0.2-0.4V6.5c0-0.2,0.1-0.3,0.2-0.4c0.1-0.1,0.2-0.2,0.4-0.2s0.3,0.1,0.4,0.2
		c0.1,0.1,0.2,0.2,0.2,0.4v1c0.6-0.6,1.2-1.1,1.9-1.4c0.8-0.4,1.5-0.4,2.2-0.2c0.8,0.2,1.4,0.8,1.8,1.8c0.1,0.1,0.1,0.3,0.2,0.5
		c0.6-0.9,1.4-1.6,2.2-2c0.8-0.4,1.5-0.4,2.1-0.3c0.8,0.2,1.4,0.8,1.8,1.7c0.2,0.5,0.4,1.3,0.5,2.4c0.1,0.9,0.2,2,0.2,3.4
		c0.1,2.3,0.1,4.4,0,6.2c0,0.2-0.1,0.3-0.2,0.4c-0.1,0.1-0.3,0.2-0.4,0.2c-0.2,0-0.3-0.1-0.4-0.2c-0.1-0.1-0.2-0.3-0.2-0.4
		c0.1-1.8,0.1-3.9,0-6.1c0-1.4-0.1-2.4-0.2-3.3c-0.1-1-0.3-1.7-0.4-2c-0.3-0.6-0.7-1-1.1-1.1c-0.4-0.1-0.8-0.1-1.3,0.2
		c-0.5,0.2-1,0.6-1.4,1.1c-0.4,0.5-0.8,1-0.9,1.5C69.8,9.9,69.8,9.9,69.8,9.9z"/>
	<path id="XMLID_490_" class="st0" d="M86.1,12.3c-1.2,0-3.4-0.1-6.8-0.1c-0.1,2.8,0.4,4.7,1.4,5.8c1,1.1,2.2,1.4,3.5,0.9
		c0.6-0.2,1-0.5,1.4-0.9c0.4-0.4,0.6-0.9,0.7-1.3c0-0.2,0.1-0.3,0.3-0.4c0.1-0.1,0.3-0.1,0.4-0.1c0.2,0,0.3,0.1,0.4,0.2
		c0.1,0.1,0.1,0.3,0.1,0.4c-0.2,0.7-0.5,1.3-1,1.9c-0.5,0.6-1.1,1-1.8,1.2c-0.7,0.3-1.5,0.4-2.4,0.2c-0.9-0.2-1.6-0.6-2.3-1.4
		c-1.3-1.4-1.9-3.7-1.7-6.9c0.1-1.6,0.5-2.9,1.3-4c0.8-1.1,1.7-1.8,2.8-2c1.2-0.2,2.2,0.2,3,1.2c0.8,1,1.3,2.5,1.5,4.5
		c0,0.1,0,0.2-0.1,0.3C86.6,12.2,86.4,12.4,86.1,12.3z M79.4,11.1c3,0,5.1,0,6.1,0c-0.2-1.5-0.6-2.6-1.2-3.3
		c-0.5-0.6-1.2-0.9-1.9-0.8c-0.7,0.1-1.3,0.5-1.9,1.3C80,9.1,79.6,10,79.4,11.1z"/>
	<path id="XMLID_493_" class="st0" d="M90.3,6.5c0,1.5,0,3.4,0,5.9c1.2-3.1,3-5.3,5.3-6.5c0.1-0.1,0.3-0.1,0.4,0
		c0.2,0.1,0.3,0.2,0.3,0.3c0.1,0.1,0.1,0.3,0,0.4c-0.1,0.2-0.2,0.3-0.3,0.3c-1.4,0.7-2.7,1.9-3.6,3.5s-1.6,3.3-2,5.2
		c-0.1,0.5-0.1,1.1-0.1,1.9c0,1,0,1.7-0.1,2.1c0,0,0,0.1,0,0.1c0,0,0,0.1,0,0.1c0,0.1-0.1,0.2-0.2,0.3c-0.1,0.1-0.2,0.1-0.4,0.1
		c-0.1,0-0.2,0-0.3-0.1c-0.1-0.1-0.1-0.1-0.2-0.2c0,0,0-0.1-0.1-0.1c0-0.1,0-0.2,0-0.3c0-0.2,0-0.5,0-0.7c0-0.4,0-1,0-1.8
		c0-0.8,0-1.4,0-1.7c-0.1-4.5-0.1-7.4-0.1-8.6c0-0.2,0.1-0.3,0.2-0.4c0.1-0.1,0.3-0.2,0.4-0.2c0.2,0,0.3,0.1,0.4,0.2
		C90.3,6.2,90.3,6.3,90.3,6.5z"/>
	<path id="XMLID_495_" class="st0" d="M99.2,2c0.1,0.1,0.2,0.2,0.2,0.4c0,0.2-0.1,0.3-0.2,0.4C99.1,2.9,99,3,98.8,3
		c-0.2,0-0.3-0.1-0.4-0.2c-0.1-0.1-0.2-0.2-0.2-0.4c0-0.2,0.1-0.3,0.2-0.4c0.1-0.1,0.2-0.2,0.4-0.2C99,1.9,99.1,1.9,99.2,2z
		 M99.4,6.5c0,1,0,2.4,0,4.1c0,1.8,0,3.4,0,4.9c0,1.5,0,2.8-0.1,4.1c0,0.2-0.1,0.3-0.2,0.4c-0.1,0.1-0.3,0.2-0.4,0.2
		c-0.2,0-0.3-0.1-0.4-0.2c-0.1-0.1-0.2-0.3-0.2-0.4c0.1-1.3,0.1-2.6,0.1-4.1c0-1.5,0-3.1,0-4.9c0-1.8,0-3.2,0-4.1
		c0-0.2,0.1-0.3,0.2-0.4c0.1-0.1,0.2-0.2,0.4-0.2c0.2,0,0.3,0.1,0.4,0.2C99.3,6.2,99.4,6.3,99.4,6.5z"/>
	<path id="XMLID_498_" class="st0" d="M107.6,9.2c-0.5-0.9-1-1.6-1.5-1.9c-0.4-0.2-0.9-0.2-1.4-0.1c-0.5,0.2-1,0.6-1.5,1.2
		c-0.5,0.6-0.8,1.3-1.1,2.1c-0.3,0.8-0.4,1.7-0.4,2.7c0,1,0.1,2,0.3,2.8c0.3,1.2,0.8,2,1.5,2.4c0.7,0.5,1.4,0.6,2.2,0.4
		c0.8-0.2,1.4-0.6,2-1.4c0.6-0.8,0.8-1.7,0.8-2.9c0-0.2,0.1-0.3,0.2-0.4c0.1-0.1,0.2-0.2,0.4-0.2c0.2,0,0.3,0.1,0.4,0.2
		c0.1,0.1,0.2,0.2,0.2,0.4c0,1.4-0.4,2.6-1.1,3.5c-0.7,1-1.6,1.6-2.6,1.8c-1.1,0.3-2.1,0.1-3.1-0.6c-0.9-0.6-1.6-1.7-2-3.1
		c-0.3-0.9-0.4-1.9-0.4-3.1c0-1.1,0.2-2.2,0.5-3.1c0.3-1,0.7-1.8,1.3-2.5c0.6-0.7,1.2-1.3,1.9-1.5c0.8-0.3,1.6-0.3,2.4,0.1
		c0.8,0.4,1.4,1.2,2,2.3c0.1,0.2,0.1,0.3,0,0.4c-0.1,0.1-0.2,0.3-0.3,0.3c-0.1,0.1-0.3,0.1-0.4,0C107.7,9.4,107.6,9.3,107.6,9.2z"/>
	<path id="XMLID_500_" class="st0" d="M119.6,9.9v3.4c0,0.1,0,0.1,0,0.2c0,0.2,0,0.5,0,0.7c0,2,0.1,3.8,0.1,5.3
		c0,0.2-0.1,0.3-0.2,0.4c-0.1,0.1-0.2,0.2-0.4,0.2c-0.2,0-0.3-0.1-0.4-0.2c-0.1-0.1-0.2-0.2-0.2-0.4l-0.1-1.5c-0.8,1.3-1.9,2-3.3,2
		c-1.2,0-2.2-0.6-3.1-1.6c-0.9-1.1-1.3-2.4-1.3-4.1c0-3.4,0.8-5.9,2.5-7.4c0.6-0.6,1.4-1,2.1-1.1c0.8-0.1,1.5,0,2.1,0.3
		c0.6,0.3,1,0.7,1.4,1.2s0.6,1.2,0.7,1.9c0,0.1,0,0.1,0,0.2v0.2v0.1V9.9L119.6,9.9z M118.4,9.9L118.4,9.9V9.7V9.7v0
		c0-0.6-0.2-1.1-0.4-1.6c-0.3-0.4-0.6-0.7-1-0.9c-0.4-0.2-0.9-0.3-1.4-0.2c-0.6,0.1-1.1,0.4-1.6,0.8c-1.4,1.3-2.2,3.5-2.1,6.5
		c0,1.4,0.4,2.5,1.1,3.3c0.7,0.8,1.4,1.2,2.3,1.3c0.8,0,1.5-0.4,2.1-1.1c0.6-0.8,1-2,1.1-3.6V9.9z"/>
	<path id="XMLID_503_" class="st0" d="M132.8,1.4l-3.2,5.7l-3.8,6.7l-3.3,5.6c-0.1,0.1-0.2,0.2-0.3,0.3c-0.2,0-0.3,0-0.4-0.1
		c-0.1-0.1-0.2-0.2-0.3-0.3c0-0.2,0-0.3,0.1-0.4l3.3-5.6l3.8-6.6l3.2-5.7c0.1-0.1,0.2-0.2,0.3-0.3s0.3,0,0.4,0.1
		c0.1,0.1,0.2,0.2,0.3,0.3C132.9,1.1,132.9,1.3,132.8,1.4z"/>
	<path id="XMLID_505_" class="st0" d="M141.3,4.7c-0.1-0.7-0.3-1.4-0.7-2c-0.3-0.6-0.7-1.1-1.2-1.3c-0.4-0.2-0.8-0.3-1.1-0.1
		c-0.5,0.2-1,0.7-1.4,1.5c-0.8,1.5-1.4,3.4-1.6,5.6c-0.2,2.2-0.2,4.1,0.1,5.9c0.3,1.8,0.8,3,1.5,3.8c0.8,0.8,1.5,1.1,2.4,1
		c0.8-0.1,1.6-0.7,2.3-1.7c0.7-1,1.1-2.3,1.2-4c0-0.2,0.1-0.3,0.2-0.4c0.1-0.1,0.3-0.1,0.4-0.1c0.2,0,0.3,0.1,0.4,0.2
		c0.1,0.1,0.1,0.2,0.1,0.4c-0.1,1.9-0.6,3.5-1.5,4.7c-0.8,1.2-1.8,1.9-3,2.1c-1.2,0.2-2.3-0.2-3.3-1.3c-1-1-1.6-2.6-1.9-4.5
		c-0.2-1.3-0.3-2.7-0.3-4c0-1.4,0.2-2.8,0.5-4.2c0.3-1.5,0.8-2.7,1.4-3.8c0.6-1.1,1.3-1.8,2-2.1c0.7-0.3,1.5-0.3,2.2,0.2
		c0.6,0.4,1.1,0.9,1.5,1.7c0.4,0.8,0.7,1.6,0.9,2.5c0,0.2,0,0.3-0.1,0.4c-0.1,0.1-0.2,0.2-0.4,0.2c-0.2,0-0.3,0-0.4-0.1
		C141.4,5,141.4,4.8,141.3,4.7z"/>
	<path id="XMLID_507_" class="st0" d="M153.9,9.9v3.4c0,0.1,0,0.1,0,0.2c0,0.2,0,0.5,0,0.7c0,2,0.1,3.8,0.1,5.3
		c0,0.2-0.1,0.3-0.2,0.4c-0.1,0.1-0.2,0.2-0.4,0.2c-0.2,0-0.3-0.1-0.4-0.2c-0.1-0.1-0.2-0.2-0.2-0.4l-0.1-1.5c-0.8,1.3-1.9,2-3.3,2
		c-1.2,0-2.2-0.6-3.1-1.6c-0.9-1.1-1.3-2.4-1.3-4.1c0-3.4,0.8-5.9,2.5-7.4c0.6-0.6,1.4-1,2.1-1.1c0.8-0.1,1.5,0,2.1,0.3
		c0.6,0.3,1,0.7,1.4,1.2c0.4,0.5,0.6,1.2,0.7,1.9c0,0.1,0,0.1,0,0.2v0.2v0.1V9.9L153.9,9.9z M152.8,9.9L152.8,9.9V9.7V9.7v0
		c0-0.6-0.2-1.1-0.4-1.6c-0.3-0.4-0.6-0.7-1-0.9c-0.4-0.2-0.9-0.3-1.4-0.2c-0.6,0.1-1.1,0.4-1.6,0.8c-1.4,1.3-2.2,3.5-2.1,6.5
		c0,1.4,0.4,2.5,1.1,3.3c0.7,0.8,1.4,1.2,2.3,1.3c0.8,0,1.5-0.4,2.1-1.1c0.6-0.8,1-2,1.1-3.6V9.9z"/>
	<path id="XMLID_510_" class="st0" d="M157.2,6.5c0,1.5,0,3.4,0,5.9c1.2-3.1,3-5.3,5.3-6.5c0.1-0.1,0.3-0.1,0.4,0
		c0.2,0.1,0.3,0.2,0.3,0.3c0.1,0.1,0.1,0.3,0,0.4c-0.1,0.2-0.2,0.3-0.3,0.3c-1.4,0.7-2.7,1.9-3.6,3.5s-1.6,3.3-2,5.2
		c-0.1,0.5-0.1,1.1-0.1,1.9c0,1,0,1.7-0.1,2.1c0,0,0,0.1,0,0.1c0,0,0,0.1,0,0.1c0,0.1-0.1,0.2-0.2,0.3c-0.1,0.1-0.2,0.1-0.4,0.1
		c-0.1,0-0.2,0-0.3-0.1c-0.1-0.1-0.1-0.1-0.2-0.2c0,0,0-0.1-0.1-0.1c0-0.1,0-0.2,0-0.3c0-0.2,0-0.5,0-0.7c0-0.4,0-1,0-1.8
		c0-0.8,0-1.4,0-1.7c-0.1-4.5-0.1-7.4-0.1-8.6c0-0.2,0.1-0.3,0.2-0.4c0.1-0.1,0.3-0.2,0.4-0.2c0.2,0,0.3,0.1,0.4,0.2
		C157.1,6.2,157.2,6.3,157.2,6.5z"/>
	<path id="XMLID_512_" class="st0" d="M166,2c0.1,0.1,0.2,0.2,0.2,0.4c0,0.2-0.1,0.3-0.2,0.4c-0.1,0.1-0.2,0.2-0.4,0.2
		c-0.2,0-0.3-0.1-0.4-0.2c-0.1-0.1-0.2-0.2-0.2-0.4c0-0.2,0.1-0.3,0.2-0.4c0.1-0.1,0.2-0.2,0.4-0.2C165.8,1.9,165.9,1.9,166,2z
		 M166.2,6.5c0,1,0,2.4,0,4.1c0,1.8,0,3.4,0,4.9c0,1.5,0,2.8-0.1,4.1c0,0.2-0.1,0.3-0.2,0.4c-0.1,0.1-0.3,0.2-0.4,0.2
		c-0.2,0-0.3-0.1-0.4-0.2c-0.1-0.1-0.2-0.3-0.2-0.4c0.1-1.3,0.1-2.6,0.1-4.1c0-1.5,0-3.1,0-4.9c0-1.8,0-3.2,0-4.1
		c0-0.2,0.1-0.3,0.2-0.4c0.1-0.1,0.2-0.2,0.4-0.2c0.2,0,0.3,0.1,0.4,0.2C166.2,6.2,166.2,6.3,166.2,6.5z"/>
	<path id="XMLID_515_" class="st0" d="M169.2,19v0.5c0,0.2-0.1,0.3-0.2,0.4c-0.1,0.1-0.2,0.2-0.4,0.2c-0.2,0-0.3-0.1-0.4-0.2
		c-0.1-0.1-0.2-0.2-0.2-0.4V0.7c0-0.2,0.1-0.3,0.2-0.4c0.1-0.1,0.2-0.2,0.4-0.2c0.2,0,0.3,0.1,0.4,0.2c0.1,0.1,0.2,0.2,0.2,0.4v7.5
		c0.4-0.8,1-1.4,1.6-1.7c0.6-0.4,1.3-0.5,2-0.5c1.2,0.1,2.2,0.8,3,2.1c0.8,1.3,1.1,3,1.1,5.1c0,1.1-0.2,2.2-0.6,3.3
		c-0.4,1.1-0.9,2-1.6,2.6c-0.9,0.7-1.9,1.1-2.9,1C170.7,20.1,169.9,19.7,169.2,19z M169.2,16.8c0.2,0.7,0.5,1.3,1,1.7
		c0.5,0.4,1.1,0.6,1.8,0.6c0.7,0,1.3-0.3,1.9-0.7c0.6-0.5,1-1.2,1.3-2.2c0.3-1,0.5-2,0.5-2.9c0.1-1.9-0.2-3.3-0.9-4.4
		c-0.6-1-1.4-1.6-2.2-1.6c-0.8-0.1-1.5,0.3-2.2,1.3c-0.7,0.9-1.1,2.3-1.2,4.3c0,0.1,0,0.1,0,0.1v3.8
		C169.2,16.7,169.2,16.7,169.2,16.8z"/>
	<path id="XMLID_518_" class="st0" d="M179.7,19v0.5c0,0.2-0.1,0.3-0.2,0.4c-0.1,0.1-0.2,0.2-0.4,0.2c-0.2,0-0.3-0.1-0.4-0.2
		c-0.1-0.1-0.2-0.2-0.2-0.4V0.7c0-0.2,0.1-0.3,0.2-0.4c0.1-0.1,0.2-0.2,0.4-0.2c0.2,0,0.3,0.1,0.4,0.2c0.1,0.1,0.2,0.2,0.2,0.4v7.5
		c0.4-0.8,1-1.4,1.6-1.7c0.6-0.4,1.3-0.5,2-0.5c1.2,0.1,2.2,0.8,3,2.1c0.8,1.3,1.1,3,1.1,5.1c0,1.1-0.2,2.2-0.6,3.3
		c-0.4,1.1-0.9,2-1.6,2.6c-0.9,0.7-1.9,1.1-2.9,1C181.3,20.1,180.4,19.7,179.7,19z M179.8,16.8c0.2,0.7,0.5,1.3,1,1.7
		c0.5,0.4,1.1,0.6,1.8,0.6c0.7,0,1.3-0.3,1.9-0.7c0.6-0.5,1-1.2,1.3-2.2c0.3-1,0.5-2,0.5-2.9c0.1-1.9-0.2-3.3-0.9-4.4
		c-0.6-1-1.4-1.6-2.2-1.6c-0.8-0.1-1.5,0.3-2.2,1.3c-0.7,0.9-1.1,2.3-1.2,4.3c0,0.1,0,0.1,0,0.1v3.8
		C179.8,16.7,179.8,16.7,179.8,16.8z"/>
	<path id="XMLID_521_" class="st0" d="M197,12.3c-1.2,0-3.4-0.1-6.8-0.1c-0.1,2.8,0.4,4.7,1.4,5.8c1,1.1,2.2,1.4,3.5,0.9
		c0.6-0.2,1-0.5,1.4-0.9c0.4-0.4,0.6-0.9,0.7-1.3c0-0.2,0.1-0.3,0.3-0.4c0.1-0.1,0.3-0.1,0.4-0.1c0.2,0,0.3,0.1,0.4,0.2
		c0.1,0.1,0.1,0.3,0.1,0.4c-0.2,0.7-0.5,1.3-1,1.9c-0.5,0.6-1.1,1-1.8,1.2c-0.7,0.3-1.5,0.4-2.4,0.2c-0.9-0.2-1.6-0.6-2.3-1.4
		c-1.3-1.4-1.9-3.7-1.7-6.9c0.1-1.6,0.5-2.9,1.3-4c0.8-1.1,1.7-1.8,2.8-2c1.2-0.2,2.2,0.2,3,1.2c0.8,1,1.3,2.5,1.5,4.5
		c0,0.1,0,0.2-0.1,0.3C197.6,12.2,197.4,12.4,197,12.3z M190.4,11.1c3,0,5.1,0,6.1,0c-0.2-1.5-0.6-2.6-1.2-3.3
		c-0.5-0.6-1.2-0.9-1.9-0.8c-0.7,0.1-1.3,0.5-1.9,1.3C190.9,9.1,190.6,10,190.4,11.1z"/>
	<path id="XMLID_524_" class="st0" d="M208.1,9.9v3.4c0,0.1,0,0.1,0,0.2c0,0.2,0,0.5,0,0.7c0,2,0.1,3.8,0.1,5.3
		c0,0.2-0.1,0.3-0.2,0.4c-0.1,0.1-0.2,0.2-0.4,0.2c-0.2,0-0.3-0.1-0.4-0.2c-0.1-0.1-0.2-0.2-0.2-0.4l-0.1-1.5c-0.8,1.3-1.9,2-3.3,2
		c-1.2,0-2.2-0.6-3.1-1.6c-0.9-1.1-1.3-2.4-1.3-4.1c0-3.4,0.8-5.9,2.5-7.4c0.6-0.6,1.4-1,2.1-1.1c0.8-0.1,1.5,0,2.1,0.3
		c0.6,0.3,1,0.7,1.4,1.2c0.4,0.5,0.6,1.2,0.7,1.9c0,0.1,0,0.1,0,0.2v0.2v0.1V9.9L208.1,9.9z M207,9.9L207,9.9V9.7V9.7v0
		c0-0.6-0.2-1.1-0.4-1.6c-0.3-0.4-0.6-0.7-1-0.9c-0.4-0.2-0.9-0.3-1.4-0.2c-0.6,0.1-1.1,0.4-1.6,0.8c-1.4,1.3-2.2,3.5-2.1,6.5
		c0,1.4,0.4,2.5,1.1,3.3c0.7,0.8,1.4,1.2,2.3,1.3c0.8,0,1.5-0.4,2.1-1.1c0.6-0.8,1-2,1.1-3.6V9.9z"/>
	<path id="XMLID_527_" class="st0" d="M211.3,10v9.6c0,0.2-0.1,0.3-0.2,0.4c-0.1,0.1-0.2,0.2-0.4,0.2c-0.2,0-0.3-0.1-0.4-0.2
		c-0.1-0.1-0.2-0.2-0.2-0.4V6.5c0-0.2,0.1-0.3,0.2-0.4c0.1-0.1,0.2-0.2,0.4-0.2c0.2,0,0.3,0.1,0.4,0.2c0.1,0.1,0.2,0.2,0.2,0.4v1.3
		c0.6-0.7,1.3-1.3,2.1-1.6c0.8-0.3,1.6-0.4,2.3-0.2c0.8,0.3,1.5,0.8,2,1.7c0.6,1.1,0.9,3,1,5.8c0,0.5,0,1.6,0,3.3c0,1.7,0,2.6,0,2.7
		c0,0.2-0.1,0.3-0.2,0.4c-0.1,0.1-0.2,0.2-0.4,0.2c-0.2,0-0.3-0.1-0.4-0.2c-0.1-0.1-0.2-0.2-0.2-0.4c0-0.1,0-1,0-2.7
		c0-1.7,0-2.8,0-3.2c-0.1-2.6-0.4-4.4-0.9-5.3c-0.3-0.6-0.8-1.1-1.3-1.2c-0.5-0.1-1-0.1-1.5,0.1s-1.1,0.6-1.5,1.1
		C211.9,8.9,211.6,9.4,211.3,10C211.3,10,211.3,10,211.3,10z"/>
</g>
</svg>
