<?xml version="1.0" encoding="utf-8"?>
<!-- Generator: Adobe Illustrator 19.0.0, SVG Export Plug-In . SVG Version: 6.00 Build 0)  -->
<svg version="1.1" id="Layer_1" xmlns="http://www.w3.org/2000/svg" xmlns:xlink="http://www.w3.org/1999/xlink" x="0px" y="0px"
	 viewBox="0 0 612 643.8" style="enable-background:new 0 0 612 643.8;" xml:space="preserve">
<style type="text/css">
	.st0{fill:#FFFFFF;}
</style>
<g id="south_asia">
	<path id="XMLID_83_" class="st0" d="M188.1,643.8c0,0,8.5-3.3,14.7-6.3l2.9-6.3v-4l4.8-4l7-3.7h5.9l2.2-4.8v-11.4l7-7.4l3.3-4.4
		l1.5,4l5.2,0.4h3.7v-14l4-4.8l-2.6-6.6l0.7-12.5l7-13.6l4.4-16.2l-7.4-8.8l-0.4-43l11.8-10.3l4,4.8l11-14l9.6-1.5h6.3l4-4v-9.2
		l15.8-14l5.9-1.8l54.1-51.9h13.6l8.8-12.9c0,0,7.4-10.7,0-16.6c0,0,7.7-14,24.6-15.5l2.6-1.8v-6.3l-5.2-5.2l2.9-3.3l1.8,1.8l4,5.9
		l5.2,5.5v4.4l23.2-9.2l6.3-4.4l5.2,5.9l4-1.8l1.5-4.4l2.6-32.4l4.8,28l4.4-2.2v-8.5l9.2-4.8l5.5,4.8l2.6,19.5l4,11.4l7.4,8.1l7,8.5
		l10.7,4.4l11,4l4,6.3l3.7,6.6l2.6,4l-6.3-3.3l-0.7,4l-0.7,5.2l2.9,0.7l4.8,1.5v-1.8l3.3-0.4l9.6,23.9l2.9,5.9l-2.9,8.5l-2.9,12.1
		l-1.5,11.8l7.4,4l20.2,1.1l13.2-9.6l6.3-17.3l2.2-217.8v-47.5l-14.3,7.7l-0.7,8.5l-9.9-0.7l-14.7-12.1l-31.3,27.6l-48.9,16.9v-17.7
		l-18.4-7.7l-15.5,4.4c0,0-14.3,2.2-14.3,4.4c0,2.2-4.4,9.2-4.4,9.2l-2.9-10.3l-15.1-2.9l-0.7,6.6l-15.1-3.3l-12.1-1.8l-13.2,2.9
		l-5.2-3.3l-2.9-1.5l-10.7-0.7l-8.5-12.1l-14.3-7l-8.1-12.1h-9.6l-8.5-2.2l-9.6-5.9H297l-11-2.2h-5.2l-10.3-4l-7.7-4.8h-4.4
		l-1.1-5.5l-7.7-6.3h-11l-4.8-2.9L221.9,92l-0.4-9.2h3.3l4,3.7l3.3-7.4l4-6.3l-4.8-9.2L223.8,53l-0.4-6.6h5.5h9.6l-1.8-10.3l5.5-2.9
		l-1.5-7.7l-6.6-1.5l-7.4-4.8l-2.2-16.6L215,0l-7.4,4.8l-5.9,4l-4.4,9.2l-13.2-1.1l-6.6,5.2L166,19.9l-15.1-6.3l-13.6,1.5l-4.8,8.5
		l1.8,8.5l4.4,4l-2.9,7.7l2.9,2.2l-3.3,7.4l3.3,4.8l8.5,9.2l1.5,5.2l10.3,2.2l4.8,3.7l-4,4.4l-9.9,2.2l-5.5,7.4l1.1,3.7l-1.5,7.4
		l-0.7,4.8L130,121.8v5.9l-5.5,5.5l-5.9-0.4l-2.2,7.4v5.9l-7.7,7.7l-12.1,5.9l-7.4,9.2l-4.4,7.7l-3.3,4.8l-6.6,1.8l-7.4-0.4
		l-2.9,3.7l-7.4-2.2l-2.9-5.9l-6.6,1.1L45,184v6.6l-12.9,7.7l-1.5,7l1.5,4l2.9,2.6l8.5-0.4L42,223l-0.4,8.5l5.5,2.2l7,2.2L59,252
		l0.4,8.5l-1.5,5.9l-6.3,1.1l-7-2.6l-6.6,2.2h-9.6l-14-1.5l-5.9,5.2l-8.8,0.4v7.4l9.2,13.6l14.7,5.9l14-1.1l1.8,2.2l-0.7,7.4
		c0,0-2.2,0.4-5.9,0.4s-10.3,0-11.4,0c-1.5,0-7.4-0.7-7.7,0s1.1,7.7,1.1,7.7l28,30.9c0,0,3.7,10.3,19.9,2.2
		c16.2-8.5,16.6-9.6,16.6-9.6v-4.4l4.8-15.8l2.9-10.7l2.2,9.2v15.5v7.4l2.9,6.3c0,0,1.1,15.5,0.7,16.2c-0.4,0.7-3.7,12.5-3.7,12.5
		l4.4,7.7l-0.4,11.4l5.9,41.6l3.3,26.9c0,0,9.2,15.8,9.2,17.3c0,1.5,11.4,16.6,11.4,16.6s4.8,13.6,4.8,14.7c0,1.1,2.9,18.8,2.9,18.8
		l8.5,18c0,0,18.4,23.2,26.1,54.8S188.1,643.8,188.1,643.8z"/>
</g>
</svg>
