<?xml version="1.0" encoding="utf-8"?>
<!-- Generator: Adobe Illustrator 19.0.0, SVG Export Plug-In . SVG Version: 6.00 Build 0)  -->
<svg version="1.1" id="Layer_1" xmlns="http://www.w3.org/2000/svg" xmlns:xlink="http://www.w3.org/1999/xlink" x="0px" y="0px"
	 viewBox="0 0 612 792" style="enable-background:new 0 0 612 792;" xml:space="preserve">
<style type="text/css">
	.st0{fill:#FFFFFF;stroke:#FFFFFF;stroke-width:3.2609;stroke-miterlimit:10;}
</style>
<g id="south_america">
	<path id="XMLID_31_" class="st0" d="M82.6,61.5c0,0,15.7-7.2,20-18.6c4.8-8.1,10-11,10-11S115,15.3,136,13.4l4.8-5.2
		c0,0,15.3-11.4,19.5-7.2c1.4,2.4-4.8,6.7-4.8,6.7l-2.4,8.1l-0.5,12.4c0,0-5.7,2.9-1,6.2c4.8,3.3-1.9,3.3,0.5,5.2
		c2.4,1.9,3.3,6.2,8.6-1s0-18.1,0-18.1s7.2-4.8,7.6-8.1c0.5-3.3,13.8-3.3,13.8-3.3s10,4.3,11.4,8.1s16.2,5.7,16.2,5.7l7.6,2.9
		l7.2,0.5l3.3,1.4l11-2.4l8.1,3.8l3.3-1.9l35.8,20l2.4,2.4c0,0,9.1,16.2,11,18.1s9.1,1.4,16.7,10.5c0,0,44.3-4.3,59.1,22.9l5.2,9.1
		l1.4,7.2l1.4,6.7l6.2,6.7v3.8l-2.4,5.7l-7.2,8.6l-10,10l-2.9,3.8c0,0-4.3,9.5,5.7,5.7c0,0,1.4-4.3,10,1c8.6,5.2,14.3,8.1,14.3,8.1
		s8.1,1,11-1.4c0,0,3.8-5.7,7.2-4.8c0,0,8.6-20.5,17.6-6.7c0,0,14.3,4.8,16.7,8.6c2.9,3.8,1.4,12.4,1.4,12.4s-0.5,3.8,5.7,2.9
		c5.7-1,11.4-7.2,24.8-3.3c13.4,3.8,12.4-1,25.7,3.3h3.3c0,0-5.7,11.9,47.2,28.6c0,0,1.4-0.5,6.7,11.4c5.7,11.9-6.7,30.5-6.7,30.5
		s-20,31-22.4,35.8c-2.4,4.8-4.8,5.2-4.8,5.2s-14.8,6.2-11.9,29.1c2.9,22.9,2.9,27.7,2.9,27.7l-2.4,3.8v8.1v11l-2.4,5.7l-1.4,4.8
		l-3.3,7.6c0,0-10,42-39.1,31.9l-3.8,3.8l-7.6,3.8l-9.1,1.9l-15.7,11.4c0,0-16.7,3.8-8.1,23.8c3.8,10,3.8,10-1,16.7
		s-8.6,19.5-8.6,19.5l1,11.9l-4.8,7.2l-6.2,7.2l-2.9,2.9l-2.4,3.8l-3.8,4.8l-2.9,2.4l-2.9,9.1c0,0-13.8,25.7-50.1,4.8
		c0,0-6.2,2.4-0.5,8.6c5.7,5.7,8.1,3.8,4.8,7.6c0,0,41,32.9-12.9,41.5c0,0-29.6-4.3-15.7,16.7c0.5,14.3-10,12.4-10,12.4
		s-28.1-21-11.4,9.5l7.2,4.8c0,0,7.6,4.3,0,7.6c-7.6,3.3,1.9,13.8,1.9,13.8l-3.8,4.8l-4.3,4.8c0,0-15.3,13.8,5.2,23.8
		c20.5,10,1.9,30,1.9,30s-8.1,14.8-3.8,27.2c4.8,12.4-10.5,14.3-10.5,14.3s-7.2-6.2-16.7-2.4c0,0-3.3-12.4-15.7-15.7
		c0,0-1.4-7.2-6.7-9.1c-5.2-2.4-8.1-15.7-8.1-15.7s-5.2-20-11-24.8c-5.7-4.3-8.6-4.8-8.6-4.8l-4.8-0.5l-1.4-2.9v-3.3l1.9-2.9
		l7.2-0.5l1.4-3.8l-0.5-4.8l2.9-4.8l-0.5-4.8l-1.4-3.8l-5.7-8.1l-2.4-5.7l1-5.7l-2.9-2.4l-4.8-5.2l-7.2-10.5l-5.7-8.6l-3.3-8.6
		l0.5-6.2l1-2.9l-1.9-4.8l-1.4-4.8l-3.3-10.5l1-7.2l0.5-5.7l0.5-6.7l0.5-21.9l-1.4-14.8l-0.5-17.2c0,0-6.2-23.8-8.1-24.8l-1.9-7.2
		v-8.6l1.9-9.1l1-4.3l0.5-4.3l0.5-2.4l1-2.9c0,0,2.9-10-3.8-14.3l-1.9-7.2l1-11l5.2-8.6l0.5-6.7v-9.5l-1-1.9l-1.4-7.6l-2.4-9.1
		l-3.8-6.2l-3.3-4.8v-2.4l-3.8-5.2l-10-9.1c0,0-11-4.8-15.7-13.4c0,0-2.9-4.3-11.4-6.7c-9.1-2.4-29.1-26.7-29.1-26.7
		s-16.7-36.2-28.1-45.3c0,0,1.4-3.8-3.8-5.7c-4.8-2.4,0-14.8,0-14.8s-13.8-19.5-27.7-25.3c0,0,1.4-11-2.9-21l1.4-2.4l2.9-3.8
		l4.3-2.9v-4.8l3.8-4.3l3.3-3.3l-0.5-2.9l-3.8-2.9c0,0-11-1.9-5.7-19.1l6.7-10l3.8-7.2l8.1-9.1l5.7-7.2l7.2-11.4
		c0,0,19.5-28.6,2.9-47.2L83,65.8L82.6,61.5z"/>
	
		<image style="overflow:visible;enable-background:new    ;" width="6" height="4" id="XMLID_28_" xlink:href="32C5602CEAB86264.png"  transform="matrix(3.1918 0 0 3.1918 490.9774 341.9527)">
	</image>
</g>
</svg>
