<?xml version="1.0" encoding="utf-8"?>
<!-- Generator: Adobe Illustrator 19.0.0, SVG Export Plug-In . SVG Version: 6.00 Build 0)  -->
<svg version="1.1" id="Layer_1" xmlns="http://www.w3.org/2000/svg" xmlns:xlink="http://www.w3.org/1999/xlink" x="0px" y="0px"
	 viewBox="0 0 1085.6 1783.1" style="enable-background:new 0 0 1085.6 1783.1;" xml:space="preserve">
<style type="text/css">
	.st0{fill:#2B2B2B;enable-background:new    ;}
	.st1{fill:none;stroke:#68471B;stroke-width:20.7418;stroke-miterlimit:10;}
	.st2{fill:none;stroke:#C98727;stroke-width:20.9446;stroke-miterlimit:10;}
	.st3{fill:#FFFFFF;}
</style>
<g id="XMLID_32_">
	<g id="bg">
		<rect id="background" x="0" y="-5.6" class="st0" width="1085.6" height="1784.5"/>
		<g id="border_1_">
			<rect id="XMLID_99_" x="4.6" y="0" class="st1" width="1074" height="1769"/>
		</g>
		<g id="border">
			<rect id="XMLID_421_" x="0" y="-5.6" class="st2" width="1085.6" height="1784.5"/>
		</g>
	</g>
</g>
<g id="XMLID_391_">
	<path id="XMLID_392_" class="st3" d="M331.5,109c2.4,0,5.9,0.2,10.9,0.2c5,0,8.5,0.2,10.9,0.2c0.4,0,0.8,0.2,1,0.7
		c0.2,0.5,0.4,1,0.4,1.5c0,0.7-0.2,1-0.6,1.5c-0.4,0.2-0.8,0.5-1.2,0.5c-2.4-0.2-5.9-0.2-10.5-0.2c-4.6,0-7.7,0-9.7,0v28.7
		c2.2,0,5.1,0.2,9.3,0c4.2,0,7.1,0,9.3,0c0.6,0,1,0.2,1.2,0.7c0.2,0.5,0.4,1,0.4,1.5c0,0.7-0.2,1-0.6,1.5c-0.4,0.2-0.6,0.5-1.2,0.5
		c-2.2,0-5.1-0.2-9.3,0c-4.2,0-7.1,0-9.3,0V178c5,0.2,11.3,0.2,19.4,0.2c0.4,0,0.8,0.2,1.2,0.7c0.4,0.5,0.6,0.7,0.6,1.5
		c0,0.5-0.2,1-0.6,1.5c-0.4,0.5-0.6,0.7-1.2,0.7c-8.7,0-15.8-0.2-21-0.2c-0.4,0-0.8-0.2-1-0.5c-0.2-0.2-0.6-0.7-0.6-1.2
		c0-0.2-0.2-0.5-0.2-0.7v-68.3v-0.2v-0.2c0-0.5,0.2-1,0.6-1.2C330.7,109,331.1,109,331.5,109L331.5,109z"/>
	<path id="XMLID_395_" class="st3" d="M381.2,134.2v-23.3c0-0.5,0.2-1,0.6-1.5c0.4-0.5,0.6-0.7,1.2-0.7c0.4,0,0.8,0.2,1.2,0.7
		c0.4,0.5,0.6,0.7,0.6,1.5v46.3c0,1.2,0,2.7,0,3.7v18.3c0,0.5-0.2,1-0.6,1.5c-0.4,0.5-0.6,0.7-1.2,0.7c-0.4,0-0.8-0.2-1.2-0.7
		c-0.4-0.5-0.6-0.7-0.6-1.5v-4.5c-2.2,4-5,6.2-8.5,6.7c-3.6,0.2-6.5-1.2-9.3-4.9c-2.6-3.7-4.2-8.7-4.6-15.3
		c-0.2-5.2,0.2-10.1,1.2-14.8c1-4.7,2.8-8.7,5.3-11.9c1.8-2.2,4-3.7,6.1-4.2c2.2-0.5,4.2-0.2,6.1,0.7
		C379.1,131.7,380,133,381.2,134.2z M381,144.3c-0.2-2.2-0.6-4.2-1.4-5.9c-1-1.7-2-3-3.2-3.7c-2.8-1.7-5.7-0.7-8.5,2.5
		c-2.2,2.7-3.8,6.2-4.6,10.4c-1,4.2-1.2,8.7-1,13.4c0.2,5.7,1.4,9.7,3.4,12.6c2,2.7,4.2,4.2,6.7,4c2.2-0.2,4.2-1.7,5.9-4.7
		c1.8-2.7,2.6-6.7,3-11.6v-3.7v-0.2V157v-12.1C381,144.8,381,144.6,381,144.3z"/>
	<path id="XMLID_398_" class="st3" d="M393.7,132c0,0.7-0.2,2.2-0.2,4.7l-0.4,6.2c-0.4,6.2-0.4,11.6-0.4,16.1
		c0.2,5.9,0.6,10.6,1.8,13.9c1,3.2,2.4,4.7,4.2,4.7c1.4,0,3-1.2,4.2-3.2c1.2-2,2.2-4.7,3.2-8.4c1.4-5.7,2.2-11.6,2.6-18.3
		c0-1.2,0.2-3.2,0.2-5.7c0-2.5,0.2-4.5,0.2-5.7c0-0.2,0-0.7,0-1.2c0-0.7,0-1,0-1.2c0-0.5,0-0.7,0.2-1v-0.2c0-0.2,0.2-0.2,0.2-0.5
		c0.6-0.7,1-1,1.4-1.2c0.6-0.2,1.2,0.2,1.6,1l0.2,0.7v0.2v0.2c0.2,5.4,0.2,13.6,0.4,24c0.2,10.4,0.2,18.1,0.2,22.8
		c0,0.7-0.2,1.2-0.4,1.5c-0.2,0.5-0.6,0.7-1.2,0.7c-0.6,0-1-0.2-1.2-0.5c-0.4-0.2-0.6-0.7-0.6-1.2c-0.2-4-0.2-8.7-0.2-14.4
		c-0.2,0.7-0.2,1.2-0.4,1.7c-1,4.2-2.2,7.2-3.8,9.7c-2,3.2-4.2,4.7-6.5,4.7c-3.4,0.2-5.7-2.2-7.3-7.4c-1-3.7-1.8-8.7-1.8-15.1
		c-0.2-4.7,0-10.1,0.4-16.3l0.4-6.2c0.2-2.5,0.2-4.2,0.2-4.7c0-0.5,0.2-1,0.6-1.2c0.4-0.2,0.8-0.5,1.2-0.5c0.4,0,0.8,0.2,1,0.7
		C393.7,130.7,393.7,131.2,393.7,132z"/>
	<path id="XMLID_400_" class="st3" d="M436.3,141.6c-1.4-3.2-2.8-5.7-4.4-6.7c-1.4-0.7-2.6-0.7-4.2-0.2c-1.4,0.7-3,2.2-4.4,4.5
		s-2.4,4.7-3.2,7.7c-0.8,3-1.2,6.2-1.2,9.9s0.2,7.2,1,10.1c1,4.2,2.4,7.2,4.6,8.9c2,1.7,4.2,2.2,6.1,1.5c2.2-0.7,4.2-2.2,5.7-5.2
		c1.6-2.7,2.4-6.2,2.4-10.4c0-0.5,0.2-1,0.6-1.5c0.4-0.5,0.6-0.7,1.2-0.7c0.4,0,0.8,0.2,1.2,0.7c0.4,0.5,0.6,0.7,0.6,1.5
		c0,5.2-1,9.2-3,12.9c-2,3.5-4.6,5.7-7.7,6.7c-3.2,1-6.1,0.2-8.9-2c-2.8-2.2-4.6-6.2-5.7-11.4c-0.8-3.2-1.2-6.9-1-11.1
		c0-4.2,0.6-7.9,1.4-11.1c1-3.5,2.2-6.7,3.8-9.2c1.8-2.7,3.6-4.7,5.5-5.7c2.4-1.2,4.6-1.2,6.9,0.5c2.2,1.5,4.2,4.2,5.7,8.4
		c0.2,0.5,0.2,1.2,0.2,1.7c-0.2,0.5-0.4,1-1,1.2c-0.4,0.2-0.8,0.2-1.2,0.2C437.1,142.4,436.7,142.1,436.3,141.6z"/>
	<path id="XMLID_404_" class="st3" d="M471.3,144.3v12.4c0,0.2,0.2,0.5,0.2,0.7c0,0.7,0,1.7-0.2,2.7c0,7.2,0.2,13.6,0.4,19.3
		c0,0.5-0.2,1-0.4,1.5s-0.6,0.7-1,0.7s-0.8-0.2-1.2-0.5c-0.4-0.2-0.6-0.7-0.6-1.2l-0.2-5.4c-2.4,4.7-5.5,7.2-9.7,7.2
		c-3.4,0-6.5-2-8.9-5.9c-2.6-3.7-3.8-8.9-3.8-14.8c-0.2-12.4,2.4-21.3,7.3-26.7c1.8-2.2,4-3.5,6.1-4c2.2-0.5,4.2-0.2,6.1,1
		c1.8,1,3,2.5,4.2,4.5c1,2,1.8,4.2,2,6.7c0,0.2,0.2,0.5,0.2,0.7v0.7v0.5v0.2L471.3,144.3L471.3,144.3z M468,144.1L468,144.1v-0.2
		v-0.2v-0.2c0-2.2-0.6-4.2-1.2-5.7c-0.8-1.5-1.8-2.7-3-3.2c-1-0.7-2.6-1-4.2-0.7s-3.2,1.2-4.6,3c-4.2,4.7-6.1,12.6-6.1,23.8
		c0,5.2,1,9.2,3,12.1c2,3,4.2,4.5,6.5,4.7c2.2,0,4.4-1.2,6.1-4.2c1.8-2.7,3-7.2,3.2-13.1v-15.8L468,144.1L468,144.1z"/>
	<path id="XMLID_409_" class="st3" d="M483.8,129.5c-3,0-5.3,0.2-6.5,0.2c-0.4,0-0.8-0.2-1.2-0.7c-0.4-0.5-0.6-0.7-0.6-1.5
		c0-0.5,0.2-1,0.6-1.5c0.4-0.5,0.6-0.7,1.2-0.7c1.4,0,3.6,0,6.5-0.2c0-4.9-0.2-9.7-0.2-14.1c0-0.7,0.2-1.2,0.4-1.5
		c0.2-0.5,0.6-0.7,1.2-0.7s1,0.2,1.2,0.5c0.4,0.2,0.6,0.7,0.6,1.2c0.2,4.5,0.2,9.2,0.2,14.1c2.6,0,4.6,0,6.5,0c0.4,0,0.8,0.2,1,0.7
		c0.2,0.5,0.4,1,0.4,1.5c0,0.7-0.2,1-0.6,1.5c-0.4,0.2-0.8,0.5-1.2,0.5H487c0,4.7,0.2,12.9,0.2,24.3c0,11.4,0.2,20,0.2,26
		c0,0.5-0.2,1-0.4,1.5c-0.2,0.5-0.6,0.7-1.2,0.7s-1-0.2-1.2-0.5c-0.4-0.2-0.6-0.7-0.6-1.5c0-5.9-0.2-14.6-0.2-26
		C483.8,142.4,483.8,134.4,483.8,129.5z"/>
	<path id="XMLID_424_" class="st3" d="M503.2,115.6c0.4,0.5,0.6,0.7,0.6,1.5c0,0.5-0.2,1-0.6,1.5c-0.2,0.5-0.6,0.7-1.2,0.7
		c-0.4,0-0.8-0.2-1.2-0.7c-0.4-0.5-0.6-0.7-0.6-1.5c0-0.5,0.2-1,0.6-1.5s0.6-0.7,1.2-0.7C502.4,115.1,502.8,115.4,503.2,115.6z
		 M503.6,132c0,3.5,0,8.7,0.2,15.1s0.2,12.4,0.2,17.6s-0.2,10.1-0.2,15.1c0,0.5-0.2,1-0.6,1.2c-0.2,0.2-0.8,0.5-1.2,0.5
		c-0.4,0-0.8-0.2-1.2-0.7c-0.2-0.5-0.4-1-0.4-1.5c0.2-4.7,0.2-9.7,0.2-14.8s0-11.1-0.2-17.6s-0.2-11.4-0.2-15.1c0-0.5,0.2-1,0.6-1.5
		c0.4-0.5,0.6-0.7,1.2-0.7c0.4,0,0.8,0.2,1.2,0.7C503.6,130.7,503.6,131.2,503.6,132z"/>
	<path id="XMLID_427_" class="st3" d="M519.5,130c0.4-0.2,0.8-0.5,1.2-0.5c0.2,0,0.4,0.2,0.6,0.2c0.2,0,0.4,0,0.6,0
		c0.2,0,0.4,0,0.6,0c1,0.2,1.6,0.2,2.2,0.7c3.2,1.7,5.5,5.7,7.1,11.6c1.4,5.2,2.2,10.9,1.8,17.1c-0.4,6.4-1.6,11.6-3.8,15.6
		c-2.6,4.9-6.1,7.2-10.5,6.4c-4-0.5-6.9-3.7-9.1-9.2c-1.8-4.7-2.6-10.4-2.6-16.8c0.2-6.4,1.4-12.1,3.4-16.6
		C513.1,133.7,515.9,131,519.5,130z M520.8,133.9c-3,0.2-5.3,2.2-6.9,6.4c-1.8,4.2-2.8,9.2-3,14.8c-0.2,5.9,0.6,10.9,2.2,15.1
		c1.6,4.2,3.8,6.7,6.5,6.9c3,0.5,5.5-1,7.3-4.7c1.8-3.2,3-7.9,3.2-13.6c0.2-5.7-0.2-10.9-1.6-15.6s-3.2-7.9-5.3-9.2
		c-0.2-0.2-0.6-0.2-1.2-0.2c-0.2,0-0.4,0-0.8-0.2C521,133.9,521,133.9,520.8,133.9z"/>
	<path id="XMLID_439_" class="st3" d="M541.4,144.8V180c0,0.5-0.2,1-0.6,1.5c-0.4,0.5-0.6,0.7-1.2,0.7c-0.4,0-0.8-0.2-1.2-0.7
		c-0.4-0.5-0.6-0.7-0.6-1.5v-48c0-0.5,0.2-1,0.6-1.5c0.4-0.5,0.6-0.7,1.2-0.7c0.4,0,0.8,0.2,1.2,0.7c0.4,0.5,0.6,0.7,0.6,1.5v4.7
		c1.8-2.7,3.8-4.7,6.1-5.7c2.4-1.2,4.6-1.5,6.5-0.7c2.4,1,4.2,3.2,5.7,6.2c1.8,4,2.6,11.1,3,21.3c0.2,1.7,0.2,5.7,0,11.9
		c-0.2,6.2-0.2,9.4-0.2,9.9s-0.2,1-0.6,1.5c-0.4,0.5-0.6,0.7-1.2,0.7c-0.4,0-0.8-0.2-1.2-0.7c-0.4-0.5-0.6-0.7-0.6-1.5
		c0-0.5,0-3.7,0.2-9.7c0.2-6.2,0.2-10.1,0-11.6c-0.2-9.4-1-15.8-2.6-19.3c-1-2.2-2.2-3.7-3.8-4.5c-1.4-0.5-2.8-0.2-4.4,0.5
		c-1.6,0.7-3,2.2-4.6,4c-1.4,1.7-2.4,3.7-3,5.7C541.4,144.6,541.4,144.8,541.4,144.8z"/>
	<path id="XMLID_441_" class="st3" d="M612.1,144.3v12.4c0,0.2,0.2,0.5,0.2,0.7c0,0.7,0,1.7-0.2,2.7c0,7.2,0.2,13.6,0.4,19.3
		c0,0.5-0.2,1-0.4,1.5c-0.2,0.5-0.6,0.7-1,0.7c-0.4,0-0.8-0.2-1.2-0.5c-0.4-0.2-0.6-0.7-0.6-1.2l-0.2-5.4c-2.4,4.7-5.5,7.2-9.7,7.2
		c-3.4,0-6.5-2-8.9-5.9c-2.6-3.7-3.8-8.9-3.8-14.8c-0.2-12.4,2.4-21.3,7.3-26.7c1.8-2.2,4-3.5,6.1-4c2.2-0.5,4.2-0.2,6.1,1
		c1.8,1,3,2.5,4.2,4.5c1,2,1.8,4.2,2,6.7c0,0.2,0.2,0.5,0.2,0.7v0.7v0.5v0.2L612.1,144.3L612.1,144.3z M608.8,144.1L608.8,144.1
		v-0.2v-0.2v-0.2c0-2.2-0.6-4.2-1.2-5.7c-0.8-1.5-1.8-2.7-3-3.2c-1-0.7-2.6-1-4.2-0.7s-3.2,1.2-4.6,3c-4.2,4.7-6.1,12.6-6.1,23.8
		c0,5.2,1,9.2,3,12.1c2,3,4.2,4.5,6.5,4.7c2.2,0,4.4-1.2,6.1-4.2c1.8-2.7,3-7.2,3.2-13.1v-15.8L608.8,144.1L608.8,144.1z"/>
	<path id="XMLID_444_" class="st3" d="M621.4,132c-0.2,5.2-0.2,12.4,0.2,21.3c3.4-11.4,8.5-19.1,15.4-23.8c0.4-0.2,0.8-0.2,1.2-0.2
		c0.4,0.2,0.8,0.5,1,1c0.2,0.5,0.2,1,0.2,1.5c-0.2,0.5-0.4,1-0.8,1.2c-4.2,2.7-7.7,6.9-10.5,12.6c-2.8,5.7-4.6,12.1-5.7,18.8
		c-0.2,1.7-0.4,4-0.4,6.7c0,3.7,0,6.2-0.2,7.7c0,0.2,0,0.2,0,0.5c0,0.2-0.2,0.2-0.2,0.2c-0.2,0.5-0.2,0.7-0.6,1
		c-0.4,0.2-0.6,0.5-1,0.5c-0.4,0-0.6-0.2-1-0.5c-0.2-0.2-0.4-0.5-0.6-0.7c0-0.2-0.2-0.2-0.2-0.5c0-0.2,0-0.7-0.2-1.2
		c0-0.7-0.2-1.7-0.2-2.5c0-1.5,0-3.7,0.2-6.4c0-2.7,0.2-4.9,0.2-6.2c-0.2-16.3-0.4-27-0.2-31.4c0-0.5,0.2-1,0.6-1.2
		c0.4-0.2,0.8-0.5,1.2-0.5c0.6,0,0.8,0.2,1.2,0.7C621.2,131,621.4,131.5,621.4,132z"/>
	<path id="XMLID_446_" class="st3" d="M654.9,130c0.4-0.2,0.8-0.5,1.2-0.5c0.2,0,0.4,0.2,0.6,0.2c0.2,0,0.4,0,0.6,0
		c0.2,0,0.4,0,0.6,0c1,0.2,1.6,0.2,2.2,0.7c3.2,1.7,5.5,5.7,7.1,11.6c1.4,5.2,2.2,10.9,1.8,17.1c-0.4,6.4-1.6,11.6-3.8,15.6
		c-2.6,4.9-6.1,7.2-10.5,6.4c-4-0.5-6.9-3.7-9.1-9.2c-1.8-4.7-2.6-10.4-2.6-16.8c0.2-6.4,1.4-12.1,3.4-16.6
		C648.6,133.7,651.3,131,654.9,130z M656.3,133.9c-3,0.2-5.3,2.2-6.9,6.4c-1.8,4.2-2.8,9.2-3,14.8c-0.2,5.9,0.6,10.9,2.2,15.1
		c1.6,4.2,3.8,6.7,6.5,6.9c3,0.5,5.5-1,7.3-4.7c1.8-3.2,3-7.9,3.2-13.6c0.2-5.7-0.2-10.9-1.6-15.6s-3.2-7.9-5.3-9.2
		c-0.2-0.2-0.6-0.2-1.2-0.2c-0.2,0-0.4,0-0.8-0.2C656.5,133.9,656.5,133.9,656.3,133.9z"/>
	<path id="XMLID_449_" class="st3" d="M677.5,132c0,0.7-0.2,2.2-0.2,4.7l-0.4,6.2c-0.4,6.2-0.4,11.6-0.4,16.1
		c0.2,5.9,0.6,10.6,1.8,13.9c1,3.2,2.4,4.7,4.2,4.7c1.4,0,3-1.2,4.2-3.2s2.2-4.7,3.2-8.4c1.4-5.7,2.2-11.6,2.6-18.3
		c0-1.2,0.2-3.2,0.2-5.7c0-2.5,0.2-4.5,0.2-5.7c0-0.2,0-0.7,0-1.2c0-0.7,0-1,0-1.2c0-0.5,0-0.7,0.2-1v-0.2c0-0.2,0.2-0.2,0.2-0.5
		c0.6-0.7,1-1,1.4-1.2c0.6-0.2,1.2,0.2,1.6,1l0.2,0.7v0.2v0.2c0.2,5.4,0.2,13.6,0.4,24c0.2,10.4,0.2,18.1,0.2,22.8
		c0,0.7-0.2,1.2-0.4,1.5c-0.2,0.5-0.6,0.7-1.2,0.7s-1-0.2-1.2-0.5c-0.4-0.2-0.6-0.7-0.6-1.2c-0.2-4-0.2-8.7-0.2-14.4
		c-0.2,0.7-0.2,1.2-0.4,1.7c-1,4.2-2.2,7.2-3.8,9.7c-2,3.2-4.2,4.7-6.5,4.7c-3.4,0.2-5.7-2.2-7.3-7.4c-1-3.7-1.8-8.7-1.8-15.1
		c-0.2-4.7,0-10.1,0.2-16.3l0.4-6.2c0.2-2.5,0.2-4.2,0.2-4.7c0-0.5,0.2-1,0.6-1.2c0.4-0.2,0.8-0.5,1.2-0.5c0.4,0,0.8,0.2,1,0.7
		C677.5,130.7,677.5,131.2,677.5,132z"/>
	<path id="XMLID_451_" class="st3" d="M705.6,144.8V180c0,0.5-0.2,1-0.6,1.5c-0.4,0.5-0.6,0.7-1.2,0.7c-0.4,0-0.8-0.2-1.2-0.7
		c-0.4-0.5-0.6-0.7-0.6-1.5v-48c0-0.5,0.2-1,0.6-1.5c0.4-0.5,0.6-0.7,1.2-0.7c0.4,0,0.8,0.2,1.2,0.7c0.4,0.5,0.6,0.7,0.6,1.5v4.7
		c1.8-2.7,3.8-4.7,6.1-5.7c2.4-1.2,4.6-1.5,6.5-0.7c2.4,1,4.2,3.2,5.7,6.2c1.8,4,2.6,11.1,3,21.3c0.2,1.7,0.2,5.7,0,11.9
		c-0.2,6.2-0.2,9.4-0.2,9.9s-0.2,1-0.6,1.5c-0.4,0.5-0.6,0.7-1.2,0.7c-0.4,0-0.8-0.2-1.2-0.7c-0.4-0.5-0.6-0.7-0.6-1.5
		c0-0.5,0-3.7,0.2-9.7c0.2-6.2,0.2-10.1,0-11.6c-0.2-9.4-1-15.8-2.6-19.3c-1-2.2-2.2-3.7-3.8-4.5c-1.4-0.5-2.8-0.2-4.4,0.5
		c-1.6,0.7-3,2.2-4.6,4c-1.4,1.7-2.4,3.7-3,5.7C705.6,144.6,705.6,144.8,705.6,144.8z"/>
	<path id="XMLID_453_" class="st3" d="M753.3,134.2v-23.3c0-0.5,0.2-1,0.6-1.5c0.4-0.5,0.6-0.7,1.2-0.7c0.4,0,0.8,0.2,1.2,0.7
		c0.4,0.5,0.6,0.7,0.6,1.5v46.3c0,1.2,0,2.7,0,3.7v18.3c0,0.5-0.2,1-0.6,1.5c-0.4,0.5-0.6,0.7-1.2,0.7c-0.4,0-0.8-0.2-1.2-0.7
		c-0.4-0.5-0.6-0.7-0.6-1.5v-4.5c-2.2,4-5,6.2-8.5,6.7c-3.6,0.2-6.5-1.2-9.3-4.9c-2.6-3.7-4.2-8.7-4.6-15.3
		c-0.2-5.2,0.2-10.1,1.2-14.8c1-4.7,2.8-8.7,5.3-11.9c1.8-2.2,4-3.7,6.1-4.2c2.2-0.5,4.2-0.2,6.1,0.7
		C751.3,131.7,752.3,133,753.3,134.2z M753.3,144.3c-0.2-2.2-0.6-4.2-1.4-5.9c-1-1.7-2-3-3.2-3.7c-2.8-1.7-5.7-0.7-8.5,2.5
		c-2.2,2.7-3.8,6.2-4.6,10.4c-1,4.2-1.2,8.7-1,13.4c0.2,5.7,1.4,9.7,3.4,12.6c2,2.7,4.2,4.2,6.7,4c2.2-0.2,4.2-1.7,5.9-4.7
		c1.8-2.7,2.6-6.7,3-11.6v-3.7v-0.2V157v-12.1C753.3,144.8,753.3,144.6,753.3,144.3z"/>
	<path id="XMLID_456_" class="st3" d="M430.3,254c-3,0-5.3,0.2-6.5,0.2c-0.4,0-0.8-0.2-1.2-0.7c-0.4-0.5-0.6-0.7-0.6-1.5
		c0-0.5,0.2-1,0.6-1.5c0.4-0.5,0.6-0.7,1.2-0.7c1.4,0,3.6,0,6.5-0.2c0-4.9-0.2-9.7-0.2-14.1c0-0.7,0.2-1.2,0.4-1.5
		c0.2-0.5,0.6-0.7,1.2-0.7s1,0.2,1.2,0.5c0.4,0.2,0.6,0.7,0.6,1.2c0.2,4.5,0.2,9.2,0.2,14.1c2.6,0,4.6,0,6.5,0c0.4,0,0.8,0.2,1,0.7
		c0.2,0.5,0.4,1,0.4,1.5c0,0.7-0.2,1-0.6,1.5c-0.4,0.2-0.8,0.5-1.2,0.5h-6.1c0,4.7,0.2,12.9,0.2,24.3c0,11.4,0.2,20,0.2,26
		c0,0.5-0.2,1-0.4,1.5c-0.2,0.5-0.6,0.7-1.2,0.7c-0.6,0-1-0.2-1.2-0.5c-0.4-0.2-0.6-0.7-0.6-1.5c0-5.9-0.2-14.6-0.2-26
		C430.3,267.1,430.3,258.9,430.3,254z"/>
	<path id="XMLID_458_" class="st3" d="M450.5,276c0,10.1-0.2,19.6-0.2,28c0,0.5-0.2,1-0.6,1.5c-0.4,0.5-0.6,0.7-1.2,0.7
		c-0.4,0-0.8-0.2-1.2-0.7c-0.4-0.5-0.6-0.7-0.6-1.5c0-12.6,0.2-35.6,0.4-68.6c0-0.5,0.2-1,0.6-1.5c0.4-0.5,0.6-0.7,1.2-0.7
		c0.4,0,0.8,0.2,1.2,0.7c0.4,0.5,0.6,0.7,0.6,1.5c-0.2,17.3-0.2,27-0.2,29.2c1.8-3.2,3.8-5.9,6.1-7.7c2.8-2.2,5.3-2.7,7.9-1.7
		c2.8,1.2,5,4.2,6.5,8.9c1.2,3.5,1.8,10.1,2.2,20c0.2,6.7,0.2,13.4,0,20.5c0,0.5-0.2,1-0.6,1.2s-0.8,0.5-1.2,0.5
		c-0.6,0-0.8-0.2-1.2-0.7c-0.2-0.5-0.4-1-0.4-1.5c0.2-7.2,0.2-13.9,0-20.3c-0.2-9.2-1-15.3-1.8-18.6c-1.4-3.7-2.8-5.9-4.6-6.7
		c-1.6-0.7-3.2-0.2-5,1.2c-2,1.5-3.8,3.7-5.1,6.7c-1.4,3-2.4,5.7-2.8,8.7C450.7,275.5,450.5,275.8,450.5,276z"/>
	<path id="XMLID_460_" class="st3" d="M501.6,277.5c-3.4-0.2-9.9-0.2-19.8-0.2c-0.2,10.1,1,17.1,4.2,21c3,4,6.3,5.2,10.1,3.5
		c1.6-0.7,3-1.7,4.2-3.2c1-1.5,1.8-3.2,2.2-4.7c0.2-0.5,0.4-1,0.8-1.2c0.4-0.2,0.8-0.5,1.2-0.2c0.4,0.2,0.8,0.2,1,0.7
		c0.2,0.5,0.4,1,0.2,1.5c-0.4,2.5-1.4,4.7-3,6.7c-1.6,2-3.4,3.5-5.3,4.5c-2,1.2-4.4,1.2-6.9,0.7c-2.6-0.7-4.8-2.2-6.7-4.9
		c-3.8-4.9-5.3-13.4-5-25.2c0.2-5.7,1.6-10.6,3.8-14.6c2.2-4,5-6.4,8.1-7.2c3.4-0.7,6.1,0.7,8.5,4.2c2.4,3.7,3.8,9.2,4.4,16.6
		c0,0.2,0,0.7-0.2,1C502.8,277.2,502.4,277.7,501.6,277.5z M482,273.3c8.7,0,14.7,0,17.8,0.2c-0.6-5.4-1.6-9.4-3.4-12.1
		c-1.6-2.2-3.4-3.2-5.3-2.7c-2,0.5-3.8,2-5.3,4.7C483.8,265.6,482.6,269.1,482,273.3z"/>
	<path id="XMLID_463_" class="st3" d="M536.7,235.4c0.6,4.5,1.6,12.6,2.8,24.3c1.2,11.6,2.4,20.8,3.4,27.2c0.6,3.5,1,6.2,1.4,8.2
		c0.4,2,0.8,3.7,1,4.7l0.4,1.2c0.2-0.2,0.2-0.7,0.4-1.2c0.2-0.7,0.6-2.2,1-4.2c0.6-3.5,1-5.4,1.2-5.7c2.2-10.1,4.4-22.8,6.5-37.6
		c0.2-0.5,0.2-0.7,0.6-1.2c0.2-0.2,0.6-0.5,0.8-0.5c0.4-0.2,0.8,0,1.2,0.2c0.4,0.2,0.6,0.7,0.8,1.2c0.2,1,0.6,2.7,1,5.7l2,10.6
		l2.2,11.1c1.4,6.7,2.4,12.1,3.2,15.6c0.6,2.2,1,4,1.4,5.2c0.2,0.2,0.2,0.5,0.2,0.7c0.2-0.2,0.2-0.5,0.2-0.7
		c0.2-0.7,0.6-2.2,0.8-4.5c0.6-3.2,1-5.2,1-5.9c0.6-4.2,1.4-8.9,2.2-13.9c0.6-5.2,1.4-9.2,1.8-12.9l1.8-14.4l1.4-13.1
		c0-0.5,0.2-1,0.6-1.2c0.4-0.2,0.8-0.5,1.2-0.5s0.8,0.2,1,0.7c0.2,0.5,0.4,1,0.4,1.5l-1.4,13.1l-1.8,14.6c-0.4,3.5-1,7.7-1.8,12.9
		c-0.6,5.2-1.4,9.7-2.2,13.9c-0.2,0.7-0.4,2.7-1,5.9c-0.4,2.2-0.6,3.7-1,4.7c-0.4,1.7-0.8,2.7-1.4,3.5s-1,1-1.8,1
		c-0.6,0-1.2-0.2-1.8-0.7c-0.4-0.2-0.8-0.7-1-1.5c-0.2-0.5-0.4-1.2-0.6-2c-0.4-1.2-1-3.2-1.4-5.4c-1-3.7-2-9.2-3.4-16.1l-3.4-18.3
		c-1.8,10.9-3.6,20.5-5.3,28.7c-0.2,0.7-0.6,2.5-1,5.7c-0.4,2.2-0.6,3.7-1,4.7c-0.6,1.7-1,3-1.8,3.7c-0.6,0.7-1,1-1.8,1
		c-0.6,0-1.2-0.2-1.8-0.7c-0.4-0.2-0.8-0.7-1-1.7c-0.2-0.5-0.4-1.2-0.6-2.2c-0.4-1.2-0.8-3-1.2-5.2c-0.4-2-1-4.7-1.4-8.2
		c-1-6.2-2.2-15.3-3.4-27.2c-1.2-11.6-2.2-20-2.8-24.5c0-0.5,0-1,0.4-1.5c0.2-0.5,0.6-0.7,1-0.7c0.4-0.2,0.8,0,1.2,0.2
		C536.3,234.4,536.5,234.9,536.7,235.4z"/>
	<path id="XMLID_465_" class="st3" d="M596.1,254.5c0.4-0.2,0.8-0.5,1.2-0.5c0.2,0,0.4,0.2,0.6,0.2c0.2,0,0.4,0,0.6,0
		c0.2,0,0.4,0,0.6,0c1,0.2,1.6,0.2,2.2,0.7c3.2,1.7,5.5,5.7,7.1,11.6c1.4,5.2,2.2,10.9,1.8,17.1c-0.4,6.4-1.6,11.6-3.8,15.6
		c-2.6,4.9-6.1,7.2-10.5,6.4c-4-0.5-6.9-3.7-9.1-9.2c-1.8-4.7-2.6-10.4-2.6-16.8c0.2-6.4,1.4-12.1,3.4-16.6
		C589.7,257.9,592.7,255.2,596.1,254.5z M597.5,258.4c-3,0.2-5.3,2.2-6.9,6.4c-1.8,4.2-2.8,9.2-3,14.8c-0.2,5.9,0.6,10.9,2.2,15.1
		c1.6,4.2,3.8,6.7,6.5,6.9c3,0.5,5.5-1,7.3-4.7c1.8-3.2,3-7.9,3.2-13.6c0.2-5.7-0.2-10.9-1.6-15.6s-3.2-7.9-5.3-9.2
		c-0.2-0.2-0.6-0.2-1.2-0.2c-0.2,0-0.4,0-0.8-0.2C597.7,258.4,597.7,258.4,597.5,258.4z"/>
	<path id="XMLID_468_" class="st3" d="M618.1,256.5c-0.2,5.2-0.2,12.4,0.2,21.3c3.4-11.4,8.5-19.1,15.4-23.8
		c0.4-0.2,0.8-0.2,1.2-0.2c0.4,0.2,0.8,0.5,1,1c0.2,0.5,0.2,1,0.2,1.5c0,0.5-0.4,1-0.8,1.2c-4.2,2.7-7.7,6.9-10.5,12.6
		c-2.8,5.7-4.6,12.1-5.7,18.8c-0.2,1.7-0.4,4-0.4,6.7c0,3.7,0,6.2-0.2,7.7c0,0.2,0,0.2,0,0.5c0,0.2-0.2,0.2-0.2,0.2
		c-0.2,0.5-0.2,0.7-0.6,1c-0.4,0.2-0.6,0.5-1,0.5c-0.4,0-0.6-0.2-1-0.5c-0.2-0.2-0.4-0.5-0.6-0.7c0-0.2-0.2-0.2-0.2-0.5
		s0-0.7-0.2-1.2c0-0.7-0.2-1.7-0.2-2.5c0-1.5,0-3.7,0.2-6.4c0-2.7,0.2-4.9,0.2-6.2c-0.2-16.3-0.4-27-0.2-31.4c0-0.5,0.2-1,0.6-1.2
		c0.4-0.2,0.8-0.5,1.2-0.5c0.6,0,0.8,0.2,1.2,0.7C618.1,255.5,618.1,256,618.1,256.5z"/>
	<path id="XMLID_470_" class="st3" d="M644.2,235.7c0.2,8.7,0.4,21,0.4,36.9c0,15.8,0.2,26.5,0.2,31.7c0,0.5-0.2,1-0.4,1.5
		c-0.2,0.5-0.6,0.7-1.2,0.7s-1-0.2-1.2-0.5c-0.4-0.2-0.6-0.7-0.6-1.5c0-5.2-0.2-15.6-0.2-31.7s-0.2-28.2-0.4-36.6
		c0-0.7,0.2-1.2,0.4-1.5c0.2-0.5,0.6-0.7,1.2-0.7s1,0.2,1.2,0.5C644.2,234.7,644.2,234.9,644.2,235.7z"/>
	<path id="XMLID_472_" class="st3" d="M670.7,258.7v-23.3c0-0.5,0.2-1,0.6-1.5c0.4-0.5,0.6-0.7,1.2-0.7c0.4,0,0.8,0.2,1.2,0.7
		c0.4,0.5,0.6,0.7,0.6,1.5v46.3c0,1.2,0,2.7,0,3.7v18.3c0,0.5-0.2,1-0.6,1.5c-0.4,0.5-0.6,0.7-1.2,0.7c-0.4,0-0.8-0.2-1.2-0.7
		s-0.6-0.7-0.6-1.5v-4.5c-2.2,4-5,6.2-8.5,6.7c-3.6,0.2-6.5-1.2-9.3-4.9c-2.6-3.7-4.2-8.7-4.6-15.3c-0.2-5.2,0.2-10.1,1.2-14.8
		c1-4.7,2.8-8.7,5.3-11.9c1.8-2.2,4-3.7,6.1-4.2c2.2-0.5,4.2-0.2,6.1,0.7C668.6,256.2,669.9,257.2,670.7,258.7z M670.5,268.8
		c-0.2-2.2-0.6-4.2-1.4-5.9c-1-1.7-2-3-3.2-3.7c-2.8-1.7-5.7-0.7-8.5,2.5c-2.2,2.7-3.8,6.2-4.6,10.4c-1,4.2-1.2,8.7-1,13.4
		c0.2,5.7,1.4,9.7,3.4,12.6c2,2.7,4.2,4.2,6.7,4c2.2-0.2,4.2-1.7,5.9-4.7c1.8-3,2.6-6.7,3-11.6v-3.7v-0.2v-0.2v-12.1
		C670.5,269.3,670.5,269.1,670.5,268.8z"/>
	<path id="XMLID_475_" class="st3" d="M681.8,301.3c0.4,0.5,0.6,0.7,0.6,1.5c0,0.5-0.2,1-0.6,1.5c-0.4,0.5-0.6,0.7-1.2,0.7
		c-0.4,0-0.8-0.2-1.2-0.7c-0.4-0.5-0.6-0.7-0.6-1.5c0-0.5,0.2-1,0.6-1.5c0.4-0.5,0.6-0.7,1.2-0.7C681,300.8,681.4,300.8,681.8,301.3
		z M682.6,235.9v56.4c0,0.5-0.2,1-0.6,1.5c-0.2,0.5-0.6,0.7-1.2,0.7c-0.4,0-0.8-0.2-1.2-0.7c-0.4-0.5-0.6-0.7-0.6-1.5v-56.4
		c0-0.5,0.2-1,0.6-1.5c0.2-0.5,0.6-0.7,1.2-0.7c0.4,0,0.8,0.2,1.2,0.7C682.4,234.9,682.6,235.4,682.6,235.9z"/>
</g>
</svg>
