<?xml version="1.0" encoding="utf-8"?>
<!-- Generator: Adobe Illustrator 19.0.0, SVG Export Plug-In . SVG Version: 6.00 Build 0)  -->
<svg version="1.1" id="Layer_1" xmlns="http://www.w3.org/2000/svg" xmlns:xlink="http://www.w3.org/1999/xlink" x="0px" y="0px"
	 viewBox="0 0 376.7 31.4" style="enable-background:new 0 0 376.7 31.4;" xml:space="preserve">
<style type="text/css">
	.st0{fill:#F9ED32;}
	.st1{fill:#FF6E6E;}
	.st2{fill:#27AAE1;}
	.st3{fill:#50C956;}
	.st4{fill:#231F20;}
</style>
<g id="Layer_12">
	<rect id="XMLID_4_" y="0.2" class="st0" width="68.9" height="31.4"/>
	<rect id="XMLID_195_" x="77.2" y="0.2" class="st1" width="88.9" height="31.4"/>
	<rect id="XMLID_196_" x="174" class="st2" width="95.1" height="31.4"/>
	<rect id="XMLID_198_" x="277.9" y="0.2" class="st3" width="98.8" height="31.4"/>
	<g id="XMLID_42_">
		<path id="XMLID_43_" class="st4" d="M6.1,15.8v5.9c0,0.1-0.1,0.3-0.2,0.4c-0.1,0.1-0.2,0.2-0.4,0.2c-0.1,0-0.3-0.1-0.4-0.2
			C5,22,4.9,21.9,4.9,21.7V4.9c0-0.1,0.1-0.3,0.2-0.4c0.1-0.1,0.2-0.2,0.4-0.2c0.1,0,0.3,0.1,0.4,0.2C6,4.6,6.1,4.7,6.1,4.9v0.5
			C6.9,4.9,7.9,4.6,9,4.6c0.8,0,1.4,0.2,2,0.5c0.6,0.4,1,0.9,1.3,1.5c0.5,1.2,0.6,2.5,0.2,4.1c-0.2,0.7-0.5,1.4-0.8,2
			c-0.4,0.6-0.8,1.2-1.3,1.7s-1.2,0.9-1.9,1.2C7.7,15.8,7,15.9,6.1,15.8z M6.1,6.6v8.2c1.3,0.2,2.5-0.2,3.4-1c1-0.9,1.6-2,2-3.3
			C11.9,9.1,11.8,8,11.4,7C11,6,10.2,5.6,9.1,5.6C8.5,5.6,8,5.7,7.5,5.8C7.1,5.9,6.6,6.2,6.1,6.6L6.1,6.6z"/>
		<path id="XMLID_46_" class="st4" d="M15.5,10c0,1.3,0,3,0,5.2c1.1-2.8,2.6-4.7,4.7-5.8c0.1-0.1,0.2-0.1,0.4,0
			c0.1,0.1,0.2,0.1,0.3,0.3c0.1,0.1,0.1,0.2,0,0.4c-0.1,0.1-0.1,0.2-0.3,0.3c-1.3,0.7-2.4,1.7-3.2,3.1c-0.9,1.4-1.4,2.9-1.7,4.6
			c-0.1,0.4-0.1,1-0.1,1.7c0,0.9,0,1.5-0.1,1.8v0.1v0.1c0,0.1-0.1,0.2-0.2,0.2c-0.1,0.1-0.2,0.1-0.3,0.1s-0.2,0-0.3-0.1
			s-0.1-0.1-0.2-0.2c0,0,0-0.1-0.1-0.1c0-0.1,0-0.1,0-0.3s0-0.4,0-0.6c0-0.4,0-0.9,0-1.6s0-1.2,0-1.5c-0.1-4-0.1-6.6-0.1-7.7
			c0-0.1,0.1-0.2,0.2-0.3c0.1-0.1,0.2-0.1,0.4-0.1s0.3,0.1,0.4,0.2C15.5,9.8,15.5,9.9,15.5,10z"/>
		<path id="XMLID_48_" class="st4" d="M23.4,6.1c0.1,0.1,0.2,0.2,0.2,0.4c0,0.1-0.1,0.3-0.2,0.4C23.3,7,23.2,7.1,23,7.1
			S22.7,7,22.6,6.9c-0.1-0.1-0.2-0.2-0.2-0.4c0-0.1,0.1-0.3,0.2-0.4C22.7,6,22.8,5.9,23,5.9S23.3,6,23.4,6.1z M23.5,10
			c0,0.9,0,2.1,0,3.7s0,3,0,4.3s0,2.5-0.1,3.7c0,0.1-0.1,0.2-0.2,0.3c-0.1,0.1-0.2,0.1-0.4,0.1s-0.3-0.1-0.4-0.2
			c-0.1-0.1-0.1-0.2-0.1-0.4c0.1-1.1,0.1-2.3,0.1-3.6s0-2.7,0-4.3s0-2.8,0-3.7c0-0.1,0.1-0.3,0.2-0.4s0.2-0.2,0.4-0.2
			s0.3,0.1,0.4,0.2S23.5,9.8,23.5,10z"/>
		<path id="XMLID_51_" class="st4" d="M31.8,13.1c0.1,0.7,0.1,1.6,0.1,2.7c0,0.6,0,1.4,0,2.5s0,1.9,0,2.2c0,0.2,0,0.3-0.1,0.4
			s-0.2,0.2-0.4,0.2c-0.1,0-0.3,0-0.4-0.1c-0.1-0.1-0.2-0.2-0.2-0.3c0-0.4,0-1.1,0-2.3s0-2,0-2.6c0-1.1,0-2-0.1-2.6
			c-0.1-0.8-0.2-1.4-0.3-1.7c-0.3-0.6-0.6-0.9-1-1s-0.8-0.1-1.2,0.1c-0.5,0.2-0.9,0.5-1.3,1c-0.4,0.4-0.7,0.9-0.8,1.3c0,0,0,0,0,0.1
			v8.8c0,0.1-0.1,0.3-0.2,0.4s-0.2,0.2-0.4,0.2c-0.1,0-0.3-0.1-0.4-0.2s-0.2-0.2-0.2-0.4V10.1c0-0.1,0.1-0.3,0.2-0.4
			s0.2-0.2,0.4-0.2c0.1,0,0.3,0.1,0.4,0.2s0.2,0.2,0.2,0.4V11c0.5-0.6,1-1,1.6-1.3c0.7-0.3,1.3-0.4,1.9-0.2c0.7,0.2,1.2,0.8,1.6,1.6
			c0.1,0.1,0.1,0.3,0.2,0.4c0.6-0.8,1.2-1.4,2-1.7c0.7-0.3,1.3-0.4,1.9-0.2c0.7,0.2,1.2,0.7,1.6,1.5c0.2,0.4,0.4,1.1,0.5,2.1
			c0.1,0.8,0.2,1.8,0.2,3c0.1,2,0.1,3.9,0,5.5c0,0.1-0.1,0.2-0.2,0.3c-0.1,0.1-0.2,0.1-0.4,0.1c-0.1,0-0.2-0.1-0.3-0.2
			s-0.1-0.2-0.1-0.4c0.1-1.6,0.1-3.4,0-5.4c0-1.2-0.1-2.2-0.2-2.9c-0.1-0.9-0.2-1.5-0.4-1.8c-0.3-0.5-0.6-0.9-1-1s-0.8,0-1.2,0.2
			s-0.9,0.5-1.2,1c-0.4,0.4-0.7,0.9-0.8,1.3C31.9,13,31.9,13,31.8,13.1z"/>
		<path id="XMLID_53_" class="st4" d="M46.6,13v3c0,0.1,0,0.1,0,0.2c0,0.2,0,0.4,0,0.7c0,1.8,0.1,3.4,0.1,4.7c0,0.1,0,0.3-0.1,0.4
			c-0.1,0.1-0.2,0.2-0.3,0.2s-0.3,0-0.4-0.1c-0.1-0.1-0.2-0.2-0.2-0.3l-0.1-1.3c-0.7,1.2-1.7,1.8-3,1.7c-1.1,0-2-0.5-2.8-1.4
			s-1.2-2.2-1.2-3.6c0-3,0.7-5.2,2.2-6.6c0.6-0.5,1.2-0.8,1.9-1c0.7-0.1,1.3,0,1.9,0.3c0.5,0.2,0.9,0.6,1.3,1.1
			c0.3,0.5,0.5,1,0.6,1.7c0,0.1,0,0.1,0,0.2v0.2v0.1V13L46.6,13L46.6,13z M45.6,13L45.6,13L45.6,13v-0.2l0,0c0-0.5-0.1-1-0.4-1.4
			c-0.2-0.4-0.5-0.7-0.9-0.8c-0.3-0.2-0.8-0.3-1.3-0.2s-1,0.3-1.4,0.7c-1.3,1.1-1.9,3.1-1.9,5.8c0,1.2,0.3,2.2,0.9,3
			c0.6,0.7,1.3,1.1,2,1.1s1.3-0.3,1.9-1c0.6-0.7,0.9-1.7,1-3.2L45.6,13L45.6,13z"/>
		<path id="XMLID_56_" class="st4" d="M49.5,10c0,1.3,0,3,0,5.2c1.1-2.8,2.6-4.7,4.7-5.8c0.1-0.1,0.2-0.1,0.4,0
			c0.1,0.1,0.2,0.1,0.3,0.3c0.1,0.1,0.1,0.2,0,0.4c-0.1,0.1-0.1,0.2-0.3,0.3c-1.3,0.7-2.4,1.7-3.2,3.1c-0.9,1.4-1.4,2.9-1.7,4.6
			c-0.1,0.4-0.1,1-0.1,1.7c0,0.9,0,1.5-0.1,1.8v0.1v0.1c0,0.1-0.1,0.2-0.2,0.2c-0.1,0.1-0.2,0.1-0.3,0.1s-0.2,0-0.3-0.1
			s-0.1-0.1-0.2-0.2c0,0,0-0.1-0.1-0.1c0-0.1,0-0.1,0-0.3s0-0.4,0-0.6c0-0.4,0-0.9,0-1.6s0-1.2,0-1.5c-0.1-4-0.1-6.6-0.1-7.7
			c0-0.1,0.1-0.2,0.2-0.3c0.1-0.1,0.2-0.1,0.4-0.1s0.3,0.1,0.4,0.2C49.4,9.8,49.5,9.9,49.5,10z"/>
		<path id="XMLID_58_" class="st4" d="M57.8,10c-0.3,2.8-0.5,5-0.5,6.6c0,1.4,0.2,2.5,0.5,3.3s0.7,1.2,1.2,1.2
			c0.4,0,0.8-0.3,1.2-0.8s0.7-1.2,1-2.1c0.5-1.4,0.8-2.9,0.9-4.5c0-0.4,0.1-0.9,0.1-1.6c0-0.7,0-1.1,0.1-1.4c0-0.1,0-0.1,0-0.2
			s0-0.2,0-0.3V10c0-0.1,0-0.2,0-0.3V9.6V9.5c0,0,0-0.1,0.1-0.1c0.1-0.1,0.2-0.2,0.3-0.2c0.2,0,0.3,0,0.5,0.2l0.1,0.1l0.1,0.2l0,0
			v0.1c0,1.6,0,4.4,0,8.3c0,3.9,0,6.7,0,8.3c0,0.2,0,0.3-0.1,0.4S63.1,27,62.9,27s-0.3,0-0.4-0.1c-0.1-0.1-0.2-0.2-0.2-0.3
			c-0.1-2-0.1-4.8,0-8.5l-0.1,0.4c-0.3,1-0.7,1.8-1.2,2.3c-0.6,0.8-1.3,1.1-2,1.2c-1,0-1.7-0.6-2.2-1.8c-0.3-0.9-0.5-2.1-0.5-3.7
			c0-1.5,0.1-3.7,0.5-6.7c0-0.2,0.1-0.3,0.2-0.4c0.1-0.1,0.2-0.1,0.4-0.1c0.1,0,0.3,0.1,0.3,0.2C57.8,9.8,57.8,9.9,57.8,10z"/>
		<path id="XMLID_60_" class="st4" d="M88.1,8.9c0.2-1,0-1.8-0.4-2.4c-0.4-0.6-1-0.9-1.7-1s-1.4,0-1.9,0.4c-0.6,0.4-0.9,0.9-1.1,1.5
			c-0.1,0.7,0.1,1.6,0.8,2.5c0.2,0.2,0.3,0.4,0.6,0.7l0.6,0.6l0.7,0.7c0.3,0.3,0.6,0.6,0.7,0.7c0.5,0.4,0.8,0.8,1.1,1.2
			c0.3,0.3,0.6,0.8,0.9,1.3c0.3,0.5,0.6,1,0.7,1.4c0.1,0.4,0.2,1,0.2,1.5c0,0.6-0.1,1.1-0.3,1.7c-0.3,0.6-0.7,1.2-1.2,1.5
			c-0.6,0.4-1.2,0.6-1.9,0.7s-1.3,0-2-0.2s-1.2-0.6-1.6-1.1c-0.7-0.9-1-2.3-1-4.2c0-0.2,0.1-0.3,0.2-0.4c0.1-0.1,0.2-0.1,0.4-0.1
			c0.1,0,0.3,0.1,0.4,0.2c0.1,0.1,0.1,0.2,0.1,0.4c0,1.7,0.2,2.9,0.8,3.6c0.3,0.4,0.7,0.6,1.1,0.8c0.5,0.2,1,0.2,1.5,0.2
			c0.5-0.1,1-0.2,1.4-0.5s0.7-0.6,0.9-1.1c0.2-0.4,0.3-0.9,0.3-1.3s-0.1-0.8-0.2-1.2c-0.1-0.4-0.3-0.8-0.6-1.2S87,15,86.8,14.7
			l-1.1-1.2L85,12.8L84.2,12l-0.6-0.7c-0.2-0.3-0.4-0.5-0.6-0.7c-0.9-1.2-1.2-2.3-1-3.3s0.7-1.7,1.5-2.2s1.7-0.7,2.6-0.5
			c1,0.1,1.8,0.6,2.4,1.4c0.6,0.8,0.8,1.9,0.6,3.2c0,0.1-0.1,0.2-0.2,0.3c-0.1,0.1-0.2,0.1-0.4,0.1s-0.2-0.1-0.3-0.2
			C88.1,9.2,88,9.1,88.1,8.9z"/>
		<path id="XMLID_62_" class="st4" d="M97.9,15.2c-1,0-3-0.1-6-0.1c-0.1,2.5,0.3,4.2,1.2,5.1c0.9,1,2,1.2,3.1,0.8
			c0.5-0.2,0.9-0.4,1.2-0.8s0.5-0.8,0.6-1.2c0-0.1,0.1-0.2,0.2-0.3c0.1-0.1,0.2-0.1,0.4-0.1c0.1,0,0.2,0.1,0.3,0.2
			C99,18.9,99,19,99,19.2c-0.1,0.6-0.4,1.2-0.9,1.7s-1,0.9-1.6,1.1c-0.6,0.3-1.3,0.3-2.1,0.2C93.6,22,93,21.6,92.3,21
			c-1.2-1.2-1.7-3.3-1.5-6.2c0.1-1.4,0.5-2.6,1.2-3.6s1.5-1.6,2.5-1.7c1-0.2,1.9,0.2,2.6,1.1c0.7,0.9,1.2,2.2,1.3,4
			c0,0.1,0,0.1-0.1,0.2C98.3,15.1,98.2,15.2,97.9,15.2z M92,14.1c2.7,0,4.5,0,5.4,0c-0.2-1.3-0.5-2.3-1-3c-0.5-0.6-1-0.8-1.7-0.7
			c-0.6,0.1-1.1,0.5-1.7,1.1C92.5,12.3,92.1,13.1,92,14.1z"/>
		<path id="XMLID_65_" class="st4" d="M106,12.4c-0.4-0.8-0.9-1.4-1.3-1.6c-0.4-0.2-0.8-0.2-1.2-0.1c-0.5,0.2-0.9,0.5-1.3,1.1
			c-0.4,0.5-0.7,1.2-1,1.9c-0.2,0.7-0.4,1.5-0.4,2.4s0.1,1.7,0.3,2.5c0.3,1,0.7,1.8,1.4,2.2c0.6,0.4,1.3,0.5,1.9,0.4
			c0.7-0.2,1.3-0.6,1.8-1.2c0.5-0.7,0.7-1.5,0.7-2.5c0-0.1,0.1-0.3,0.2-0.4c0.1-0.1,0.2-0.2,0.4-0.2s0.3,0.1,0.4,0.2
			c0.1,0.1,0.2,0.2,0.2,0.4c0,1.2-0.3,2.3-0.9,3.1c-0.6,0.9-1.4,1.4-2.3,1.6c-1,0.2-1.9,0.1-2.7-0.5s-1.4-1.5-1.8-2.8
			c-0.2-0.8-0.3-1.7-0.3-2.7s0.2-1.9,0.4-2.7c0.3-0.8,0.7-1.6,1.2-2.3s1.1-1.1,1.7-1.4c0.7-0.3,1.4-0.3,2.1,0.1
			c0.7,0.4,1.3,1,1.8,2.1c0.1,0.1,0.1,0.3,0,0.4s-0.1,0.2-0.3,0.3c-0.1,0.1-0.3,0.1-0.4,0C106.2,12.6,106.1,12.5,106,12.4z"/>
		<path id="XMLID_69_" class="st4" d="M112.6,9.6c0.1-0.1,0.2-0.1,0.4-0.1c0.1,0,0.1,0,0.2,0c0.1,0,0.1,0,0.2,0c0.1,0,0.1,0,0.2,0
			c0.3,0,0.5,0.1,0.7,0.2c1,0.4,1.7,1.4,2.2,2.8c0.5,1.3,0.6,2.7,0.6,4.2c-0.1,1.6-0.5,2.9-1.1,3.8c-0.8,1.2-1.9,1.7-3.2,1.6
			c-1.2-0.1-2.1-0.9-2.8-2.3c-0.5-1.2-0.8-2.5-0.8-4.1c0.1-1.6,0.4-2.9,1-4.1C110.7,10.4,111.5,9.7,112.6,9.6z M113.1,10.5
			c-0.9,0.1-1.6,0.6-2.2,1.6c-0.5,1-0.8,2.2-0.9,3.6c0,1.4,0.2,2.7,0.7,3.7s1.1,1.6,2,1.7s1.7-0.3,2.3-1.1c0.6-0.8,0.9-1.9,1-3.3
			c0.1-1.4-0.1-2.6-0.5-3.8s-1-1.9-1.6-2.2c-0.1,0-0.2-0.1-0.4-0.1c0,0-0.1,0-0.2,0C113.1,10.5,113.1,10.5,113.1,10.5z"/>
		<path id="XMLID_74_" class="st4" d="M119.3,13.1v8.6c0,0.1-0.1,0.3-0.2,0.4c-0.1,0.1-0.2,0.2-0.4,0.2c-0.1,0-0.3-0.1-0.4-0.2
			c-0.1-0.1-0.2-0.2-0.2-0.4V10c0-0.1,0.1-0.3,0.2-0.4c0.1-0.1,0.2-0.2,0.4-0.2c0.1,0,0.3,0.1,0.4,0.2c0.1,0.1,0.2,0.2,0.2,0.4v1.1
			c0.6-0.7,1.2-1.1,1.9-1.4c0.7-0.3,1.4-0.4,2-0.2c0.7,0.2,1.3,0.8,1.7,1.5c0.5,1,0.8,2.7,0.9,5.2c0,0.4,0,1.4,0,2.9s0,2.3,0,2.4
			s-0.1,0.3-0.2,0.4c-0.1,0.1-0.2,0.2-0.4,0.2s-0.3-0.1-0.4-0.2c-0.1-0.1-0.2-0.2-0.2-0.4c0-0.1,0-0.9,0-2.4s0-2.5,0-2.9
			c-0.1-2.3-0.3-3.9-0.8-4.7c-0.3-0.6-0.7-0.9-1.1-1.1c-0.4-0.1-0.9-0.1-1.3,0.1c-0.5,0.2-0.9,0.5-1.4,1
			C119.8,12.1,119.5,12.6,119.3,13.1L119.3,13.1z"/>
		<path id="XMLID_78_" class="st4" d="M133.9,10.6V4.9c0-0.1,0.1-0.3,0.2-0.4s0.2-0.2,0.4-0.2c0.1,0,0.3,0.1,0.4,0.2
			s0.2,0.2,0.2,0.4v11.3c0,0.3,0,0.6,0,0.9v4.5c0,0.1-0.1,0.3-0.2,0.4s-0.2,0.2-0.4,0.2c-0.1,0-0.3-0.1-0.4-0.2s-0.2-0.2-0.2-0.4
			v-1.1c-0.7,1-1.5,1.5-2.6,1.6s-2-0.3-2.8-1.2s-1.3-2.2-1.4-3.8c-0.1-1.2,0.1-2.5,0.4-3.6c0.3-1.2,0.9-2.1,1.7-2.9
			c0.6-0.6,1.2-0.9,1.9-1c0.7-0.1,1.3-0.1,1.8,0.2C133.2,10,133.6,10.2,133.9,10.6z M133.8,13c0-0.6-0.2-1-0.5-1.5
			c-0.3-0.4-0.6-0.7-1-0.9c-0.9-0.4-1.7-0.2-2.6,0.6c-0.7,0.7-1.1,1.5-1.4,2.5s-0.4,2.1-0.3,3.3c0.1,1.4,0.4,2.4,1.1,3.1
			c0.6,0.7,1.3,1,2.1,0.9c0.7-0.1,1.3-0.4,1.8-1.1c0.5-0.7,0.8-1.6,0.9-2.9v-0.8l0,0l0,0v-3C133.8,13.2,133.8,13.1,133.8,13z"/>
		<path id="XMLID_85_" class="st4" d="M143.7,13v3c0,0.1,0,0.1,0,0.2c0,0.2,0,0.4,0,0.7c0,1.8,0.1,3.4,0.1,4.7c0,0.1,0,0.3-0.1,0.4
			c-0.1,0.1-0.2,0.2-0.3,0.2s-0.3,0-0.4-0.1s-0.2-0.2-0.2-0.3l-0.1-1.3c-0.7,1.2-1.7,1.8-3,1.7c-1.1,0-2-0.5-2.8-1.4
			s-1.2-2.2-1.2-3.6c0-3,0.7-5.2,2.2-6.6c0.6-0.5,1.2-0.8,1.9-1c0.7-0.1,1.3,0,1.9,0.3c0.5,0.2,0.9,0.6,1.3,1.1
			c0.3,0.5,0.5,1,0.6,1.7c0,0.1,0,0.1,0,0.2v0.2v0.1V13L143.7,13L143.7,13z M142.6,13L142.6,13L142.6,13v-0.2l0,0
			c0-0.5-0.1-1-0.4-1.4c-0.2-0.4-0.5-0.7-0.9-0.8c-0.3-0.2-0.8-0.3-1.3-0.2s-1,0.3-1.4,0.7c-1.3,1.1-1.9,3.1-1.9,5.8
			c0,1.2,0.3,2.2,0.9,3c0.6,0.7,1.3,1.1,2,1.1s1.3-0.3,1.9-1s0.9-1.7,1-3.2L142.6,13L142.6,13z"/>
		<path id="XMLID_90_" class="st4" d="M146.5,10c0,1.3,0,3,0,5.2c1.1-2.8,2.6-4.7,4.7-5.8c0.1-0.1,0.2-0.1,0.4,0
			c0.1,0.1,0.2,0.1,0.3,0.3c0.1,0.1,0.1,0.2,0,0.4c-0.1,0.1-0.1,0.2-0.3,0.3c-1.3,0.7-2.4,1.7-3.2,3.1c-0.9,1.4-1.4,2.9-1.7,4.6
			c-0.1,0.4-0.1,1-0.1,1.7c0,0.9,0,1.5-0.1,1.8v0.1v0.1c0,0.1-0.1,0.2-0.2,0.2c-0.1,0.1-0.2,0.1-0.3,0.1c-0.1,0-0.2,0-0.3-0.1
			c-0.1-0.1-0.1-0.1-0.2-0.2c0,0,0-0.1-0.1-0.1c0-0.1,0-0.1,0-0.3s0-0.4,0-0.6c0-0.4,0-0.9,0-1.6s0-1.2,0-1.5
			c-0.1-4-0.1-6.6-0.1-7.7c0-0.1,0.1-0.2,0.2-0.3s0.2-0.1,0.4-0.1c0.1,0,0.3,0.1,0.4,0.2C146.5,9.8,146.5,9.9,146.5,10z"/>
		<path id="XMLID_93_" class="st4" d="M154.8,10c-0.3,2.8-0.5,5-0.5,6.6c0,1.4,0.2,2.5,0.5,3.3s0.7,1.2,1.2,1.2
			c0.4,0,0.8-0.3,1.2-0.8c0.4-0.5,0.7-1.2,1-2.1c0.5-1.4,0.8-2.9,0.9-4.5c0-0.4,0.1-0.9,0.1-1.6c0-0.7,0-1.1,0.1-1.4
			c0-0.1,0-0.1,0-0.2s0-0.2,0-0.3V10c0-0.1,0-0.2,0-0.3V9.6V9.5c0,0,0-0.1,0.1-0.1c0.1-0.1,0.2-0.2,0.3-0.2c0.2,0,0.3,0,0.5,0.2
			l0.1,0.1l0.1,0.2l0,0v0.1c0,1.6,0,4.4,0,8.3c-0.1,3.9,0,6.7,0,8.3c0,0.2,0,0.3-0.1,0.4s-0.2,0.2-0.4,0.2c-0.1,0-0.3,0-0.4-0.1
			s-0.2-0.2-0.2-0.3c-0.1-2-0.1-4.8,0-8.5l-0.1,0.4c-0.3,1-0.7,1.8-1.2,2.3c-0.6,0.8-1.3,1.1-2,1.2c-1,0-1.7-0.6-2.2-1.8
			c-0.3-0.9-0.5-2.1-0.5-3.7c0-1.5,0.1-3.7,0.5-6.7c0-0.2,0.1-0.3,0.2-0.4c0.1-0.1,0.2-0.1,0.4-0.1c0.1,0,0.3,0.1,0.3,0.2
			C154.8,9.8,154.8,9.9,154.8,10z"/>
		<path id="XMLID_95_" class="st4" d="M176.5,4.6c0.5,1,1.1,2.5,1.9,4.7c0.7,1.7,1.1,2.9,1.4,3.5l2.3-8.1c0-0.1,0.1-0.2,0.2-0.3
			s0.3-0.1,0.4,0c0.1,0,0.2,0.1,0.3,0.3c0.1,0.1,0.1,0.3,0,0.4l-4.8,16.7c0,0.1-0.1,0.2-0.2,0.3s-0.2,0.1-0.4,0.1s-0.2-0.1-0.3-0.2
			c-0.1-0.1-0.1-0.2-0.1-0.4l2.1-7.2c-0.4-0.9-1.1-2.4-1.9-4.6c-0.8-2.1-1.5-3.6-1.9-4.6c-0.1-0.1-0.1-0.3,0-0.4s0.1-0.2,0.3-0.3
			c0.1-0.1,0.3-0.1,0.4,0C176.3,4.4,176.4,4.5,176.5,4.6z"/>
		<path id="XMLID_97_" class="st4" d="M186.2,21.5c1.1-5,2-8.4,2.5-10.4c0.6-2.2,1-3.7,1.1-4.3c0.1-0.5,0.2-1,0.4-1.3
			c0.1-0.2,0.1-0.3,0.1-0.5c0-0.1,0.1-0.1,0.1-0.2V4.7c0,0,0-0.1,0.1-0.1c0.1-0.1,0.1-0.1,0.2-0.2c0.2-0.1,0.4,0,0.5,0.1
			s0.2,0.2,0.2,0.4c0.1,0.1,0.1,0.3,0.2,0.5c0.1,0.3,0.2,0.7,0.3,1.2l0.2,0.8c0.1,0.3,0.1,0.5,0.1,0.7s0,0.3,0.1,0.3l0.7,3.2
			l0.8,3.4c0.2,0.8,0.4,1.8,0.7,3.1c0.3,1.2,0.6,2.3,0.8,3.3c0,0.1,0,0.3-0.1,0.4S195,22,194.9,22s-0.3,0-0.4-0.1s-0.2-0.2-0.2-0.3
			c-0.4-1.4-0.8-3.1-1.2-4.9H193c-2.3,0-3.8,0-4.6,0.1l-1.1,4.8c0,0.2-0.1,0.3-0.2,0.3c-0.1,0.1-0.2,0.1-0.4,0.1
			c-0.1,0-0.2-0.1-0.3-0.2C186.2,21.7,186.2,21.6,186.2,21.5z M188.6,15.9c0.7,0,2.1-0.1,4.2-0.1l-1.6-7.2c0,0,0-0.1-0.1-0.3
			L191,7.6l-0.2-0.8V6.7L190.7,7c-0.2,0.6-0.5,2.1-1.1,4.3C189.3,12.6,189,14.2,188.6,15.9z"/>
		<path id="XMLID_122_" class="st4" d="M204.1,22.2L204.1,22.2c-0.2,0-0.3-0.1-0.4-0.2s-0.2-0.2-0.2-0.4V4.8c0-0.1,0.1-0.3,0.2-0.4
			s0.2-0.2,0.4-0.2c0.1,0,0.3,0.1,0.4,0.2s0.2,0.2,0.2,0.4v16.4c0.6,0,1.5,0,2.9,0s2.3,0,2.9,0c0.1,0,0.2,0.1,0.3,0.2
			c0.1,0.1,0.1,0.2,0.1,0.4c0,0.1-0.1,0.3-0.2,0.4s-0.2,0.1-0.4,0.1c-0.7,0-1.7,0-3.1,0C205.9,22.3,204.8,22.3,204.1,22.2
			C204.2,22.2,204.1,22.2,204.1,22.2z"/>
		<path id="XMLID_124_" class="st4" d="M213.3,6.1c0.1,0.1,0.2,0.2,0.2,0.4c0,0.1-0.1,0.3-0.2,0.4c-0.1,0.1-0.2,0.2-0.4,0.2
			s-0.3-0.1-0.4-0.2c-0.1-0.1-0.2-0.2-0.2-0.4c0-0.1,0.1-0.3,0.2-0.4c0.1-0.1,0.2-0.2,0.4-0.2S213.2,6,213.3,6.1z M213.4,10
			c0,0.9,0,2.1,0,3.7s0,3,0,4.3s0,2.5-0.1,3.7c0,0.1-0.1,0.2-0.2,0.3s-0.2,0.1-0.4,0.1c-0.1,0-0.3-0.1-0.4-0.2
			c-0.1-0.1-0.1-0.2-0.1-0.4c0.1-1.1,0.1-2.3,0.1-3.6s0-2.7,0-4.3s0-2.8,0-3.7c0-0.1,0.1-0.3,0.2-0.4s0.2-0.2,0.4-0.2
			s0.3,0.1,0.4,0.2S213.4,9.8,213.4,10z"/>
		<path id="XMLID_127_" class="st4" d="M217.2,9.4c-0.9,0-1.6,0-2,0c-0.1,0-0.3-0.1-0.4-0.2s-0.2-0.2-0.2-0.4s0.1-0.3,0.2-0.4
			s0.2-0.2,0.4-0.2c0.4,0,1.1,0,2,0c0-1.2,0-2.4-0.1-3.4c0-0.2,0-0.3,0.1-0.4s0.2-0.2,0.4-0.2c0.1,0,0.3,0,0.4,0.1s0.2,0.2,0.2,0.3
			c0,1.1,0.1,2.2,0.1,3.5c0.8,0,1.4,0,2,0c0.1,0,0.2,0.1,0.3,0.2c0.1,0.1,0.1,0.2,0.1,0.4c0,0.1-0.1,0.3-0.2,0.4
			c-0.1,0.1-0.2,0.1-0.4,0.1h-1.9c0,1.2,0,3.1,0,5.9c0,2.8,0,4.9,0,6.4c0,0.1,0,0.3-0.1,0.4c-0.1,0.1-0.2,0.2-0.4,0.2
			c-0.1,0-0.3,0-0.4-0.1s-0.2-0.2-0.2-0.4c0-1.5,0-3.6,0-6.3C217.2,12.6,217.2,10.6,217.2,9.4z"/>
		<path id="XMLID_129_" class="st4" d="M228.6,15.2c-1,0-3-0.1-6-0.1c-0.1,2.5,0.3,4.2,1.2,5.1c0.9,1,2,1.2,3.1,0.8
			c0.5-0.2,0.9-0.4,1.2-0.8c0.3-0.4,0.5-0.8,0.6-1.2c0-0.1,0.1-0.2,0.2-0.3s0.2-0.1,0.4-0.1c0.1,0,0.2,0.1,0.3,0.2
			c0.1,0.1,0.1,0.2,0.1,0.4c-0.1,0.6-0.4,1.2-0.9,1.7s-1,0.9-1.6,1.1c-0.6,0.3-1.3,0.3-2.1,0.2c-0.8-0.2-1.4-0.6-2.1-1.2
			c-1.2-1.2-1.7-3.3-1.5-6.2c0.1-1.4,0.5-2.6,1.2-3.6s1.5-1.6,2.5-1.7c1-0.2,1.9,0.2,2.6,1.1c0.7,0.9,1.2,2.2,1.3,4
			c0,0.1,0,0.1-0.1,0.2C229,15.1,228.8,15.2,228.6,15.2z M222.6,14.1c2.7,0,4.5,0,5.4,0c-0.2-1.3-0.5-2.3-1-3
			c-0.5-0.6-1-0.8-1.7-0.7c-0.6,0.1-1.1,0.5-1.7,1.1C223.2,12.3,222.8,13.1,222.6,14.1z"/>
		<path id="XMLID_132_" class="st4" d="M232.3,10c0,1.3,0,3,0,5.2c1.1-2.8,2.6-4.7,4.7-5.8c0.1-0.1,0.2-0.1,0.4,0s0.2,0.1,0.3,0.3
			c0.1,0.1,0.1,0.2,0,0.4c-0.1,0.1-0.1,0.2-0.3,0.3c-1.3,0.7-2.3,1.7-3.2,3.1c-0.9,1.4-1.4,2.9-1.7,4.6c-0.1,0.4-0.1,1-0.1,1.7
			c0,0.9,0,1.5-0.1,1.8v0.1v0.1c0,0.1-0.1,0.2-0.2,0.2c-0.1,0.1-0.2,0.1-0.3,0.1c-0.1,0-0.2,0-0.3-0.1c-0.1-0.1-0.1-0.1-0.2-0.2
			c0,0,0-0.1-0.1-0.1c0-0.1,0-0.1,0-0.3s0-0.4,0-0.6c0-0.4,0-0.9,0-1.6s0-1.2,0-1.5c-0.1-4-0.1-6.6-0.1-7.7c0-0.1,0.1-0.2,0.2-0.3
			s0.2-0.1,0.4-0.1s0.3,0.1,0.4,0.2C232.3,9.8,232.3,9.9,232.3,10z"/>
		<path id="XMLID_134_" class="st4" d="M246.6,13v3c0,0.1,0,0.1,0,0.2c0,0.2,0,0.4,0,0.7c0,1.8,0.1,3.4,0.1,4.7c0,0.1,0,0.3-0.1,0.4
			c-0.1,0.1-0.2,0.2-0.3,0.2s-0.3,0-0.4-0.1s-0.2-0.2-0.2-0.3l-0.1-1.3c-0.7,1.2-1.7,1.8-3,1.7c-1.1,0-2-0.5-2.8-1.4
			s-1.2-2.2-1.2-3.6c0-3,0.7-5.2,2.2-6.6c0.6-0.5,1.2-0.8,1.9-1c0.7-0.2,1.3,0,1.9,0.3c0.5,0.2,0.9,0.6,1.3,1.1
			c0.3,0.5,0.5,1,0.6,1.7c0,0.1,0,0.1,0,0.2v0.2v0.1V13L246.6,13L246.6,13z M245.6,13L245.6,13L245.6,13v-0.2l0,0
			c0-0.5-0.1-1-0.4-1.4c-0.2-0.4-0.5-0.7-0.9-0.8c-0.3-0.2-0.8-0.3-1.3-0.2s-1,0.3-1.4,0.7c-1.3,1.1-1.9,3.1-1.9,5.8
			c0,1.2,0.3,2.2,0.9,3c0.6,0.7,1.3,1.1,2,1.1s1.3-0.3,1.9-1s0.9-1.7,1-3.2L245.6,13L245.6,13z"/>
		<path id="XMLID_137_" class="st4" d="M253.9,12.4c-0.4-0.8-0.9-1.4-1.3-1.6c-0.4-0.2-0.8-0.2-1.2-0.1c-0.5,0.2-0.9,0.5-1.3,1.1
			c-0.4,0.5-0.7,1.2-1,1.9c-0.2,0.7-0.4,1.5-0.4,2.4s0.1,1.7,0.3,2.5c0.3,1,0.7,1.8,1.4,2.2c0.6,0.4,1.3,0.5,1.9,0.4
			c0.7-0.2,1.3-0.6,1.8-1.2c0.5-0.7,0.7-1.5,0.7-2.5c0-0.1,0.1-0.3,0.2-0.4c0.1-0.1,0.2-0.2,0.4-0.2s0.3,0.1,0.4,0.2
			c0.1,0.1,0.2,0.2,0.2,0.4c0,1.2-0.3,2.3-0.9,3.1s-1.4,1.4-2.3,1.6c-1,0.2-1.9,0.1-2.7-0.5c-0.8-0.6-1.4-1.5-1.8-2.8
			c-0.2-0.8-0.3-1.7-0.3-2.7s0.2-1.9,0.4-2.7c0.3-0.8,0.7-1.6,1.2-2.3s1.1-1.1,1.7-1.4c0.7-0.3,1.4-0.3,2.1,0.1s1.3,1,1.8,2.1
			c0.1,0.1,0.1,0.3,0,0.4s-0.1,0.2-0.3,0.3s-0.3,0.1-0.4,0C254,12.6,253.9,12.5,253.9,12.4z"/>
		<path id="XMLID_139_" class="st4" d="M258.5,10c-0.3,2.8-0.5,5-0.5,6.6c0,1.4,0.2,2.5,0.5,3.3s0.7,1.2,1.2,1.2
			c0.4,0,0.8-0.3,1.2-0.8c0.4-0.5,0.7-1.2,1-2.1c0.5-1.4,0.8-2.9,0.9-4.5c0-0.4,0.1-0.9,0.1-1.6c0-0.7,0-1.1,0.1-1.4
			c0-0.1,0-0.1,0-0.2s0-0.2,0-0.3V10c0-0.1,0-0.2,0-0.3V9.6V9.5c0,0,0-0.1,0.1-0.1c0.1-0.1,0.2-0.2,0.3-0.2c0.2,0,0.3,0,0.5,0.2
			l0.1,0.1l0.1,0.2l0,0v0.1c0,1.6,0,4.4,0,8.3c-0.1,3.9,0,6.7,0,8.3c0,0.2,0,0.3-0.1,0.4c-0.1,0.1-0.2,0.2-0.4,0.2
			c-0.2,0-0.3,0-0.4-0.1c-0.1-0.1-0.2-0.2-0.2-0.3c-0.1-2-0.1-4.8,0-8.5l-0.1,0.4c-0.3,1-0.7,1.8-1.2,2.3c-0.6,0.8-1.3,1.1-2,1.2
			c-1,0-1.7-0.6-2.2-1.8c-0.3-0.9-0.5-2.1-0.5-3.7c0-1.5,0.1-3.7,0.5-6.7c0-0.2,0.1-0.3,0.2-0.4c0.1-0.1,0.2-0.1,0.4-0.1
			c0.1,0,0.3,0.1,0.3,0.2C258.5,9.8,258.5,9.9,258.5,10z"/>
		<path id="XMLID_172_" class="st4" d="M282.2,5.6c0.7,0,1.8,0,3.3,0s2.6,0,3.4,0.1c0.1,0,0.2,0.1,0.3,0.2c0.1,0.1,0.1,0.2,0.1,0.4
			c0,0.1-0.1,0.3-0.2,0.4c-0.1,0.1-0.2,0.1-0.4,0.1c-0.7,0-1.8-0.1-3.2-0.1c-1.4,0-2.4,0-2.9,0v7c0.6,0,1.6,0,2.8,0
			c1.3,0,2.2,0,2.8,0c0.2,0,0.3,0.1,0.4,0.2c0.1,0.1,0.1,0.2,0.1,0.4c0,0.1-0.1,0.3-0.2,0.4c-0.1,0.1-0.2,0.1-0.4,0.1
			c-0.6,0-1.6,0-2.8,0c-1.3,0-2.2,0-2.8,0v7.7c1.5,0,3.5,0.1,5.9,0.1c0.1,0,0.3,0.1,0.4,0.2c0.1,0.1,0.2,0.2,0.2,0.4
			s-0.1,0.3-0.2,0.4c-0.1,0.1-0.2,0.2-0.4,0.2c-2.6,0-4.8,0-6.4-0.1c-0.1,0-0.2,0-0.3-0.1s-0.1-0.2-0.2-0.3c0-0.1,0-0.1,0-0.2V6.2
			l0,0l0,0c0-0.1,0.1-0.2,0.2-0.3C281.8,5.8,282.1,5.6,282.2,5.6L282.2,5.6z"/>
		<path id="XMLID_174_" class="st4" d="M297.6,14.3c0.1,0.7,0.1,1.6,0.1,2.7c0,0.6,0,1.4,0,2.5s0,1.9,0,2.2c0,0.2,0,0.3-0.1,0.4
			c-0.1,0.1-0.2,0.2-0.4,0.2c-0.1,0-0.3,0-0.4-0.1c-0.1-0.1-0.2-0.2-0.2-0.3c0-0.4,0-1.1,0-2.3s0-2,0-2.6c0-1.1,0-2-0.1-2.6
			c-0.1-0.8-0.2-1.4-0.3-1.7c-0.3-0.6-0.6-0.9-1-1c-0.4-0.1-0.8-0.1-1.2,0.1c-0.5,0.2-0.9,0.5-1.3,1c-0.4,0.4-0.7,0.9-0.8,1.3
			c0,0,0,0,0,0.1V23c0,0.1-0.1,0.3-0.2,0.4c-0.1,0.1-0.2,0.2-0.4,0.2c-0.2,0-0.3-0.1-0.4-0.2c-0.1-0.1-0.2-0.2-0.2-0.4V11.3
			c0-0.1,0.1-0.3,0.2-0.4c0.1-0.1,0.2-0.2,0.4-0.2c0.2,0,0.3,0.1,0.4,0.2c0.1,0.1,0.2,0.2,0.2,0.4v0.9c0.5-0.6,1-1,1.6-1.3
			c0.7-0.3,1.3-0.4,1.9-0.2c0.7,0.2,1.2,0.8,1.6,1.6c0.1,0.1,0.1,0.3,0.2,0.4c0.6-0.8,1.2-1.4,2-1.7c0.7-0.3,1.3-0.4,1.9-0.2
			c0.7,0.2,1.2,0.7,1.6,1.5c0.2,0.4,0.4,1.1,0.5,2.1c0.1,0.8,0.2,1.8,0.2,3c0.1,2,0.1,3.9,0,5.5c0,0.1-0.1,0.2-0.2,0.3
			c-0.1,0.1-0.2,0.1-0.4,0.1c-0.2,0-0.2-0.1-0.3-0.2c-0.1-0.1-0.1-0.2-0.1-0.4c0.1-1.6,0.1-3.4,0-5.4c0-1.2-0.1-2.2-0.2-2.9
			c-0.1-0.9-0.2-1.5-0.4-1.8c-0.3-0.5-0.6-0.9-1-1c-0.4-0.1-0.8,0-1.2,0.2s-0.9,0.5-1.2,1c-0.4,0.4-0.7,0.9-0.8,1.3
			C297.6,14.3,297.6,14.3,297.6,14.3z"/>
		<path id="XMLID_176_" class="st4" d="M306.2,22.7v5.2c0,0.1-0.1,0.3-0.2,0.4c-0.1,0.1-0.2,0.2-0.4,0.2c-0.2,0-0.3-0.1-0.4-0.2
			c-0.1-0.1-0.2-0.2-0.2-0.4V11.2c0-0.1,0.1-0.3,0.2-0.4c0.1-0.1,0.2-0.2,0.4-0.2c0.2,0,0.3,0.1,0.4,0.2c0.1,0.1,0.2,0.2,0.2,0.4
			v1.1c0.3-0.4,0.7-0.7,1.2-1c1.4-0.8,2.6-0.8,3.7,0c0.9,0.7,1.6,1.7,1.9,3.3c0.2,0.7,0.3,1.4,0.3,2.1s-0.1,1.4-0.2,2.1
			c-0.1,0.7-0.4,1.4-0.8,2c-0.4,0.6-0.8,1.1-1.4,1.5c-0.5,0.3-0.9,0.6-1.5,0.8c-0.5,0.2-1.1,0.3-1.7,0.2
			C307.3,23.3,306.7,23.1,306.2,22.7z M306.2,14.4v7c0.1,0,0.1,0.1,0.2,0.1c0.5,0.6,1.1,0.9,1.9,0.8c0.8,0,1.5-0.3,2.2-0.8
			c0.8-0.6,1.4-1.5,1.7-2.9c0.3-1.4,0.3-2.6-0.1-3.8c-0.3-1.3-0.8-2.2-1.5-2.7c-0.8-0.5-1.6-0.5-2.6,0.1c-0.7,0.4-1.2,1.1-1.6,2
			C306.3,14.3,306.3,14.3,306.2,14.4z"/>
		<path id="XMLID_179_" class="st4" d="M315.8,6.2c0.1,2.1,0.1,5.1,0.1,9s0,6.5,0,7.7c0,0.1,0,0.3-0.1,0.4c-0.1,0.1-0.2,0.2-0.4,0.2
			c-0.1,0-0.3,0-0.4-0.1c-0.1-0.1-0.2-0.2-0.2-0.4c0-1.3,0-3.8,0-7.7s0-6.9-0.1-9c0-0.2,0-0.3,0.1-0.4c0.1-0.1,0.2-0.2,0.4-0.2
			c0.1,0,0.3,0,0.4,0.1C315.8,5.9,315.8,6,315.8,6.2z"/>
		<path id="XMLID_181_" class="st4" d="M320.7,10.8c0.1-0.1,0.2-0.1,0.4-0.1c0.1,0,0.1,0,0.2,0c0.1,0,0.1,0,0.2,0c0.1,0,0.1,0,0.2,0
			c0.3,0,0.5,0.1,0.7,0.2c1,0.4,1.7,1.4,2.2,2.8c0.5,1.3,0.6,2.7,0.6,4.2c-0.1,1.6-0.5,2.9-1.1,3.8c-0.8,1.2-1.9,1.7-3.2,1.6
			c-1.2-0.1-2.1-0.9-2.8-2.3c-0.5-1.2-0.8-2.5-0.8-4.1c0.1-1.6,0.4-2.9,1-4.1C318.8,11.7,319.7,11,320.7,10.8z M321.2,11.8
			c-0.9,0.1-1.6,0.6-2.2,1.6c-0.5,1-0.8,2.2-0.9,3.6c0,1.4,0.2,2.7,0.7,3.7s1.1,1.6,2,1.7c0.9,0.1,1.7-0.3,2.3-1.1
			c0.6-0.8,0.9-1.9,1-3.3c0.1-1.4-0.1-2.6-0.5-3.8c-0.4-1.2-1-1.9-1.6-2.2c-0.1,0-0.2-0.1-0.4-0.1c0,0-0.1,0-0.2,0
			C321.3,11.8,321.2,11.8,321.2,11.8z"/>
		<path id="XMLID_184_" class="st4" d="M327.5,11.3c-0.3,2.8-0.5,5-0.5,6.6c0,1.4,0.2,2.5,0.5,3.3s0.7,1.2,1.2,1.2
			c0.4,0,0.8-0.3,1.2-0.8c0.4-0.5,0.7-1.2,1-2.1c0.5-1.4,0.8-2.9,0.9-4.5c0-0.4,0.1-0.9,0.1-1.6s0-1.1,0.1-1.4c0-0.1,0-0.1,0-0.2
			c0-0.1,0-0.2,0-0.3v-0.2c0-0.1,0-0.2,0-0.3v0.2v-0.1c0,0,0-0.1,0.1-0.1c0.1-0.1,0.2-0.2,0.3-0.2c0.2,0,0.3,0,0.5,0.2l0.1,0.1
			l0.1,0.2l0,0v0.1c0,1.6,0,4.4,0,8.3c-0.1,3.9,0,6.7,0,8.3c0,0.2,0,0.3-0.1,0.4c-0.1,0.1-0.2,0.2-0.4,0.2c-0.2,0-0.3,0-0.4-0.1
			c-0.1-0.1-0.2-0.2-0.2-0.3c-0.1-2-0.1-4.8,0-8.5l-0.1,0.4c-0.3,1-0.7,1.8-1.2,2.3c-0.6,0.8-1.3,1.1-2,1.2c-1,0-1.7-0.6-2.2-1.8
			c-0.3-0.9-0.5-2.1-0.5-3.7c0-1.5,0.1-3.7,0.5-6.7c0-0.2,0.1-0.3,0.2-0.4c0.1-0.1,0.2-0.1,0.4-0.1c0.1,0,0.3,0.1,0.3,0.2
			C327.5,11,327.6,11.2,327.5,11.3z"/>
		<path id="XMLID_186_" class="st4" d="M341.3,14.3c0.1,0.7,0.1,1.6,0.1,2.7c0,0.6,0,1.4,0,2.5s0,1.9,0,2.2c0,0.2,0,0.3-0.1,0.4
			c-0.1,0.1-0.2,0.2-0.4,0.2c-0.1,0-0.3,0-0.4-0.1c-0.1-0.1-0.2-0.2-0.2-0.3c0-0.4,0-1.1,0-2.3s0-2,0-2.6c0-1.1,0-2-0.1-2.6
			c-0.1-0.8-0.2-1.4-0.3-1.7c-0.3-0.6-0.6-0.9-1-1c-0.4-0.1-0.8-0.1-1.2,0.1c-0.5,0.2-0.9,0.5-1.3,1c-0.4,0.4-0.7,0.9-0.8,1.3
			c0,0,0,0,0,0.1V23c0,0.1-0.1,0.3-0.2,0.4c-0.1,0.1-0.2,0.2-0.4,0.2c-0.2,0-0.3-0.1-0.4-0.2c-0.1-0.1-0.2-0.2-0.2-0.4V11.3
			c0-0.1,0.1-0.3,0.2-0.4c0.1-0.1,0.2-0.2,0.4-0.2c0.2,0,0.3,0.1,0.4,0.2c0.1,0.1,0.2,0.2,0.2,0.4v0.9c0.5-0.6,1-1,1.6-1.3
			c0.7-0.3,1.3-0.4,1.9-0.2c0.7,0.2,1.2,0.8,1.6,1.6c0.1,0.1,0.1,0.3,0.2,0.4c0.6-0.8,1.2-1.4,2-1.7c0.7-0.3,1.3-0.4,1.9-0.2
			c0.7,0.2,1.2,0.7,1.6,1.5c0.2,0.4,0.4,1.1,0.5,2.1c0.1,0.8,0.2,1.8,0.2,3c0.1,2,0.1,3.9,0,5.5c0,0.1-0.1,0.2-0.2,0.3
			c-0.1,0.1-0.2,0.1-0.4,0.1c-0.2,0-0.2-0.1-0.3-0.2c-0.1-0.1-0.1-0.2-0.1-0.4c0.1-1.6,0.1-3.4,0-5.4c0-1.2-0.1-2.2-0.2-2.9
			c-0.1-0.9-0.2-1.5-0.4-1.8c-0.3-0.5-0.6-0.9-1-1c-0.4-0.1-0.8,0-1.2,0.2s-0.9,0.5-1.2,1c-0.4,0.4-0.7,0.9-0.8,1.3
			C341.4,14.3,341.4,14.3,341.3,14.3z"/>
		<path id="XMLID_188_" class="st4" d="M355.8,16.5c-1,0-3-0.1-6-0.1c-0.1,2.5,0.3,4.2,1.2,5.1c0.9,1,2,1.2,3.1,0.8
			c0.5-0.2,0.9-0.4,1.2-0.8c0.3-0.4,0.5-0.8,0.6-1.2c0-0.1,0.1-0.2,0.2-0.3c0.1-0.1,0.2-0.1,0.4-0.1c0.1,0,0.2,0.1,0.3,0.2
			c0.1,0.1,0.1,0.2,0.1,0.4c-0.1,0.6-0.4,1.2-0.9,1.7s-1,0.9-1.6,1.1c-0.6,0.3-1.3,0.3-2.1,0.2c-0.8-0.2-1.4-0.6-2.1-1.2
			c-1.2-1.2-1.7-3.3-1.5-6.2c0.1-1.4,0.5-2.6,1.2-3.6s1.5-1.6,2.5-1.7c1-0.2,1.9,0.2,2.6,1.1c0.7,0.9,1.2,2.2,1.3,4
			c0,0.1,0,0.1-0.1,0.2C356.3,16.3,356.1,16.5,355.8,16.5z M349.9,15.4c2.7,0,4.5,0,5.4,0c-0.2-1.3-0.5-2.3-1-3
			c-0.5-0.6-1-0.8-1.7-0.7c-0.6,0.1-1.1,0.5-1.7,1.1C350.4,13.5,350.1,14.4,349.9,15.4z"/>
		<path id="XMLID_191_" class="st4" d="M359.6,14.4V23c0,0.1-0.1,0.3-0.2,0.4c-0.1,0.1-0.2,0.2-0.4,0.2c-0.2,0-0.3-0.1-0.4-0.2
			c-0.1-0.1-0.2-0.2-0.2-0.4V11.3c0-0.1,0.1-0.3,0.2-0.4c0.1-0.1,0.2-0.2,0.4-0.2c0.2,0,0.3,0.1,0.4,0.2c0.1,0.1,0.2,0.2,0.2,0.4
			v1.1c0.6-0.7,1.2-1.1,1.9-1.4c0.7-0.3,1.4-0.4,2-0.2c0.7,0.2,1.3,0.8,1.7,1.5c0.5,1,0.8,2.7,0.9,5.2c0,0.4,0,1.4,0,2.9
			s0,2.3,0,2.4c0,0.1-0.1,0.3-0.2,0.4c-0.1,0.1-0.2,0.2-0.4,0.2c-0.1,0-0.3-0.1-0.4-0.2c-0.1-0.1-0.2-0.2-0.2-0.4c0-0.1,0-0.9,0-2.4
			s0-2.5,0-2.9c-0.1-2.3-0.3-3.9-0.8-4.7c-0.3-0.6-0.7-0.9-1.1-1.1c-0.4-0.1-0.9-0.1-1.3,0.1c-0.5,0.2-0.9,0.5-1.4,1
			C360.1,13.4,359.8,13.8,359.6,14.4L359.6,14.4z"/>
		<path id="XMLID_193_" class="st4" d="M369.9,10.7c-0.9,0-1.6,0-2,0c-0.1,0-0.3-0.1-0.4-0.2c-0.1-0.1-0.2-0.2-0.2-0.4
			s0.1-0.3,0.2-0.4c0.1-0.1,0.2-0.2,0.4-0.2c0.4,0,1.1,0,2,0c0-1.2,0-2.4-0.1-3.4c0-0.2,0-0.3,0.1-0.4c0.1-0.1,0.2-0.2,0.4-0.2
			c0.1,0,0.3,0,0.4,0.1c0.1,0.1,0.2,0.2,0.2,0.3c0,1.1,0.1,2.2,0.1,3.5c0.8,0,1.4,0,2,0c0.1,0,0.2,0.1,0.3,0.2
			c0.1,0.1,0.1,0.2,0.1,0.4c0,0.1-0.1,0.3-0.2,0.4c-0.1,0.1-0.2,0.1-0.4,0.1h-1.9c0,1.2,0,3.1,0,5.9c0,2.8,0,4.9,0,6.4
			c0,0.1,0,0.3-0.1,0.4c-0.1,0.1-0.2,0.2-0.4,0.2c-0.1,0-0.3,0-0.4-0.1c-0.1-0.1-0.2-0.2-0.2-0.4c0-1.5,0-3.6,0-6.3
			C369.9,13.9,369.9,11.9,369.9,10.7z"/>
	</g>
</g>
</svg>
