<?xml version="1.0" encoding="utf-8"?>
<!-- Generator: Adobe Illustrator 19.0.0, SVG Export Plug-In . SVG Version: 6.00 Build 0)  -->
<svg version="1.1" id="Layer_1" xmlns="http://www.w3.org/2000/svg" xmlns:xlink="http://www.w3.org/1999/xlink" x="0px" y="0px"
	 viewBox="0 0 427.7 196" style="enable-background:new 0 0 427.7 196;" xml:space="preserve">
<style type="text/css">
	.st0{fill:#FFFFFF;}
</style>
<g id="XMLID_391_">
	<path id="XMLID_392_" class="st0" d="M2.4,0.2c2.4,0,5.9,0.2,10.9,0.2s8.5,0.2,10.9,0.2c0.4,0,0.8,0.2,1,0.7c0.2,0.5,0.4,1,0.4,1.5
		c0,0.7-0.2,1-0.6,1.5c-0.4,0.2-0.8,0.5-1.2,0.5c-2.4-0.2-5.9-0.2-10.5-0.2s-7.7,0-9.7,0v28.7c2.2,0,5.1,0.2,9.3,0
		c4.2,0,7.1,0,9.3,0c0.6,0,1,0.2,1.2,0.7c0.2,0.5,0.4,1,0.4,1.5c0,0.7-0.2,1-0.6,1.5c-0.4,0.2-0.6,0.5-1.2,0.5c-2.2,0-5.1-0.2-9.3,0
		c-4.2,0-7.1,0-9.3,0v31.7c5,0.2,11.3,0.2,19.4,0.2c0.4,0,0.8,0.2,1.2,0.7c0.4,0.5,0.6,0.7,0.6,1.5c0,0.5-0.2,1-0.6,1.5
		c-0.4,0.5-0.6,0.7-1.2,0.7c-8.7,0-15.8-0.2-21-0.2c-0.4,0-0.8-0.2-1-0.5C0.6,73,0.2,72.5,0.2,72c0-0.2-0.2-0.5-0.2-0.7V3V2.7V2.5
		c0-0.5,0.2-1,0.6-1.2C1.6,0.2,2,0.2,2.4,0.2L2.4,0.2z"/>
	<path id="XMLID_395_" class="st0" d="M52.1,25.5V2.2c0-0.5,0.2-1,0.6-1.5C53.1,0.2,53.3,0,53.9,0c0.4,0,0.8,0.2,1.2,0.7
		c0.4,0.5,0.6,0.7,0.6,1.5v46.3c0,1.2,0,2.7,0,3.7v18.3c0,0.5-0.2,1-0.6,1.5c-0.4,0.5-0.6,0.7-1.2,0.7c-0.4,0-0.8-0.2-1.2-0.7
		c-0.4-0.5-0.6-0.7-0.6-1.5v-4.5c-2.2,4-5,6.2-8.5,6.7C40,73,37,71.5,34.3,67.8c-2.6-3.7-4.2-8.7-4.6-15.3
		c-0.2-5.2,0.2-10.1,1.2-14.8c1-4.7,2.8-8.7,5.3-11.9c1.8-2.2,4-3.7,6.1-4.2c2.2-0.5,4.2-0.2,6.1,0.7C49.9,23,50.9,24.3,52.1,25.5z
		 M51.9,35.6c-0.2-2.2-0.6-4.2-1.4-5.9c-1-1.7-2-3-3.2-3.7c-2.8-1.7-5.7-0.7-8.5,2.5c-2.2,2.7-3.8,6.2-4.6,10.4
		c-1,4.2-1.2,8.7-1,13.4c0.2,5.7,1.4,9.7,3.4,12.6c2,2.7,4.2,4.2,6.7,4c2.2-0.2,4.2-1.7,5.9-4.7c1.8-2.7,2.6-6.7,3-11.6v-3.7v-0.2
		v-0.2V36.1C51.9,36.1,51.9,35.9,51.9,35.6z"/>
	<path id="XMLID_398_" class="st0" d="M64.6,23.3c0,0.7-0.2,2.2-0.2,4.7L64,34.2c-0.4,6.2-0.4,11.6-0.4,16.1
		c0.2,5.9,0.6,10.6,1.8,13.9c1,3.2,2.4,4.7,4.2,4.7c1.4,0,3-1.2,4.2-3.2c1.2-2,2.2-4.7,3.2-8.4c1.4-5.7,2.2-11.6,2.6-18.3
		c0-1.2,0.2-3.2,0.2-5.7s0.2-4.5,0.2-5.7c0-0.2,0-0.7,0-1.2c0-0.7,0-1,0-1.2c0-0.5,0-0.7,0.2-1v-0.2c0-0.2,0.2-0.2,0.2-0.5
		c0.6-0.7,1-1,1.4-1.2c0.6-0.2,1.2,0.2,1.6,1l0.2,0.7V24v0.2c0.2,5.4,0.2,13.6,0.4,24S84,66.3,84,71c0,0.7-0.2,1.2-0.4,1.5
		c-0.2,0.5-0.6,0.7-1.2,0.7s-1-0.2-1.2-0.5c-0.4-0.2-0.6-0.7-0.6-1.2c-0.2-4-0.2-8.7-0.2-14.4c-0.2,0.7-0.2,1.2-0.4,1.7
		c-1,4.2-2.2,7.2-3.8,9.7c-2,3.2-4.2,4.7-6.5,4.7c-3.4,0.2-5.7-2.2-7.3-7.4c-1-3.7-1.8-8.7-1.8-15.1c-0.2-4.7,0-10.1,0.4-16.3
		l0.4-6.2c0.2-2.5,0.2-4.2,0.2-4.7c0-0.5,0.2-1,0.6-1.2c0.4-0.2,0.8-0.5,1.2-0.5s0.8,0.2,1,0.7C64.6,22,64.6,22.5,64.6,23.3z"/>
	<path id="XMLID_400_" class="st0" d="M107.1,32.9c-1.4-3.2-2.8-5.7-4.4-6.7c-1.4-0.7-2.6-0.7-4.2-0.2c-1.4,0.7-3,2.2-4.4,4.5
		c-1.4,2.2-2.4,4.7-3.2,7.7c-0.8,3-1.2,6.2-1.2,9.9s0.2,7.2,1,10.1c1,4.2,2.4,7.2,4.6,8.9c2,1.7,4.2,2.2,6.1,1.5
		c2.2-0.7,4.2-2.2,5.7-5.2c1.6-2.7,2.4-6.2,2.4-10.4c0-0.5,0.2-1,0.6-1.5c0.4-0.5,0.6-0.7,1.2-0.7c0.4,0,0.8,0.2,1.2,0.7
		c0.4,0.5,0.6,0.7,0.6,1.5c0,5.2-1,9.2-3,12.9c-2,3.5-4.6,5.7-7.7,6.7c-3.2,1-6.1,0.2-8.9-2s-4.6-6.2-5.7-11.4
		c-0.8-3.2-1.2-6.9-1-11.1c0-4.2,0.6-7.9,1.4-11.1c1-3.5,2.2-6.7,3.8-9.2c1.8-2.7,3.6-4.7,5.5-5.7c2.4-1.2,4.6-1.2,6.9,0.5
		c2.2,1.5,4.2,4.2,5.7,8.4c0.2,0.5,0.2,1.2,0.2,1.7c-0.2,0.5-0.4,1-1,1.2c-0.4,0.2-0.8,0.2-1.2,0.2
		C107.9,33.7,107.5,33.4,107.1,32.9z"/>
	<path id="XMLID_404_" class="st0" d="M142.2,35.6V48c0,0.2,0.2,0.5,0.2,0.7c0,0.7,0,1.7-0.2,2.7c0,7.2,0.2,13.6,0.4,19.3
		c0,0.5-0.2,1-0.4,1.5c-0.2,0.5-0.6,0.7-1,0.7s-0.8-0.2-1.2-0.5c-0.4-0.2-0.6-0.7-0.6-1.2l-0.2-5.4c-2.4,4.7-5.5,7.2-9.7,7.2
		c-3.4,0-6.5-2-8.9-5.9c-2.6-3.7-3.8-8.9-3.8-14.8c-0.2-12.4,2.4-21.3,7.3-26.7c1.8-2.2,4-3.5,6.1-4c2.2-0.5,4.2-0.2,6.1,1
		c1.8,1,3,2.5,4.2,4.5c1,2,1.8,4.2,2,6.7c0,0.2,0.2,0.5,0.2,0.7v0.7v0.5v0.2L142.2,35.6L142.2,35.6z M138.8,35.4L138.8,35.4v-0.2
		v-0.2v-0.2c0-2.2-0.6-4.2-1.2-5.7c-0.8-1.5-1.8-2.7-3-3.2c-1-0.7-2.6-1-4.2-0.7s-3.2,1.2-4.6,3c-4.2,4.7-6.1,12.6-6.1,23.8
		c0,5.2,1,9.2,3,12.1c2,3,4.2,4.5,6.5,4.7c2.2,0,4.4-1.2,6.1-4.2c1.8-2.7,3-7.2,3.2-13.1V35.4L138.8,35.4L138.8,35.4z"/>
	<path id="XMLID_409_" class="st0" d="M154.7,20.8c-3,0-5.3,0.2-6.5,0.2c-0.4,0-0.8-0.2-1.2-0.7c-0.4-0.5-0.6-0.7-0.6-1.5
		c0-0.5,0.2-1,0.6-1.5c0.4-0.5,0.6-0.7,1.2-0.7c1.4,0,3.6,0,6.5-0.2c0-4.9-0.2-9.7-0.2-14.1c0-0.7,0.2-1.2,0.4-1.5
		C155,0.2,155.4,0,156,0s1,0.2,1.2,0.5c0.4,0.2,0.6,0.7,0.6,1.2c0.2,4.5,0.2,9.2,0.2,14.1c2.6,0,4.6,0,6.5,0c0.4,0,0.8,0.2,1,0.7
		c0.2,0.5,0.4,1,0.4,1.5c0,0.7-0.2,1-0.6,1.5c-0.4,0.2-0.8,0.5-1.2,0.5h-6.3c0,4.7,0.2,12.9,0.2,24.3s0.2,20,0.2,26
		c0,0.5-0.2,1-0.4,1.5c-0.2,0.5-0.6,0.7-1.2,0.7s-1-0.2-1.2-0.5c-0.4-0.2-0.6-0.7-0.6-1.5c0-5.9-0.2-14.6-0.2-26
		C154.7,33.7,154.7,25.7,154.7,20.8z"/>
	<path id="XMLID_424_" class="st0" d="M174.1,6.9c0.4,0.5,0.6,0.7,0.6,1.5c0,0.5-0.2,1-0.6,1.5c-0.2,0.5-0.6,0.7-1.2,0.7
		c-0.4,0-0.8-0.2-1.2-0.7c-0.4-0.5-0.6-0.7-0.6-1.5c0-0.5,0.2-1,0.6-1.5s0.6-0.7,1.2-0.7C173.3,6.4,173.7,6.7,174.1,6.9z
		 M174.5,23.3c0,3.5,0,8.7,0.2,15.1c0.2,6.4,0.2,12.4,0.2,17.6s-0.2,10.1-0.2,15.1c0,0.5-0.2,1-0.6,1.2c-0.2,0.2-0.8,0.5-1.2,0.5
		c-0.4,0-0.8-0.2-1.2-0.7c-0.2-0.5-0.4-1-0.4-1.5c0.2-4.7,0.2-9.7,0.2-14.8s0-11.1-0.2-17.6s-0.2-11.4-0.2-15.1c0-0.5,0.2-1,0.6-1.5
		c0.4-0.5,0.6-0.7,1.2-0.7c0.4,0,0.8,0.2,1.2,0.7C174.5,22,174.5,22.5,174.5,23.3z"/>
	<path id="XMLID_427_" class="st0" d="M190.3,21.3c0.4-0.2,0.8-0.5,1.2-0.5c0.2,0,0.4,0.2,0.6,0.2s0.4,0,0.6,0s0.4,0,0.6,0
		c1,0.2,1.6,0.2,2.2,0.7c3.2,1.7,5.5,5.7,7.1,11.6c1.4,5.2,2.2,10.9,1.8,17.1c-0.4,6.4-1.6,11.6-3.8,15.6c-2.6,4.9-6.1,7.2-10.5,6.4
		c-4-0.5-6.9-3.7-9.1-9.2c-1.8-4.7-2.6-10.4-2.6-16.8c0.2-6.4,1.4-12.1,3.4-16.6C184,25,186.7,22.3,190.3,21.3z M191.7,25.2
		c-3,0.2-5.3,2.2-6.9,6.4c-1.8,4.2-2.8,9.2-3,14.8c-0.2,5.9,0.6,10.9,2.2,15.1c1.6,4.2,3.8,6.7,6.5,6.9c3,0.5,5.5-1,7.3-4.7
		c1.8-3.2,3-7.9,3.2-13.6s-0.2-10.9-1.6-15.6s-3.2-7.9-5.3-9.2c-0.2-0.2-0.6-0.2-1.2-0.2c-0.2,0-0.4,0-0.8-0.2
		C191.9,25.2,191.9,25.2,191.7,25.2z"/>
	<path id="XMLID_439_" class="st0" d="M212.3,36.1v35.1c0,0.5-0.2,1-0.6,1.5c-0.4,0.5-0.6,0.7-1.2,0.7c-0.4,0-0.8-0.2-1.2-0.7
		c-0.4-0.5-0.6-0.7-0.6-1.5v-48c0-0.5,0.2-1,0.6-1.5c0.4-0.5,0.6-0.7,1.2-0.7c0.4,0,0.8,0.2,1.2,0.7c0.4,0.5,0.6,0.7,0.6,1.5V28
		c1.8-2.7,3.8-4.7,6.1-5.7c2.4-1.2,4.6-1.5,6.5-0.7c2.4,1,4.2,3.2,5.7,6.2c1.8,4,2.6,11.1,3,21.3c0.2,1.7,0.2,5.7,0,11.9
		s-0.2,9.4-0.2,9.9c0,0.5-0.2,1-0.6,1.5c-0.4,0.5-0.6,0.7-1.2,0.7c-0.4,0-0.8-0.2-1.2-0.7c-0.4-0.5-0.6-0.7-0.6-1.5
		c0-0.5,0-3.7,0.2-9.7c0.2-6.2,0.2-10.1,0-11.6c-0.2-9.4-1-15.8-2.6-19.3c-1-2.2-2.2-3.7-3.8-4.5c-1.4-0.5-2.8-0.2-4.4,0.5
		s-3,2.2-4.6,4c-1.4,1.7-2.4,3.7-3,5.7C212.3,35.9,212.3,36.1,212.3,36.1z"/>
	<path id="XMLID_441_" class="st0" d="M283,35.6V48c0,0.2,0.2,0.5,0.2,0.7c0,0.7,0,1.7-0.2,2.7c0,7.2,0.2,13.6,0.4,19.3
		c0,0.5-0.2,1-0.4,1.5c-0.2,0.5-0.6,0.7-1,0.7s-0.8-0.2-1.2-0.5c-0.4-0.2-0.6-0.7-0.6-1.2l-0.2-5.4c-2.4,4.7-5.5,7.2-9.7,7.2
		c-3.4,0-6.5-2-8.9-5.9c-2.6-3.7-3.8-8.9-3.8-14.8c-0.2-12.4,2.4-21.3,7.3-26.7c1.8-2.2,4-3.5,6.1-4c2.2-0.5,4.2-0.2,6.1,1
		c1.8,1,3,2.5,4.2,4.5c1,2,1.8,4.2,2,6.7c0,0.2,0.2,0.5,0.2,0.7v0.7v0.5v0.2L283,35.6L283,35.6z M279.6,35.4L279.6,35.4v-0.2v-0.2
		v-0.2c0-2.2-0.6-4.2-1.2-5.7c-0.8-1.5-1.8-2.7-3-3.2c-1-0.7-2.6-1-4.2-0.7s-3.2,1.2-4.6,3c-4.2,4.7-6.1,12.6-6.1,23.8
		c0,5.2,1,9.2,3,12.1c2,3,4.2,4.5,6.5,4.7c2.2,0,4.4-1.2,6.1-4.2c1.8-2.7,3-7.2,3.2-13.1V35.4L279.6,35.4L279.6,35.4z"/>
	<path id="XMLID_444_" class="st0" d="M292.3,23.3c-0.2,5.2-0.2,12.4,0.2,21.3c3.4-11.4,8.5-19.1,15.4-23.8c0.4-0.2,0.8-0.2,1.2-0.2
		c0.4,0.2,0.8,0.5,1,1c0.2,0.5,0.2,1,0.2,1.5c-0.2,0.5-0.4,1-0.8,1.2c-4.2,2.7-7.7,6.9-10.5,12.6c-2.8,5.7-4.6,12.1-5.7,18.8
		c-0.2,1.7-0.4,4-0.4,6.7c0,3.7,0,6.2-0.2,7.7c0,0.2,0,0.2,0,0.5c0,0.2-0.2,0.2-0.2,0.2c-0.2,0.5-0.2,0.7-0.6,1
		c-0.4,0.2-0.6,0.5-1,0.5s-0.6-0.2-1-0.5c-0.2-0.2-0.4-0.5-0.6-0.7c0-0.2-0.2-0.2-0.2-0.5c0-0.2,0-0.7-0.2-1.2
		c0-0.7-0.2-1.7-0.2-2.5c0-1.5,0-3.7,0.2-6.4c0-2.7,0.2-4.9,0.2-6.2c-0.2-16.3-0.4-27-0.2-31.4c0-0.5,0.2-1,0.6-1.2
		c0.4-0.2,0.8-0.5,1.2-0.5c0.6,0,0.8,0.2,1.2,0.7C292.1,22.3,292.3,22.8,292.3,23.3z"/>
	<path id="XMLID_446_" class="st0" d="M325.7,21.3c0.4-0.2,0.8-0.5,1.2-0.5c0.2,0,0.4,0.2,0.6,0.2s0.4,0,0.6,0s0.4,0,0.6,0
		c1,0.2,1.6,0.2,2.2,0.7c3.2,1.7,5.5,5.7,7.1,11.6c1.4,5.2,2.2,10.9,1.8,17.1c-0.4,6.4-1.6,11.6-3.8,15.6c-2.6,4.9-6.1,7.2-10.5,6.4
		c-4-0.5-6.9-3.7-9.1-9.2c-1.8-4.7-2.6-10.4-2.6-16.8c0.2-6.4,1.4-12.1,3.4-16.6C319.4,25,322.2,22.3,325.7,21.3z M327.1,25.2
		c-3,0.2-5.3,2.2-6.9,6.4c-1.8,4.2-2.8,9.2-3,14.8c-0.2,5.9,0.6,10.9,2.2,15.1s3.8,6.7,6.5,6.9c3,0.5,5.5-1,7.3-4.7
		c1.8-3.2,3-7.9,3.2-13.6c0.2-5.7-0.2-10.9-1.6-15.6s-3.2-7.9-5.3-9.2c-0.2-0.2-0.6-0.2-1.2-0.2c-0.2,0-0.4,0-0.8-0.2
		C327.3,25.2,327.3,25.2,327.1,25.2z"/>
	<path id="XMLID_449_" class="st0" d="M348.3,23.3c0,0.7-0.2,2.2-0.2,4.7l-0.4,6.2c-0.4,6.2-0.4,11.6-0.4,16.1
		c0.2,5.9,0.6,10.6,1.8,13.9c1,3.2,2.4,4.7,4.2,4.7c1.4,0,3-1.2,4.2-3.2c1.2-2,2.2-4.7,3.2-8.4c1.4-5.7,2.2-11.6,2.6-18.3
		c0-1.2,0.2-3.2,0.2-5.7s0.2-4.5,0.2-5.7c0-0.2,0-0.7,0-1.2c0-0.7,0-1,0-1.2c0-0.5,0-0.7,0.2-1v-0.2c0-0.2,0.2-0.2,0.2-0.5
		c0.6-0.7,1-1,1.4-1.2c0.6-0.2,1.2,0.2,1.6,1l0.2,0.7V24v0.2c0.2,5.4,0.2,13.6,0.4,24c0.2,10.4,0.2,18.1,0.2,22.8
		c0,0.7-0.2,1.2-0.4,1.5c-0.2,0.5-0.6,0.7-1.2,0.7s-1-0.2-1.2-0.5c-0.4-0.2-0.6-0.7-0.6-1.2c-0.2-4-0.2-8.7-0.2-14.4
		c-0.2,0.7-0.2,1.2-0.4,1.7c-1,4.2-2.2,7.2-3.8,9.7c-2,3.2-4.2,4.7-6.5,4.7c-3.4,0.2-5.7-2.2-7.3-7.4c-1-3.7-1.8-8.7-1.8-15.1
		c-0.2-4.7,0-10.1,0.2-16.3l0.4-6.2c0.2-2.5,0.2-4.2,0.2-4.7c0-0.5,0.2-1,0.6-1.2s0.8-0.5,1.2-0.5s0.8,0.2,1,0.7
		C348.3,22,348.3,22.5,348.3,23.3z"/>
	<path id="XMLID_451_" class="st0" d="M376.4,36.1v35.1c0,0.5-0.2,1-0.6,1.5c-0.4,0.5-0.6,0.7-1.2,0.7c-0.4,0-0.8-0.2-1.2-0.7
		c-0.4-0.5-0.6-0.7-0.6-1.5v-48c0-0.5,0.2-1,0.6-1.5c0.4-0.5,0.6-0.7,1.2-0.7c0.4,0,0.8,0.2,1.2,0.7c0.4,0.5,0.6,0.7,0.6,1.5V28
		c1.8-2.7,3.8-4.7,6.1-5.7c2.4-1.2,4.6-1.5,6.5-0.7c2.4,1,4.2,3.2,5.7,6.2c1.8,4,2.6,11.1,3,21.3c0.2,1.7,0.2,5.7,0,11.9
		s-0.2,9.4-0.2,9.9c0,0.5-0.2,1-0.6,1.5c-0.4,0.5-0.6,0.7-1.2,0.7c-0.4,0-0.8-0.2-1.2-0.7c-0.4-0.5-0.6-0.7-0.6-1.5
		c0-0.5,0-3.7,0.2-9.7c0.2-6.2,0.2-10.1,0-11.6c-0.2-9.4-1-15.8-2.6-19.3c-1-2.2-2.2-3.7-3.8-4.5c-1.4-0.5-2.8-0.2-4.4,0.5
		c-1.6,0.7-3,2.2-4.6,4c-1.4,1.7-2.4,3.7-3,5.7C376.4,35.9,376.4,36.1,376.4,36.1z"/>
	<path id="XMLID_453_" class="st0" d="M424.1,25.5V2.2c0-0.5,0.2-1,0.6-1.5c0.4-0.5,0.6-0.7,1.2-0.7c0.4,0,0.8,0.2,1.2,0.7
		c0.4,0.5,0.6,0.7,0.6,1.5v46.3c0,1.2,0,2.7,0,3.7v18.3c0,0.5-0.2,1-0.6,1.5c-0.4,0.5-0.6,0.7-1.2,0.7c-0.4,0-0.8-0.2-1.2-0.7
		c-0.4-0.5-0.6-0.7-0.6-1.5v-4.5c-2.2,4-5,6.2-8.5,6.7c-3.6,0.2-6.5-1.2-9.3-4.9c-2.6-3.7-4.2-8.7-4.6-15.3
		c-0.2-5.2,0.2-10.1,1.2-14.8s2.8-8.7,5.3-11.9c1.8-2.2,4-3.7,6.1-4.2c2.2-0.5,4.2-0.2,6.1,0.7C422.2,23,423.2,24.3,424.1,25.5z
		 M424.1,35.6c-0.2-2.2-0.6-4.2-1.4-5.9c-1-1.7-2-3-3.2-3.7c-2.8-1.7-5.7-0.7-8.5,2.5c-2.2,2.7-3.8,6.2-4.6,10.4
		c-1,4.2-1.2,8.7-1,13.4c0.2,5.7,1.4,9.7,3.4,12.6c2,2.7,4.2,4.2,6.7,4c2.2-0.2,4.2-1.7,5.9-4.7c1.8-2.7,2.6-6.7,3-11.6v-3.7v-0.2
		v-0.2V36.1C424.1,36.1,424.1,35.9,424.1,35.6z"/>
	<path id="XMLID_456_" class="st0" d="M101.2,145.3c-3,0-5.3,0.2-6.5,0.2c-0.4,0-0.8-0.2-1.2-0.7s-0.6-0.7-0.6-1.5
		c0-0.5,0.2-1,0.6-1.5s0.6-0.7,1.2-0.7c1.4,0,3.6,0,6.5-0.2c0-4.9-0.2-9.7-0.2-14.1c0-0.7,0.2-1.2,0.4-1.5c0.2-0.5,0.6-0.7,1.2-0.7
		c0.6,0,1,0.2,1.2,0.5c0.4,0.2,0.6,0.7,0.6,1.2c0.2,4.5,0.2,9.2,0.2,14.1c2.6,0,4.6,0,6.5,0c0.4,0,0.8,0.2,1,0.7s0.4,1,0.4,1.5
		c0,0.7-0.2,1-0.6,1.5c-0.4,0.2-0.8,0.5-1.2,0.5h-6.1c0,4.7,0.2,12.9,0.2,24.3c0,11.4,0.2,20,0.2,26c0,0.5-0.2,1-0.4,1.5
		c-0.2,0.5-0.6,0.7-1.2,0.7s-1-0.2-1.2-0.5c-0.4-0.2-0.6-0.7-0.6-1.5c0-5.9-0.2-14.6-0.2-26C101.2,158.4,101.2,150.2,101.2,145.3z"
		/>
	<path id="XMLID_458_" class="st0" d="M121.4,167.3c0,10.1-0.2,19.6-0.2,28c0,0.5-0.2,1-0.6,1.5c-0.4,0.5-0.6,0.7-1.2,0.7
		c-0.4,0-0.8-0.2-1.2-0.7c-0.4-0.5-0.6-0.7-0.6-1.5c0-12.6,0.2-35.6,0.4-68.6c0-0.5,0.2-1,0.6-1.5c0.4-0.5,0.6-0.7,1.2-0.7
		c0.4,0,0.8,0.2,1.2,0.7c0.4,0.5,0.6,0.7,0.6,1.5c-0.2,17.3-0.2,27-0.2,29.2c1.8-3.2,3.8-5.9,6.1-7.7c2.8-2.2,5.3-2.7,7.9-1.7
		c2.8,1.2,5,4.2,6.5,8.9c1.2,3.5,1.8,10.1,2.2,20c0.2,6.7,0.2,13.4,0,20.5c0,0.5-0.2,1-0.6,1.2c-0.4,0.2-0.8,0.5-1.2,0.5
		c-0.6,0-0.8-0.2-1.2-0.7c-0.2-0.5-0.4-1-0.4-1.5c0.2-7.2,0.2-13.9,0-20.3c-0.2-9.2-1-15.3-1.8-18.6c-1.4-3.7-2.8-5.9-4.6-6.7
		c-1.6-0.7-3.2-0.2-5,1.2c-2,1.5-3.8,3.7-5.1,6.7c-1.4,3-2.4,5.7-2.8,8.7C121.6,166.8,121.4,167.1,121.4,167.3z"/>
	<path id="XMLID_460_" class="st0" d="M172.5,168.8c-3.4-0.2-9.9-0.2-19.8-0.2c-0.2,10.1,1,17.1,4.2,21c3,4,6.3,5.2,10.1,3.5
		c1.6-0.7,3-1.7,4.2-3.2c1-1.5,1.8-3.2,2.2-4.7c0.2-0.5,0.4-1,0.8-1.2c0.4-0.2,0.8-0.5,1.2-0.2c0.4,0.2,0.8,0.2,1,0.7s0.4,1,0.2,1.5
		c-0.4,2.5-1.4,4.7-3,6.7c-1.6,2-3.4,3.5-5.3,4.5c-2,1.2-4.4,1.2-6.9,0.7c-2.6-0.7-4.8-2.2-6.7-4.9c-3.8-4.9-5.3-13.4-5-25.2
		c0.2-5.7,1.6-10.6,3.8-14.6c2.2-4,5-6.4,8.1-7.2c3.4-0.7,6.1,0.7,8.5,4.2c2.4,3.7,3.8,9.2,4.4,16.6c0,0.2,0,0.7-0.2,1
		C173.7,168.5,173.3,169,172.5,168.8z M152.9,164.6c8.7,0,14.7,0,17.8,0.2c-0.6-5.4-1.6-9.4-3.4-12.1c-1.6-2.2-3.4-3.2-5.3-2.7
		s-3.8,2-5.3,4.7C154.7,156.9,153.5,160.4,152.9,164.6z"/>
	<path id="XMLID_463_" class="st0" d="M207.5,126.7c0.6,4.5,1.6,12.6,2.8,24.3c1.2,11.6,2.4,20.8,3.4,27.2c0.6,3.5,1,6.2,1.4,8.2
		c0.4,2,0.8,3.7,1,4.7l0.4,1.2c0.2-0.2,0.2-0.7,0.4-1.2c0.2-0.7,0.6-2.2,1-4.2c0.6-3.5,1-5.4,1.2-5.7c2.2-10.1,4.4-22.8,6.5-37.6
		c0.2-0.5,0.2-0.7,0.6-1.2c0.2-0.2,0.6-0.5,0.8-0.5c0.4-0.2,0.8,0,1.2,0.2c0.4,0.2,0.6,0.7,0.8,1.2c0.2,1,0.6,2.7,1,5.7l2,10.6
		l2.2,11.1c1.4,6.7,2.4,12.1,3.2,15.6c0.6,2.2,1,4,1.4,5.2c0.2,0.2,0.2,0.5,0.2,0.7c0.2-0.2,0.2-0.5,0.2-0.7
		c0.2-0.7,0.6-2.2,0.8-4.5c0.6-3.2,1-5.2,1-5.9c0.6-4.2,1.4-8.9,2.2-13.9c0.6-5.2,1.4-9.2,1.8-12.9l1.8-14.4l1.4-13.1
		c0-0.5,0.2-1,0.6-1.2c0.4-0.2,0.8-0.5,1.2-0.5s0.8,0.2,1,0.7c0.2,0.5,0.4,1,0.4,1.5l-1.4,13.1l-1.8,14.6c-0.4,3.5-1,7.7-1.8,12.9
		c-0.6,5.2-1.4,9.7-2.2,13.9c-0.2,0.7-0.4,2.7-1,5.9c-0.4,2.2-0.6,3.7-1,4.7c-0.4,1.7-0.8,2.7-1.4,3.5c-0.6,0.7-1,1-1.8,1
		c-0.6,0-1.2-0.2-1.8-0.7c-0.4-0.2-0.8-0.7-1-1.5c-0.2-0.5-0.4-1.2-0.6-2c-0.4-1.2-1-3.2-1.4-5.4c-1-3.7-2-9.2-3.4-16.1l-3.4-18.3
		c-1.8,10.9-3.6,20.5-5.3,28.7c-0.2,0.7-0.6,2.5-1,5.7c-0.4,2.2-0.6,3.7-1,4.7c-0.6,1.7-1,3-1.8,3.7c-0.6,0.7-1,1-1.8,1
		c-0.6,0-1.2-0.2-1.8-0.7c-0.4-0.2-0.8-0.7-1-1.7c-0.2-0.5-0.4-1.2-0.6-2.2c-0.4-1.2-0.8-3-1.2-5.2c-0.4-2-1-4.7-1.4-8.2
		c-1-6.2-2.2-15.3-3.4-27.2c-1.2-11.6-2.2-20-2.8-24.5c0-0.5,0-1,0.4-1.5c0.2-0.5,0.6-0.7,1-0.7c0.4-0.2,0.8,0,1.2,0.2
		C207.1,125.7,207.3,126.2,207.5,126.7z"/>
	<path id="XMLID_465_" class="st0" d="M266.9,145.8c0.4-0.2,0.8-0.5,1.2-0.5c0.2,0,0.4,0.2,0.6,0.2s0.4,0,0.6,0s0.4,0,0.6,0
		c1,0.2,1.6,0.2,2.2,0.7c3.2,1.7,5.5,5.7,7.1,11.6c1.4,5.2,2.2,10.9,1.8,17.1c-0.4,6.4-1.6,11.6-3.8,15.6c-2.6,4.9-6.1,7.2-10.5,6.4
		c-4-0.5-6.9-3.7-9.1-9.2c-1.8-4.7-2.6-10.4-2.6-16.8c0.2-6.4,1.4-12.1,3.4-16.6C260.6,149.2,263.6,146.5,266.9,145.8z M268.3,149.7
		c-3,0.2-5.3,2.2-6.9,6.4c-1.8,4.2-2.8,9.2-3,14.8c-0.2,5.9,0.6,10.9,2.2,15.1c1.6,4.2,3.8,6.7,6.5,6.9c3,0.5,5.5-1,7.3-4.7
		c1.8-3.2,3-7.9,3.2-13.6c0.2-5.7-0.2-10.9-1.6-15.6c-1.4-4.7-3.2-7.9-5.3-9.2c-0.2-0.2-0.6-0.2-1.2-0.2c-0.2,0-0.4,0-0.8-0.2
		C268.5,149.7,268.5,149.7,268.3,149.7z"/>
	<path id="XMLID_468_" class="st0" d="M288.9,147.8c-0.2,5.2-0.2,12.4,0.2,21.3c3.4-11.4,8.5-19.1,15.4-23.8
		c0.4-0.2,0.8-0.2,1.2-0.2c0.4,0.2,0.8,0.5,1,1c0.2,0.5,0.2,1,0.2,1.5c0,0.5-0.4,1-0.8,1.2c-4.2,2.7-7.7,6.9-10.5,12.6
		c-2.8,5.7-4.6,12.1-5.7,18.8c-0.2,1.7-0.4,4-0.4,6.7c0,3.7,0,6.2-0.2,7.7c0,0.2,0,0.2,0,0.5c0,0.2-0.2,0.2-0.2,0.2
		c-0.2,0.5-0.2,0.7-0.6,1c-0.4,0.2-0.6,0.5-1,0.5s-0.6-0.2-1-0.5c-0.2-0.2-0.4-0.5-0.6-0.7c0-0.2-0.2-0.2-0.2-0.5s0-0.7-0.2-1.2
		c0-0.7-0.2-1.7-0.2-2.5c0-1.5,0-3.7,0.2-6.4c0-2.7,0.2-4.9,0.2-6.2c-0.2-16.3-0.4-27-0.2-31.4c0-0.5,0.2-1,0.6-1.2s0.8-0.5,1.2-0.5
		c0.6,0,0.8,0.2,1.2,0.7C288.9,146.8,288.9,147.3,288.9,147.8z"/>
	<path id="XMLID_470_" class="st0" d="M315,127c0.2,8.7,0.4,21,0.4,36.9s0.2,26.5,0.2,31.7c0,0.5-0.2,1-0.4,1.5
		c-0.2,0.5-0.6,0.7-1.2,0.7s-1-0.2-1.2-0.5c-0.4-0.2-0.6-0.7-0.6-1.5c0-5.2-0.2-15.6-0.2-31.7s-0.2-28.2-0.4-36.6
		c0-0.7,0.2-1.2,0.4-1.5c0.2-0.5,0.6-0.7,1.2-0.7s1,0.2,1.2,0.5C315,126,315,126.2,315,127z"/>
	<path id="XMLID_472_" class="st0" d="M341.6,150v-23.3c0-0.5,0.2-1,0.6-1.5c0.4-0.5,0.6-0.7,1.2-0.7c0.4,0,0.8,0.2,1.2,0.7
		c0.4,0.5,0.6,0.7,0.6,1.5V173c0,1.2,0,2.7,0,3.7V195c0,0.5-0.2,1-0.6,1.5c-0.4,0.5-0.6,0.7-1.2,0.7c-0.4,0-0.8-0.2-1.2-0.7
		s-0.6-0.7-0.6-1.5v-4.5c-2.2,4-5,6.2-8.5,6.7c-3.6,0.2-6.5-1.2-9.3-4.9c-2.6-3.7-4.2-8.7-4.6-15.3c-0.2-5.2,0.2-10.1,1.2-14.8
		c1-4.7,2.8-8.7,5.3-11.9c1.8-2.2,4-3.7,6.1-4.2s4.2-0.2,6.1,0.7C339.4,147.5,340.8,148.5,341.6,150z M341.4,160.1
		c-0.2-2.2-0.6-4.2-1.4-5.9c-1-1.7-2-3-3.2-3.7c-2.8-1.7-5.7-0.7-8.5,2.5c-2.2,2.7-3.8,6.2-4.6,10.4c-1,4.2-1.2,8.7-1,13.4
		c0.2,5.7,1.4,9.7,3.4,12.6c2,2.7,4.2,4.2,6.7,4c2.2-0.2,4.2-1.7,5.9-4.7c1.8-3,2.6-6.7,3-11.6v-3.7V173v-0.2v-12.1
		C341.4,160.6,341.4,160.4,341.4,160.1z"/>
	<path id="XMLID_475_" class="st0" d="M352.7,192.5c0.4,0.5,0.6,0.7,0.6,1.5c0,0.5-0.2,1-0.6,1.5c-0.4,0.5-0.6,0.7-1.2,0.7
		c-0.4,0-0.8-0.2-1.2-0.7c-0.4-0.5-0.6-0.7-0.6-1.5c0-0.5,0.2-1,0.6-1.5c0.4-0.5,0.6-0.7,1.2-0.7
		C351.9,192.1,352.3,192.1,352.7,192.5z M353.5,127.2v56.4c0,0.5-0.2,1-0.6,1.5c-0.2,0.5-0.6,0.7-1.2,0.7c-0.4,0-0.8-0.2-1.2-0.7
		c-0.4-0.5-0.6-0.7-0.6-1.5v-56.4c0-0.5,0.2-1,0.6-1.5c0.2-0.5,0.6-0.7,1.2-0.7c0.4,0,0.8,0.2,1.2,0.7
		C353.3,126.2,353.5,126.7,353.5,127.2z"/>
</g>
</svg>
